<svg width="800" height="486" viewBox="0 0 800 486" fill="none" xmlns="http://www.w3.org/2000/svg">
<g clip-path="url(#clip0_442_362)">
<g filter="url(#filter0_dd_442_362)">
<rect x="538" y="78" width="80" height="80" rx="40" fill="#161632"/>
<rect x="539.5" y="79.5" width="77" height="77" rx="38.5" stroke="#C7C7D1" stroke-width="3"/>
</g>
<g filter="url(#filter1_dd_442_362)">
<rect x="394" y="78" width="80" height="80" rx="40" fill="#161632"/>
<rect x="395.5" y="79.5" width="77" height="77" rx="38.5" stroke="#C7C7D1" stroke-width="3"/>
</g>
<g filter="url(#filter2_dd_442_362)">
<rect x="250" y="78" width="80" height="80" rx="40" fill="#161632"/>
<rect x="251.5" y="79.5" width="77" height="77" rx="38.5" stroke="#C7C7D1" stroke-width="3"/>
</g>
<g filter="url(#filter3_dd_442_362)">
<rect x="106" y="78" width="80" height="80" rx="40" fill="#C7C7D1"/>
</g>
<path d="M250 118L235 109.34V126.66L250 118ZM186 119.5H236.5V116.5H186V119.5Z" fill="#E3E3E8"/>
<path d="M538 118L523 109.34V126.66L538 118ZM474 119.5H524.5V116.5H474V119.5Z" fill="#E3E3E8"/>
<path d="M394 118L379 109.34V126.66L394 118ZM330 119.5H380.5V116.5H330V119.5Z" fill="#E3E3E8"/>
<path d="M539.841 56V42.9091H541.784V44.9545H541.955C542.227 44.2557 542.668 43.7131 543.276 43.3267C543.884 42.9347 544.614 42.7386 545.466 42.7386C546.33 42.7386 547.048 42.9347 547.622 43.3267C548.202 43.7131 548.653 44.2557 548.977 44.9545H549.114C549.449 44.2784 549.952 43.7415 550.622 43.3438C551.293 42.9403 552.097 42.7386 553.034 42.7386C554.205 42.7386 555.162 43.1051 555.906 43.8381C556.651 44.5653 557.023 45.6989 557.023 47.2386V56H555.011V47.2386C555.011 46.2727 554.747 45.5824 554.219 45.1676C553.69 44.7528 553.068 44.5455 552.352 44.5455C551.432 44.5455 550.719 44.8239 550.213 45.3807C549.707 45.9318 549.455 46.6307 549.455 47.4773V56H547.409V47.0341C547.409 46.2898 547.168 45.6903 546.685 45.2358C546.202 44.7756 545.58 44.5455 544.818 44.5455C544.295 44.5455 543.807 44.6847 543.352 44.9631C542.903 45.2415 542.54 45.6278 542.261 46.1222C541.989 46.6108 541.852 47.1761 541.852 47.8182V56H539.841ZM565.643 56.2727C564.553 56.2727 563.589 55.9972 562.754 55.446C561.919 54.8892 561.266 54.1051 560.794 53.0938C560.322 52.0767 560.087 50.875 560.087 49.4886C560.087 48.1136 560.322 46.9205 560.794 45.9091C561.266 44.8977 561.922 44.1165 562.763 43.5653C563.604 43.0142 564.575 42.7386 565.678 42.7386C566.53 42.7386 567.203 42.8807 567.697 43.1648C568.197 43.4432 568.578 43.7614 568.839 44.1193C569.107 44.4716 569.314 44.7614 569.462 44.9886H569.632V42.9091H571.643V56H569.7V53.9886H569.462C569.314 54.2273 569.104 54.5284 568.831 54.892C568.558 55.25 568.169 55.571 567.663 55.8551C567.158 56.1335 566.484 56.2727 565.643 56.2727ZM565.916 54.4659C566.723 54.4659 567.405 54.2557 567.962 53.8352C568.518 53.4091 568.942 52.821 569.232 52.071C569.521 51.3153 569.666 50.4432 569.666 49.4545C569.666 48.4773 569.524 47.6222 569.24 46.8892C568.956 46.1506 568.536 45.5767 567.979 45.1676C567.422 44.7528 566.734 44.5455 565.916 44.5455C565.064 44.5455 564.354 44.7642 563.786 45.2017C563.223 45.6335 562.8 46.2216 562.516 46.9659C562.237 47.7045 562.098 48.5341 562.098 49.4545C562.098 50.3864 562.24 51.233 562.524 51.9943C562.814 52.75 563.24 53.3523 563.803 53.8011C564.371 54.2443 565.075 54.4659 565.916 54.4659ZM584.879 45.8409L583.072 46.3523C582.959 46.0511 582.791 45.7585 582.57 45.4744C582.354 45.1847 582.058 44.946 581.683 44.7585C581.308 44.571 580.828 44.4773 580.243 44.4773C579.442 44.4773 578.774 44.6619 578.24 45.0312C577.712 45.3949 577.447 45.858 577.447 46.4205C577.447 46.9205 577.629 47.3153 577.993 47.6051C578.357 47.8949 578.925 48.1364 579.697 48.3295L581.641 48.8068C582.811 49.0909 583.683 49.5256 584.257 50.1108C584.831 50.6903 585.118 51.4375 585.118 52.3523C585.118 53.1023 584.902 53.7727 584.47 54.3636C584.044 54.9545 583.447 55.4205 582.68 55.7614C581.913 56.1023 581.021 56.2727 580.004 56.2727C578.669 56.2727 577.564 55.983 576.689 55.4034C575.814 54.8239 575.26 53.9773 575.027 52.8636L576.936 52.3864C577.118 53.0909 577.462 53.6193 577.967 53.9716C578.479 54.3239 579.146 54.5 579.97 54.5C580.908 54.5 581.652 54.3011 582.203 53.9034C582.76 53.5 583.038 53.017 583.038 52.4545C583.038 52 582.879 51.6193 582.561 51.3125C582.243 51 581.754 50.767 581.095 50.6136L578.913 50.1023C577.714 49.8182 576.834 49.3778 576.271 48.7812C575.714 48.179 575.436 47.4261 575.436 46.5227C575.436 45.7841 575.643 45.1307 576.058 44.5625C576.479 43.9943 577.05 43.5483 577.771 43.2244C578.499 42.9006 579.322 42.7386 580.243 42.7386C581.538 42.7386 582.555 43.0227 583.294 43.5909C584.038 44.1591 584.567 44.9091 584.879 45.8409ZM593.839 42.9091V44.6136H587.055V42.9091H593.839ZM589.032 39.7727H591.043V52.25C591.043 52.8182 591.126 53.2443 591.29 53.5284C591.461 53.8068 591.677 53.9943 591.938 54.0909C592.205 54.1818 592.487 54.2273 592.782 54.2273C593.004 54.2273 593.185 54.2159 593.327 54.1932C593.469 54.1648 593.583 54.142 593.668 54.125L594.077 55.9318C593.941 55.983 593.751 56.0341 593.506 56.0852C593.262 56.142 592.952 56.1705 592.577 56.1705C592.009 56.1705 591.452 56.0483 590.907 55.804C590.367 55.5597 589.918 55.1875 589.56 54.6875C589.208 54.1875 589.032 53.5568 589.032 52.7955V39.7727ZM602.212 56.2727C600.951 56.2727 599.863 55.9943 598.948 55.4375C598.039 54.875 597.337 54.0909 596.843 53.0852C596.354 52.0739 596.11 50.8977 596.11 49.5568C596.11 48.2159 596.354 47.0341 596.843 46.0114C597.337 44.983 598.025 44.1818 598.906 43.608C599.792 43.0284 600.826 42.7386 602.008 42.7386C602.69 42.7386 603.363 42.8523 604.028 43.0795C604.692 43.3068 605.298 43.6761 605.843 44.1875C606.388 44.6932 606.823 45.3636 607.147 46.1989C607.471 47.0341 607.633 48.0625 607.633 49.2841V50.1364H597.542V48.3977H605.587C605.587 47.6591 605.44 47 605.144 46.4205C604.854 45.8409 604.44 45.3835 603.9 45.0483C603.366 44.7131 602.735 44.5455 602.008 44.5455C601.207 44.5455 600.513 44.7443 599.928 45.142C599.349 45.5341 598.903 46.0455 598.59 46.6761C598.278 47.3068 598.121 47.983 598.121 48.7045V49.8636C598.121 50.8523 598.292 51.6903 598.633 52.3778C598.979 53.0597 599.46 53.5795 600.073 53.9375C600.687 54.2898 601.4 54.4659 602.212 54.4659C602.741 54.4659 603.218 54.392 603.644 54.2443C604.076 54.0909 604.448 53.8636 604.761 53.5625C605.073 53.2557 605.315 52.875 605.485 52.4205L607.428 52.9659C607.224 53.625 606.88 54.2045 606.397 54.7045C605.914 55.1989 605.317 55.5852 604.607 55.8636C603.897 56.1364 603.099 56.2727 602.212 56.2727ZM610.692 56V42.9091H612.636V44.8864H612.772C613.011 44.2386 613.442 43.7131 614.067 43.3097C614.692 42.9062 615.397 42.7045 616.181 42.7045C616.329 42.7045 616.513 42.7074 616.735 42.7131C616.957 42.7187 617.124 42.7273 617.238 42.7386V44.7841C617.17 44.767 617.013 44.7415 616.769 44.7074C616.531 44.6676 616.278 44.6477 616.011 44.6477C615.374 44.6477 614.806 44.7812 614.306 45.0483C613.812 45.3097 613.42 45.6733 613.13 46.1392C612.846 46.5994 612.704 47.125 612.704 47.7159V56H610.692Z" fill="#E3E3E8"/>
<path d="M107.367 27.6289V27.834C107.367 28.5892 107.465 29.2956 107.66 29.9531C107.855 30.6042 108.135 31.1706 108.5 31.6523C108.858 32.1341 109.298 32.5117 109.818 32.7852C110.339 33.0586 110.922 33.1953 111.566 33.1953C111.951 33.1953 112.309 33.153 112.641 33.0684C112.973 32.9902 113.275 32.8763 113.549 32.7266C113.725 32.6289 113.887 32.515 114.037 32.3848C114.193 32.2546 114.34 32.1113 114.477 31.9551V32.8633C114.477 33.319 114.411 33.7227 114.281 34.0742C114.151 34.4258 113.965 34.7188 113.725 34.9531C113.477 35.194 113.181 35.3763 112.836 35.5C112.491 35.6237 112.104 35.6855 111.674 35.6855C111.433 35.6855 111.192 35.6595 110.951 35.6074C110.71 35.5618 110.469 35.4837 110.229 35.373C109.988 35.2624 109.75 35.1126 109.516 34.9238C109.281 34.7415 109.053 34.5169 108.832 34.25L107.895 35.334C108.135 35.679 108.422 35.9688 108.754 36.2031C109.092 36.4375 109.444 36.623 109.809 36.7598C110.167 36.903 110.521 37.0039 110.873 37.0625C111.225 37.1276 111.537 37.1602 111.811 37.1602C112.475 37.1602 113.08 37.0625 113.627 36.8672C114.174 36.6719 114.646 36.3854 115.043 36.0078C115.434 35.6302 115.736 35.1712 115.951 34.6309C116.173 34.0905 116.283 33.472 116.283 32.7754V22.4336H114.643L114.555 23.5859C114.431 23.4297 114.298 23.2865 114.154 23.1562C114.018 23.026 113.871 22.9121 113.715 22.8145C113.428 22.6257 113.106 22.4824 112.748 22.3848C112.396 22.2871 112.009 22.2383 111.586 22.2383C110.928 22.2383 110.339 22.3717 109.818 22.6387C109.298 22.9056 108.855 23.2767 108.49 23.752C108.126 24.2272 107.846 24.7969 107.65 25.4609C107.462 26.1185 107.367 26.8411 107.367 27.6289ZM109.174 27.834V27.6289C109.174 27.1146 109.226 26.6263 109.33 26.1641C109.441 25.6953 109.613 25.2819 109.848 24.9238C110.076 24.5723 110.368 24.2923 110.727 24.084C111.091 23.8757 111.527 23.7715 112.035 23.7715C112.335 23.7715 112.608 23.8105 112.855 23.8887C113.103 23.9603 113.327 24.0612 113.529 24.1914C113.731 24.3281 113.91 24.4876 114.066 24.6699C114.223 24.8522 114.359 25.054 114.477 25.2754V30.1191C114.359 30.347 114.223 30.5553 114.066 30.7441C113.91 30.9329 113.734 31.0957 113.539 31.2324C113.337 31.3691 113.109 31.4766 112.855 31.5547C112.608 31.6263 112.328 31.6621 112.016 31.6621C111.514 31.6621 111.085 31.5612 110.727 31.3594C110.368 31.151 110.076 30.8711 109.848 30.5195C109.613 30.168 109.441 29.7611 109.33 29.2988C109.226 28.8366 109.174 28.3483 109.174 27.834ZM119.994 22.4336V24.0059H123.588V31.4375H119.994V33H128.842V31.4375H125.395V22.4336H119.994ZM123.354 19.6602C123.354 19.9531 123.441 20.1973 123.617 20.3926C123.799 20.5879 124.073 20.6855 124.438 20.6855C124.796 20.6855 125.066 20.5879 125.248 20.3926C125.43 20.1973 125.521 19.9531 125.521 19.6602C125.521 19.4974 125.495 19.3477 125.443 19.2109C125.391 19.0742 125.313 18.9603 125.209 18.8691C125.124 18.7845 125.017 18.7194 124.887 18.6738C124.757 18.6217 124.607 18.5957 124.438 18.5957C124.268 18.5957 124.115 18.6217 123.979 18.6738C123.848 18.7194 123.741 18.7845 123.656 18.8691C123.552 18.9668 123.474 19.084 123.422 19.2207C123.376 19.3574 123.354 19.5039 123.354 19.6602ZM136 19.875H134.184V22.4336H131.41V23.8301H134.184V29.5723C134.184 30.2233 134.268 30.7799 134.438 31.2422C134.613 31.6979 134.851 32.069 135.15 32.3555C135.45 32.6484 135.801 32.8633 136.205 33C136.615 33.1302 137.055 33.1953 137.523 33.1953C137.803 33.1953 138.083 33.1823 138.363 33.1562C138.65 33.1302 138.92 33.0911 139.174 33.0391C139.428 32.9935 139.662 32.9382 139.877 32.873C140.092 32.8014 140.274 32.7201 140.424 32.6289L140.17 31.3496C140.059 31.3757 139.916 31.4082 139.74 31.4473C139.571 31.4798 139.389 31.5124 139.193 31.5449C138.992 31.5775 138.786 31.6068 138.578 31.6328C138.37 31.6523 138.168 31.6621 137.973 31.6621C137.706 31.6621 137.452 31.6296 137.211 31.5645C136.977 31.4993 136.768 31.3854 136.586 31.2227C136.404 31.0664 136.26 30.8548 136.156 30.5879C136.052 30.321 136 29.9824 136 29.5723V23.8301H140.023V22.4336H136V19.875ZM156.576 22.4336H154.955V33H156.674V24.5918C156.713 24.4876 156.762 24.39 156.82 24.2988C156.885 24.2077 156.96 24.1263 157.045 24.0547C157.156 23.9635 157.289 23.8952 157.445 23.8496C157.608 23.7975 157.797 23.7715 158.012 23.7715C158.207 23.7715 158.376 23.7975 158.52 23.8496C158.669 23.8952 158.793 23.9701 158.891 24.0742C158.995 24.1849 159.07 24.3249 159.115 24.4941C159.167 24.6634 159.193 24.8587 159.193 25.0801V33H160.912V25.0898C160.912 25.0508 160.912 25.0182 160.912 24.9922C160.912 24.9596 160.912 24.9271 160.912 24.8945C160.932 24.7318 160.971 24.5853 161.029 24.4551C161.088 24.3184 161.169 24.1979 161.273 24.0938C161.378 23.9961 161.508 23.918 161.664 23.8594C161.82 23.8008 162.006 23.7715 162.221 23.7715C162.423 23.7715 162.598 23.7975 162.748 23.8496C162.904 23.9017 163.035 23.9798 163.139 24.084C163.236 24.1947 163.311 24.3346 163.363 24.5039C163.415 24.6732 163.441 24.8685 163.441 25.0898V33H165.16V25.1094C165.16 24.6016 165.102 24.1621 164.984 23.791C164.867 23.4134 164.698 23.1074 164.477 22.873C164.275 22.6647 164.027 22.5085 163.734 22.4043C163.441 22.2936 163.113 22.2383 162.748 22.2383C162.481 22.2448 162.234 22.2806 162.006 22.3457C161.785 22.4108 161.583 22.4987 161.4 22.6094C161.257 22.707 161.124 22.821 161 22.9512C160.876 23.0814 160.769 23.2214 160.678 23.3711C160.606 23.2083 160.518 23.0618 160.414 22.9316C160.316 22.8014 160.206 22.6908 160.082 22.5996C159.913 22.4824 159.714 22.3945 159.486 22.3359C159.265 22.2708 159.014 22.2383 158.734 22.2383C158.24 22.2448 157.816 22.3522 157.465 22.5605C157.12 22.7689 156.84 23.0586 156.625 23.4297L156.576 22.4336ZM172.426 33.1953C173.454 33.1953 174.317 32.9902 175.014 32.5801C175.717 32.1634 176.244 31.6882 176.596 31.1543L175.492 30.2949C175.16 30.7246 174.743 31.0697 174.242 31.3301C173.741 31.5905 173.168 31.7207 172.523 31.7207C172.035 31.7207 171.589 31.6296 171.186 31.4473C170.782 31.265 170.437 31.0143 170.15 30.6953C169.87 30.3958 169.649 30.0508 169.486 29.6602C169.33 29.2695 169.229 28.8171 169.184 28.3027V28.2344H176.732V27.4238C176.732 26.6882 176.638 26.0046 176.449 25.373C176.267 24.7415 175.987 24.1914 175.609 23.7227C175.232 23.2604 174.757 22.8991 174.184 22.6387C173.617 22.3717 172.953 22.2383 172.191 22.2383C171.586 22.2383 170.993 22.362 170.414 22.6094C169.841 22.8568 169.33 23.2116 168.881 23.6738C168.425 24.1426 168.061 24.7155 167.787 25.3926C167.514 26.0632 167.377 26.8249 167.377 27.6777V28.0879C167.377 28.8236 167.501 29.5039 167.748 30.1289C167.995 30.7539 168.34 31.2943 168.783 31.75C169.226 32.2057 169.757 32.5605 170.375 32.8145C171 33.0684 171.684 33.1953 172.426 33.1953ZM172.191 23.7227C172.654 23.7227 173.051 23.8073 173.383 23.9766C173.721 24.1458 174.001 24.3672 174.223 24.6406C174.444 24.9141 174.617 25.2396 174.74 25.6172C174.864 25.9883 174.926 26.3366 174.926 26.6621V26.75H169.242C169.314 26.2617 169.438 25.832 169.613 25.4609C169.796 25.0833 170.017 24.7643 170.277 24.5039C170.538 24.25 170.831 24.0579 171.156 23.9277C171.482 23.791 171.827 23.7227 172.191 23.7227ZM186.693 22.2383C185.925 22.2383 185.238 22.4076 184.633 22.7461C184.034 23.0781 183.52 23.5339 183.09 24.1133L183.08 23.8496L183.002 22.4336H181.283V33H183.1V26.2227C183.217 25.8971 183.363 25.6042 183.539 25.3438C183.721 25.0768 183.933 24.8522 184.174 24.6699C184.441 24.4616 184.753 24.3053 185.111 24.2012C185.469 24.0905 185.87 24.0352 186.312 24.0352C186.658 24.0352 186.986 24.0547 187.299 24.0938C187.618 24.1263 187.953 24.1816 188.305 24.2598L188.549 22.4922C188.367 22.4141 188.093 22.3522 187.729 22.3066C187.37 22.2611 187.025 22.2383 186.693 22.2383ZM191.449 27.6289V27.834C191.449 28.5892 191.547 29.2956 191.742 29.9531C191.938 30.6042 192.217 31.1706 192.582 31.6523C192.94 32.1341 193.38 32.5117 193.9 32.7852C194.421 33.0586 195.004 33.1953 195.648 33.1953C196.033 33.1953 196.391 33.153 196.723 33.0684C197.055 32.9902 197.357 32.8763 197.631 32.7266C197.807 32.6289 197.969 32.515 198.119 32.3848C198.275 32.2546 198.422 32.1113 198.559 31.9551V32.8633C198.559 33.319 198.493 33.7227 198.363 34.0742C198.233 34.4258 198.048 34.7188 197.807 34.9531C197.559 35.194 197.263 35.3763 196.918 35.5C196.573 35.6237 196.186 35.6855 195.756 35.6855C195.515 35.6855 195.274 35.6595 195.033 35.6074C194.792 35.5618 194.551 35.4837 194.311 35.373C194.07 35.2624 193.832 35.1126 193.598 34.9238C193.363 34.7415 193.135 34.5169 192.914 34.25L191.977 35.334C192.217 35.679 192.504 35.9688 192.836 36.2031C193.174 36.4375 193.526 36.623 193.891 36.7598C194.249 36.903 194.604 37.0039 194.955 37.0625C195.307 37.1276 195.619 37.1602 195.893 37.1602C196.557 37.1602 197.162 37.0625 197.709 36.8672C198.256 36.6719 198.728 36.3854 199.125 36.0078C199.516 35.6302 199.818 35.1712 200.033 34.6309C200.255 34.0905 200.365 33.472 200.365 32.7754V22.4336H198.725L198.637 23.5859C198.513 23.4297 198.38 23.2865 198.236 23.1562C198.1 23.026 197.953 22.9121 197.797 22.8145C197.51 22.6257 197.188 22.4824 196.83 22.3848C196.479 22.2871 196.091 22.2383 195.668 22.2383C195.01 22.2383 194.421 22.3717 193.9 22.6387C193.38 22.9056 192.937 23.2767 192.572 23.752C192.208 24.2272 191.928 24.7969 191.732 25.4609C191.544 26.1185 191.449 26.8411 191.449 27.6289ZM193.256 27.834V27.6289C193.256 27.1146 193.308 26.6263 193.412 26.1641C193.523 25.6953 193.695 25.2819 193.93 24.9238C194.158 24.5723 194.451 24.2923 194.809 24.084C195.173 23.8757 195.609 23.7715 196.117 23.7715C196.417 23.7715 196.69 23.8105 196.938 23.8887C197.185 23.9603 197.41 24.0612 197.611 24.1914C197.813 24.3281 197.992 24.4876 198.148 24.6699C198.305 24.8522 198.441 25.054 198.559 25.2754V30.1191C198.441 30.347 198.305 30.5553 198.148 30.7441C197.992 30.9329 197.816 31.0957 197.621 31.2324C197.419 31.3691 197.191 31.4766 196.938 31.5547C196.69 31.6263 196.41 31.6621 196.098 31.6621C195.596 31.6621 195.167 31.5612 194.809 31.3594C194.451 31.151 194.158 30.8711 193.93 30.5195C193.695 30.168 193.523 29.7611 193.412 29.2988C193.308 28.8366 193.256 28.3483 193.256 27.834ZM208.461 33.1953C209.49 33.1953 210.352 32.9902 211.049 32.5801C211.752 32.1634 212.279 31.6882 212.631 31.1543L211.527 30.2949C211.195 30.7246 210.779 31.0697 210.277 31.3301C209.776 31.5905 209.203 31.7207 208.559 31.7207C208.07 31.7207 207.624 31.6296 207.221 31.4473C206.817 31.265 206.472 31.0143 206.186 30.6953C205.906 30.3958 205.684 30.0508 205.521 29.6602C205.365 29.2695 205.264 28.8171 205.219 28.3027V28.2344H212.768V27.4238C212.768 26.6882 212.673 26.0046 212.484 25.373C212.302 24.7415 212.022 24.1914 211.645 23.7227C211.267 23.2604 210.792 22.8991 210.219 22.6387C209.652 22.3717 208.988 22.2383 208.227 22.2383C207.621 22.2383 207.029 22.362 206.449 22.6094C205.876 22.8568 205.365 23.2116 204.916 23.6738C204.46 24.1426 204.096 24.7155 203.822 25.3926C203.549 26.0632 203.412 26.8249 203.412 27.6777V28.0879C203.412 28.8236 203.536 29.5039 203.783 30.1289C204.031 30.7539 204.376 31.2943 204.818 31.75C205.261 32.2057 205.792 32.5605 206.41 32.8145C207.035 33.0684 207.719 33.1953 208.461 33.1953ZM208.227 23.7227C208.689 23.7227 209.086 23.8073 209.418 23.9766C209.757 24.1458 210.036 24.3672 210.258 24.6406C210.479 24.9141 210.652 25.2396 210.775 25.6172C210.899 25.9883 210.961 26.3366 210.961 26.6621V26.75H205.277C205.349 26.2617 205.473 25.832 205.648 25.4609C205.831 25.0833 206.052 24.7643 206.312 24.5039C206.573 24.25 206.866 24.0579 207.191 23.9277C207.517 23.791 207.862 23.7227 208.227 23.7227ZM230.512 33H232.328V23.8301H236.4V22.4336H232.328V21.6914C232.328 21.2487 232.383 20.8613 232.494 20.5293C232.611 20.1973 232.781 19.9271 233.002 19.7188C233.21 19.5169 233.471 19.3672 233.783 19.2695C234.102 19.1654 234.467 19.1133 234.877 19.1133C235.281 19.1133 235.658 19.1491 236.01 19.2207C236.368 19.2858 236.68 19.3639 236.947 19.4551L237.162 17.9609C236.993 17.9154 236.827 17.8763 236.664 17.8438C236.501 17.8047 236.339 17.7689 236.176 17.7363C235.928 17.6908 235.678 17.6549 235.424 17.6289C235.17 17.5964 234.913 17.5801 234.652 17.5801C234.027 17.5801 233.461 17.668 232.953 17.8438C232.445 18.0195 232.012 18.2799 231.654 18.625C231.29 18.9701 231.007 19.3997 230.805 19.9141C230.609 20.4219 230.512 21.0143 230.512 21.6914V22.4336H227.602V23.8301H230.512V33ZM244.496 33.1953C245.525 33.1953 246.387 32.9902 247.084 32.5801C247.787 32.1634 248.314 31.6882 248.666 31.1543L247.562 30.2949C247.23 30.7246 246.814 31.0697 246.312 31.3301C245.811 31.5905 245.238 31.7207 244.594 31.7207C244.105 31.7207 243.66 31.6296 243.256 31.4473C242.852 31.265 242.507 31.0143 242.221 30.6953C241.941 30.3958 241.719 30.0508 241.557 29.6602C241.4 29.2695 241.299 28.8171 241.254 28.3027V28.2344H248.803V27.4238C248.803 26.6882 248.708 26.0046 248.52 25.373C248.337 24.7415 248.057 24.1914 247.68 23.7227C247.302 23.2604 246.827 22.8991 246.254 22.6387C245.688 22.3717 245.023 22.2383 244.262 22.2383C243.656 22.2383 243.064 22.362 242.484 22.6094C241.911 22.8568 241.4 23.2116 240.951 23.6738C240.495 24.1426 240.131 24.7155 239.857 25.3926C239.584 26.0632 239.447 26.8249 239.447 27.6777V28.0879C239.447 28.8236 239.571 29.5039 239.818 30.1289C240.066 30.7539 240.411 31.2943 240.854 31.75C241.296 32.2057 241.827 32.5605 242.445 32.8145C243.07 33.0684 243.754 33.1953 244.496 33.1953ZM244.262 23.7227C244.724 23.7227 245.121 23.8073 245.453 23.9766C245.792 24.1458 246.072 24.3672 246.293 24.6406C246.514 24.9141 246.687 25.2396 246.811 25.6172C246.934 25.9883 246.996 26.3366 246.996 26.6621V26.75H241.312C241.384 26.2617 241.508 25.832 241.684 25.4609C241.866 25.0833 242.087 24.7643 242.348 24.5039C242.608 24.25 242.901 24.0579 243.227 23.9277C243.552 23.791 243.897 23.7227 244.262 23.7227ZM258.783 33H260.668V32.8438C260.551 32.5508 260.46 32.209 260.395 31.8184C260.329 31.4212 260.297 31.0469 260.297 30.6953V25.7832C260.297 25.1908 260.189 24.6732 259.975 24.2305C259.76 23.7878 259.467 23.4167 259.096 23.1172C258.718 22.8242 258.272 22.6061 257.758 22.4629C257.243 22.3132 256.687 22.2383 256.088 22.2383C255.43 22.2383 254.841 22.3294 254.32 22.5117C253.806 22.694 253.37 22.9316 253.012 23.2246C252.647 23.5241 252.367 23.8594 252.172 24.2305C251.983 24.6016 251.885 24.9792 251.879 25.3633H253.695C253.695 25.1419 253.747 24.9303 253.852 24.7285C253.962 24.5202 254.115 24.3411 254.311 24.1914C254.506 24.0417 254.743 23.9212 255.023 23.8301C255.31 23.7389 255.632 23.6934 255.99 23.6934C256.374 23.6934 256.719 23.7422 257.025 23.8398C257.338 23.9375 257.602 24.0742 257.816 24.25C258.031 24.4323 258.197 24.6504 258.314 24.9043C258.432 25.1582 258.49 25.4447 258.49 25.7637V26.5938H256.518C255.782 26.5938 255.115 26.6654 254.516 26.8086C253.923 26.9518 253.415 27.1667 252.992 27.4531C252.569 27.7461 252.24 28.1107 252.006 28.5469C251.778 28.9831 251.664 29.4909 251.664 30.0703C251.664 30.513 251.749 30.9264 251.918 31.3105C252.094 31.6882 252.341 32.0137 252.66 32.2871C252.973 32.5671 253.354 32.7884 253.803 32.9512C254.258 33.1139 254.766 33.1953 255.326 33.1953C255.671 33.1953 255.997 33.1595 256.303 33.0879C256.609 33.0163 256.898 32.9186 257.172 32.7949C257.439 32.6712 257.683 32.528 257.904 32.3652C258.132 32.2025 258.337 32.0299 258.52 31.8477C258.539 32.069 258.568 32.2839 258.607 32.4922C258.653 32.694 258.712 32.8633 258.783 33ZM255.59 31.623C255.238 31.623 254.929 31.5775 254.662 31.4863C254.395 31.3952 254.174 31.2682 253.998 31.1055C253.822 30.9492 253.689 30.7604 253.598 30.5391C253.513 30.3177 253.471 30.0768 253.471 29.8164C253.471 29.543 253.52 29.2988 253.617 29.084C253.721 28.8691 253.871 28.6836 254.066 28.5273C254.34 28.306 254.708 28.1432 255.17 28.0391C255.639 27.9284 256.186 27.873 256.811 27.873H258.49V30.0117C258.386 30.2201 258.243 30.4219 258.061 30.6172C257.878 30.806 257.663 30.9753 257.416 31.125C257.162 31.2747 256.882 31.3952 256.576 31.4863C256.27 31.5775 255.941 31.623 255.59 31.623ZM268.129 19.875H266.312V22.4336H263.539V23.8301H266.312V29.5723C266.312 30.2233 266.397 30.7799 266.566 31.2422C266.742 31.6979 266.98 32.069 267.279 32.3555C267.579 32.6484 267.93 32.8633 268.334 33C268.744 33.1302 269.184 33.1953 269.652 33.1953C269.932 33.1953 270.212 33.1823 270.492 33.1562C270.779 33.1302 271.049 33.0911 271.303 33.0391C271.557 32.9935 271.791 32.9382 272.006 32.873C272.221 32.8014 272.403 32.7201 272.553 32.6289L272.299 31.3496C272.188 31.3757 272.045 31.4082 271.869 31.4473C271.7 31.4798 271.518 31.5124 271.322 31.5449C271.12 31.5775 270.915 31.6068 270.707 31.6328C270.499 31.6523 270.297 31.6621 270.102 31.6621C269.835 31.6621 269.581 31.6296 269.34 31.5645C269.105 31.4993 268.897 31.3854 268.715 31.2227C268.533 31.0664 268.389 30.8548 268.285 30.5879C268.181 30.321 268.129 29.9824 268.129 29.5723V23.8301H272.152V22.4336H268.129V19.875ZM282.826 33H284.467V22.4336H282.65V30.0117C282.553 30.2396 282.429 30.4512 282.279 30.6465C282.136 30.8353 281.967 30.998 281.771 31.1348C281.537 31.304 281.26 31.4375 280.941 31.5352C280.622 31.6263 280.261 31.6719 279.857 31.6719C279.512 31.6719 279.206 31.6263 278.939 31.5352C278.679 31.444 278.458 31.2845 278.275 31.0566C278.093 30.8353 277.956 30.5358 277.865 30.1582C277.774 29.7806 277.729 29.3053 277.729 28.7324V22.4336H275.922V28.7129C275.922 29.5007 276.007 30.1777 276.176 30.7441C276.352 31.304 276.599 31.7663 276.918 32.1309C277.237 32.4954 277.621 32.7656 278.07 32.9414C278.52 33.1107 279.021 33.1953 279.574 33.1953C280.264 33.1953 280.873 33.0521 281.4 32.7656C281.928 32.4727 282.367 32.0658 282.719 31.5449L282.826 33ZM294.799 22.2383C294.031 22.2383 293.344 22.4076 292.738 22.7461C292.139 23.0781 291.625 23.5339 291.195 24.1133L291.186 23.8496L291.107 22.4336H289.389V33H291.205V26.2227C291.322 25.8971 291.469 25.6042 291.645 25.3438C291.827 25.0768 292.038 24.8522 292.279 24.6699C292.546 24.4616 292.859 24.3053 293.217 24.2012C293.575 24.0905 293.975 24.0352 294.418 24.0352C294.763 24.0352 295.092 24.0547 295.404 24.0938C295.723 24.1263 296.059 24.1816 296.41 24.2598L296.654 22.4922C296.472 22.4141 296.199 22.3522 295.834 22.3066C295.476 22.2611 295.131 22.2383 294.799 22.2383ZM304.555 33.1953C305.583 33.1953 306.446 32.9902 307.143 32.5801C307.846 32.1634 308.373 31.6882 308.725 31.1543L307.621 30.2949C307.289 30.7246 306.872 31.0697 306.371 31.3301C305.87 31.5905 305.297 31.7207 304.652 31.7207C304.164 31.7207 303.718 31.6296 303.314 31.4473C302.911 31.265 302.566 31.0143 302.279 30.6953C301.999 30.3958 301.778 30.0508 301.615 29.6602C301.459 29.2695 301.358 28.8171 301.312 28.3027V28.2344H308.861V27.4238C308.861 26.6882 308.767 26.0046 308.578 25.373C308.396 24.7415 308.116 24.1914 307.738 23.7227C307.361 23.2604 306.885 22.8991 306.312 22.6387C305.746 22.3717 305.082 22.2383 304.32 22.2383C303.715 22.2383 303.122 22.362 302.543 22.6094C301.97 22.8568 301.459 23.2116 301.01 23.6738C300.554 24.1426 300.189 24.7155 299.916 25.3926C299.643 26.0632 299.506 26.8249 299.506 27.6777V28.0879C299.506 28.8236 299.63 29.5039 299.877 30.1289C300.124 30.7539 300.469 31.2943 300.912 31.75C301.355 32.2057 301.885 32.5605 302.504 32.8145C303.129 33.0684 303.812 33.1953 304.555 33.1953ZM304.32 23.7227C304.783 23.7227 305.18 23.8073 305.512 23.9766C305.85 24.1458 306.13 24.3672 306.352 24.6406C306.573 24.9141 306.745 25.2396 306.869 25.6172C306.993 25.9883 307.055 26.3366 307.055 26.6621V26.75H301.371C301.443 26.2617 301.566 25.832 301.742 25.4609C301.924 25.0833 302.146 24.7643 302.406 24.5039C302.667 24.25 302.96 24.0579 303.285 23.9277C303.611 23.791 303.956 23.7227 304.32 23.7227ZM317.758 33V18.7812H317.611L312.23 20.8516V22.502L315.951 21.0859V33H317.758Z" fill="#E3E3E8"/>
<g filter="url(#filter4_dd_442_362)">
<rect x="538" y="274" width="80" height="80" rx="40" fill="#161632"/>
<rect x="539.5" y="275.5" width="77" height="77" rx="38.5" stroke="#C7C7D1" stroke-width="3" stroke-dasharray="6 6"/>
</g>
<g filter="url(#filter5_dd_442_362)">
<rect x="466" y="394" width="80" height="80" rx="40" fill="#161632"/>
<rect x="467.5" y="395.5" width="77" height="77" rx="38.5" stroke="#C7C7D1" stroke-width="3"/>
</g>
<g filter="url(#filter6_dd_442_362)">
<rect x="322" y="394" width="80" height="80" rx="40" fill="#161632"/>
<rect x="323.5" y="395.5" width="77" height="77" rx="38.5" stroke="#C7C7D1" stroke-width="3"/>
</g>
<g filter="url(#filter7_dd_442_362)">
<rect x="178" y="394" width="80" height="80" rx="40" fill="#161632"/>
<rect x="179.5" y="395.5" width="77" height="77" rx="38.5" stroke="#C7C7D1" stroke-width="3"/>
</g>
<g filter="url(#filter8_dd_442_362)">
<rect x="106" y="274" width="80" height="80" rx="40" fill="#C7C7D1"/>
</g>
<path d="M538 314L523 305.34V322.66L538 314ZM186 315.5H524.5V312.5H186V315.5Z" fill="#E3E3E8"/>
<path d="M555.953 346.97L540.66 355.102L555.348 364.28L555.953 346.97ZM525.319 398.825L550.071 359.214L547.527 357.624L522.775 397.235L525.319 398.825Z" fill="#E3E3E8"/>
<path d="M197.905 399.059L197.301 381.749L182.612 390.928L197.905 399.059ZM164.728 348.795L189.479 388.405L192.024 386.816L167.272 347.205L164.728 348.795Z" fill="#E3E3E8"/>
<path d="M466 434L451 425.34V442.66L466 434ZM402 435.5H452.5V432.5H402V435.5Z" fill="#E3E3E8"/>
<path d="M322 434L307 425.34V442.66L322 434ZM258 435.5H308.5V432.5H258V435.5Z" fill="#E3E3E8"/>
<path d="M539.841 252V238.909H541.784V240.955H541.955C542.227 240.256 542.668 239.713 543.276 239.327C543.884 238.935 544.614 238.739 545.466 238.739C546.33 238.739 547.048 238.935 547.622 239.327C548.202 239.713 548.653 240.256 548.977 240.955H549.114C549.449 240.278 549.952 239.741 550.622 239.344C551.293 238.94 552.097 238.739 553.034 238.739C554.205 238.739 555.162 239.105 555.906 239.838C556.651 240.565 557.023 241.699 557.023 243.239V252H555.011V243.239C555.011 242.273 554.747 241.582 554.219 241.168C553.69 240.753 553.068 240.545 552.352 240.545C551.432 240.545 550.719 240.824 550.213 241.381C549.707 241.932 549.455 242.631 549.455 243.477V252H547.409V243.034C547.409 242.29 547.168 241.69 546.685 241.236C546.202 240.776 545.58 240.545 544.818 240.545C544.295 240.545 543.807 240.685 543.352 240.963C542.903 241.241 542.54 241.628 542.261 242.122C541.989 242.611 541.852 243.176 541.852 243.818V252H539.841ZM565.643 252.273C564.553 252.273 563.589 251.997 562.754 251.446C561.919 250.889 561.266 250.105 560.794 249.094C560.322 248.077 560.087 246.875 560.087 245.489C560.087 244.114 560.322 242.92 560.794 241.909C561.266 240.898 561.922 240.116 562.763 239.565C563.604 239.014 564.575 238.739 565.678 238.739C566.53 238.739 567.203 238.881 567.697 239.165C568.197 239.443 568.578 239.761 568.839 240.119C569.107 240.472 569.314 240.761 569.462 240.989H569.632V238.909H571.643V252H569.7V249.989H569.462C569.314 250.227 569.104 250.528 568.831 250.892C568.558 251.25 568.169 251.571 567.663 251.855C567.158 252.134 566.484 252.273 565.643 252.273ZM565.916 250.466C566.723 250.466 567.405 250.256 567.962 249.835C568.518 249.409 568.942 248.821 569.232 248.071C569.521 247.315 569.666 246.443 569.666 245.455C569.666 244.477 569.524 243.622 569.24 242.889C568.956 242.151 568.536 241.577 567.979 241.168C567.422 240.753 566.734 240.545 565.916 240.545C565.064 240.545 564.354 240.764 563.786 241.202C563.223 241.634 562.8 242.222 562.516 242.966C562.237 243.705 562.098 244.534 562.098 245.455C562.098 246.386 562.24 247.233 562.524 247.994C562.814 248.75 563.24 249.352 563.803 249.801C564.371 250.244 565.075 250.466 565.916 250.466ZM584.879 241.841L583.072 242.352C582.959 242.051 582.791 241.759 582.57 241.474C582.354 241.185 582.058 240.946 581.683 240.759C581.308 240.571 580.828 240.477 580.243 240.477C579.442 240.477 578.774 240.662 578.24 241.031C577.712 241.395 577.447 241.858 577.447 242.42C577.447 242.92 577.629 243.315 577.993 243.605C578.357 243.895 578.925 244.136 579.697 244.33L581.641 244.807C582.811 245.091 583.683 245.526 584.257 246.111C584.831 246.69 585.118 247.437 585.118 248.352C585.118 249.102 584.902 249.773 584.47 250.364C584.044 250.955 583.447 251.42 582.68 251.761C581.913 252.102 581.021 252.273 580.004 252.273C578.669 252.273 577.564 251.983 576.689 251.403C575.814 250.824 575.26 249.977 575.027 248.864L576.936 248.386C577.118 249.091 577.462 249.619 577.967 249.972C578.479 250.324 579.146 250.5 579.97 250.5C580.908 250.5 581.652 250.301 582.203 249.903C582.76 249.5 583.038 249.017 583.038 248.455C583.038 248 582.879 247.619 582.561 247.312C582.243 247 581.754 246.767 581.095 246.614L578.913 246.102C577.714 245.818 576.834 245.378 576.271 244.781C575.714 244.179 575.436 243.426 575.436 242.523C575.436 241.784 575.643 241.131 576.058 240.562C576.479 239.994 577.05 239.548 577.771 239.224C578.499 238.901 579.322 238.739 580.243 238.739C581.538 238.739 582.555 239.023 583.294 239.591C584.038 240.159 584.567 240.909 584.879 241.841ZM593.839 238.909V240.614H587.055V238.909H593.839ZM589.032 235.773H591.043V248.25C591.043 248.818 591.126 249.244 591.29 249.528C591.461 249.807 591.677 249.994 591.938 250.091C592.205 250.182 592.487 250.227 592.782 250.227C593.004 250.227 593.185 250.216 593.327 250.193C593.469 250.165 593.583 250.142 593.668 250.125L594.077 251.932C593.941 251.983 593.751 252.034 593.506 252.085C593.262 252.142 592.952 252.17 592.577 252.17C592.009 252.17 591.452 252.048 590.907 251.804C590.367 251.56 589.918 251.188 589.56 250.688C589.208 250.188 589.032 249.557 589.032 248.795V235.773ZM602.212 252.273C600.951 252.273 599.863 251.994 598.948 251.438C598.039 250.875 597.337 250.091 596.843 249.085C596.354 248.074 596.11 246.898 596.11 245.557C596.11 244.216 596.354 243.034 596.843 242.011C597.337 240.983 598.025 240.182 598.906 239.608C599.792 239.028 600.826 238.739 602.008 238.739C602.69 238.739 603.363 238.852 604.028 239.08C604.692 239.307 605.298 239.676 605.843 240.188C606.388 240.693 606.823 241.364 607.147 242.199C607.471 243.034 607.633 244.062 607.633 245.284V246.136H597.542V244.398H605.587C605.587 243.659 605.44 243 605.144 242.42C604.854 241.841 604.44 241.384 603.9 241.048C603.366 240.713 602.735 240.545 602.008 240.545C601.207 240.545 600.513 240.744 599.928 241.142C599.349 241.534 598.903 242.045 598.59 242.676C598.278 243.307 598.121 243.983 598.121 244.705V245.864C598.121 246.852 598.292 247.69 598.633 248.378C598.979 249.06 599.46 249.58 600.073 249.938C600.687 250.29 601.4 250.466 602.212 250.466C602.741 250.466 603.218 250.392 603.644 250.244C604.076 250.091 604.448 249.864 604.761 249.562C605.073 249.256 605.315 248.875 605.485 248.42L607.428 248.966C607.224 249.625 606.88 250.205 606.397 250.705C605.914 251.199 605.317 251.585 604.607 251.864C603.897 252.136 603.099 252.273 602.212 252.273ZM610.692 252V238.909H612.636V240.886H612.772C613.011 240.239 613.442 239.713 614.067 239.31C614.692 238.906 615.397 238.705 616.181 238.705C616.329 238.705 616.513 238.707 616.735 238.713C616.957 238.719 617.124 238.727 617.238 238.739V240.784C617.17 240.767 617.013 240.741 616.769 240.707C616.531 240.668 616.278 240.648 616.011 240.648C615.374 240.648 614.806 240.781 614.306 241.048C613.812 241.31 613.42 241.673 613.13 242.139C612.846 242.599 612.704 243.125 612.704 243.716V252H610.692Z" fill="#E3E3E8"/>
<path d="M107.367 223.629V223.834C107.367 224.589 107.465 225.296 107.66 225.953C107.855 226.604 108.135 227.171 108.5 227.652C108.858 228.134 109.298 228.512 109.818 228.785C110.339 229.059 110.922 229.195 111.566 229.195C111.951 229.195 112.309 229.153 112.641 229.068C112.973 228.99 113.275 228.876 113.549 228.727C113.725 228.629 113.887 228.515 114.037 228.385C114.193 228.255 114.34 228.111 114.477 227.955V228.863C114.477 229.319 114.411 229.723 114.281 230.074C114.151 230.426 113.965 230.719 113.725 230.953C113.477 231.194 113.181 231.376 112.836 231.5C112.491 231.624 112.104 231.686 111.674 231.686C111.433 231.686 111.192 231.66 110.951 231.607C110.71 231.562 110.469 231.484 110.229 231.373C109.988 231.262 109.75 231.113 109.516 230.924C109.281 230.742 109.053 230.517 108.832 230.25L107.895 231.334C108.135 231.679 108.422 231.969 108.754 232.203C109.092 232.438 109.444 232.623 109.809 232.76C110.167 232.903 110.521 233.004 110.873 233.062C111.225 233.128 111.537 233.16 111.811 233.16C112.475 233.16 113.08 233.062 113.627 232.867C114.174 232.672 114.646 232.385 115.043 232.008C115.434 231.63 115.736 231.171 115.951 230.631C116.173 230.09 116.283 229.472 116.283 228.775V218.434H114.643L114.555 219.586C114.431 219.43 114.298 219.286 114.154 219.156C114.018 219.026 113.871 218.912 113.715 218.814C113.428 218.626 113.106 218.482 112.748 218.385C112.396 218.287 112.009 218.238 111.586 218.238C110.928 218.238 110.339 218.372 109.818 218.639C109.298 218.906 108.855 219.277 108.49 219.752C108.126 220.227 107.846 220.797 107.65 221.461C107.462 222.118 107.367 222.841 107.367 223.629ZM109.174 223.834V223.629C109.174 223.115 109.226 222.626 109.33 222.164C109.441 221.695 109.613 221.282 109.848 220.924C110.076 220.572 110.368 220.292 110.727 220.084C111.091 219.876 111.527 219.771 112.035 219.771C112.335 219.771 112.608 219.811 112.855 219.889C113.103 219.96 113.327 220.061 113.529 220.191C113.731 220.328 113.91 220.488 114.066 220.67C114.223 220.852 114.359 221.054 114.477 221.275V226.119C114.359 226.347 114.223 226.555 114.066 226.744C113.91 226.933 113.734 227.096 113.539 227.232C113.337 227.369 113.109 227.477 112.855 227.555C112.608 227.626 112.328 227.662 112.016 227.662C111.514 227.662 111.085 227.561 110.727 227.359C110.368 227.151 110.076 226.871 109.848 226.52C109.613 226.168 109.441 225.761 109.33 225.299C109.226 224.837 109.174 224.348 109.174 223.834ZM119.994 218.434V220.006H123.588V227.438H119.994V229H128.842V227.438H125.395V218.434H119.994ZM123.354 215.66C123.354 215.953 123.441 216.197 123.617 216.393C123.799 216.588 124.073 216.686 124.438 216.686C124.796 216.686 125.066 216.588 125.248 216.393C125.43 216.197 125.521 215.953 125.521 215.66C125.521 215.497 125.495 215.348 125.443 215.211C125.391 215.074 125.313 214.96 125.209 214.869C125.124 214.785 125.017 214.719 124.887 214.674C124.757 214.622 124.607 214.596 124.438 214.596C124.268 214.596 124.115 214.622 123.979 214.674C123.848 214.719 123.741 214.785 123.656 214.869C123.552 214.967 123.474 215.084 123.422 215.221C123.376 215.357 123.354 215.504 123.354 215.66ZM136 215.875H134.184V218.434H131.41V219.83H134.184V225.572C134.184 226.223 134.268 226.78 134.438 227.242C134.613 227.698 134.851 228.069 135.15 228.355C135.45 228.648 135.801 228.863 136.205 229C136.615 229.13 137.055 229.195 137.523 229.195C137.803 229.195 138.083 229.182 138.363 229.156C138.65 229.13 138.92 229.091 139.174 229.039C139.428 228.993 139.662 228.938 139.877 228.873C140.092 228.801 140.274 228.72 140.424 228.629L140.17 227.35C140.059 227.376 139.916 227.408 139.74 227.447C139.571 227.48 139.389 227.512 139.193 227.545C138.992 227.577 138.786 227.607 138.578 227.633C138.37 227.652 138.168 227.662 137.973 227.662C137.706 227.662 137.452 227.63 137.211 227.564C136.977 227.499 136.768 227.385 136.586 227.223C136.404 227.066 136.26 226.855 136.156 226.588C136.052 226.321 136 225.982 136 225.572V219.83H140.023V218.434H136V215.875ZM156.576 218.434H154.955V229H156.674V220.592C156.713 220.488 156.762 220.39 156.82 220.299C156.885 220.208 156.96 220.126 157.045 220.055C157.156 219.964 157.289 219.895 157.445 219.85C157.608 219.798 157.797 219.771 158.012 219.771C158.207 219.771 158.376 219.798 158.52 219.85C158.669 219.895 158.793 219.97 158.891 220.074C158.995 220.185 159.07 220.325 159.115 220.494C159.167 220.663 159.193 220.859 159.193 221.08V229H160.912V221.09C160.912 221.051 160.912 221.018 160.912 220.992C160.912 220.96 160.912 220.927 160.912 220.895C160.932 220.732 160.971 220.585 161.029 220.455C161.088 220.318 161.169 220.198 161.273 220.094C161.378 219.996 161.508 219.918 161.664 219.859C161.82 219.801 162.006 219.771 162.221 219.771C162.423 219.771 162.598 219.798 162.748 219.85C162.904 219.902 163.035 219.98 163.139 220.084C163.236 220.195 163.311 220.335 163.363 220.504C163.415 220.673 163.441 220.868 163.441 221.09V229H165.16V221.109C165.16 220.602 165.102 220.162 164.984 219.791C164.867 219.413 164.698 219.107 164.477 218.873C164.275 218.665 164.027 218.508 163.734 218.404C163.441 218.294 163.113 218.238 162.748 218.238C162.481 218.245 162.234 218.281 162.006 218.346C161.785 218.411 161.583 218.499 161.4 218.609C161.257 218.707 161.124 218.821 161 218.951C160.876 219.081 160.769 219.221 160.678 219.371C160.606 219.208 160.518 219.062 160.414 218.932C160.316 218.801 160.206 218.691 160.082 218.6C159.913 218.482 159.714 218.395 159.486 218.336C159.265 218.271 159.014 218.238 158.734 218.238C158.24 218.245 157.816 218.352 157.465 218.561C157.12 218.769 156.84 219.059 156.625 219.43L156.576 218.434ZM172.426 229.195C173.454 229.195 174.317 228.99 175.014 228.58C175.717 228.163 176.244 227.688 176.596 227.154L175.492 226.295C175.16 226.725 174.743 227.07 174.242 227.33C173.741 227.59 173.168 227.721 172.523 227.721C172.035 227.721 171.589 227.63 171.186 227.447C170.782 227.265 170.437 227.014 170.15 226.695C169.87 226.396 169.649 226.051 169.486 225.66C169.33 225.27 169.229 224.817 169.184 224.303V224.234H176.732V223.424C176.732 222.688 176.638 222.005 176.449 221.373C176.267 220.742 175.987 220.191 175.609 219.723C175.232 219.26 174.757 218.899 174.184 218.639C173.617 218.372 172.953 218.238 172.191 218.238C171.586 218.238 170.993 218.362 170.414 218.609C169.841 218.857 169.33 219.212 168.881 219.674C168.425 220.143 168.061 220.715 167.787 221.393C167.514 222.063 167.377 222.825 167.377 223.678V224.088C167.377 224.824 167.501 225.504 167.748 226.129C167.995 226.754 168.34 227.294 168.783 227.75C169.226 228.206 169.757 228.561 170.375 228.814C171 229.068 171.684 229.195 172.426 229.195ZM172.191 219.723C172.654 219.723 173.051 219.807 173.383 219.977C173.721 220.146 174.001 220.367 174.223 220.641C174.444 220.914 174.617 221.24 174.74 221.617C174.864 221.988 174.926 222.337 174.926 222.662V222.75H169.242C169.314 222.262 169.438 221.832 169.613 221.461C169.796 221.083 170.017 220.764 170.277 220.504C170.538 220.25 170.831 220.058 171.156 219.928C171.482 219.791 171.827 219.723 172.191 219.723ZM186.693 218.238C185.925 218.238 185.238 218.408 184.633 218.746C184.034 219.078 183.52 219.534 183.09 220.113L183.08 219.85L183.002 218.434H181.283V229H183.1V222.223C183.217 221.897 183.363 221.604 183.539 221.344C183.721 221.077 183.933 220.852 184.174 220.67C184.441 220.462 184.753 220.305 185.111 220.201C185.469 220.09 185.87 220.035 186.312 220.035C186.658 220.035 186.986 220.055 187.299 220.094C187.618 220.126 187.953 220.182 188.305 220.26L188.549 218.492C188.367 218.414 188.093 218.352 187.729 218.307C187.37 218.261 187.025 218.238 186.693 218.238ZM191.449 223.629V223.834C191.449 224.589 191.547 225.296 191.742 225.953C191.938 226.604 192.217 227.171 192.582 227.652C192.94 228.134 193.38 228.512 193.9 228.785C194.421 229.059 195.004 229.195 195.648 229.195C196.033 229.195 196.391 229.153 196.723 229.068C197.055 228.99 197.357 228.876 197.631 228.727C197.807 228.629 197.969 228.515 198.119 228.385C198.275 228.255 198.422 228.111 198.559 227.955V228.863C198.559 229.319 198.493 229.723 198.363 230.074C198.233 230.426 198.048 230.719 197.807 230.953C197.559 231.194 197.263 231.376 196.918 231.5C196.573 231.624 196.186 231.686 195.756 231.686C195.515 231.686 195.274 231.66 195.033 231.607C194.792 231.562 194.551 231.484 194.311 231.373C194.07 231.262 193.832 231.113 193.598 230.924C193.363 230.742 193.135 230.517 192.914 230.25L191.977 231.334C192.217 231.679 192.504 231.969 192.836 232.203C193.174 232.438 193.526 232.623 193.891 232.76C194.249 232.903 194.604 233.004 194.955 233.062C195.307 233.128 195.619 233.16 195.893 233.16C196.557 233.16 197.162 233.062 197.709 232.867C198.256 232.672 198.728 232.385 199.125 232.008C199.516 231.63 199.818 231.171 200.033 230.631C200.255 230.09 200.365 229.472 200.365 228.775V218.434H198.725L198.637 219.586C198.513 219.43 198.38 219.286 198.236 219.156C198.1 219.026 197.953 218.912 197.797 218.814C197.51 218.626 197.188 218.482 196.83 218.385C196.479 218.287 196.091 218.238 195.668 218.238C195.01 218.238 194.421 218.372 193.9 218.639C193.38 218.906 192.937 219.277 192.572 219.752C192.208 220.227 191.928 220.797 191.732 221.461C191.544 222.118 191.449 222.841 191.449 223.629ZM193.256 223.834V223.629C193.256 223.115 193.308 222.626 193.412 222.164C193.523 221.695 193.695 221.282 193.93 220.924C194.158 220.572 194.451 220.292 194.809 220.084C195.173 219.876 195.609 219.771 196.117 219.771C196.417 219.771 196.69 219.811 196.938 219.889C197.185 219.96 197.41 220.061 197.611 220.191C197.813 220.328 197.992 220.488 198.148 220.67C198.305 220.852 198.441 221.054 198.559 221.275V226.119C198.441 226.347 198.305 226.555 198.148 226.744C197.992 226.933 197.816 227.096 197.621 227.232C197.419 227.369 197.191 227.477 196.938 227.555C196.69 227.626 196.41 227.662 196.098 227.662C195.596 227.662 195.167 227.561 194.809 227.359C194.451 227.151 194.158 226.871 193.93 226.52C193.695 226.168 193.523 225.761 193.412 225.299C193.308 224.837 193.256 224.348 193.256 223.834ZM208.461 229.195C209.49 229.195 210.352 228.99 211.049 228.58C211.752 228.163 212.279 227.688 212.631 227.154L211.527 226.295C211.195 226.725 210.779 227.07 210.277 227.33C209.776 227.59 209.203 227.721 208.559 227.721C208.07 227.721 207.624 227.63 207.221 227.447C206.817 227.265 206.472 227.014 206.186 226.695C205.906 226.396 205.684 226.051 205.521 225.66C205.365 225.27 205.264 224.817 205.219 224.303V224.234H212.768V223.424C212.768 222.688 212.673 222.005 212.484 221.373C212.302 220.742 212.022 220.191 211.645 219.723C211.267 219.26 210.792 218.899 210.219 218.639C209.652 218.372 208.988 218.238 208.227 218.238C207.621 218.238 207.029 218.362 206.449 218.609C205.876 218.857 205.365 219.212 204.916 219.674C204.46 220.143 204.096 220.715 203.822 221.393C203.549 222.063 203.412 222.825 203.412 223.678V224.088C203.412 224.824 203.536 225.504 203.783 226.129C204.031 226.754 204.376 227.294 204.818 227.75C205.261 228.206 205.792 228.561 206.41 228.814C207.035 229.068 207.719 229.195 208.461 229.195ZM208.227 219.723C208.689 219.723 209.086 219.807 209.418 219.977C209.757 220.146 210.036 220.367 210.258 220.641C210.479 220.914 210.652 221.24 210.775 221.617C210.899 221.988 210.961 222.337 210.961 222.662V222.75H205.277C205.349 222.262 205.473 221.832 205.648 221.461C205.831 221.083 206.052 220.764 206.312 220.504C206.573 220.25 206.866 220.058 207.191 219.928C207.517 219.791 207.862 219.723 208.227 219.723ZM235.717 223.521V222.037H228.246V223.521H235.717ZM247.729 223.521V222.037H240.258V223.521H247.729ZM251.84 229H253.646V221.422C253.77 221.194 253.913 220.986 254.076 220.797C254.245 220.608 254.428 220.442 254.623 220.299C254.864 220.136 255.128 220.009 255.414 219.918C255.701 219.82 256.01 219.771 256.342 219.771C256.726 219.771 257.064 219.817 257.357 219.908C257.657 219.999 257.911 220.146 258.119 220.348C258.321 220.549 258.474 220.813 258.578 221.139C258.682 221.464 258.734 221.861 258.734 222.33V229H260.541V222.291C260.541 221.588 260.453 220.982 260.277 220.475C260.108 219.96 259.864 219.537 259.545 219.205C259.226 218.873 258.839 218.629 258.383 218.473C257.934 218.316 257.432 218.238 256.879 218.238C256.469 218.245 256.078 218.307 255.707 218.424C255.342 218.535 255.004 218.694 254.691 218.902C254.483 219.039 254.285 219.202 254.096 219.391C253.913 219.573 253.744 219.775 253.588 219.996L253.461 218.434H251.84V229ZM263.344 223.619V223.834C263.344 224.596 263.454 225.302 263.676 225.953C263.897 226.604 264.216 227.171 264.633 227.652C265.043 228.134 265.544 228.512 266.137 228.785C266.736 229.059 267.41 229.195 268.158 229.195C268.9 229.195 269.568 229.059 270.16 228.785C270.753 228.512 271.257 228.134 271.674 227.652C272.084 227.171 272.4 226.604 272.621 225.953C272.842 225.302 272.953 224.596 272.953 223.834V223.619C272.953 222.857 272.842 222.151 272.621 221.5C272.4 220.842 272.084 220.273 271.674 219.791C271.257 219.309 270.749 218.932 270.15 218.658C269.558 218.378 268.887 218.238 268.139 218.238C267.396 218.238 266.729 218.378 266.137 218.658C265.544 218.932 265.043 219.309 264.633 219.791C264.216 220.273 263.897 220.842 263.676 221.5C263.454 222.151 263.344 222.857 263.344 223.619ZM265.15 223.834V223.619C265.15 223.105 265.212 222.613 265.336 222.145C265.46 221.669 265.648 221.253 265.902 220.895C266.15 220.536 266.459 220.253 266.83 220.045C267.201 219.83 267.637 219.723 268.139 219.723C268.64 219.723 269.076 219.83 269.447 220.045C269.825 220.253 270.141 220.536 270.395 220.895C270.642 221.253 270.827 221.669 270.951 222.145C271.081 222.613 271.146 223.105 271.146 223.619V223.834C271.146 224.355 271.085 224.853 270.961 225.328C270.837 225.797 270.652 226.21 270.404 226.568C270.15 226.926 269.835 227.21 269.457 227.418C269.086 227.626 268.653 227.73 268.158 227.73C267.657 227.73 267.217 227.626 266.84 227.418C266.462 227.21 266.15 226.926 265.902 226.568C265.648 226.21 265.46 225.797 265.336 225.328C265.212 224.853 265.15 224.355 265.15 223.834ZM283.764 223.521V222.037H276.293V223.521H283.764ZM290.57 229H292.387V219.83H296.459V218.434H292.387V217.691C292.387 217.249 292.442 216.861 292.553 216.529C292.67 216.197 292.839 215.927 293.061 215.719C293.269 215.517 293.529 215.367 293.842 215.27C294.161 215.165 294.525 215.113 294.936 215.113C295.339 215.113 295.717 215.149 296.068 215.221C296.426 215.286 296.739 215.364 297.006 215.455L297.221 213.961C297.051 213.915 296.885 213.876 296.723 213.844C296.56 213.805 296.397 213.769 296.234 213.736C295.987 213.691 295.736 213.655 295.482 213.629C295.229 213.596 294.971 213.58 294.711 213.58C294.086 213.58 293.52 213.668 293.012 213.844C292.504 214.02 292.071 214.28 291.713 214.625C291.348 214.97 291.065 215.4 290.863 215.914C290.668 216.422 290.57 217.014 290.57 217.691V218.434H287.66V219.83H290.57V229ZM302.582 229H304.398V219.83H308.471V218.434H304.398V217.691C304.398 217.249 304.454 216.861 304.564 216.529C304.682 216.197 304.851 215.927 305.072 215.719C305.281 215.517 305.541 215.367 305.854 215.27C306.173 215.165 306.537 215.113 306.947 215.113C307.351 215.113 307.729 215.149 308.08 215.221C308.438 215.286 308.751 215.364 309.018 215.455L309.232 213.961C309.063 213.915 308.897 213.876 308.734 213.844C308.572 213.805 308.409 213.769 308.246 213.736C307.999 213.691 307.748 213.655 307.494 213.629C307.24 213.596 306.983 213.58 306.723 213.58C306.098 213.58 305.531 213.668 305.023 213.844C304.516 214.02 304.083 214.28 303.725 214.625C303.36 214.97 303.077 215.4 302.875 215.914C302.68 216.422 302.582 217.014 302.582 217.691V218.434H299.672V219.83H302.582V229ZM326.605 229H328.422V219.83H332.494V218.434H328.422V217.691C328.422 217.249 328.477 216.861 328.588 216.529C328.705 216.197 328.874 215.927 329.096 215.719C329.304 215.517 329.564 215.367 329.877 215.27C330.196 215.165 330.561 215.113 330.971 215.113C331.374 215.113 331.752 215.149 332.104 215.221C332.462 215.286 332.774 215.364 333.041 215.455L333.256 213.961C333.087 213.915 332.921 213.876 332.758 213.844C332.595 213.805 332.432 213.769 332.27 213.736C332.022 213.691 331.771 213.655 331.518 213.629C331.264 213.596 331.007 213.58 330.746 213.58C330.121 213.58 329.555 213.668 329.047 213.844C328.539 214.02 328.106 214.28 327.748 214.625C327.383 214.97 327.1 215.4 326.898 215.914C326.703 216.422 326.605 217.014 326.605 217.691V218.434H323.695V219.83H326.605V229ZM340.59 229.195C341.618 229.195 342.481 228.99 343.178 228.58C343.881 228.163 344.408 227.688 344.76 227.154L343.656 226.295C343.324 226.725 342.908 227.07 342.406 227.33C341.905 227.59 341.332 227.721 340.688 227.721C340.199 227.721 339.753 227.63 339.35 227.447C338.946 227.265 338.601 227.014 338.314 226.695C338.035 226.396 337.813 226.051 337.65 225.66C337.494 225.27 337.393 224.817 337.348 224.303V224.234H344.896V223.424C344.896 222.688 344.802 222.005 344.613 221.373C344.431 220.742 344.151 220.191 343.773 219.723C343.396 219.26 342.921 218.899 342.348 218.639C341.781 218.372 341.117 218.238 340.355 218.238C339.75 218.238 339.158 218.362 338.578 218.609C338.005 218.857 337.494 219.212 337.045 219.674C336.589 220.143 336.225 220.715 335.951 221.393C335.678 222.063 335.541 222.825 335.541 223.678V224.088C335.541 224.824 335.665 225.504 335.912 226.129C336.16 226.754 336.505 227.294 336.947 227.75C337.39 228.206 337.921 228.561 338.539 228.814C339.164 229.068 339.848 229.195 340.59 229.195ZM340.355 219.723C340.818 219.723 341.215 219.807 341.547 219.977C341.885 220.146 342.165 220.367 342.387 220.641C342.608 220.914 342.781 221.24 342.904 221.617C343.028 221.988 343.09 222.337 343.09 222.662V222.75H337.406C337.478 222.262 337.602 221.832 337.777 221.461C337.96 221.083 338.181 220.764 338.441 220.504C338.702 220.25 338.995 220.058 339.32 219.928C339.646 219.791 339.991 219.723 340.355 219.723ZM354.877 229H356.762V228.844C356.645 228.551 356.553 228.209 356.488 227.818C356.423 227.421 356.391 227.047 356.391 226.695V221.783C356.391 221.191 356.283 220.673 356.068 220.23C355.854 219.788 355.561 219.417 355.189 219.117C354.812 218.824 354.366 218.606 353.852 218.463C353.337 218.313 352.781 218.238 352.182 218.238C351.524 218.238 350.935 218.329 350.414 218.512C349.9 218.694 349.464 218.932 349.105 219.225C348.741 219.524 348.461 219.859 348.266 220.23C348.077 220.602 347.979 220.979 347.973 221.363H349.789C349.789 221.142 349.841 220.93 349.945 220.729C350.056 220.52 350.209 220.341 350.404 220.191C350.6 220.042 350.837 219.921 351.117 219.83C351.404 219.739 351.726 219.693 352.084 219.693C352.468 219.693 352.813 219.742 353.119 219.84C353.432 219.938 353.695 220.074 353.91 220.25C354.125 220.432 354.291 220.65 354.408 220.904C354.525 221.158 354.584 221.445 354.584 221.764V222.594H352.611C351.876 222.594 351.208 222.665 350.609 222.809C350.017 222.952 349.509 223.167 349.086 223.453C348.663 223.746 348.334 224.111 348.1 224.547C347.872 224.983 347.758 225.491 347.758 226.07C347.758 226.513 347.842 226.926 348.012 227.311C348.188 227.688 348.435 228.014 348.754 228.287C349.066 228.567 349.447 228.788 349.896 228.951C350.352 229.114 350.86 229.195 351.42 229.195C351.765 229.195 352.09 229.16 352.396 229.088C352.702 229.016 352.992 228.919 353.266 228.795C353.533 228.671 353.777 228.528 353.998 228.365C354.226 228.202 354.431 228.03 354.613 227.848C354.633 228.069 354.662 228.284 354.701 228.492C354.747 228.694 354.805 228.863 354.877 229ZM351.684 227.623C351.332 227.623 351.023 227.577 350.756 227.486C350.489 227.395 350.268 227.268 350.092 227.105C349.916 226.949 349.783 226.76 349.691 226.539C349.607 226.318 349.564 226.077 349.564 225.816C349.564 225.543 349.613 225.299 349.711 225.084C349.815 224.869 349.965 224.684 350.16 224.527C350.434 224.306 350.801 224.143 351.264 224.039C351.732 223.928 352.279 223.873 352.904 223.873H354.584V226.012C354.48 226.22 354.337 226.422 354.154 226.617C353.972 226.806 353.757 226.975 353.51 227.125C353.256 227.275 352.976 227.395 352.67 227.486C352.364 227.577 352.035 227.623 351.684 227.623ZM364.223 215.875H362.406V218.434H359.633V219.83H362.406V225.572C362.406 226.223 362.491 226.78 362.66 227.242C362.836 227.698 363.074 228.069 363.373 228.355C363.673 228.648 364.024 228.863 364.428 229C364.838 229.13 365.277 229.195 365.746 229.195C366.026 229.195 366.306 229.182 366.586 229.156C366.872 229.13 367.143 229.091 367.396 229.039C367.65 228.993 367.885 228.938 368.1 228.873C368.314 228.801 368.497 228.72 368.646 228.629L368.393 227.35C368.282 227.376 368.139 227.408 367.963 227.447C367.794 227.48 367.611 227.512 367.416 227.545C367.214 227.577 367.009 227.607 366.801 227.633C366.592 227.652 366.391 227.662 366.195 227.662C365.928 227.662 365.674 227.63 365.434 227.564C365.199 227.499 364.991 227.385 364.809 227.223C364.626 227.066 364.483 226.855 364.379 226.588C364.275 226.321 364.223 225.982 364.223 225.572V219.83H368.246V218.434H364.223V215.875ZM378.92 229H380.561V218.434H378.744V226.012C378.646 226.24 378.523 226.451 378.373 226.646C378.23 226.835 378.061 226.998 377.865 227.135C377.631 227.304 377.354 227.438 377.035 227.535C376.716 227.626 376.355 227.672 375.951 227.672C375.606 227.672 375.3 227.626 375.033 227.535C374.773 227.444 374.551 227.285 374.369 227.057C374.187 226.835 374.05 226.536 373.959 226.158C373.868 225.781 373.822 225.305 373.822 224.732V218.434H372.016V224.713C372.016 225.501 372.1 226.178 372.27 226.744C372.445 227.304 372.693 227.766 373.012 228.131C373.331 228.495 373.715 228.766 374.164 228.941C374.613 229.111 375.115 229.195 375.668 229.195C376.358 229.195 376.967 229.052 377.494 228.766C378.021 228.473 378.461 228.066 378.812 227.545L378.92 229ZM390.893 218.238C390.124 218.238 389.438 218.408 388.832 218.746C388.233 219.078 387.719 219.534 387.289 220.113L387.279 219.85L387.201 218.434H385.482V229H387.299V222.223C387.416 221.897 387.562 221.604 387.738 221.344C387.921 221.077 388.132 220.852 388.373 220.67C388.64 220.462 388.952 220.305 389.311 220.201C389.669 220.09 390.069 220.035 390.512 220.035C390.857 220.035 391.186 220.055 391.498 220.094C391.817 220.126 392.152 220.182 392.504 220.26L392.748 218.492C392.566 218.414 392.292 218.352 391.928 218.307C391.57 218.261 391.225 218.238 390.893 218.238ZM400.648 229.195C401.677 229.195 402.54 228.99 403.236 228.58C403.939 228.163 404.467 227.688 404.818 227.154L403.715 226.295C403.383 226.725 402.966 227.07 402.465 227.33C401.964 227.59 401.391 227.721 400.746 227.721C400.258 227.721 399.812 227.63 399.408 227.447C399.005 227.265 398.66 227.014 398.373 226.695C398.093 226.396 397.872 226.051 397.709 225.66C397.553 225.27 397.452 224.817 397.406 224.303V224.234H404.955V223.424C404.955 222.688 404.861 222.005 404.672 221.373C404.49 220.742 404.21 220.191 403.832 219.723C403.454 219.26 402.979 218.899 402.406 218.639C401.84 218.372 401.176 218.238 400.414 218.238C399.809 218.238 399.216 218.362 398.637 218.609C398.064 218.857 397.553 219.212 397.104 219.674C396.648 220.143 396.283 220.715 396.01 221.393C395.736 222.063 395.6 222.825 395.6 223.678V224.088C395.6 224.824 395.723 225.504 395.971 226.129C396.218 226.754 396.563 227.294 397.006 227.75C397.449 228.206 397.979 228.561 398.598 228.814C399.223 229.068 399.906 229.195 400.648 229.195ZM400.414 219.723C400.876 219.723 401.273 219.807 401.605 219.977C401.944 220.146 402.224 220.367 402.445 220.641C402.667 220.914 402.839 221.24 402.963 221.617C403.087 221.988 403.148 222.337 403.148 222.662V222.75H397.465C397.536 222.262 397.66 221.832 397.836 221.461C398.018 221.083 398.24 220.764 398.5 220.504C398.76 220.25 399.053 220.058 399.379 219.928C399.704 219.791 400.049 219.723 400.414 219.723ZM413.852 229V214.781H413.705L408.324 216.852V218.502L412.045 217.086V229H413.852Z" fill="#E3E3E8"/>
<rect x="650" y="284" width="132" height="60" rx="2" fill="#161632"/>
<path d="M660.119 297.909H661.5L664.363 309.312H664.485L671.113 297.909H672.494L670.321 311H669.196L670.96 300.434H670.858L664.677 311H663.59L660.937 300.434H660.835L659.071 311H657.946L660.119 297.909ZM677.509 311.205C676.593 311.205 675.836 310.991 675.24 310.565C674.643 310.135 674.225 309.54 673.987 308.782C673.748 308.019 673.712 307.141 673.878 306.148C674.044 305.16 674.372 304.282 674.862 303.515C675.352 302.744 675.958 302.141 676.678 301.706C677.398 301.267 678.18 301.048 679.024 301.048C679.556 301.048 680.055 301.146 680.519 301.342C680.984 301.533 681.378 301.83 681.702 302.23C682.03 302.626 682.258 303.127 682.386 303.732C682.514 304.333 682.509 305.045 682.373 305.867L682.284 306.43H674.613L674.773 305.426H681.286C681.393 304.795 681.363 304.229 681.197 303.726C681.031 303.223 680.747 302.825 680.347 302.531C679.95 302.232 679.458 302.083 678.87 302.083C678.269 302.083 677.7 302.251 677.164 302.588C676.631 302.925 676.179 303.364 675.808 303.905C675.442 304.442 675.205 305.015 675.099 305.624L674.971 306.379C674.835 307.21 674.852 307.906 675.022 308.469C675.193 309.027 675.502 309.449 675.949 309.734C676.396 310.02 676.97 310.163 677.669 310.163C678.137 310.163 678.561 310.09 678.941 309.945C679.32 309.8 679.65 309.607 679.931 309.364C680.213 309.116 680.438 308.846 680.609 308.552L681.625 308.903C681.408 309.317 681.101 309.698 680.705 310.048C680.313 310.397 679.846 310.678 679.305 310.891C678.768 311.1 678.169 311.205 677.509 311.205ZM684.024 311L685.66 301.182H686.766L686.51 302.69H686.593C686.866 302.196 687.273 301.798 687.814 301.495C688.36 301.188 688.941 301.035 689.559 301.035C689.653 301.035 689.757 301.037 689.873 301.041C689.988 301.041 690.083 301.045 690.16 301.054L689.962 302.211C689.911 302.202 689.821 302.19 689.694 302.173C689.57 302.156 689.431 302.147 689.278 302.147C688.767 302.147 688.294 302.256 687.859 302.473C687.429 302.686 687.066 302.982 686.772 303.362C686.483 303.741 686.295 304.173 686.21 304.659L685.162 311H684.024ZM693.291 314.886C692.622 314.886 692.048 314.799 691.571 314.624C691.094 314.454 690.706 314.219 690.408 313.921C690.114 313.623 689.899 313.288 689.762 312.918L690.798 312.31C690.892 312.558 691.034 312.8 691.226 313.039C691.418 313.278 691.688 313.474 692.038 313.627C692.387 313.785 692.845 313.864 693.412 313.864C694.277 313.864 695.021 313.644 695.643 313.205C696.265 312.771 696.653 312.097 696.806 311.185L697.151 308.974H697.049C696.874 309.272 696.64 309.57 696.346 309.869C696.052 310.163 695.688 310.408 695.253 310.604C694.823 310.8 694.313 310.898 693.725 310.898C692.941 310.898 692.276 310.704 691.731 310.316C691.186 309.928 690.8 309.374 690.574 308.654C690.348 307.93 690.32 307.067 690.491 306.065C690.653 305.072 690.964 304.199 691.424 303.445C691.889 302.69 692.46 302.102 693.137 301.68C693.819 301.259 694.565 301.048 695.374 301.048C695.975 301.048 696.457 301.154 696.819 301.367C697.181 301.576 697.456 301.836 697.644 302.147C697.835 302.458 697.974 302.761 698.059 303.055H698.174L698.481 301.182H699.593L697.931 311.256C697.791 312.087 697.501 312.771 697.062 313.308C696.623 313.844 696.078 314.241 695.426 314.496C694.778 314.756 694.066 314.886 693.291 314.886ZM693.981 309.856C694.612 309.856 695.178 309.705 695.681 309.402C696.188 309.095 696.612 308.658 696.953 308.092C697.298 307.521 697.535 306.839 697.663 306.046C697.791 305.279 697.784 304.599 697.644 304.007C697.507 303.411 697.241 302.942 696.845 302.601C696.453 302.256 695.937 302.083 695.298 302.083C694.637 302.083 694.053 302.26 693.546 302.614C693.044 302.967 692.628 303.445 692.3 304.045C691.976 304.642 691.752 305.309 691.629 306.046C691.509 306.796 691.514 307.459 691.642 308.034C691.774 308.605 692.034 309.053 692.421 309.376C692.809 309.696 693.329 309.856 693.981 309.856ZM704.913 311.205C703.997 311.205 703.24 310.991 702.644 310.565C702.047 310.135 701.63 309.54 701.391 308.782C701.152 308.019 701.116 307.141 701.282 306.148C701.449 305.16 701.777 304.282 702.267 303.515C702.757 302.744 703.362 302.141 704.082 301.706C704.802 301.267 705.584 301.048 706.428 301.048C706.961 301.048 707.459 301.146 707.924 301.342C708.388 301.533 708.782 301.83 709.106 302.23C709.434 302.626 709.662 303.127 709.79 303.732C709.918 304.333 709.914 305.045 709.777 305.867L709.688 306.43H702.017L702.177 305.426H708.691C708.797 304.795 708.767 304.229 708.601 303.726C708.435 303.223 708.152 302.825 707.751 302.531C707.355 302.232 706.863 302.083 706.275 302.083C705.674 302.083 705.105 302.251 704.568 302.588C704.035 302.925 703.583 303.364 703.213 303.905C702.846 304.442 702.61 305.015 702.503 305.624L702.375 306.379C702.239 307.21 702.256 307.906 702.426 308.469C702.597 309.027 702.906 309.449 703.353 309.734C703.801 310.02 704.374 310.163 705.073 310.163C705.542 310.163 705.966 310.09 706.345 309.945C706.724 309.8 707.054 309.607 707.336 309.364C707.617 309.116 707.843 308.846 708.013 308.552L709.029 308.903C708.812 309.317 708.505 309.698 708.109 310.048C707.717 310.397 707.25 310.678 706.709 310.891C706.172 311.1 705.574 311.205 704.913 311.205ZM716.727 311L718.9 297.909H720.045L719.201 303.055H719.303C719.478 302.761 719.71 302.458 720 302.147C720.294 301.836 720.656 301.576 721.086 301.367C721.517 301.154 722.032 301.048 722.633 301.048C723.439 301.048 724.11 301.261 724.647 301.687C725.188 302.109 725.565 302.701 725.778 303.464C725.991 304.222 726.015 305.107 725.849 306.116C725.678 307.131 725.361 308.019 724.896 308.782C724.432 309.545 723.861 310.139 723.183 310.565C722.506 310.991 721.766 311.205 720.965 311.205C720.368 311.205 719.887 311.098 719.52 310.885C719.158 310.672 718.881 310.41 718.689 310.099C718.502 309.783 718.366 309.477 718.28 309.178H718.14L717.833 311H716.727ZM718.67 306.097C718.542 306.89 718.542 307.593 718.67 308.207C718.802 308.816 719.06 309.295 719.444 309.645C719.831 309.99 720.343 310.163 720.978 310.163C721.63 310.163 722.211 309.984 722.723 309.626C723.238 309.263 723.665 308.776 724.001 308.162C724.342 307.548 724.577 306.86 724.704 306.097C724.828 305.343 724.826 304.663 724.698 304.058C724.57 303.453 724.312 302.974 723.925 302.62C723.537 302.262 723.015 302.083 722.358 302.083C721.719 302.083 721.144 302.256 720.633 302.601C720.126 302.942 719.704 303.415 719.367 304.02C719.03 304.621 718.798 305.313 718.67 306.097ZM727.53 311L729.166 301.182H730.272L730.016 302.69H730.099C730.372 302.196 730.779 301.798 731.32 301.495C731.866 301.188 732.447 301.035 733.065 301.035C733.159 301.035 733.263 301.037 733.378 301.041C733.493 301.041 733.589 301.045 733.666 301.054L733.468 302.211C733.417 302.202 733.327 302.19 733.199 302.173C733.076 302.156 732.937 302.147 732.784 302.147C732.273 302.147 731.8 302.256 731.365 302.473C730.934 302.686 730.572 302.982 730.278 303.362C729.988 303.741 729.801 304.173 729.716 304.659L728.667 311H727.53ZM737.193 311.205C736.387 311.205 735.716 310.991 735.179 310.565C734.642 310.139 734.267 309.545 734.054 308.782C733.841 308.019 733.818 307.131 733.984 306.116C734.154 305.107 734.472 304.222 734.936 303.464C735.405 302.701 735.978 302.109 736.656 301.687C737.333 301.261 738.075 301.048 738.88 301.048C739.481 301.048 739.963 301.154 740.325 301.367C740.687 301.576 740.962 301.836 741.15 302.147C741.337 302.458 741.471 302.761 741.552 303.055H741.654L741.961 301.182H743.112L741.475 311H740.37L740.676 309.178H740.542C740.359 309.477 740.118 309.783 739.82 310.099C739.526 310.41 739.162 310.672 738.727 310.885C738.297 311.098 737.785 311.205 737.193 311.205ZM737.436 310.163C738.071 310.163 738.646 309.99 739.162 309.645C739.677 309.295 740.108 308.816 740.453 308.207C740.798 307.593 741.037 306.89 741.169 306.097C741.301 305.313 741.299 304.621 741.162 304.02C741.026 303.415 740.76 302.942 740.363 302.601C739.971 302.256 739.456 302.083 738.816 302.083C738.16 302.083 737.578 302.262 737.071 302.62C736.564 302.974 736.145 303.453 735.812 304.058C735.484 304.663 735.258 305.343 735.135 306.097C735.007 306.86 735.005 307.548 735.128 308.162C735.252 308.776 735.503 309.263 735.882 309.626C736.266 309.984 736.784 310.163 737.436 310.163ZM746.875 304.864L745.859 311H744.721L746.357 301.182H747.463L747.208 302.722H747.31C747.617 302.219 748.041 301.817 748.582 301.514C749.127 301.207 749.76 301.054 750.48 301.054C751.137 301.054 751.691 301.192 752.142 301.469C752.598 301.742 752.922 302.145 753.114 302.678C753.31 303.21 753.344 303.864 753.216 304.64L752.149 311H751.011L752.059 304.71C752.191 303.909 752.074 303.274 751.708 302.805C751.345 302.332 750.785 302.096 750.026 302.096C749.511 302.096 749.031 302.207 748.588 302.428C748.149 302.65 747.779 302.969 747.476 303.387C747.173 303.8 746.973 304.293 746.875 304.864ZM758.955 311.205C758.068 311.205 757.337 310.985 756.762 310.546C756.187 310.107 755.784 309.506 755.554 308.744C755.328 307.977 755.296 307.107 755.458 306.136C755.62 305.147 755.946 304.271 756.436 303.509C756.926 302.741 757.531 302.141 758.251 301.706C758.976 301.267 759.766 301.048 760.623 301.048C761.283 301.048 761.859 301.175 762.349 301.431C762.839 301.683 763.218 302.038 763.487 302.499C763.755 302.955 763.883 303.487 763.87 304.097H762.719C762.69 303.53 762.483 303.053 762.099 302.665C761.72 302.277 761.183 302.083 760.489 302.083C759.854 302.083 759.266 302.254 758.724 302.594C758.183 302.931 757.725 303.402 757.35 304.007C756.979 304.608 756.73 305.305 756.602 306.097C756.466 306.894 756.479 307.599 756.641 308.213C756.803 308.822 757.092 309.3 757.51 309.645C757.932 309.99 758.464 310.163 759.108 310.163C759.547 310.163 759.96 310.082 760.348 309.92C760.736 309.754 761.079 309.519 761.377 309.217C761.675 308.91 761.903 308.55 762.061 308.136H763.212C763.02 308.733 762.717 309.261 762.304 309.722C761.895 310.182 761.405 310.544 760.834 310.808C760.263 311.072 759.636 311.205 758.955 311.205ZM767.319 304.864L766.302 311H765.164L767.338 297.909H768.475L767.683 302.722H767.785C768.092 302.211 768.514 301.806 769.051 301.508C769.588 301.205 770.229 301.054 770.975 301.054C771.635 301.054 772.194 301.19 772.65 301.463C773.11 301.736 773.436 302.138 773.627 302.671C773.824 303.204 773.858 303.86 773.73 304.64L772.662 311H771.518L772.566 304.71C772.699 303.901 772.579 303.263 772.208 302.799C771.842 302.33 771.279 302.096 770.521 302.096C770.001 302.096 769.515 302.207 769.064 302.428C768.616 302.65 768.237 302.969 767.926 303.387C767.619 303.8 767.417 304.293 767.319 304.864ZM679.809 324L680.014 322.849C680.073 322.5 680.197 322.129 680.384 321.737C680.576 321.341 680.821 320.96 681.119 320.593C681.422 320.222 681.769 319.901 682.161 319.628L682.685 320.171C682.31 320.542 681.974 320.957 681.676 321.418C681.377 321.874 681.188 322.344 681.107 322.83L680.902 324H679.809ZM688.056 323.182L687.89 324.173H683.071L683.23 323.182H688.056ZM683.103 333L684.975 321.744C685.061 321.215 685.255 320.77 685.557 320.408C685.864 320.045 686.23 319.771 686.657 319.583C687.083 319.396 687.519 319.302 687.967 319.302C688.265 319.302 688.508 319.327 688.696 319.379C688.883 319.425 689.03 319.472 689.137 319.519L688.651 320.516C688.566 320.491 688.463 320.461 688.344 320.427C688.229 320.393 688.078 320.376 687.89 320.376C687.396 320.376 686.991 320.514 686.676 320.791C686.36 321.068 686.158 321.464 686.068 321.98L684.24 333H683.103ZM692.23 333.205C691.314 333.205 690.558 332.991 689.961 332.565C689.365 332.135 688.947 331.54 688.708 330.782C688.47 330.019 688.434 329.141 688.6 328.148C688.766 327.16 689.094 326.282 689.584 325.515C690.074 324.744 690.679 324.141 691.399 323.706C692.12 323.267 692.902 323.048 693.745 323.048C694.278 323.048 694.777 323.146 695.241 323.342C695.706 323.533 696.1 323.83 696.424 324.23C696.752 324.626 696.98 325.127 697.108 325.732C697.235 326.333 697.231 327.045 697.095 327.867L697.005 328.43H689.335L689.495 327.426H696.008C696.115 326.795 696.085 326.229 695.919 325.726C695.752 325.223 695.469 324.825 695.068 324.531C694.672 324.232 694.18 324.083 693.592 324.083C692.991 324.083 692.422 324.251 691.885 324.588C691.353 324.925 690.901 325.364 690.53 325.905C690.164 326.442 689.927 327.015 689.821 327.624L689.693 328.379C689.556 329.21 689.573 329.906 689.744 330.469C689.914 331.027 690.223 331.449 690.671 331.734C691.118 332.02 691.691 332.163 692.39 332.163C692.859 332.163 693.283 332.09 693.662 331.945C694.041 331.8 694.372 331.607 694.653 331.364C694.934 331.116 695.16 330.846 695.331 330.552L696.347 330.903C696.13 331.317 695.823 331.698 695.426 332.048C695.034 332.397 694.568 332.678 694.027 332.891C693.49 333.1 692.891 333.205 692.23 333.205ZM702.274 333.205C701.468 333.205 700.797 332.991 700.26 332.565C699.723 332.139 699.348 331.545 699.135 330.782C698.922 330.019 698.899 329.131 699.065 328.116C699.236 327.107 699.553 326.222 700.017 325.464C700.486 324.701 701.059 324.109 701.737 323.687C702.415 323.261 703.156 323.048 703.961 323.048C704.562 323.048 705.044 323.154 705.406 323.367C705.768 323.576 706.043 323.836 706.231 324.147C706.418 324.458 706.552 324.761 706.633 325.055H706.736L707.042 323.182H708.193L706.557 333H705.451L705.758 331.178H705.623C705.44 331.477 705.199 331.783 704.901 332.099C704.607 332.41 704.243 332.672 703.808 332.885C703.378 333.098 702.866 333.205 702.274 333.205ZM702.517 332.163C703.152 332.163 703.727 331.99 704.243 331.645C704.758 331.295 705.189 330.816 705.534 330.207C705.879 329.593 706.118 328.89 706.25 328.097C706.382 327.313 706.38 326.621 706.243 326.02C706.107 325.415 705.841 324.942 705.444 324.601C705.052 324.256 704.537 324.083 703.897 324.083C703.241 324.083 702.66 324.262 702.152 324.62C701.645 324.974 701.226 325.453 700.893 326.058C700.565 326.663 700.339 327.343 700.216 328.097C700.088 328.86 700.086 329.548 700.209 330.162C700.333 330.776 700.584 331.263 700.964 331.626C701.347 331.984 701.865 332.163 702.517 332.163ZM715.306 323.182L715.146 324.173H710.454L710.62 323.182H715.306ZM712.468 320.83H713.612L712.014 330.437C711.946 330.846 711.963 331.168 712.065 331.402C712.167 331.632 712.325 331.796 712.538 331.894C712.751 331.988 712.985 332.035 713.241 332.035C713.39 332.035 713.518 332.026 713.625 332.009C713.735 331.988 713.833 331.967 713.919 331.945L714.002 332.974C713.878 333.017 713.731 333.055 713.561 333.089C713.39 333.128 713.186 333.147 712.947 333.147C712.529 333.147 712.144 333.055 711.79 332.872C711.436 332.689 711.168 332.416 710.985 332.054C710.801 331.692 710.752 331.242 710.838 330.705L712.468 320.83ZM723.112 329.248L724.128 323.182H725.266L723.63 333H722.492L722.76 331.37H722.677C722.37 331.873 721.936 332.293 721.373 332.629C720.815 332.962 720.176 333.128 719.456 333.128C718.829 333.128 718.294 332.991 717.851 332.719C717.412 332.442 717.099 332.037 716.912 331.504C716.724 330.972 716.694 330.317 716.822 329.542L717.89 323.182H719.027L717.979 329.472C717.856 330.239 717.979 330.857 718.35 331.325C718.725 331.79 719.266 332.022 719.973 332.022C720.417 332.022 720.86 331.915 721.303 331.702C721.75 331.489 722.138 331.178 722.466 330.769C722.799 330.356 723.014 329.849 723.112 329.248ZM726.642 333L728.278 323.182H729.384L729.128 324.69H729.212C729.484 324.196 729.891 323.798 730.432 323.495C730.978 323.188 731.56 323.035 732.177 323.035C732.271 323.035 732.376 323.037 732.491 323.041C732.606 323.041 732.702 323.045 732.778 323.054L732.58 324.211C732.529 324.202 732.44 324.19 732.312 324.173C732.188 324.156 732.05 324.147 731.896 324.147C731.385 324.147 730.912 324.256 730.477 324.473C730.047 324.686 729.685 324.982 729.391 325.362C729.101 325.741 728.913 326.173 728.828 326.659L727.78 333H726.642ZM736.721 333.205C735.804 333.205 735.048 332.991 734.451 332.565C733.855 332.135 733.437 331.54 733.199 330.782C732.96 330.019 732.924 329.141 733.09 328.148C733.256 327.16 733.584 326.282 734.074 325.515C734.564 324.744 735.169 324.141 735.89 323.706C736.61 323.267 737.392 323.048 738.236 323.048C738.768 323.048 739.267 323.146 739.731 323.342C740.196 323.533 740.59 323.83 740.914 324.23C741.242 324.626 741.47 325.127 741.598 325.732C741.726 326.333 741.721 327.045 741.585 327.867L741.495 328.43H733.825L733.985 327.426H740.498C740.605 326.795 740.575 326.229 740.409 325.726C740.243 325.223 739.959 324.825 739.559 324.531C739.162 324.232 738.67 324.083 738.082 324.083C737.481 324.083 736.912 324.251 736.375 324.588C735.843 324.925 735.391 325.364 735.02 325.905C734.654 326.442 734.417 327.015 734.311 327.624L734.183 328.379C734.047 329.21 734.064 329.906 734.234 330.469C734.405 331.027 734.714 331.449 735.161 331.734C735.608 332.02 736.182 332.163 736.88 332.163C737.349 332.163 737.773 332.09 738.152 331.945C738.532 331.8 738.862 331.607 739.143 331.364C739.424 331.116 739.65 330.846 739.821 330.552L740.837 330.903C740.62 331.317 740.313 331.698 739.917 332.048C739.525 332.397 739.058 332.678 738.517 332.891C737.98 333.1 737.381 333.205 736.721 333.205ZM749.404 319.909L747.231 333H746.035L747.998 321.162H747.921L744.514 323.201L744.725 321.961L748.158 319.909H749.404ZM754.454 319.909L754.275 321.06C754.219 321.409 754.094 321.782 753.898 322.178C753.706 322.57 753.459 322.952 753.156 323.322C752.854 323.689 752.511 324.009 752.127 324.281L751.59 323.738C751.969 323.367 752.306 322.954 752.6 322.498C752.898 322.038 753.088 321.565 753.169 321.079L753.361 319.909H754.454Z" fill="#E3E3E8"/>
</g>
<defs>
<filter id="filter0_dd_442_362" x="518" y="68" width="120" height="120" filterUnits="userSpaceOnUse" color-interpolation-filters="sRGB">
<feFlood flood-opacity="0" result="BackgroundImageFix"/>
<feColorMatrix in="SourceAlpha" type="matrix" values="0 0 0 0 0 0 0 0 0 0 0 0 0 0 0 0 0 0 127 0" result="hardAlpha"/>
<feOffset dy="10"/>
<feGaussianBlur stdDeviation="10"/>
<feColorMatrix type="matrix" values="0 0 0 0 0 0 0 0 0 0 0 0 0 0 0 0 0 0 0.15 0"/>
<feBlend mode="normal" in2="BackgroundImageFix" result="effect1_dropShadow_442_362"/>
<feColorMatrix in="SourceAlpha" type="matrix" values="0 0 0 0 0 0 0 0 0 0 0 0 0 0 0 0 0 0 127 0" result="hardAlpha"/>
<feOffset dy="4"/>
<feGaussianBlur stdDeviation="2"/>
<feColorMatrix type="matrix" values="0 0 0 0 0 0 0 0 0 0 0 0 0 0 0 0 0 0 0.25 0"/>
<feBlend mode="normal" in2="effect1_dropShadow_442_362" result="effect2_dropShadow_442_362"/>
<feBlend mode="normal" in="SourceGraphic" in2="effect2_dropShadow_442_362" result="shape"/>
</filter>
<filter id="filter1_dd_442_362" x="374" y="68" width="120" height="120" filterUnits="userSpaceOnUse" color-interpolation-filters="sRGB">
<feFlood flood-opacity="0" result="BackgroundImageFix"/>
<feColorMatrix in="SourceAlpha" type="matrix" values="0 0 0 0 0 0 0 0 0 0 0 0 0 0 0 0 0 0 127 0" result="hardAlpha"/>
<feOffset dy="10"/>
<feGaussianBlur stdDeviation="10"/>
<feColorMatrix type="matrix" values="0 0 0 0 0 0 0 0 0 0 0 0 0 0 0 0 0 0 0.15 0"/>
<feBlend mode="normal" in2="BackgroundImageFix" result="effect1_dropShadow_442_362"/>
<feColorMatrix in="SourceAlpha" type="matrix" values="0 0 0 0 0 0 0 0 0 0 0 0 0 0 0 0 0 0 127 0" result="hardAlpha"/>
<feOffset dy="4"/>
<feGaussianBlur stdDeviation="2"/>
<feColorMatrix type="matrix" values="0 0 0 0 0 0 0 0 0 0 0 0 0 0 0 0 0 0 0.25 0"/>
<feBlend mode="normal" in2="effect1_dropShadow_442_362" result="effect2_dropShadow_442_362"/>
<feBlend mode="normal" in="SourceGraphic" in2="effect2_dropShadow_442_362" result="shape"/>
</filter>
<filter id="filter2_dd_442_362" x="230" y="68" width="120" height="120" filterUnits="userSpaceOnUse" color-interpolation-filters="sRGB">
<feFlood flood-opacity="0" result="BackgroundImageFix"/>
<feColorMatrix in="SourceAlpha" type="matrix" values="0 0 0 0 0 0 0 0 0 0 0 0 0 0 0 0 0 0 127 0" result="hardAlpha"/>
<feOffset dy="10"/>
<feGaussianBlur stdDeviation="10"/>
<feColorMatrix type="matrix" values="0 0 0 0 0 0 0 0 0 0 0 0 0 0 0 0 0 0 0.15 0"/>
<feBlend mode="normal" in2="BackgroundImageFix" result="effect1_dropShadow_442_362"/>
<feColorMatrix in="SourceAlpha" type="matrix" values="0 0 0 0 0 0 0 0 0 0 0 0 0 0 0 0 0 0 127 0" result="hardAlpha"/>
<feOffset dy="4"/>
<feGaussianBlur stdDeviation="2"/>
<feColorMatrix type="matrix" values="0 0 0 0 0 0 0 0 0 0 0 0 0 0 0 0 0 0 0.25 0"/>
<feBlend mode="normal" in2="effect1_dropShadow_442_362" result="effect2_dropShadow_442_362"/>
<feBlend mode="normal" in="SourceGraphic" in2="effect2_dropShadow_442_362" result="shape"/>
</filter>
<filter id="filter3_dd_442_362" x="86" y="68" width="120" height="120" filterUnits="userSpaceOnUse" color-interpolation-filters="sRGB">
<feFlood flood-opacity="0" result="BackgroundImageFix"/>
<feColorMatrix in="SourceAlpha" type="matrix" values="0 0 0 0 0 0 0 0 0 0 0 0 0 0 0 0 0 0 127 0" result="hardAlpha"/>
<feOffset dy="10"/>
<feGaussianBlur stdDeviation="10"/>
<feColorMatrix type="matrix" values="0 0 0 0 0 0 0 0 0 0 0 0 0 0 0 0 0 0 0.15 0"/>
<feBlend mode="normal" in2="BackgroundImageFix" result="effect1_dropShadow_442_362"/>
<feColorMatrix in="SourceAlpha" type="matrix" values="0 0 0 0 0 0 0 0 0 0 0 0 0 0 0 0 0 0 127 0" result="hardAlpha"/>
<feOffset dy="4"/>
<feGaussianBlur stdDeviation="2"/>
<feColorMatrix type="matrix" values="0 0 0 0 0 0 0 0 0 0 0 0 0 0 0 0 0 0 0.25 0"/>
<feBlend mode="normal" in2="effect1_dropShadow_442_362" result="effect2_dropShadow_442_362"/>
<feBlend mode="normal" in="SourceGraphic" in2="effect2_dropShadow_442_362" result="shape"/>
</filter>
<filter id="filter4_dd_442_362" x="518" y="264" width="120" height="120" filterUnits="userSpaceOnUse" color-interpolation-filters="sRGB">
<feFlood flood-opacity="0" result="BackgroundImageFix"/>
<feColorMatrix in="SourceAlpha" type="matrix" values="0 0 0 0 0 0 0 0 0 0 0 0 0 0 0 0 0 0 127 0" result="hardAlpha"/>
<feOffset dy="10"/>
<feGaussianBlur stdDeviation="10"/>
<feColorMatrix type="matrix" values="0 0 0 0 0 0 0 0 0 0 0 0 0 0 0 0 0 0 0.15 0"/>
<feBlend mode="normal" in2="BackgroundImageFix" result="effect1_dropShadow_442_362"/>
<feColorMatrix in="SourceAlpha" type="matrix" values="0 0 0 0 0 0 0 0 0 0 0 0 0 0 0 0 0 0 127 0" result="hardAlpha"/>
<feOffset dy="4"/>
<feGaussianBlur stdDeviation="2"/>
<feColorMatrix type="matrix" values="0 0 0 0 0 0 0 0 0 0 0 0 0 0 0 0 0 0 0.25 0"/>
<feBlend mode="normal" in2="effect1_dropShadow_442_362" result="effect2_dropShadow_442_362"/>
<feBlend mode="normal" in="SourceGraphic" in2="effect2_dropShadow_442_362" result="shape"/>
</filter>
<filter id="filter5_dd_442_362" x="446" y="384" width="120" height="120" filterUnits="userSpaceOnUse" color-interpolation-filters="sRGB">
<feFlood flood-opacity="0" result="BackgroundImageFix"/>
<feColorMatrix in="SourceAlpha" type="matrix" values="0 0 0 0 0 0 0 0 0 0 0 0 0 0 0 0 0 0 127 0" result="hardAlpha"/>
<feOffset dy="10"/>
<feGaussianBlur stdDeviation="10"/>
<feColorMatrix type="matrix" values="0 0 0 0 0 0 0 0 0 0 0 0 0 0 0 0 0 0 0.15 0"/>
<feBlend mode="normal" in2="BackgroundImageFix" result="effect1_dropShadow_442_362"/>
<feColorMatrix in="SourceAlpha" type="matrix" values="0 0 0 0 0 0 0 0 0 0 0 0 0 0 0 0 0 0 127 0" result="hardAlpha"/>
<feOffset dy="4"/>
<feGaussianBlur stdDeviation="2"/>
<feColorMatrix type="matrix" values="0 0 0 0 0 0 0 0 0 0 0 0 0 0 0 0 0 0 0.25 0"/>
<feBlend mode="normal" in2="effect1_dropShadow_442_362" result="effect2_dropShadow_442_362"/>
<feBlend mode="normal" in="SourceGraphic" in2="effect2_dropShadow_442_362" result="shape"/>
</filter>
<filter id="filter6_dd_442_362" x="302" y="384" width="120" height="120" filterUnits="userSpaceOnUse" color-interpolation-filters="sRGB">
<feFlood flood-opacity="0" result="BackgroundImageFix"/>
<feColorMatrix in="SourceAlpha" type="matrix" values="0 0 0 0 0 0 0 0 0 0 0 0 0 0 0 0 0 0 127 0" result="hardAlpha"/>
<feOffset dy="10"/>
<feGaussianBlur stdDeviation="10"/>
<feColorMatrix type="matrix" values="0 0 0 0 0 0 0 0 0 0 0 0 0 0 0 0 0 0 0.15 0"/>
<feBlend mode="normal" in2="BackgroundImageFix" result="effect1_dropShadow_442_362"/>
<feColorMatrix in="SourceAlpha" type="matrix" values="0 0 0 0 0 0 0 0 0 0 0 0 0 0 0 0 0 0 127 0" result="hardAlpha"/>
<feOffset dy="4"/>
<feGaussianBlur stdDeviation="2"/>
<feColorMatrix type="matrix" values="0 0 0 0 0 0 0 0 0 0 0 0 0 0 0 0 0 0 0.25 0"/>
<feBlend mode="normal" in2="effect1_dropShadow_442_362" result="effect2_dropShadow_442_362"/>
<feBlend mode="normal" in="SourceGraphic" in2="effect2_dropShadow_442_362" result="shape"/>
</filter>
<filter id="filter7_dd_442_362" x="158" y="384" width="120" height="120" filterUnits="userSpaceOnUse" color-interpolation-filters="sRGB">
<feFlood flood-opacity="0" result="BackgroundImageFix"/>
<feColorMatrix in="SourceAlpha" type="matrix" values="0 0 0 0 0 0 0 0 0 0 0 0 0 0 0 0 0 0 127 0" result="hardAlpha"/>
<feOffset dy="10"/>
<feGaussianBlur stdDeviation="10"/>
<feColorMatrix type="matrix" values="0 0 0 0 0 0 0 0 0 0 0 0 0 0 0 0 0 0 0.15 0"/>
<feBlend mode="normal" in2="BackgroundImageFix" result="effect1_dropShadow_442_362"/>
<feColorMatrix in="SourceAlpha" type="matrix" values="0 0 0 0 0 0 0 0 0 0 0 0 0 0 0 0 0 0 127 0" result="hardAlpha"/>
<feOffset dy="4"/>
<feGaussianBlur stdDeviation="2"/>
<feColorMatrix type="matrix" values="0 0 0 0 0 0 0 0 0 0 0 0 0 0 0 0 0 0 0.25 0"/>
<feBlend mode="normal" in2="effect1_dropShadow_442_362" result="effect2_dropShadow_442_362"/>
<feBlend mode="normal" in="SourceGraphic" in2="effect2_dropShadow_442_362" result="shape"/>
</filter>
<filter id="filter8_dd_442_362" x="86" y="264" width="120" height="120" filterUnits="userSpaceOnUse" color-interpolation-filters="sRGB">
<feFlood flood-opacity="0" result="BackgroundImageFix"/>
<feColorMatrix in="SourceAlpha" type="matrix" values="0 0 0 0 0 0 0 0 0 0 0 0 0 0 0 0 0 0 127 0" result="hardAlpha"/>
<feOffset dy="10"/>
<feGaussianBlur stdDeviation="10"/>
<feColorMatrix type="matrix" values="0 0 0 0 0 0 0 0 0 0 0 0 0 0 0 0 0 0 0.15 0"/>
<feBlend mode="normal" in2="BackgroundImageFix" result="effect1_dropShadow_442_362"/>
<feColorMatrix in="SourceAlpha" type="matrix" values="0 0 0 0 0 0 0 0 0 0 0 0 0 0 0 0 0 0 127 0" result="hardAlpha"/>
<feOffset dy="4"/>
<feGaussianBlur stdDeviation="2"/>
<feColorMatrix type="matrix" values="0 0 0 0 0 0 0 0 0 0 0 0 0 0 0 0 0 0 0.25 0"/>
<feBlend mode="normal" in2="effect1_dropShadow_442_362" result="effect2_dropShadow_442_362"/>
<feBlend mode="normal" in="SourceGraphic" in2="effect2_dropShadow_442_362" result="shape"/>
</filter>
<clipPath id="clip0_442_362">
<rect width="800" height="486" fill="white"/>
</clipPath>
</defs>
</svg>
