<svg width="800" height="381" viewBox="0 0 800 381" fill="none" xmlns="http://www.w3.org/2000/svg">
<rect x="298" y="27" width="80" height="80" rx="40" fill="#353578"/>
<path d="M337.926 82.483C335.682 82.4735 333.764 81.8816 332.173 80.7074C330.582 79.5331 329.366 77.8239 328.523 75.5795C327.68 73.3352 327.259 70.6316 327.259 67.4688C327.259 64.3153 327.68 61.6212 328.523 59.3864C329.375 57.1515 330.597 55.447 332.188 54.2727C333.788 53.0985 335.701 52.5114 337.926 52.5114C340.152 52.5114 342.06 53.1032 343.651 54.2869C345.241 55.4612 346.458 57.1657 347.301 59.4006C348.153 61.6259 348.58 64.3153 348.58 67.4688C348.58 70.6411 348.158 73.3494 347.315 75.5938C346.473 77.8286 345.256 79.5379 343.665 80.7216C342.074 81.8958 340.161 82.483 337.926 82.483ZM337.926 78.6903C339.896 78.6903 341.435 77.7292 342.543 75.8068C343.66 73.8845 344.219 71.1051 344.219 67.4688C344.219 65.054 343.963 63.0133 343.452 61.3466C342.95 59.6705 342.225 58.4015 341.278 57.5398C340.341 56.6686 339.223 56.233 337.926 56.233C335.966 56.233 334.427 57.1989 333.31 59.1307C332.192 61.0625 331.629 63.8419 331.619 67.4688C331.619 69.893 331.87 71.9432 332.372 73.6193C332.884 75.286 333.608 76.5502 334.545 77.4119C335.483 78.2642 336.61 78.6903 337.926 78.6903Z" fill="#E3E3E8"/>
<rect x="174" y="151" width="80" height="80" rx="40" fill="#353578"/>
<path d="M217.835 176.909V206H213.432V181.312H213.261L206.301 185.858V181.653L213.56 176.909H217.835Z" fill="#E3E3E8"/>
<rect x="422" y="151" width="80" height="80" rx="40" fill="#353578"/>
<path d="M451.798 206V202.818L461.642 192.619C462.693 191.511 463.56 190.541 464.241 189.707C464.933 188.865 465.449 188.064 465.79 187.307C466.131 186.549 466.301 185.744 466.301 184.892C466.301 183.926 466.074 183.093 465.619 182.392C465.165 181.682 464.545 181.137 463.759 180.759C462.973 180.37 462.087 180.176 461.102 180.176C460.061 180.176 459.152 180.389 458.375 180.815C457.598 181.241 457.002 181.843 456.585 182.619C456.169 183.396 455.96 184.305 455.96 185.347H451.77C451.77 183.576 452.177 182.027 452.991 180.702C453.806 179.376 454.923 178.348 456.344 177.619C457.764 176.881 459.379 176.511 461.188 176.511C463.015 176.511 464.625 176.876 466.017 177.605C467.419 178.325 468.512 179.31 469.298 180.56C470.084 181.8 470.477 183.202 470.477 184.764C470.477 185.844 470.274 186.9 469.866 187.932C469.469 188.964 468.773 190.115 467.778 191.384C466.784 192.643 465.402 194.172 463.631 195.972L457.849 202.023V202.236H470.946V206H451.798Z" fill="#E3E3E8"/>
<rect x="298" y="275" width="80" height="80" rx="40" fill="#161632"/>
<path d="M337.926 330.398C335.975 330.398 334.233 330.062 332.699 329.389C331.174 328.717 329.967 327.784 329.077 326.591C328.196 325.388 327.723 323.996 327.656 322.415H332.116C332.173 323.277 332.462 324.025 332.983 324.659C333.513 325.284 334.205 325.767 335.057 326.108C335.909 326.449 336.856 326.619 337.898 326.619C339.044 326.619 340.057 326.42 340.938 326.023C341.828 325.625 342.524 325.071 343.026 324.361C343.527 323.641 343.778 322.812 343.778 321.875C343.778 320.9 343.527 320.043 343.026 319.304C342.533 318.556 341.809 317.969 340.852 317.543C339.905 317.116 338.759 316.903 337.415 316.903H334.957V313.324H337.415C338.494 313.324 339.441 313.13 340.256 312.741C341.08 312.353 341.723 311.813 342.188 311.122C342.652 310.421 342.884 309.602 342.884 308.665C342.884 307.765 342.68 306.984 342.273 306.321C341.875 305.649 341.307 305.123 340.568 304.744C339.839 304.366 338.977 304.176 337.983 304.176C337.036 304.176 336.151 304.351 335.327 304.702C334.512 305.043 333.849 305.535 333.338 306.179C332.827 306.813 332.552 307.576 332.514 308.466H328.267C328.314 306.894 328.778 305.511 329.659 304.318C330.549 303.125 331.723 302.192 333.182 301.52C334.64 300.848 336.259 300.511 338.04 300.511C339.905 300.511 341.515 300.876 342.869 301.605C344.233 302.325 345.284 303.286 346.023 304.489C346.771 305.691 347.14 307.008 347.131 308.438C347.14 310.066 346.686 311.449 345.767 312.585C344.858 313.722 343.646 314.484 342.131 314.872V315.099C344.063 315.393 345.559 316.16 346.619 317.401C347.689 318.641 348.22 320.18 348.21 322.017C348.22 323.617 347.775 325.052 346.875 326.321C345.985 327.59 344.768 328.589 343.224 329.318C341.681 330.038 339.915 330.398 337.926 330.398Z" fill="#E3E3E8"/>
<rect x="546" y="275" width="80" height="80" rx="40" fill="#353578"/>
<path d="M574.188 324.318V320.767L586.759 300.909H589.557V306.136H587.781L578.79 320.369V320.597H596.02V324.318H574.188ZM587.98 330V323.239L588.009 321.619V300.909H592.17V330H587.98Z" fill="#E3E3E8"/>
<path d="M309 96L243 162" stroke="#E3E3E8" stroke-width="9" stroke-linecap="round"/>
<path d="M367 96L433 162" stroke="#E3E3E8" stroke-width="9" stroke-linecap="round"/>
<path d="M434 219L368 285" stroke="#E3E3E8" stroke-width="3" stroke-linecap="round"/>
<path d="M492 219L558 285" stroke="#E3E3E8" stroke-width="9" stroke-linecap="round"/>
</svg>
