<svg width="800" height="321" viewBox="0 0 800 321" fill="none" xmlns="http://www.w3.org/2000/svg">
<rect x="128.903" y="39" width="59.292" height="59.292" rx="29.646" fill="#252555"/>
<path d="M158.695 80.3622C157.011 80.3551 155.573 79.9112 154.38 79.0305C153.187 78.1499 152.274 76.8679 151.642 75.1847C151.01 73.5014 150.694 71.4737 150.694 69.1016C150.694 66.7365 151.01 64.7159 151.642 63.0398C152.281 61.3636 153.198 60.0852 154.391 59.2045C155.591 58.3239 157.026 57.8835 158.695 57.8835C160.364 57.8835 161.795 58.3274 162.988 59.2152C164.181 60.0959 165.094 61.3743 165.726 63.0504C166.365 64.7195 166.685 66.7365 166.685 69.1016C166.685 71.4808 166.369 73.5121 165.737 75.1953C165.105 76.8714 164.192 78.1534 162.999 79.0412C161.806 79.9219 160.371 80.3622 158.695 80.3622ZM158.695 77.5178C160.172 77.5178 161.326 76.7969 162.157 75.3551C162.995 73.9134 163.414 71.8288 163.414 69.1016C163.414 67.2905 163.222 65.7599 162.839 64.5099C162.462 63.2528 161.919 62.3011 161.209 61.6548C160.506 61.0014 159.668 60.6747 158.695 60.6747C157.225 60.6747 156.07 61.3991 155.232 62.848C154.394 64.2969 153.972 66.3814 153.965 69.1016C153.965 70.9197 154.153 72.4574 154.529 73.7145C154.913 74.9645 155.456 75.9126 156.159 76.5589C156.862 77.1982 157.708 77.5178 158.695 77.5178Z" fill="#E3E3E8"/>
<rect x="37" y="130.903" width="59.292" height="59.292" rx="29.646" fill="#161632"/>
<path d="M69.6109 149.943V171.761H66.3084V153.246H66.1805L60.9603 156.655V153.501L66.4042 149.943H69.6109Z" fill="#E3E3E8"/>
<rect x="220.805" y="130.903" width="59.292" height="59.292" rx="29.646" fill="#161632"/>
<path d="M242.915 171.761V169.375L250.298 161.726C251.086 160.895 251.736 160.167 252.247 159.542C252.766 158.91 253.153 158.31 253.409 157.741C253.664 157.173 253.792 156.569 253.792 155.93C253.792 155.206 253.622 154.581 253.281 154.055C252.94 153.523 252.475 153.114 251.885 152.83C251.296 152.539 250.632 152.393 249.893 152.393C249.112 152.393 248.43 152.553 247.848 152.873C247.265 153.192 246.818 153.643 246.505 154.226C246.193 154.808 246.036 155.49 246.036 156.271H242.894C242.894 154.943 243.199 153.782 243.81 152.788C244.421 151.793 245.259 151.023 246.324 150.476C247.389 149.922 248.6 149.645 249.957 149.645C251.328 149.645 252.535 149.918 253.579 150.465C254.63 151.005 255.451 151.743 256.04 152.681C256.629 153.611 256.924 154.663 256.924 155.834C256.924 156.644 256.772 157.436 256.466 158.21C256.168 158.984 255.646 159.847 254.9 160.799C254.154 161.743 253.117 162.89 251.789 164.24L247.453 168.778V168.938H257.276V171.761H242.915Z" fill="#E3E3E8"/>
<rect x="128.903" y="222.805" width="59.292" height="59.292" rx="29.646" fill="#161632"/>
<path d="M158.695 264.298C157.232 264.298 155.925 264.046 154.774 263.542C153.631 263.038 152.725 262.338 152.058 261.443C151.397 260.541 151.042 259.497 150.992 258.311H154.337C154.38 258.957 154.597 259.518 154.987 259.994C155.385 260.463 155.904 260.825 156.543 261.081C157.182 261.337 157.892 261.464 158.673 261.464C159.533 261.464 160.293 261.315 160.953 261.017C161.621 260.719 162.143 260.303 162.519 259.771C162.896 259.231 163.084 258.609 163.084 257.906C163.084 257.175 162.896 256.532 162.519 255.978C162.15 255.417 161.607 254.977 160.889 254.657C160.179 254.337 159.32 254.178 158.311 254.178H156.468V251.493H158.311C159.121 251.493 159.831 251.347 160.442 251.056C161.06 250.765 161.543 250.36 161.891 249.842C162.239 249.316 162.413 248.702 162.413 247.999C162.413 247.324 162.26 246.738 161.955 246.241C161.656 245.737 161.23 245.342 160.676 245.058C160.129 244.774 159.483 244.632 158.737 244.632C158.027 244.632 157.363 244.763 156.745 245.026C156.134 245.282 155.637 245.651 155.254 246.134C154.87 246.61 154.664 247.182 154.636 247.849H151.45C151.486 246.67 151.834 245.634 152.494 244.739C153.162 243.844 154.043 243.144 155.136 242.64C156.23 242.136 157.445 241.884 158.78 241.884C160.179 241.884 161.386 242.157 162.402 242.704C163.425 243.244 164.213 243.964 164.767 244.866C165.328 245.768 165.605 246.756 165.598 247.828C165.605 249.05 165.264 250.087 164.575 250.939C163.894 251.791 162.984 252.363 161.848 252.654V252.825C163.297 253.045 164.419 253.62 165.215 254.55C166.017 255.481 166.415 256.635 166.408 258.013C166.415 259.213 166.081 260.289 165.406 261.241C164.739 262.192 163.826 262.942 162.668 263.489C161.511 264.028 160.186 264.298 158.695 264.298Z" fill="#E3E3E8"/>
<rect x="312.708" y="222.805" width="59.292" height="59.292" rx="29.646" fill="#161632"/>
<path d="M333.618 259.402V256.739L343.047 241.845H345.145V245.766H343.814L337.07 256.441V256.611H349.993V259.402H333.618ZM343.963 263.664V258.593L343.984 257.378V241.845H347.106V263.664H343.963Z" fill="#E3E3E8"/>
<path d="M137.055 90.1392L88.1392 139.055" stroke="#E3E3E8" stroke-width="3" stroke-linecap="round"/>
<path d="M180.042 90.1392L228.958 139.055" stroke="#E3E3E8" stroke-width="3" stroke-linecap="round"/>
<path d="M229.699 181.301L180.783 230.217" stroke="#E3E3E8" stroke-width="3" stroke-linecap="round"/>
<path d="M272.686 181.301L321.602 230.217" stroke="#E3E3E8" stroke-width="3" stroke-linecap="round"/>
<rect x="612" y="39" width="59.292" height="59.292" rx="29.646" fill="#252555"/>
<path d="M634.196 80V77.6136L641.579 69.9645C642.367 69.1335 643.017 68.4055 643.528 67.7805C644.047 67.1484 644.434 66.5483 644.689 65.9801C644.945 65.4119 645.073 64.8082 645.073 64.169C645.073 63.4446 644.903 62.8196 644.562 62.294C644.221 61.7614 643.756 61.353 643.166 61.0689C642.577 60.7777 641.913 60.6321 641.174 60.6321C640.393 60.6321 639.711 60.7919 639.128 61.1115C638.546 61.4311 638.099 61.8821 637.786 62.4645C637.474 63.0469 637.317 63.7287 637.317 64.5099H634.175C634.175 63.1818 634.48 62.0206 635.091 61.0263C635.702 60.032 636.54 59.2614 637.605 58.7145C638.67 58.1605 639.881 57.8835 641.238 57.8835C642.609 57.8835 643.816 58.157 644.86 58.7038C645.911 59.2436 646.731 59.9822 647.321 60.9197C647.91 61.8501 648.205 62.9013 648.205 64.0732C648.205 64.8828 648.052 65.6747 647.747 66.4489C647.449 67.223 646.927 68.0859 646.181 69.0376C645.435 69.9822 644.398 71.1293 643.07 72.4787L638.734 77.017V77.1768H648.557V80H634.196Z" fill="#E3E3E8"/>
<rect x="520.097" y="130.903" width="59.292" height="59.292" rx="29.646" fill="#161632"/>
<path d="M552.026 172.123C550.343 172.116 548.905 171.672 547.712 170.792C546.519 169.911 545.606 168.629 544.974 166.946C544.342 165.263 544.026 163.235 544.026 160.863C544.026 158.498 544.342 156.477 544.974 154.801C545.613 153.125 546.529 151.846 547.722 150.966C548.923 150.085 550.357 149.645 552.026 149.645C553.695 149.645 555.127 150.089 556.32 150.976C557.513 151.857 558.426 153.136 559.058 154.812C559.697 156.481 560.016 158.498 560.016 160.863C560.016 163.242 559.7 165.273 559.068 166.957C558.436 168.633 557.524 169.915 556.33 170.802C555.137 171.683 553.703 172.123 552.026 172.123ZM552.026 169.279C553.504 169.279 554.658 168.558 555.489 167.116C556.327 165.675 556.746 163.59 556.746 160.863C556.746 159.052 556.554 157.521 556.171 156.271C555.794 155.014 555.251 154.062 554.541 153.416C553.837 152.763 552.999 152.436 552.026 152.436C550.556 152.436 549.402 153.16 548.564 154.609C547.726 156.058 547.303 158.143 547.296 160.863C547.296 162.681 547.484 164.219 547.861 165.476C548.244 166.726 548.788 167.674 549.491 168.32C550.194 168.959 551.039 169.279 552.026 169.279Z" fill="#E3E3E8"/>
<rect x="703.902" y="130.903" width="59.292" height="59.292" rx="29.646" fill="#161632"/>
<path d="M725.554 167.5V164.837L734.982 149.943H737.081V153.864H735.749L729.006 164.538V164.709H741.928V167.5H725.554ZM735.898 171.761V166.69L735.92 165.476V149.943H739.041V171.761H735.898Z" fill="#E3E3E8"/>
<rect x="432" y="222.805" width="59.292" height="59.292" rx="29.646" fill="#161632"/>
<path d="M462.474 242.182V264H459.171V245.484H459.043L453.823 248.893V245.74L459.267 242.182H462.474Z" fill="#E3E3E8"/>
<rect x="612.097" y="167" width="59.292" height="59.292" rx="29.646" fill="#161632"/>
<path d="M641.062 208.157C639.598 208.157 638.292 207.905 637.141 207.4C635.998 206.896 635.092 206.196 634.424 205.302C633.764 204.4 633.409 203.356 633.359 202.169H636.704C636.747 202.816 636.964 203.377 637.354 203.853C637.752 204.321 638.27 204.684 638.91 204.939C639.549 205.195 640.259 205.323 641.04 205.323C641.9 205.323 642.66 205.174 643.32 204.875C643.988 204.577 644.51 204.162 644.886 203.629C645.263 203.089 645.451 202.468 645.451 201.765C645.451 201.033 645.263 200.39 644.886 199.836C644.517 199.275 643.973 198.835 643.256 198.515C642.546 198.196 641.687 198.036 640.678 198.036H638.835V195.351H640.678C641.488 195.351 642.198 195.206 642.809 194.915C643.427 194.623 643.91 194.218 644.258 193.7C644.606 193.174 644.78 192.56 644.78 191.857C644.78 191.182 644.627 190.596 644.321 190.099C644.023 189.595 643.597 189.201 643.043 188.917C642.496 188.633 641.85 188.49 641.104 188.49C640.394 188.49 639.73 188.622 639.112 188.885C638.501 189.14 638.004 189.51 637.62 189.993C637.237 190.468 637.031 191.04 637.003 191.708H633.817C633.853 190.529 634.201 189.492 634.861 188.597C635.529 187.702 636.41 187.003 637.503 186.498C638.597 185.994 639.812 185.742 641.147 185.742C642.546 185.742 643.753 186.015 644.769 186.562C645.792 187.102 646.58 187.823 647.134 188.725C647.695 189.627 647.972 190.614 647.965 191.687C647.972 192.908 647.631 193.945 646.942 194.797C646.26 195.65 645.351 196.221 644.215 196.513V196.683C645.664 196.903 646.786 197.478 647.581 198.409C648.384 199.339 648.782 200.493 648.775 201.871C648.782 203.071 648.448 204.147 647.773 205.099C647.106 206.051 646.193 206.8 645.035 207.347C643.878 207.887 642.553 208.157 641.062 208.157Z" fill="#E3E3E8"/>
<path d="M620.152 90.1392L571.236 139.055" stroke="#E3E3E8" stroke-width="3" stroke-linecap="round"/>
<path d="M663.139 90.1392L712.055 139.055" stroke="#E3E3E8" stroke-width="3" stroke-linecap="round"/>
<path d="M532.796 181.301L483.88 230.217" stroke="#E3E3E8" stroke-width="3" stroke-linecap="round"/>
<path d="M642.097 167.178V98.0002" stroke="#E3E3E8" stroke-width="3" stroke-linecap="round"/>
</svg>
