<svg width="128" height="128" viewBox="0 0 128 128" fill="none" xmlns="http://www.w3.org/2000/svg">
<path fill-rule="evenodd" clip-rule="evenodd" d="M21.3333 64C21.3333 61.0545 23.7212 58.6667 26.6667 58.6667H101.333C104.279 58.6667 106.667 61.0545 106.667 64C106.667 66.9455 104.279 69.3333 101.333 69.3333H26.6667C23.7212 69.3333 21.3333 66.9455 21.3333 64Z" fill="black"/>
<path fill-rule="evenodd" clip-rule="evenodd" d="M62.4379 28.2288C64.5207 30.3116 64.5207 33.6884 62.4379 35.7712L34.2091 64L62.4379 92.2288C64.5207 94.3116 64.5207 97.6884 62.4379 99.7712C60.3551 101.854 56.9782 101.854 54.8954 99.7712L22.8954 67.7712C20.8126 65.6884 20.8126 62.3116 22.8954 60.2288L54.8954 28.2288C56.9782 26.146 60.3551 26.146 62.4379 28.2288Z" fill="black"/>
</svg>
