<svg width="128" height="128" viewBox="0 0 128 128" fill="none" xmlns="http://www.w3.org/2000/svg">
<path fill-rule="evenodd" clip-rule="evenodd" d="M106.667 64C106.667 61.0545 104.279 58.6667 101.333 58.6667H26.6667C23.7211 58.6667 21.3333 61.0545 21.3333 64C21.3333 66.9455 23.7211 69.3333 26.6667 69.3333H101.333C104.279 69.3333 106.667 66.9455 106.667 64Z" fill="black"/>
<path fill-rule="evenodd" clip-rule="evenodd" d="M65.5621 28.2288C63.4793 30.3116 63.4793 33.6884 65.5621 35.7712L93.7908 64L65.5621 92.2288C63.4793 94.3116 63.4793 97.6884 65.5621 99.7712C67.6449 101.854 71.0218 101.854 73.1046 99.7712L105.105 67.7712C107.187 65.6884 107.187 62.3116 105.105 60.2288L73.1046 28.2288C71.0218 26.146 67.6449 26.146 65.5621 28.2288Z" fill="black"/>
</svg>
