<svg width="128" height="128" viewBox="0 0 128 128" fill="none" xmlns="http://www.w3.org/2000/svg">
<path fill-rule="evenodd" clip-rule="evenodd" d="M64 106.667C66.9455 106.667 69.3333 104.279 69.3333 101.333V26.6667C69.3333 23.7211 66.9455 21.3333 64 21.3333C61.0545 21.3333 58.6667 23.7211 58.6667 26.6667L58.6667 101.333C58.6667 104.279 61.0545 106.667 64 106.667Z" fill="black"/>
<path fill-rule="evenodd" clip-rule="evenodd" d="M99.7712 65.5621C97.6884 63.4793 94.3115 63.4793 92.2287 65.5621L64 93.7909L35.7712 65.5621C33.6884 63.4793 30.3115 63.4793 28.2287 65.5621C26.1459 67.6449 26.1459 71.0218 28.2287 73.1046L60.2287 105.105C62.3115 107.187 65.6884 107.187 67.7712 105.105L99.7712 73.1046C101.854 71.0218 101.854 67.6449 99.7712 65.5621Z" fill="black"/>
</svg>
