<svg width="128" height="128" viewBox="0 0 128 128" fill="none" xmlns="http://www.w3.org/2000/svg">
<path fill-rule="evenodd" clip-rule="evenodd" d="M64 21.3333C66.9455 21.3333 69.3333 23.7211 69.3333 26.6667V101.333C69.3333 104.279 66.9455 106.667 64 106.667C61.0545 106.667 58.6667 104.279 58.6667 101.333L58.6667 26.6667C58.6667 23.7211 61.0545 21.3333 64 21.3333Z" fill="black"/>
<path fill-rule="evenodd" clip-rule="evenodd" d="M99.7712 62.4379C97.6884 64.5207 94.3116 64.5207 92.2288 62.4379L64 34.2091L35.7712 62.4379C33.6884 64.5207 30.3116 64.5207 28.2288 62.4379C26.146 60.3551 26.146 56.9782 28.2288 54.8954L60.2288 22.8954C62.3116 20.8126 65.6884 20.8126 67.7712 22.8954L99.7712 54.8954C101.854 56.9782 101.854 60.3551 99.7712 62.4379Z" fill="black"/>
</svg>
