<svg width="128" height="128" viewBox="0 0 128 128" fill="none" xmlns="http://www.w3.org/2000/svg">
<path fill-rule="evenodd" clip-rule="evenodd" d="M47 79C47 77.3431 48.3431 76 50 76H63C64.6569 76 66 77.3431 66 79C66 80.6569 64.6569 82 63 82H50C48.3431 82 47 80.6569 47 79Z" fill="black"/>
<path fill-rule="evenodd" clip-rule="evenodd" d="M73 79C73 77.3431 74.3431 76 76 76H88C89.6569 76 91 77.3431 91 79C91 80.6569 89.6569 82 88 82H76C74.3431 82 73 80.6569 73 79Z" fill="black"/>
<path fill-rule="evenodd" clip-rule="evenodd" d="M66 61C66 59.3431 67.3431 58 69 58H107C108.657 58 110 59.3431 110 61C110 62.6569 108.657 64 107 64H69C67.3431 64 66 62.6569 66 61Z" fill="black"/>
<path fill-rule="evenodd" clip-rule="evenodd" d="M86.1213 41.8787C87.2929 43.0503 87.2929 44.9497 86.1213 46.1213L16.1213 116.121C14.9497 117.293 13.0503 117.293 11.8787 116.121C10.7071 114.95 10.7071 113.05 11.8787 111.879L81.8787 41.8787C83.0503 40.7071 84.9497 40.7071 86.1213 41.8787Z" fill="black"/>
<path fill-rule="evenodd" clip-rule="evenodd" d="M60.6327 20.6654C66.8252 14.4766 75.2237 11 83.9805 11C92.7373 11 101.136 14.4766 107.328 20.6654C113.521 26.8544 117 35.2487 117 44.002C117 52.7552 113.521 61.1496 107.328 67.3385C106.156 68.5097 104.257 68.5092 103.086 67.3373C101.914 66.1653 101.915 64.2659 103.087 63.0946C108.154 58.0306 111 51.1628 111 44.002C111 36.8412 108.154 29.9733 103.087 24.9093C98.0199 19.8453 91.1471 17 83.9805 17C76.8139 17 69.9411 19.8453 64.8741 24.9093C63.7022 26.0805 61.8027 26.08 60.6315 24.9081C59.4602 23.7362 59.4608 21.8367 60.6327 20.6654Z" fill="black"/>
<path fill-rule="evenodd" clip-rule="evenodd" d="M64.8752 20.6667C66.0465 21.8386 66.0459 23.7381 64.874 24.9093L39.9137 49.8549C34.8468 54.9189 32 61.7888 32 68.9524V96H59.0569C66.2288 96 73.1061 93.1466 78.1714 88.0692L103.084 63.0978C104.254 61.9248 106.153 61.9226 107.326 63.0927C108.499 64.2629 108.501 66.1624 107.331 67.3354L82.4191 92.3068C76.2282 98.5125 67.8226 102 59.0569 102H32C28.6863 102 26 99.3137 26 96V68.9524C26 60.1969 29.4794 51.8003 35.6723 45.611L60.6326 20.6654C61.8045 19.4942 63.704 19.4948 64.8752 20.6667Z" fill="black"/>
</svg>
