<svg width="128" height="128" viewBox="0 0 128 128" fill="none" xmlns="http://www.w3.org/2000/svg">
<path fill-rule="evenodd" clip-rule="evenodd" d="M32 21.3333C30.6814 21.3333 29.3545 21.8836 28.3293 22.9657C27.2948 24.0577 26.6667 25.5974 26.6667 27.2593V106.074C26.6667 107.736 27.2948 109.276 28.3293 110.368C29.3545 111.45 30.6814 112 32 112H96C97.3186 112 98.6455 111.45 99.6707 110.368C100.705 109.276 101.333 107.736 101.333 106.074V27.2593C101.333 25.5974 100.705 24.0577 99.6707 22.9657C98.6455 21.8836 97.3186 21.3333 96 21.3333H85.3333C82.3878 21.3333 80 18.9455 80 16C80 13.0545 82.3878 10.6667 85.3333 10.6667H96C100.339 10.6667 104.439 12.4889 107.414 15.6298C110.381 18.7609 112 22.9489 112 27.2593V106.074C112 110.384 110.381 114.572 107.414 117.704C104.439 120.844 100.339 122.667 96 122.667H32C27.6606 122.667 23.5614 120.844 20.5858 117.704C17.6195 114.572 16 110.384 16 106.074V27.2593C16 22.9489 17.6195 18.7609 20.5858 15.6298C23.5614 12.4889 27.6606 10.6667 32 10.6667H42.6667C45.6122 10.6667 48 13.0545 48 16C48 18.9455 45.6122 21.3333 42.6667 21.3333H32Z" fill="black"/>
<path fill-rule="evenodd" clip-rule="evenodd" d="M37.3333 16C37.3333 10.109 42.109 5.33333 48 5.33333H80C85.891 5.33333 90.6667 10.109 90.6667 16V26.6667C90.6667 32.5577 85.891 37.3333 80 37.3333H48C42.109 37.3333 37.3333 32.5577 37.3333 26.6667V16ZM80 16H48V26.6667H80V16Z" fill="black"/>
</svg>
