<svg width="128" height="128" viewBox="0 0 128 128" fill="none" xmlns="http://www.w3.org/2000/svg">
<path fill-rule="evenodd" clip-rule="evenodd" d="M90.7523 97.8234C92.7049 99.776 95.8708 99.776 97.8234 97.8234C99.776 95.8708 99.776 92.705 97.8234 90.7523L70.9533 63.8823L97.8234 37.0123C99.776 35.0596 99.776 31.8938 97.8234 29.9412C95.8708 27.9886 92.7049 27.9886 90.7523 29.9412L63.8823 56.8112L37.0122 29.9412C35.0596 27.9885 31.8938 27.9885 29.9411 29.9412C27.9885 31.8938 27.9885 35.0596 29.9411 37.0122L56.8112 63.8823L29.9411 90.7524C27.9885 92.705 27.9885 95.8708 29.9411 97.8234C31.8937 99.7761 35.0596 99.7761 37.0122 97.8234L63.8823 70.9534L90.7523 97.8234Z" fill="black"/>
</svg>
