<svg width="128" height="128" viewBox="0 0 128 128" fill="none" xmlns="http://www.w3.org/2000/svg">
<path fill-rule="evenodd" clip-rule="evenodd" d="M61.0934 6.19498C62.8608 5.04613 65.1391 5.04613 66.9066 6.19498L120.24 40.8616C121.753 41.8455 122.667 43.5281 122.667 45.3333V82.6667C122.667 84.4719 121.753 86.1545 120.24 87.1384L66.9066 121.805C65.1391 122.954 62.8608 122.954 61.0934 121.805L7.76006 87.1384C6.2465 86.1545 5.33333 84.4719 5.33333 82.6667V45.3333C5.33333 43.5281 6.2465 41.8455 7.76006 40.8616L61.0934 6.19498ZM16 48.2277V79.7723L64 110.972L112 79.7723V48.2277L64 17.0277L16 48.2277Z" fill="black"/>
<path fill-rule="evenodd" clip-rule="evenodd" d="M64 77.3333C66.9455 77.3333 69.3333 79.7211 69.3333 82.6666V117.333C69.3333 120.279 66.9455 122.667 64 122.667C61.0545 122.667 58.6667 120.279 58.6667 117.333V82.6666C58.6667 79.7211 61.0545 77.3333 64 77.3333Z" fill="black"/>
<path fill-rule="evenodd" clip-rule="evenodd" d="M6.29742 42.2749C7.98657 39.8618 11.3121 39.275 13.7251 40.9641L64 76.1565L114.275 40.9641C116.688 39.275 120.013 39.8618 121.703 42.2749C123.392 44.688 122.805 48.0135 120.392 49.7026L67.0585 87.0359C65.2221 88.3214 62.7779 88.3214 60.9415 87.0359L7.6082 49.7026C5.19513 48.0135 4.60828 44.688 6.29742 42.2749Z" fill="black"/>
<path fill-rule="evenodd" clip-rule="evenodd" d="M60.9415 40.9641C62.7779 39.6786 65.2221 39.6786 67.0585 40.9641L120.392 78.2974C122.805 79.9866 123.392 83.3121 121.703 85.7251C120.013 88.1382 116.688 88.725 114.275 87.0359L64 51.8435L13.7251 87.0359C11.3121 88.725 7.98657 88.1382 6.29742 85.7251C4.60828 83.3121 5.19513 79.9866 7.6082 78.2974L60.9415 40.9641Z" fill="black"/>
<path fill-rule="evenodd" clip-rule="evenodd" d="M64 5.33334C66.9455 5.33334 69.3333 7.72116 69.3333 10.6667V45.3333C69.3333 48.2789 66.9455 50.6667 64 50.6667C61.0545 50.6667 58.6667 48.2789 58.6667 45.3333V10.6667C58.6667 7.72116 61.0545 5.33334 64 5.33334Z" fill="black"/>
</svg>
