<svg width="128" height="128" viewBox="0 0 128 128" fill="none" xmlns="http://www.w3.org/2000/svg">
<path d="M94.375 52V58H100.625V52H103.75V58H110V61H103.75V67H110V70H103.75V76H100.625V70H94.375V76H91.25V70H85V67H91.25V61H85V58H91.25V52H94.375ZM100.625 61H94.375V67H100.625V61Z" fill="black"/>
<path d="M60.8627 21C76.719 21 90.5628 29.6391 97.9778 42.4801L97.9055 42.3565L79.2497 53.1329C75.574 46.8895 68.8357 42.6762 61.1061 42.5894L60.8627 42.588C49.0753 42.588 39.519 52.1745 39.519 63.9997C39.519 67.8669 40.5467 71.4918 42.3339 74.6228C46.0129 81.0661 52.929 85.412 60.8627 85.412C68.8454 85.412 75.8008 81.0109 79.4612 74.4986L79.3722 74.6549L98 85.481C90.6663 98.2133 77.0121 106.826 61.3401 106.997L60.8627 107C44.9564 107 31.0732 98.3077 23.6768 85.3988C20.066 79.0968 18 71.7907 18 63.9997C18 40.252 37.1899 21 60.8627 21Z" fill="black"/>
</svg>
