<svg width="128" height="128" viewBox="0 0 128 128" fill="none" xmlns="http://www.w3.org/2000/svg">
<path d="M63.92 105.68C61.84 105.68 60.02 104.987 58.46 103.6C56.9 102.04 56.12 100.22 56.12 98.14C56.12 97.4467 57.5067 88.26 60.28 70.58C46.4133 81.8467 39.1333 87.6533 38.44 88C37.4 88.52 36.2733 88.78 35.06 88.78C32.1133 88.78 29.7733 87.48 28.04 84.88C27.3467 83.6667 27 82.28 27 80.72C27 77.7733 28.2133 75.6933 30.64 74.48L56.64 64.34L30.64 54.2C28.2133 52.8133 27 50.6467 27 47.7C27 46.14 27.3467 44.7533 28.04 43.54C29.7733 40.94 32.0267 39.64 34.8 39.64C36.0133 39.64 37.2267 39.9867 38.44 40.68C39.1333 41.0267 46.4133 46.8333 60.28 58.1C57.5067 40.42 56.12 31.2333 56.12 30.54C56.12 28.46 56.9 26.7267 58.46 25.34C60.02 23.78 61.84 23 63.92 23C66 23 67.82 23.78 69.38 25.34C70.94 26.7267 71.72 28.46 71.72 30.54C71.72 31.2333 70.3333 40.42 67.56 58.1C81.4267 46.8333 88.7067 41.0267 89.4 40.68C90.2667 39.9867 91.48 39.64 93.04 39.64C95.8133 39.64 98.0667 40.94 99.8 43.54C100.493 44.9267 100.84 46.2267 100.84 47.44C100.84 50.3867 99.6267 52.64 97.2 54.2L71.2 64.34L97.2 74.48C99.6267 75.8667 100.84 78.0333 100.84 80.98C100.84 82.1933 100.493 83.4933 99.8 84.88C98.0667 87.48 95.7267 88.78 92.78 88.78C91.5667 88.78 90.44 88.52 89.4 88C88.7067 87.6533 81.4267 81.8467 67.56 70.58C70.3333 88.26 71.72 97.4467 71.72 98.14C71.72 100.22 70.94 102.04 69.38 103.6C67.82 104.987 66 105.68 63.92 105.68Z" fill="black"/>
</svg>
