<svg width="128" height="128" viewBox="0 0 128 128" fill="none" xmlns="http://www.w3.org/2000/svg">
<path fill-rule="evenodd" clip-rule="evenodd" d="M109.581 43.3653C109.036 43.5 108.419 43.6491 107.755 43.7933C104.555 44.4882 100.003 45.1353 94.9596 43.8462C94.9439 43.8515 94.9196 43.861 94.8861 43.8777C94.7044 43.9679 94.3437 44.2255 93.9181 44.8039C93.0434 45.9927 92.3984 47.8588 92.3984 49.6839C92.3984 53.6266 94.8211 55.182 95.9933 55.182C101.332 55.182 106.13 51.4609 108.07 47.5811C108.735 46.2512 109.299 44.6932 109.581 43.3653ZM94.981 43.84C94.981 43.84 94.9805 43.8401 94.9793 43.8403C94.9805 43.8401 94.981 43.84 94.981 43.84ZM112.487 38.7827C112.025 38.3972 110.803 38.7019 109.038 39.1422C105.961 39.9095 101.233 41.0887 95.9933 39.7451C91.8076 38.6719 88.1692 44.3117 88.1692 49.6839C88.1692 55.0562 91.6721 59.4112 95.9933 59.4112C103.183 59.4112 109.315 54.5476 111.853 49.4725C113.756 45.6661 115.236 39.84 112.487 38.7827Z" fill="black"/>
<path d="M98.3194 78.8658C98.3194 90.9993 89.0293 100.963 77.1741 102.032L77.1731 102.032V102.127C77.1731 102.127 75.5833 102.109 72.9438 102.087C67.0271 102.037 55.8359 101.966 45.4536 102.032C30.4397 102.127 20.7124 88.1702 16.2717 76.7512C14.58 70.4073 11.323 54.2228 18.1748 50.9526C23.0322 48.6344 25.1809 50.1062 27.9304 51.9896C30.4477 53.7139 33.4685 55.7832 39.5326 55.6048C46.4454 55.4015 56.999 55.4198 65.1741 55.4785V59.7079C64.4933 59.703 63.796 59.6983 63.0855 59.6941C55.2602 59.6474 45.9178 59.6481 39.657 59.8323C35.9224 59.9421 32.9921 59.3251 30.549 58.3249C28.4048 57.4471 26.735 56.2999 25.5514 55.4868C25.4304 55.4037 25.3145 55.3241 25.2038 55.2486C23.88 54.3468 23.3672 54.1033 22.9132 54.0226C22.5991 53.9668 21.8079 53.9049 19.9965 54.7695C19.7477 54.8882 19.2322 55.2655 18.7951 56.7023C18.3545 58.1503 18.1689 60.1571 18.2465 62.563C18.3969 67.2283 19.4922 72.3646 20.2983 75.4352C22.3785 80.7144 25.6166 86.411 29.9008 90.7313C34.2063 95.0731 39.3606 97.8411 45.4269 97.8028C52.9582 97.7552 60.9071 97.779 66.9684 97.8146C70.0002 97.8324 72.5621 97.8532 74.3665 97.8695C75.0434 97.8756 75.6137 97.8811 76.0623 97.8856L76.7935 97.8197C86.4891 96.946 94.0901 88.7912 94.0901 78.8658C94.0901 72.8882 91.3332 67.5528 87.0221 64.0634L90.3382 61.3268C95.2289 65.5911 98.3194 71.8675 98.3194 78.8658Z" fill="black"/>
<path fill-rule="evenodd" clip-rule="evenodd" d="M65.7586 85.9393L68.8873 85.6128C71.2993 85.3611 74.0556 82.7337 74.0556 78.4552C74.0556 74.1767 71.2993 71.5492 68.8873 71.2975L68.6338 71.2711C68.3561 71.27 68.0004 71.2687 67.5812 71.2673C66.5107 71.2637 65.0271 71.2593 63.3749 71.2564C60.0645 71.2506 56.0977 71.2507 53.4162 71.2737C52.1723 71.2844 51.1064 71.2952 50.1519 71.3048C47.5976 71.3306 45.8409 71.3483 43.605 71.3352C43.6021 71.7967 43.6573 72.4142 43.84 73.1843C44.5394 76.1317 46.9483 80.5091 52.7366 84.4496C53.3594 84.8735 54.5314 85.319 56.3214 85.6294C58.0399 85.9274 59.9889 86.0454 61.8877 86.055C63.3042 86.0621 64.6406 86.0089 65.7586 85.9393ZM69.3262 67.0911C74.3489 67.6152 78.2848 72.503 78.2848 78.4552C78.2848 84.4074 74.3489 89.2952 69.3262 89.8192V89.8658C69.3262 89.8658 55.7565 91.6216 50.3566 87.9456C37.2724 79.0383 37.8955 67.0446 41.9398 67.0911C45.0419 67.1268 46.9319 67.1077 50.0861 67.0759C51.0442 67.0663 52.119 67.0554 53.3798 67.0446C58.7913 66.9981 69.3262 67.0446 69.3262 67.0446V67.0911Z" fill="black"/>
<path d="M80.1336 30.2293C71.2577 30.2293 64.0624 37.4246 64.0624 46.3005C64.0624 55.1764 71.2577 62.3717 80.1336 62.3717C85.5419 62.3717 90.3263 59.7002 93.2391 55.6049L97.1051 57.4436C93.476 62.9597 87.23 66.6009 80.1336 66.6009C68.9219 66.6009 59.8331 57.5121 59.8331 46.3005C59.8331 35.0888 68.9219 26 80.1336 26C89.8949 26 98.0471 32.8895 99.9929 42.0712L95.4557 41.4368C93.3948 34.9384 87.3141 30.2293 80.1336 30.2293Z" fill="black"/>
<path fill-rule="evenodd" clip-rule="evenodd" d="M84.4172 44.9318C84.0117 44.9318 83.6829 45.2605 83.6829 45.6661C83.6829 46.0716 84.0117 46.4004 84.4172 46.4004C84.8228 46.4004 85.1516 46.0716 85.1516 45.6661C85.1516 45.2605 84.8228 44.9318 84.4172 44.9318ZM84.4172 48.838C86.1691 48.838 87.5892 47.4179 87.5892 45.6661C87.5892 43.9143 86.1691 42.4941 84.4172 42.4941C82.6654 42.4941 81.2453 43.9143 81.2453 45.6661C81.2453 47.4179 82.6654 48.838 84.4172 48.838Z" fill="black"/>
</svg>
