<svg width="128" height="128" viewBox="0 0 128 128" fill="none" xmlns="http://www.w3.org/2000/svg">
<path d="M51.5415 28.4092L33.1323 10L26 17.1288L44.1479 35.2802C42.2873 39.7366 43.1601 45.064 46.7889 48.6912C47.9771 49.8828 49.3447 50.7695 50.8081 51.3688V95.323C49.3447 95.9223 47.9736 96.8177 46.7889 98.0006C41.9981 102.79 41.9981 110.553 46.7889 115.351C51.5763 120.14 59.3445 120.14 64.1354 115.351C68.9263 110.554 68.9263 102.792 64.1354 98.0006C63.1633 97.0285 62.0605 96.2585 60.8933 95.6801L60.8933 52.1319L77.4436 68.6805C75.6161 73.1194 76.5081 78.4155 80.1108 82.0217C84.9069 86.8144 92.6699 86.8144 97.4643 82.0217C102.255 77.2274 102.255 69.4644 97.4643 64.6735C94.0357 61.2398 89.0846 60.2816 84.7902 61.7624L67.0448 44.0187C68.5273 39.7244 67.5657 34.7767 64.1354 31.3447C60.726 27.9336 55.8202 26.9632 51.5415 28.4092Z" fill="black"/>
</svg>
