<svg width="128" height="128" viewBox="0 0 128 128" fill="none" xmlns="http://www.w3.org/2000/svg">
<path fill-rule="evenodd" clip-rule="evenodd" d="M5.49257 89.3731C6.20697 86.5156 9.10262 84.7782 11.9602 85.4926C16.3115 86.5804 19.2262 89.512 21.31 91.9582C22.052 92.8293 22.8184 93.8021 23.5204 94.6932C23.7929 95.039 24.0556 95.3725 24.3035 95.683C25.2557 96.8758 26.1507 97.9415 27.1046 98.8954C28.9524 100.743 30.9442 102.095 33.632 102.724C36.3886 103.369 40.4072 103.376 46.4675 101.558C49.2888 100.712 52.262 102.313 53.1084 105.134C53.9548 107.955 52.3538 110.929 49.5325 111.775C42.2594 113.957 36.2781 114.298 31.2013 113.11C26.0558 111.905 22.3809 109.257 19.5621 106.438C18.1827 105.058 16.9943 103.624 15.9674 102.338C15.6184 101.901 15.2996 101.496 14.9983 101.113C14.356 100.298 13.7935 99.5836 13.19 98.8751C11.4404 96.8213 10.3552 96.0863 9.37314 95.8407C6.51557 95.1264 4.77818 92.2307 5.49257 89.3731Z" fill="black"/>
<path fill-rule="evenodd" clip-rule="evenodd" d="M114.667 45.44C117.612 45.44 120 47.8278 120 50.7733C120 66.4867 115.193 77.0257 107.206 83.742C101.839 88.255 95.4272 90.6949 89.1054 92.0883C89.1877 92.2975 89.267 92.5079 89.3432 92.7197C90.4389 95.762 90.8893 98.9982 90.6667 102.222V122.667C90.6667 125.612 88.2788 128 85.3333 128C82.3878 128 80 125.612 80 122.667V102.027C80 101.887 80.0055 101.748 80.0164 101.608C80.1571 99.8199 79.9155 98.0219 79.3076 96.3341C78.6997 94.6462 77.7395 93.107 76.4907 91.819C75.0743 90.3579 74.6127 88.2182 75.3008 86.3032C75.9889 84.3882 77.7068 83.0316 79.7292 82.8062C87.8029 81.9062 95.0824 79.9996 100.341 75.578C105.34 71.3743 109.333 64.18 109.333 50.7733C109.333 47.8278 111.721 45.44 114.667 45.44ZM18.6667 45.6C21.6122 45.6 24 47.9878 24 50.9333C24 64.2162 27.9826 71.3654 32.9924 75.578C38.2697 80.0155 45.5704 81.9679 53.6707 82.974C55.6773 83.2232 57.3703 84.5857 58.0429 86.4925C58.7155 88.3994 58.252 90.5226 56.8459 91.9756C55.6119 93.2507 54.6602 94.7714 54.0527 96.4386C53.4453 98.1059 53.1957 99.8824 53.3202 101.652C53.3289 101.777 53.3333 101.902 53.3333 102.027V122.667C53.3333 125.612 50.9455 128 48 128C45.0545 128 42.6667 125.612 42.6667 122.667V102.202C42.4692 99.0039 42.9332 95.7989 44.0305 92.7872C44.1054 92.5816 44.1831 92.3773 44.2637 92.1742C37.9326 90.7305 31.504 88.2629 26.1276 83.742C18.1507 77.0346 13.3333 66.5572 13.3333 50.9333C13.3333 47.9878 15.7211 45.6 18.6667 45.6Z" fill="black"/>
<path fill-rule="evenodd" clip-rule="evenodd" d="M33.2692 5.74676C37.4546 6.67593 43.2765 8.97299 50.9696 14.1299C53.4163 15.77 54.0702 19.0829 52.4301 21.5296C50.79 23.9763 47.4771 24.6302 45.0304 22.9901C38.1635 18.387 33.5587 16.7374 30.9575 16.1599C30.9441 16.1569 30.9307 16.154 30.9174 16.1511C29.8868 20.3556 30.1308 24.8019 31.6634 28.9086C32.6933 31.6682 31.291 34.7402 28.5314 35.77C25.7718 36.7999 22.6998 35.3977 21.67 32.6381C18.7592 24.8385 18.965 16.2174 22.2446 8.5656C22.8693 7.10825 24.1099 6.00439 25.6301 5.55351L27.1467 10.6667C25.6301 5.55351 25.6352 5.55198 25.6404 5.55045L25.6509 5.54737L25.6724 5.54114L25.7172 5.52844L25.8143 5.50219C25.8824 5.48436 25.9571 5.46599 26.0384 5.44749C26.2011 5.41049 26.3901 5.3731 26.6056 5.33874C27.0371 5.26992 27.5714 5.21378 28.2108 5.19618C29.4924 5.16091 31.1717 5.28111 33.2692 5.74676Z" fill="black"/>
<path fill-rule="evenodd" clip-rule="evenodd" d="M107.693 5.55045C107.698 5.55198 107.703 5.55351 106.187 10.6667L107.703 5.55351C109.223 6.00439 110.464 7.10825 111.089 8.5656C114.368 16.2174 114.574 24.8385 111.663 32.6381C110.634 35.3977 107.562 36.7999 104.802 35.77C102.042 34.7402 100.64 31.6682 101.67 28.9086C103.203 24.8019 103.447 20.3556 102.416 16.1511C102.403 16.154 102.389 16.1569 102.376 16.1599C99.7746 16.7374 95.1699 18.387 88.303 22.9901C85.8563 24.6302 82.5433 23.9763 80.9032 21.5296C79.2632 19.0829 79.917 15.77 82.3637 14.1299C90.0568 8.97299 95.8787 6.67593 100.064 5.74676C102.162 5.28111 103.841 5.16091 105.123 5.19618C105.762 5.21378 106.296 5.26992 106.728 5.33874C106.943 5.3731 107.132 5.41049 107.295 5.44749C107.376 5.46599 107.451 5.48436 107.519 5.50219L107.616 5.52844L107.661 5.54114L107.682 5.54737L107.693 5.55045Z" fill="black"/>
<path fill-rule="evenodd" clip-rule="evenodd" d="M46.6049 13.4124C59.7424 9.8518 73.5909 9.8518 86.7284 13.4124C89.5714 14.1829 91.2515 17.1122 90.481 19.9551C89.7105 22.7981 86.7812 24.4781 83.9382 23.7076C72.6279 20.6423 60.7055 20.6423 49.3951 23.7076C46.5522 24.4781 43.6229 22.7981 42.8524 19.9551C42.0819 17.1122 43.7619 14.1829 46.6049 13.4124Z" fill="black"/>
<path fill-rule="evenodd" clip-rule="evenodd" d="M30.3442 26.9106C32.4775 28.9417 32.5604 32.3176 30.5293 34.4508C26.3075 38.8852 23.9674 44.7824 23.9999 50.905C24.0156 53.8504 21.6405 56.2509 18.695 56.2666C15.7495 56.2822 13.3491 53.9072 13.3334 50.9617C13.2862 42.0812 16.6805 33.5276 22.804 27.0958C24.835 24.9625 28.2109 24.8796 30.3442 26.9106ZM102.989 26.9106C105.123 24.8796 108.498 24.9625 110.529 27.0959C116.608 33.4803 119.998 41.9573 120 50.7723C120.001 53.7179 117.613 56.1061 114.668 56.1067C111.722 56.1072 109.334 53.7198 109.333 50.7743C109.332 44.6968 106.994 38.8525 102.804 34.4508C100.773 32.3174 100.856 28.9416 102.989 26.9106Z" fill="black"/>
</svg>
