<svg width="128" height="128" viewBox="0 0 128 128" fill="none" xmlns="http://www.w3.org/2000/svg">
<path d="M10.4939 54.2311C10.2489 54.2311 10.1877 54.1086 10.3102 53.9249L11.5964 52.2711C11.7189 52.0873 12.0252 51.9648 12.2702 51.9648H34.1365C34.3815 51.9648 34.4428 52.1486 34.3203 52.3323L33.279 53.9249C33.1565 54.1086 32.8503 54.2924 32.6665 54.2924L10.4939 54.2311Z" fill="black"/>
<path d="M1.245 59.8661C1 59.8661 0.93875 59.7436 1.06125 59.5599L2.34751 57.9061C2.47001 57.7224 2.77626 57.5999 3.02126 57.5999H30.9514C31.1964 57.5999 31.3189 57.7836 31.2576 57.9674L30.7676 59.4374C30.7064 59.6824 30.4614 59.8049 30.2164 59.8049L1.245 59.8661Z" fill="black"/>
<path d="M16.0678 65.5011C15.8228 65.5011 15.7615 65.3174 15.884 65.1336L16.7415 63.6024C16.864 63.4186 17.109 63.2349 17.354 63.2349H29.6041C29.8491 63.2349 29.9716 63.4186 29.9716 63.6636L29.8491 65.1336C29.8491 65.3786 29.6041 65.5624 29.4203 65.5624L16.0678 65.5011Z" fill="black"/>
<path fill-rule="evenodd" clip-rule="evenodd" d="M73.9311 54.6212C75.7309 54.1432 77.4986 53.6738 79.6454 53.1286C80.3805 52.9448 80.6255 52.6386 80.2579 52.0873C78.7267 48.5348 76.3992 45.5948 73.1529 43.451C68.1916 40.0823 62.6791 39.4085 56.9216 40.4498C49.8778 41.736 44.1203 45.3498 39.7715 51.0461C35.729 56.3136 33.769 62.3161 34.5652 68.9924C35.239 74.6274 37.8115 79.16 42.344 82.59C47.244 86.265 52.8178 87.4287 58.8203 86.6325C66.1091 85.6525 71.8667 82.0387 76.2767 76.2199C77.2765 74.902 78.133 73.5166 78.8493 72.07C79.8815 75.7996 81.9588 79.0033 84.9743 81.6099C89.2618 85.2849 94.3455 86.8774 99.9193 86.9999C100.465 86.9369 101.019 86.8883 101.577 86.8393C102.646 86.7454 103.733 86.6499 104.819 86.4487C110.516 85.2849 115.477 82.7124 119.519 78.6086C125.216 72.8511 127.604 66.1136 126.563 57.8448C125.767 51.9648 122.766 47.4935 117.927 44.186C112.598 40.5722 106.718 39.9597 100.471 41.0622C93.1818 42.3485 87.7918 45.411 83.3205 51.291C81.4045 53.7987 79.9682 56.4489 79.0829 59.2536H59.3716C58.4528 59.2536 58.0241 59.8661 57.8403 60.2336C56.9828 61.8261 55.5128 65.0111 54.7166 66.9099C54.2878 67.9512 54.5941 68.7474 55.8803 68.7474H67.7016C67.5434 68.9689 67.3934 69.1822 67.2484 69.3884C66.8319 69.9805 66.4567 70.5139 66.0479 71.0137C63.2916 74.1374 59.8004 75.6074 55.6353 75.0562C50.7966 74.3824 47.4278 70.3399 47.3665 65.4399C47.3053 60.4786 49.4491 56.4974 53.6141 53.8023C57.1053 51.5361 60.8416 50.9848 64.7004 52.8836C65.9866 53.4961 66.6604 54.1698 67.5791 55.2111C68.3451 56.0949 68.4309 56.0718 69.2542 55.8507C69.2867 55.842 69.3204 55.8329 69.3554 55.8236C71.0401 55.3888 72.4958 55.0023 73.9311 54.6212ZM114.454 61.5998C114.466 61.8055 114.479 62.0223 114.497 62.2548C114.191 67.5223 111.557 71.4424 106.718 73.9536C103.472 75.6074 100.103 75.7911 96.7343 74.3211C92.3243 72.3611 89.9968 67.5223 91.0993 62.7448C92.4468 56.9873 96.1218 53.3735 101.818 52.0873C107.637 50.7398 113.211 54.1698 114.313 60.2336C114.4 60.6672 114.425 61.1009 114.454 61.5998Z" fill="black"/>
</svg>
