<svg width="128" height="128" viewBox="0 0 128 128" fill="none" xmlns="http://www.w3.org/2000/svg">
<path fill-rule="evenodd" clip-rule="evenodd" d="M16 42.6667C18.9455 42.6667 21.3334 45.0545 21.3334 48V106.667C21.3334 108.081 21.8953 109.438 22.8955 110.438C23.8956 111.438 25.2522 112 26.6667 112H101.333C102.748 112 104.104 111.438 105.105 110.438C106.105 109.438 106.667 108.081 106.667 106.667V48C106.667 45.0545 109.055 42.6667 112 42.6667C114.946 42.6667 117.333 45.0545 117.333 48V106.667C117.333 110.91 115.648 114.98 112.647 117.98C109.647 120.981 105.577 122.667 101.333 122.667H26.6667C22.4232 122.667 18.3536 120.981 15.353 117.98C12.3524 114.98 10.6667 110.91 10.6667 106.667V48C10.6667 45.0545 13.0545 42.6667 16 42.6667Z" fill="black"/>
<path fill-rule="evenodd" clip-rule="evenodd" d="M42.6667 64C42.6667 61.0545 45.0545 58.6667 48 58.6667H80C82.9455 58.6667 85.3334 61.0545 85.3334 64V117.333C85.3334 120.279 82.9455 122.667 80 122.667C77.0545 122.667 74.6667 120.279 74.6667 117.333V69.3333H53.3334V117.333C53.3334 120.279 50.9455 122.667 48 122.667C45.0545 122.667 42.6667 120.279 42.6667 117.333V64Z" fill="black"/>
<path fill-rule="evenodd" clip-rule="evenodd" d="M60.6229 1.20556C62.5875 -0.401854 65.4128 -0.401854 67.3774 1.20556L126.044 49.2056C128.324 51.0708 128.66 54.4309 126.795 56.7106C124.929 58.9903 121.569 59.3263 119.29 57.4611L64.0002 12.2243L8.71076 57.4611C6.43106 59.3263 3.07094 58.9903 1.20572 56.7106C-0.659492 54.4309 -0.32348 51.0708 1.95623 49.2056L60.6229 1.20556Z" fill="black"/>
</svg>
