<svg width="128" height="128" viewBox="0 0 128 128" fill="none" xmlns="http://www.w3.org/2000/svg">
<path d="M33.9 101.2C29.3 101.2 25.4 100.267 22.2 98.4C19.0667 96.5333 16.4667 93.7667 14.4 90.1L22.4 84.2C23.7334 86.6 25.2667 88.3667 27 89.5C28.7334 90.5667 30.6 91.1 32.6 91.1C35.6667 91.1 37.9667 90.1667 39.5 88.3C41.0334 86.4333 41.8 83.1667 41.8 78.5V34.6H53.4V79.5C53.4 82.5 53.0334 85.3333 52.3 88C51.5667 90.6 50.4 92.9 48.8 94.9C47.2 96.8333 45.1667 98.3667 42.7 99.5C40.2334 100.633 37.3 101.2 33.9 101.2Z" fill="black"/>
<path d="M88.8141 101.2C84.4141 101.2 80.1474 100.367 76.0141 98.7C71.9474 97.0333 68.3474 94.6667 65.2141 91.6L72.0141 83.7C74.3474 85.9 77.0141 87.7 80.0141 89.1C83.0141 90.4333 86.0141 91.1 89.0141 91.1C92.7474 91.1 95.5808 90.3333 97.5141 88.8C99.4474 87.2667 100.414 85.2333 100.414 82.7C100.414 81.3667 100.147 80.2333 99.6141 79.3C99.1474 78.3667 98.4474 77.5667 97.5141 76.9C96.6474 76.1667 95.5808 75.5 94.3141 74.9C93.1141 74.3 91.7808 73.7 90.3141 73.1L81.3141 69.2C79.7141 68.5333 78.1141 67.7 76.5141 66.7C74.9808 65.7 73.5808 64.5 72.3141 63.1C71.0474 61.7 70.0141 60.0667 69.2141 58.2C68.4808 56.3333 68.1141 54.2 68.1141 51.8C68.1141 49.2 68.6474 46.8 69.7141 44.6C70.8474 42.3333 72.3808 40.3667 74.3141 38.7C76.2474 37.0333 78.5474 35.7333 81.2141 34.8C83.9474 33.8667 86.9141 33.4 90.1141 33.4C93.9141 33.4 97.5808 34.1667 101.114 35.7C104.647 37.1667 107.681 39.1667 110.214 41.7L104.314 49.1C102.181 47.3667 99.9808 46 97.7141 45C95.4474 44 92.9141 43.5 90.1141 43.5C86.9807 43.5 84.4808 44.2 82.6141 45.6C80.7474 46.9333 79.8141 48.8 79.8141 51.2C79.8141 52.4667 80.0807 53.5667 80.6141 54.5C81.2141 55.3667 81.9808 56.1667 82.9141 56.9C83.9141 57.5667 85.0474 58.2 86.3141 58.8C87.5808 59.3333 88.8808 59.8667 90.2141 60.4L99.1141 64.1C101.047 64.9 102.814 65.8333 104.414 66.9C106.014 67.9667 107.381 69.2 108.514 70.6C109.714 72 110.647 73.6333 111.314 75.5C111.981 77.3 112.314 79.4 112.314 81.8C112.314 84.4667 111.781 86.9667 110.714 89.3C109.647 91.6333 108.081 93.7 106.014 95.5C104.014 97.2333 101.547 98.6333 98.6141 99.7C95.7474 100.7 92.4808 101.2 88.8141 101.2Z" fill="black"/>
</svg>
