<svg width="128" height="128" viewBox="0 0 128 128" fill="none" xmlns="http://www.w3.org/2000/svg">
<path fill-rule="evenodd" clip-rule="evenodd" d="M32 32C32 29.0545 34.3878 26.6667 37.3333 26.6667H106.667C109.612 26.6667 112 29.0545 112 32C112 34.9455 109.612 37.3334 106.667 37.3334H37.3333C34.3878 37.3334 32 34.9455 32 32Z" fill="black"/>
<path fill-rule="evenodd" clip-rule="evenodd" d="M32 64C32 61.0545 34.3878 58.6667 37.3333 58.6667H106.667C109.612 58.6667 112 61.0545 112 64C112 66.9455 109.612 69.3334 106.667 69.3334H37.3333C34.3878 69.3334 32 66.9455 32 64Z" fill="black"/>
<path fill-rule="evenodd" clip-rule="evenodd" d="M32 96C32 93.0545 34.3878 90.6667 37.3333 90.6667H106.667C109.612 90.6667 112 93.0545 112 96C112 98.9456 109.612 101.333 106.667 101.333H37.3333C34.3878 101.333 32 98.9456 32 96Z" fill="black"/>
<path fill-rule="evenodd" clip-rule="evenodd" d="M10.6667 32C10.6667 29.0545 13.0545 26.6667 16 26.6667H16.0533C18.9989 26.6667 21.3867 29.0545 21.3867 32C21.3867 34.9455 18.9989 37.3334 16.0533 37.3334H16C13.0545 37.3334 10.6667 34.9455 10.6667 32Z" fill="black"/>
<path fill-rule="evenodd" clip-rule="evenodd" d="M10.6667 64C10.6667 61.0545 13.0545 58.6667 16 58.6667H16.0533C18.9989 58.6667 21.3867 61.0545 21.3867 64C21.3867 66.9455 18.9989 69.3334 16.0533 69.3334H16C13.0545 69.3334 10.6667 66.9455 10.6667 64Z" fill="black"/>
<path fill-rule="evenodd" clip-rule="evenodd" d="M10.6667 96C10.6667 93.0545 13.0545 90.6667 16 90.6667H16.0533C18.9989 90.6667 21.3867 93.0545 21.3867 96C21.3867 98.9456 18.9989 101.333 16.0533 101.333H16C13.0545 101.333 10.6667 98.9456 10.6667 96Z" fill="black"/>
</svg>
