<svg width="128" height="128" viewBox="0 0 128 128" fill="none" xmlns="http://www.w3.org/2000/svg">
<path fill-rule="evenodd" clip-rule="evenodd" d="M64.4329 13.3815C65.465 15.2129 65.3251 17.4797 64.0755 19.1702C59.5197 25.3337 57.3274 32.9277 57.8974 40.5709C58.4674 48.2142 61.7618 55.399 67.1814 60.8187C72.601 66.2383 79.7858 69.5326 87.4291 70.1026C95.0723 70.6726 102.666 68.4803 108.83 63.9245C110.52 62.6749 112.787 62.535 114.619 63.5671C116.45 64.5992 117.504 66.6109 117.311 68.7041C116.379 78.7913 112.593 88.4043 106.397 96.4184C100.2 104.433 91.8499 110.516 82.3223 113.958C72.7946 117.399 62.4839 118.056 52.5966 115.851C42.7093 113.647 33.6544 108.672 26.4913 101.509C19.3282 94.3457 14.3533 85.2907 12.1487 75.4034C9.94402 65.5161 10.6009 55.2054 14.0423 45.6777C17.4837 36.1501 23.5675 27.7996 31.5816 21.6034C39.5957 15.4072 49.2087 11.6215 59.2959 10.6893C61.3892 10.4959 63.4008 11.5501 64.4329 13.3815ZM49.6874 23.675C45.5401 25.1755 41.6298 27.3175 38.106 30.042C31.6947 34.999 26.8277 41.6794 24.0746 49.3015C21.3214 56.9236 20.7959 65.1721 22.5597 73.082C24.3234 80.9918 28.3033 88.2358 34.0338 93.9663C39.7642 99.6967 47.0082 103.677 54.918 105.44C62.8279 107.204 71.0764 106.679 78.6985 103.925C86.3206 101.172 93.001 96.3053 97.958 89.894C100.683 86.3702 102.824 82.4599 104.325 78.3126C98.7083 80.3447 92.6837 81.1908 86.6358 80.7398C76.4448 79.9798 66.865 75.5873 59.6389 68.3611C52.4127 61.135 48.0202 51.5552 47.2603 41.3642C46.8093 35.3163 47.6553 29.2917 49.6874 23.675Z" fill="black"/>
</svg>
