<svg width="128" height="128" viewBox="0 0 128 128" fill="none" xmlns="http://www.w3.org/2000/svg">
<path d="M63.5852 121C62.0142 121 60.548 120.581 59.1865 119.848L45.2572 111.574C43.1626 110.422 44.2099 110.003 44.8383 109.794C47.6661 108.851 48.1897 108.642 51.1222 106.966C51.4364 106.757 51.8553 106.861 52.1695 107.071L62.8521 113.459C63.271 113.669 63.7947 113.669 64.1089 113.459L105.897 89.2664C106.316 89.057 106.525 88.638 106.525 88.1144V39.8333C106.525 39.3096 106.316 38.8907 105.897 38.6812L64.1089 14.593C63.6899 14.3836 63.1663 14.3836 62.8521 14.593L21.0643 38.6812C20.6454 38.8907 20.4359 39.4143 20.4359 39.8333V88.1144C20.4359 88.5333 20.6454 89.057 21.0643 89.2664L32.48 95.8645C38.6592 99.0064 42.5342 95.3408 42.5342 91.6752V44.0225C42.5342 43.3941 43.0579 42.7657 43.791 42.7657H49.1323C49.7607 42.7657 50.3891 43.2894 50.3891 44.0225V91.6752C50.3891 99.949 45.8856 104.767 38.0308 104.767C35.622 104.767 33.7368 104.767 28.3955 102.148L17.3987 95.8645C14.6757 94.2935 13 91.3611 13 88.2191V39.938C13 36.7961 14.6757 33.8636 17.3987 32.2926L59.1865 8.09968C61.8048 6.63344 65.3656 6.63344 67.9839 8.09968L109.772 32.2926C112.495 33.8636 114.17 36.7961 114.17 39.938V88.2191C114.17 91.3611 112.495 94.2935 109.772 95.8645L67.9839 120.057C66.6224 120.686 65.0514 121 63.5852 121ZM76.4672 87.8002C58.1392 87.8002 54.3689 79.4217 54.3689 72.2999C54.3689 71.6716 54.8925 71.0432 55.6256 71.0432H61.0717C61.7 71.0432 62.2237 71.4621 62.2237 72.0905C63.0616 77.6413 65.4704 80.3643 76.5719 80.3643C85.3693 80.3643 89.1396 78.3744 89.1396 73.6615C89.1396 70.9384 88.0923 68.9486 74.3725 67.587C62.9568 66.435 55.8351 63.9215 55.8351 54.8098C55.8351 46.3266 62.9568 41.2995 74.8962 41.2995C88.3018 41.2995 94.8999 45.9077 95.7377 55.9619C95.7377 56.2761 95.633 56.5903 95.4235 56.9045C95.2141 57.1139 94.8999 57.3234 94.5857 57.3234H89.1396C88.616 57.3234 88.0923 56.9045 87.9876 56.3808C86.7308 50.6206 83.4842 48.7354 74.8962 48.7354C65.2609 48.7354 64.1089 52.0868 64.1089 54.6004C64.1089 57.6376 65.4704 58.5802 78.4571 60.2559C91.339 61.9316 97.4134 64.3404 97.4134 73.3473C97.3087 82.5636 89.768 87.8002 76.4672 87.8002Z" fill="black"/>
</svg>
