<svg width="128" height="128" viewBox="0 0 128 128" fill="none" xmlns="http://www.w3.org/2000/svg">
<path d="M15.2026 47H32.4494C37.5115 47.0424 41.1797 48.4974 43.4539 51.3626C45.7281 54.2279 46.4785 58.1414 45.7063 63.1032C45.4064 65.3705 44.741 67.5941 43.7113 69.7755C42.7241 71.9568 41.3521 73.9238 39.5927 75.6778C37.4471 77.9015 35.1523 79.3129 32.7068 79.9121C30.2614 80.5113 27.7297 80.8103 25.1131 80.8103H17.3906L14.9452 93H6L15.2026 47V47ZM22.732 54.3138L18.8708 73.5607C19.1282 73.603 19.3856 73.6248 19.643 73.6248C19.9429 73.6248 20.244 73.6248 20.5439 73.6248C24.6626 73.6672 28.0952 73.2617 30.8406 72.4059C33.5859 71.5077 35.4315 68.3858 36.375 63.0391C37.1472 58.5481 36.375 55.9601 34.0582 55.2761C31.784 54.5922 28.9318 54.2714 25.4992 54.3138C24.9844 54.3562 24.4914 54.378 24.0191 54.378C23.5904 54.378 23.14 54.378 22.6676 54.378L22.732 54.3138" fill="black"/>
<path d="M56.079 34H64.7798L62.3209 46.5028H70.1389C74.4263 46.5905 77.6203 47.5069 79.7224 49.2521C81.866 50.9973 82.4965 54.3147 81.6138 59.202L77.3896 81H68.5627L72.5978 60.1838C73.0178 58.0014 72.8917 56.4526 72.2195 55.5362C71.5474 54.6198 70.0973 54.1616 67.8692 54.1616L60.8707 54.0961L55.7007 81H47L56.079 34Z" fill="black"/>
<path d="M91.4327 47H109.111C114.299 47.0424 118.059 48.4974 120.39 51.3626C122.721 54.2279 123.49 58.1414 122.699 63.1032C122.392 65.3705 121.709 67.5941 120.654 69.7755C119.642 71.9568 118.236 73.9238 116.432 75.6778C114.233 77.9015 111.881 79.3129 109.374 79.9121C106.868 80.5113 104.273 80.8103 101.591 80.8103H93.6754L91.1688 93H82L91.4327 47V47ZM99.1503 54.3138L95.1925 73.5607C95.4564 73.603 95.7202 73.6248 95.9841 73.6248C96.2915 73.6248 96.6001 73.6248 96.9075 73.6248C101.129 73.6672 104.648 73.2617 107.462 72.4059C110.276 71.5077 112.167 68.3858 113.134 63.0391C113.926 58.5481 113.134 55.9601 110.76 55.2761C108.429 54.5922 105.505 54.2714 101.987 54.3138C101.459 54.3562 100.954 54.378 100.47 54.378C100.03 54.378 99.5685 54.378 99.0843 54.378L99.1503 54.3138" fill="black"/>
</svg>
