<svg width="128" height="128" viewBox="0 0 128 128" fill="none" xmlns="http://www.w3.org/2000/svg">
<path fill-rule="evenodd" clip-rule="evenodd" d="M58.9763 18C57.6398 18 56.359 18.5351 55.4196 19.4858L49.913 25.059C48.9883 25.9949 48.4697 27.2575 48.4697 28.5732V46.2558C48.4697 47.9127 47.1266 49.2558 45.4697 49.2558C43.8129 49.2558 42.4697 47.9127 42.4697 46.2558V28.5732C42.4697 25.6787 43.6106 22.9009 45.6449 20.8419L51.1516 15.2687C53.2181 13.1771 56.036 12 58.9763 12H70.0838C73.2487 12 76.2602 13.3632 78.3487 15.7412L84.1347 22.3291C85.8975 24.3363 86.8697 26.9164 86.8697 29.5879V34.2893C86.8697 35.9462 85.5266 37.2893 83.8697 37.2893C82.2129 37.2893 80.8697 35.9462 80.8697 34.2893V29.5879C80.8697 28.3736 80.4278 27.2008 79.6265 26.2884L73.8406 19.7005C72.8913 18.6196 71.5224 18 70.0838 18H58.9763Z" fill="black"/>
<path fill-rule="evenodd" clip-rule="evenodd" d="M58.8432 67.878C57.5171 67.878 56.2453 68.4048 55.3076 69.3424L49.8292 74.8209C48.8915 75.7585 48.3647 77.0303 48.3647 78.3564V99.107C48.3647 100.332 48.8141 101.514 49.6277 102.429L54.2555 107.635C55.2044 108.703 56.5644 109.313 57.9926 109.313H70.5584C71.783 109.313 72.965 108.864 73.8803 108.05L79.0866 103.422C80.154 102.474 80.7647 101.114 80.7647 99.6854V85.2074C80.7647 83.5505 82.1079 82.2074 83.7647 82.2074C85.4216 82.2074 86.7647 83.5505 86.7647 85.2074V99.6854C86.7647 102.827 85.4211 105.82 83.0727 107.907L77.8664 112.535C75.8529 114.325 73.2525 115.313 70.5584 115.313H57.9926C54.8506 115.313 51.8585 113.97 49.7711 111.621L45.1432 106.415C43.3534 104.401 42.3647 101.801 42.3647 99.107V78.3564C42.3647 75.439 43.5237 72.6411 45.5866 70.5782L51.065 65.0998C53.1279 63.0369 55.9258 61.878 58.8432 61.878H73.6C75.2569 61.878 76.6 63.2211 76.6 64.878C76.6 66.5348 75.2569 67.878 73.6 67.878H58.8432Z" fill="black"/>
<path fill-rule="evenodd" clip-rule="evenodd" d="M88.5563 50.9368C87.5668 50.9368 86.7646 51.739 86.7646 52.7285C86.7646 54.795 85.9437 56.7768 84.4825 58.238L75.7213 66.9993C74.5497 68.1709 72.6502 68.1709 71.4786 66.9993C70.307 65.8277 70.307 63.9282 71.4786 62.7567L80.2399 53.9954C80.5759 53.6594 80.7646 53.2037 80.7646 52.7285C80.7646 48.4253 84.2531 44.9368 88.5563 44.9368H100.78C103.698 44.9368 106.496 46.0957 108.559 48.1586L111.778 51.3782C113.841 53.4411 115 56.239 115 59.1564V71.4125C115 74.5845 113.631 77.6021 111.243 79.6909L107.202 83.2269C105.197 84.9815 102.623 85.9486 99.9588 85.9486H67.9529C66.296 85.9486 64.9529 84.6054 64.9529 82.9486C64.9529 81.2917 66.296 79.9486 67.9529 79.9486H99.9588C101.17 79.9486 102.34 79.509 103.251 78.7114L107.292 75.1754C108.378 74.226 109 72.8544 109 71.4125V59.1564C109 57.8303 108.473 56.5585 107.535 55.6209L104.316 52.4013C103.378 51.4636 102.106 50.9368 100.78 50.9368H88.5563Z" fill="black"/>
<path fill-rule="evenodd" clip-rule="evenodd" d="M21.8983 46.5859C23.9119 44.7961 26.5122 43.8074 29.2063 43.8074H64.5647C66.2216 43.8074 67.5647 45.1505 67.5647 46.8074C67.5647 48.4642 66.2216 49.8074 64.5647 49.8074H29.2063C27.9817 49.8074 26.7997 50.2568 25.8845 51.0703L20.6782 55.6982C19.6107 56.647 19 58.007 19 59.4352V70.5996C19 71.9256 19.5268 73.1974 20.4645 74.1351L25.9429 79.6135C26.8806 80.5512 28.1523 81.078 29.4784 81.078H44.5767C46.2336 81.078 47.5767 82.4211 47.5767 84.078C47.5767 85.7348 46.2336 87.078 44.5767 87.078H29.4784C26.561 87.078 23.7631 85.9191 21.7002 83.8562L16.2218 78.3777C14.1589 76.3148 13 73.5169 13 70.5996V59.4352C13 56.2932 14.3436 53.3012 16.692 51.2137L21.8983 46.5859Z" fill="black"/>
<path d="M55.293 27.7163C55.293 26.6117 56.1884 25.7163 57.293 25.7163H60.0694C61.174 25.7163 62.0694 26.6117 62.0694 27.7163V30.4927C62.0694 31.5973 61.174 32.4927 60.0694 32.4927H57.293C56.1884 32.4927 55.293 31.5973 55.293 30.4927V27.7163Z" fill="black"/>
<path d="M66.8235 96.2427C66.8235 95.1381 67.7189 94.2427 68.8235 94.2427H71.6C72.7045 94.2427 73.6 95.1381 73.6 96.2427V99.0191C73.6 100.124 72.7045 101.019 71.6 101.019H68.8235C67.7189 101.019 66.8235 100.124 66.8235 99.0191V96.2427Z" fill="black"/>
</svg>
