<svg width="128" height="128" viewBox="0 0 128 128" fill="none" xmlns="http://www.w3.org/2000/svg">
<path d="M122 63.6633C122 55.9788 112.377 48.6963 97.6225 44.1802C101.027 29.1423 99.5141 17.1781 92.8463 13.3477C91.3094 12.4492 89.5124 12.0236 87.5499 12.0236V17.2964C88.6376 17.2964 89.5124 17.5092 90.2454 17.9111C93.4611 19.7554 94.8561 26.7778 93.7684 35.81C93.5084 38.0326 93.0827 40.3734 92.5626 42.7615C87.9282 41.6266 82.8683 40.7517 77.5483 40.1843C74.3563 35.81 71.0461 31.8377 67.7122 28.362C75.4203 21.1977 82.6555 17.2727 87.5736 17.2727V12C81.0713 12 72.5593 16.6343 63.9527 24.6735C55.3461 16.6816 46.8341 12.0946 40.3318 12.0946V17.3673C45.2263 17.3673 52.4851 21.2687 60.1932 28.3857C56.883 31.8614 53.5728 35.81 50.4281 40.1843C45.0844 40.7517 40.0245 41.6266 35.3901 42.7852C34.8463 40.4207 34.4444 38.1272 34.1606 35.9282C33.0493 26.896 34.4207 19.8736 37.6127 18.0057C38.3221 17.5801 39.2442 17.391 40.3318 17.391V12.1182C38.3457 12.1182 36.5487 12.5438 34.9882 13.4423C28.3441 17.2727 26.8545 29.2132 30.2829 44.2038C15.576 48.7436 6 56.0024 6 63.6633C6 71.3477 15.6233 78.6302 30.3775 83.1463C26.9727 98.1843 28.4859 110.148 35.1537 113.979C36.6906 114.877 38.4876 115.303 40.4737 115.303C46.9759 115.303 55.488 110.669 64.0946 102.629C72.7012 110.621 81.2132 115.208 87.7154 115.208C89.7016 115.208 91.4986 114.783 93.0591 113.884C99.7032 110.054 101.193 98.1133 97.7644 83.1227C112.424 78.6066 122 71.3241 122 63.6633ZM91.2148 47.8924C90.34 50.9425 89.2523 54.0872 88.0228 57.232C87.0534 55.3404 86.0367 53.4488 84.9254 51.5573C83.8378 49.6657 82.6792 47.8214 81.5206 46.0245C84.8781 46.521 88.1174 47.1358 91.2148 47.8924ZM80.3856 73.0738C78.5414 76.2658 76.6498 79.2923 74.6873 82.106C71.1643 82.4134 67.594 82.5789 64 82.5789C60.4297 82.5789 56.8594 82.4134 53.36 82.1296C51.3975 79.3159 49.4823 76.3131 47.638 73.1447C45.841 70.0473 44.2095 66.9026 42.7199 63.7342C44.1859 60.5658 45.841 57.3975 47.6144 54.3C49.4586 51.108 51.3502 48.0815 53.3127 45.2678C56.8357 44.9605 60.406 44.7949 64 44.7949C67.5703 44.7949 71.1406 44.9605 74.64 45.2442C76.6025 48.0579 78.5177 51.0607 80.362 54.2291C82.159 57.3265 83.7905 60.4713 85.2801 63.6396C83.7905 66.808 82.159 69.9763 80.3856 73.0738ZM88.0228 70C89.2996 73.1684 90.3873 76.3367 91.2858 79.4105C88.1883 80.1671 84.9254 80.8055 81.5442 81.3021C82.7028 79.4815 83.8614 77.6135 84.9491 75.6983C86.0367 73.8068 87.0534 71.8916 88.0228 70ZM64.0473 95.2287C61.8484 92.9588 59.6494 90.4289 57.4741 87.6625C59.6021 87.757 61.7774 87.828 63.9764 87.828C66.1989 87.828 68.3979 87.7807 70.5495 87.6625C68.4215 90.4289 66.2226 92.9588 64.0473 95.2287ZM46.4558 81.3021C43.0982 80.8055 39.8589 80.1908 36.7615 79.4342C37.6364 76.384 38.724 73.2393 39.9535 70.0946C40.923 71.9861 41.9397 73.8777 43.051 75.7693C44.1622 77.6608 45.2972 79.5051 46.4558 81.3021ZM63.9291 32.0978C66.128 34.3677 68.3269 36.8977 70.5022 39.6641C68.3742 39.5695 66.1989 39.4986 64 39.4986C61.7774 39.4986 59.5785 39.5459 57.4268 39.6641C59.5548 36.8977 61.7538 34.3677 63.9291 32.0978ZM46.4321 46.0245C45.2735 47.8451 44.115 49.713 43.0273 51.6282C41.9397 53.5198 40.923 55.4113 39.9535 57.3029C38.6767 54.1345 37.5891 50.9662 36.6906 47.8924C39.788 47.1594 43.051 46.521 46.4321 46.0245ZM25.0338 75.6274C16.6637 72.0571 11.2491 67.3755 11.2491 63.6633C11.2491 59.9511 16.6637 55.2458 25.0338 51.6991C27.0673 50.8243 29.2898 50.044 31.5834 49.311C32.9311 53.9454 34.7044 58.7689 36.9034 63.7106C34.7281 68.6286 32.9784 73.4285 31.6543 78.0391C29.3135 77.3062 27.0909 76.5022 25.0338 75.6274ZM37.7546 109.415C34.5389 107.571 33.1439 100.549 34.2316 91.5165C34.4916 89.2939 34.9172 86.9531 35.4374 84.565C40.0718 85.7 45.1317 86.5748 50.4517 87.1423C53.6437 91.5165 56.9539 95.4888 60.2878 98.9645C52.5797 106.129 45.3445 110.054 40.4264 110.054C39.3624 110.03 38.4639 109.817 37.7546 109.415ZM93.8394 91.3983C94.9507 100.43 93.5793 107.453 90.3873 109.321C89.6779 109.746 88.7558 109.936 87.6682 109.936C82.7737 109.936 75.5149 106.034 67.8068 98.9172C71.117 95.4415 74.4272 91.4929 77.572 87.1186C82.9156 86.5512 87.9755 85.6763 92.6099 84.5177C93.1537 86.9058 93.5793 89.1993 93.8394 91.3983ZM102.943 75.6274C100.909 76.5022 98.6865 77.2825 96.393 78.0155C95.0453 73.3812 93.2719 68.5577 91.073 63.616C93.2483 58.6979 94.998 53.8981 96.3221 49.2874C98.6629 50.0204 100.885 50.8243 102.966 51.6991C111.336 55.2695 116.751 59.9511 116.751 63.6633C116.727 67.3755 111.313 72.0807 102.943 75.6274Z" fill="black"/>
<path d="M63.9764 74.4688C69.9442 74.4688 74.782 69.631 74.782 63.6633C74.782 57.6955 69.9442 52.8577 63.9764 52.8577C58.0087 52.8577 53.1709 57.6955 53.1709 63.6633C53.1709 69.631 58.0087 74.4688 63.9764 74.4688Z" fill="black"/>
</svg>
