<svg width="128" height="128" viewBox="0 0 128 128" fill="none" xmlns="http://www.w3.org/2000/svg">
<path fill-rule="evenodd" clip-rule="evenodd" d="M53.3333 18.6667C34.1875 18.6667 18.6667 34.1875 18.6667 53.3333C18.6667 72.4792 34.1875 88 53.3333 88C72.4792 88 88 72.4792 88 53.3333C88 34.1875 72.4792 18.6667 53.3333 18.6667ZM8 53.3333C8 28.2964 28.2964 8 53.3333 8C78.3702 8 98.6667 28.2964 98.6667 53.3333C98.6667 78.3702 78.3702 98.6667 53.3333 98.6667C28.2964 98.6667 8 78.3702 8 53.3333Z" fill="black"/>
<path fill-rule="evenodd" clip-rule="evenodd" d="M84.2288 82.3621C86.3116 80.2793 89.6884 80.2793 91.7712 82.3621L115.771 106.362C117.854 108.445 117.854 111.822 115.771 113.905C113.688 115.987 110.312 115.987 108.229 113.905L84.2288 89.9046C82.146 87.8218 82.146 84.4449 84.2288 82.3621Z" fill="black"/>
</svg>
