<svg width="128" height="128" viewBox="0 0 128 128" fill="none" xmlns="http://www.w3.org/2000/svg">
<path fill-rule="evenodd" clip-rule="evenodd" d="M21 82C23.7614 82 26 84.2386 26 87V112C26 114.761 23.7614 117 21 117C18.2386 117 16 114.761 16 112V87C16 84.2386 18.2386 82 21 82Z" fill="black"/>
<path fill-rule="evenodd" clip-rule="evenodd" d="M21.3681 11.0002C24.1294 11.0194 26.3524 13.2734 26.3332 16.0348L26.0138 62.0349C25.9946 64.7962 23.7405 67.0192 20.9792 67C18.2178 66.9809 15.9948 64.7268 16.014 61.9654L16.3335 15.9653C16.3526 13.204 18.6067 10.981 21.3681 11.0002Z" fill="black"/>
<path fill-rule="evenodd" clip-rule="evenodd" d="M64 51C66.7614 51 69 53.2386 69 56V112C69 114.761 66.7614 117 64 117C61.2386 117 59 114.761 59 112V56C59 53.2386 61.2386 51 64 51Z" fill="black"/>
<path fill-rule="evenodd" clip-rule="evenodd" d="M64 11C66.7614 11 69 13.2386 69 16V31C69 33.7614 66.7614 36 64 36C61.2386 36 59 33.7614 59 31V16C59 13.2386 61.2386 11 64 11Z" fill="black"/>
<path fill-rule="evenodd" clip-rule="evenodd" d="M107 11C109.761 11 112 13.2386 112 16V68C112 70.7614 109.761 73 107 73C104.239 73 102 70.7614 102 68V16C102 13.2386 104.239 11 107 11Z" fill="black"/>
<path fill-rule="evenodd" clip-rule="evenodd" d="M107.052 91.0003C109.813 91.0291 112.028 93.2909 112 96.0521L111.833 112.053C111.804 114.815 109.543 117.03 106.781 117.001C104.02 116.972 101.805 114.711 101.834 111.949L102 95.948C102.029 93.1867 104.291 90.9716 107.052 91.0003Z" fill="black"/>
<path fill-rule="evenodd" clip-rule="evenodd" d="M6 75C6 66.7157 12.7157 60 21 60C29.2843 60 36 66.7157 36 75C36 83.2843 29.2843 90 21 90C12.7157 90 6 83.2843 6 75ZM21 68C17.134 68 14 71.134 14 75C14 78.866 17.134 82 21 82C24.866 82 28 78.866 28 75C28 71.134 24.866 68 21 68Z" fill="black"/>
<path fill-rule="evenodd" clip-rule="evenodd" d="M49 43C49 34.7157 55.7157 28 64 28C72.2843 28 79 34.7157 79 43C79 51.2843 72.2843 58 64 58C55.7157 58 49 51.2843 49 43ZM64 36C60.134 36 57 39.134 57 43C57 46.866 60.134 50 64 50C67.866 50 71 46.866 71 43C71 39.134 67.866 36 64 36Z" fill="black"/>
<path fill-rule="evenodd" clip-rule="evenodd" d="M92 82C92 73.7157 98.7157 67 107 67C115.284 67 122 73.7157 122 82C122 90.2843 115.284 97 107 97C98.7157 97 92 90.2843 92 82ZM107 75C103.134 75 100 78.134 100 82C100 85.866 103.134 89 107 89C110.866 89 114 85.866 114 82C114 78.134 110.866 75 107 75Z" fill="black"/>
</svg>
