<svg width="128" height="128" viewBox="0 0 128 128" fill="none" xmlns="http://www.w3.org/2000/svg">
<path fill-rule="evenodd" clip-rule="evenodd" d="M96 16C90.109 16 85.3334 20.7756 85.3334 26.6667C85.3334 32.5577 90.109 37.3333 96 37.3333C101.891 37.3333 106.667 32.5577 106.667 26.6667C106.667 20.7756 101.891 16 96 16ZM74.6667 26.6667C74.6667 14.8846 84.2179 5.33334 96 5.33334C107.782 5.33334 117.333 14.8846 117.333 26.6667C117.333 38.4487 107.782 48 96 48C84.2179 48 74.6667 38.4487 74.6667 26.6667Z" fill="black"/>
<path fill-rule="evenodd" clip-rule="evenodd" d="M32 53.3333C26.109 53.3333 21.3334 58.109 21.3334 64C21.3334 69.891 26.109 74.6667 32 74.6667C37.8911 74.6667 42.6667 69.891 42.6667 64C42.6667 58.109 37.8911 53.3333 32 53.3333ZM10.6667 64C10.6667 52.2179 20.2179 42.6667 32 42.6667C43.7821 42.6667 53.3333 52.2179 53.3333 64C53.3333 75.7821 43.7821 85.3333 32 85.3333C20.2179 85.3333 10.6667 75.7821 10.6667 64Z" fill="black"/>
<path fill-rule="evenodd" clip-rule="evenodd" d="M96 90.6667C90.109 90.6667 85.3334 95.4423 85.3334 101.333C85.3334 107.224 90.109 112 96 112C101.891 112 106.667 107.224 106.667 101.333C106.667 95.4423 101.891 90.6667 96 90.6667ZM74.6667 101.333C74.6667 89.5513 84.2179 80 96 80C107.782 80 117.333 89.5513 117.333 101.333C117.333 113.115 107.782 122.667 96 122.667C84.2179 122.667 74.6667 113.115 74.6667 101.333Z" fill="black"/>
<path fill-rule="evenodd" clip-rule="evenodd" d="M41.2053 69.3681C42.6883 66.8232 45.9536 65.9623 48.4985 67.4453L84.9252 88.672C87.4702 90.155 88.331 93.4203 86.848 95.9652C85.365 98.5102 82.0997 99.3711 79.5548 97.8881L43.1281 76.6614C40.5832 75.1784 39.7223 71.9131 41.2053 69.3681Z" fill="black"/>
<path fill-rule="evenodd" clip-rule="evenodd" d="M86.793 32.0319C88.2776 34.5759 87.4188 37.8417 84.8748 39.3263L48.5015 60.553C45.9575 62.0376 42.6916 61.1788 41.207 58.6348C39.7224 56.0908 40.5812 52.825 43.1252 51.3403L79.4985 30.1137C82.0425 28.629 85.3084 29.4878 86.793 32.0319Z" fill="black"/>
</svg>
