<svg width="128" height="128" viewBox="0 0 128 128" fill="none" xmlns="http://www.w3.org/2000/svg">
<path d="M62.8044 13.0888C63.2935 12.0979 64.7065 12.0979 65.1956 13.0888L80.1701 43.4254C80.3641 43.8186 80.739 44.0912 81.1728 44.1546L114.662 49.0495C115.755 49.2092 116.191 50.553 115.399 51.3239L91.169 74.924C90.8545 75.2303 90.711 75.6718 90.7852 76.1045L96.5032 109.443C96.6901 110.533 95.5467 111.363 94.5685 110.849L64.6206 95.0997C64.2321 94.8954 63.7679 94.8954 63.3794 95.0997L33.4315 110.849C32.4533 111.363 31.3099 110.533 31.4968 109.443L37.2148 76.1045C37.289 75.6718 37.1454 75.2303 36.8309 74.924L12.6009 51.3239C11.8094 50.553 12.2452 49.2092 13.3384 49.0495L46.8272 44.1546C47.261 44.0912 47.6359 43.8186 47.8299 43.4254L62.8044 13.0888Z" fill="black"/>
</svg>
