<svg width="128" height="128" viewBox="0 0 128 128" fill="none" xmlns="http://www.w3.org/2000/svg">
<path fill-rule="evenodd" clip-rule="evenodd" d="M64 42.6667C52.2179 42.6667 42.6667 52.2179 42.6667 64C42.6667 75.7821 52.2179 85.3333 64 85.3333C75.7821 85.3333 85.3333 75.7821 85.3333 64C85.3333 52.2179 75.7821 42.6667 64 42.6667ZM32 64C32 46.3269 46.3269 32 64 32C81.6731 32 96 46.3269 96 64C96 81.6731 81.6731 96 64 96C46.3269 96 32 81.6731 32 64Z" fill="black"/>
<path fill-rule="evenodd" clip-rule="evenodd" d="M64 0C66.9455 0 69.3333 2.38781 69.3333 5.33333V16C69.3333 18.9455 66.9455 21.3333 64 21.3333C61.0545 21.3333 58.6667 18.9455 58.6667 16V5.33333C58.6667 2.38781 61.0545 0 64 0Z" fill="black"/>
<path fill-rule="evenodd" clip-rule="evenodd" d="M64 106.667C66.9455 106.667 69.3333 109.054 69.3333 112V122.667C69.3333 125.612 66.9455 128 64 128C61.0545 128 58.6667 125.612 58.6667 122.667V112C58.6667 109.054 61.0545 106.667 64 106.667Z" fill="black"/>
<path fill-rule="evenodd" clip-rule="evenodd" d="M18.7354 18.7354C20.8182 16.6526 24.1951 16.6526 26.2779 18.7354L33.8512 26.3088C35.934 28.3916 35.934 31.7684 33.8512 33.8512C31.7684 35.934 28.3916 35.934 26.3088 33.8512L18.7354 26.2779C16.6526 24.1951 16.6526 20.8182 18.7354 18.7354Z" fill="black"/>
<path fill-rule="evenodd" clip-rule="evenodd" d="M94.1488 94.1488C96.2316 92.066 99.6084 92.066 101.691 94.1488L109.265 101.722C111.347 103.805 111.347 107.182 109.265 109.265C107.182 111.347 103.805 111.347 101.722 109.265L94.1488 101.691C92.066 99.6084 92.066 96.2316 94.1488 94.1488Z" fill="black"/>
<path fill-rule="evenodd" clip-rule="evenodd" d="M0 64C0 61.0545 2.38781 58.6667 5.33333 58.6667H16C18.9455 58.6667 21.3333 61.0545 21.3333 64C21.3333 66.9455 18.9455 69.3334 16 69.3334H5.33333C2.38781 69.3334 0 66.9455 0 64Z" fill="black"/>
<path fill-rule="evenodd" clip-rule="evenodd" d="M106.667 64C106.667 61.0545 109.054 58.6667 112 58.6667H122.667C125.612 58.6667 128 61.0545 128 64C128 66.9455 125.612 69.3334 122.667 69.3334H112C109.054 69.3334 106.667 66.9455 106.667 64Z" fill="black"/>
<path fill-rule="evenodd" clip-rule="evenodd" d="M33.8512 94.1488C35.934 96.2316 35.934 99.6084 33.8512 101.691L26.2779 109.265C24.1951 111.347 20.8182 111.347 18.7354 109.265C16.6526 107.182 16.6526 103.805 18.7354 101.722L26.3088 94.1488C28.3916 92.066 31.7684 92.066 33.8512 94.1488Z" fill="black"/>
<path fill-rule="evenodd" clip-rule="evenodd" d="M109.265 18.7354C111.347 20.8182 111.347 24.1951 109.265 26.2779L101.691 33.8512C99.6084 35.934 96.2316 35.934 94.1488 33.8512C92.066 31.7684 92.066 28.3916 94.1488 26.3088L101.722 18.7354C103.805 16.6526 107.182 16.6526 109.265 18.7354Z" fill="black"/>
</svg>
