<svg width="128" height="128" viewBox="0 0 128 128" fill="none" xmlns="http://www.w3.org/2000/svg">
<path d="M117.333 21.3821C112.69 24.6571 107.55 27.162 102.109 28.8003C99.1891 25.4427 95.3083 23.063 90.9917 21.9829C86.6751 20.9028 82.1309 21.1745 77.9737 22.7612C73.8166 24.3479 70.247 27.1731 67.7478 30.8546C65.2486 34.5362 63.9404 38.8964 64 43.3457V48.1942C55.4794 48.4151 47.0365 46.5254 39.4231 42.6933C31.8097 38.8612 25.2622 33.2058 20.3636 26.2306C20.3636 26.2306 0.969703 69.8669 44.6061 89.2609C34.6207 96.0389 22.7256 99.4375 10.6667 98.9578C54.303 123.2 107.636 98.9578 107.636 43.2002C107.632 41.8497 107.502 40.5025 107.249 39.176C112.197 34.296 115.689 28.1346 117.333 21.3821Z" fill="black"/>
</svg>
