<svg width="128" height="128" viewBox="0 0 128 128" fill="none" xmlns="http://www.w3.org/2000/svg">
<path fill-rule="evenodd" clip-rule="evenodd" d="M96.6602 21.9907C98.3957 22.8221 106.5 24.5757 106.5 26.5V102.5C106.5 104.428 98.3913 107.184 96.6506 108.014C94.91 108.843 92.8475 108.598 91.3501 107.383L46.8197 71.2605L26.1334 87.8963C23.9815 89.6269 20.8342 89.2853 19.1036 87.1334C17.3731 84.9815 17.7147 81.8342 19.8666 80.1036L38.8758 64.8165L19.8501 49.383C17.7055 47.6434 17.3773 44.4946 19.1169 42.3501C20.8566 40.2055 24.0053 39.8773 26.1499 41.6169L46.8469 58.4061L91.3666 22.6036C92.8661 21.3977 94.9247 21.1593 96.6602 21.9907ZM60.5 64.8165L89.5 87.8963V41.6169L60.5 64.8165Z" fill="black"/>
</svg>
