<svg width="800" height="708" viewBox="0 0 800 708" fill="none" xmlns="http://www.w3.org/2000/svg">
<rect x="27" y="100" width="223" height="24" fill="#7EE787"/>
<rect x="250" y="100" width="225" height="24" fill="#C1C1CC"/>
<rect x="250" y="100" width="225" height="24" fill="#C1C1CC"/>
<rect x="250" y="124" width="149" height="24" fill="#5394FD"/>
<rect x="399" y="148" width="76" height="24" fill="#F47066"/>
<rect x="475" y="100" width="296" height="24" fill="#7EE787"/>
<rect x="326" y="12" width="176" height="64" rx="4" fill="#161632"/>
<path d="M352.906 52.9375V49.875L343.344 46.1875L342.516 45.9062L343.344 45.6406L352.906 41.8906V38.8281L339.656 44.7344V47.0156L352.906 52.9375ZM370.172 51.5156C370.172 51.7865 370.12 52.0417 370.016 52.2812C369.911 52.5208 369.76 52.7396 369.562 52.9375C369.24 53.2604 368.792 53.5156 368.219 53.7031C367.646 53.8802 366.974 53.9688 366.203 53.9688C365.714 53.9688 365.219 53.9167 364.719 53.8125C364.219 53.7083 363.766 53.5312 363.359 53.2812C362.943 53.0312 362.594 52.7031 362.312 52.2969C362.042 51.8906 361.885 51.3906 361.844 50.7969H358.953C358.953 51.5156 359.115 52.2083 359.438 52.875C359.771 53.5417 360.25 54.125 360.875 54.625C361.49 55.1354 362.245 55.5469 363.141 55.8594C364.036 56.1615 365.057 56.3125 366.203 56.3125C367.203 56.3125 368.125 56.1927 368.969 55.9531C369.812 55.7135 370.536 55.375 371.141 54.9375C371.745 54.5 372.214 53.974 372.547 53.3594C372.891 52.7448 373.062 52.0625 373.062 51.3125C373.062 50.6146 372.911 50 372.609 49.4688C372.318 48.9375 371.891 48.4688 371.328 48.0625C370.766 47.6667 370.073 47.3281 369.25 47.0469C368.427 46.7552 367.495 46.5 366.453 46.2812C365.661 46.125 365.005 45.9635 364.484 45.7969C363.974 45.6302 363.568 45.4427 363.266 45.2344C362.953 45.026 362.734 44.7917 362.609 44.5312C362.484 44.2708 362.422 43.974 362.422 43.6406C362.422 43.3177 362.5 43.0052 362.656 42.7031C362.812 42.401 363.047 42.1354 363.359 41.9062C363.661 41.6771 364.042 41.4948 364.5 41.3594C364.969 41.224 365.51 41.1562 366.125 41.1562C366.719 41.1562 367.25 41.2396 367.719 41.4062C368.198 41.5729 368.604 41.7917 368.938 42.0625C369.271 42.3333 369.531 42.6458 369.719 43C369.906 43.3438 370 43.6979 370 44.0625H372.891C372.891 43.3229 372.729 42.6354 372.406 42C372.094 41.3542 371.646 40.7917 371.062 40.3125C370.479 39.8333 369.771 39.4583 368.938 39.1875C368.104 38.9167 367.167 38.7812 366.125 38.7812C365.156 38.7812 364.266 38.9115 363.453 39.1719C362.651 39.4323 361.958 39.7865 361.375 40.2344C360.792 40.6823 360.339 41.2083 360.016 41.8125C359.693 42.4062 359.531 43.0469 359.531 43.7344C359.531 44.4323 359.688 45.0469 360 45.5781C360.312 46.099 360.755 46.5521 361.328 46.9375C361.891 47.3333 362.568 47.6719 363.359 47.9531C364.161 48.2344 365.047 48.474 366.016 48.6719C366.807 48.8281 367.469 49.0052 368 49.2031C368.531 49.3906 368.958 49.599 369.281 49.8281C369.604 50.0573 369.833 50.3125 369.969 50.5938C370.104 50.8646 370.172 51.1719 370.172 51.5156ZM385.359 53.9688C384.453 53.9688 383.693 53.7917 383.078 53.4375C382.474 53.0729 381.99 52.599 381.625 52.0156C381.25 51.4427 380.979 50.7969 380.812 50.0781C380.656 49.349 380.578 48.6146 380.578 47.875V47.2188C380.578 46.4896 380.656 45.7656 380.812 45.0469C380.979 44.3281 381.25 43.6771 381.625 43.0938C382 42.5208 382.49 42.0573 383.094 41.7031C383.708 41.3385 384.464 41.1562 385.359 41.1562C385.943 41.1562 386.484 41.2552 386.984 41.4531C387.495 41.651 387.932 41.9219 388.297 42.2656C388.661 42.6094 388.948 43.0104 389.156 43.4688C389.375 43.9167 389.49 44.3958 389.5 44.9062H392.234C392.234 44.0521 392.062 43.25 391.719 42.5C391.375 41.75 390.901 41.099 390.297 40.5469C389.682 40.0052 388.953 39.5781 388.109 39.2656C387.276 38.9427 386.359 38.7812 385.359 38.7812C384.078 38.7812 382.958 39.0104 382 39.4688C381.042 39.9271 380.245 40.5417 379.609 41.3125C378.964 42.0938 378.479 42.9948 378.156 44.0156C377.833 45.0365 377.672 46.1042 377.672 47.2188V47.875C377.672 49 377.833 50.0729 378.156 51.0938C378.479 52.1042 378.964 52.9948 379.609 53.7656C380.245 54.5469 381.042 55.1667 382 55.625C382.958 56.0833 384.078 56.3125 385.359 56.3125C386.255 56.3125 387.115 56.1615 387.938 55.8594C388.76 55.5469 389.49 55.1302 390.125 54.6094C390.76 54.099 391.266 53.5052 391.641 52.8281C392.026 52.1406 392.224 51.4219 392.234 50.6719H389.5C389.49 51.1406 389.365 51.5781 389.125 51.9844C388.896 52.3802 388.589 52.724 388.203 53.0156C387.818 53.3177 387.375 53.5521 386.875 53.7188C386.385 53.8854 385.88 53.9688 385.359 53.9688ZM408.453 38.7812C407.224 38.7812 406.125 39.0521 405.156 39.5938C404.198 40.125 403.375 40.8542 402.688 41.7812L402.672 41.3594L402.547 39.0938H399.797V56H402.703V45.1562C402.891 44.6354 403.125 44.1667 403.406 43.75C403.698 43.3229 404.036 42.9635 404.422 42.6719C404.849 42.3385 405.349 42.0885 405.922 41.9219C406.495 41.7448 407.135 41.6562 407.844 41.6562C408.396 41.6562 408.922 41.6875 409.422 41.75C409.932 41.8021 410.469 41.8906 411.031 42.0156L411.422 39.1875C411.13 39.0625 410.693 38.9635 410.109 38.8906C409.536 38.8177 408.984 38.7812 408.453 38.7812ZM417.047 39.0938V41.6094H422.797V53.5H417.047V56H431.203V53.5H425.688V39.0938H417.047ZM422.422 34.6562C422.422 35.125 422.562 35.5156 422.844 35.8281C423.135 36.1406 423.573 36.2969 424.156 36.2969C424.729 36.2969 425.161 36.1406 425.453 35.8281C425.745 35.5156 425.891 35.125 425.891 34.6562C425.891 34.3958 425.849 34.1562 425.766 33.9375C425.682 33.7188 425.557 33.5365 425.391 33.3906C425.255 33.2552 425.083 33.151 424.875 33.0781C424.667 32.9948 424.427 32.9531 424.156 32.9531C423.885 32.9531 423.641 32.9948 423.422 33.0781C423.214 33.151 423.042 33.2552 422.906 33.3906C422.74 33.5469 422.615 33.7344 422.531 33.9531C422.458 34.1719 422.422 34.4062 422.422 34.6562ZM435.797 62.5H438.688V54.375C438.896 54.6042 439.12 54.8177 439.359 55.0156C439.599 55.2031 439.854 55.375 440.125 55.5312C440.573 55.7812 441.073 55.974 441.625 56.1094C442.188 56.2448 442.792 56.3125 443.438 56.3125C444.5 56.3125 445.443 56.0938 446.266 55.6562C447.099 55.2188 447.797 54.6146 448.359 53.8438C448.922 53.0729 449.349 52.1667 449.641 51.125C449.932 50.0729 450.078 48.9427 450.078 47.7344V47.4062C450.078 46.1458 449.932 44.9896 449.641 43.9375C449.349 42.875 448.922 41.9635 448.359 41.2031C447.797 40.4427 447.099 39.849 446.266 39.4219C445.432 38.9948 444.474 38.7812 443.391 38.7812C442.776 38.7812 442.198 38.849 441.656 38.9844C441.125 39.1094 440.641 39.2969 440.203 39.5469C439.891 39.7135 439.599 39.9167 439.328 40.1562C439.057 40.3854 438.807 40.6458 438.578 40.9375L438.438 39.0938H435.797V62.5ZM447.188 47.4062V47.7344C447.188 48.5573 447.094 49.3438 446.906 50.0938C446.729 50.8438 446.453 51.5052 446.078 52.0781C445.703 52.651 445.224 53.1094 444.641 53.4531C444.057 53.7865 443.365 53.9531 442.562 53.9531C442.062 53.9531 441.604 53.8906 441.188 53.7656C440.781 53.6406 440.411 53.4688 440.078 53.25C439.786 53.0625 439.526 52.8333 439.297 52.5625C439.068 52.2917 438.865 52 438.688 51.6875V43.5469C438.885 43.1927 439.115 42.8698 439.375 42.5781C439.635 42.2865 439.932 42.0417 440.266 41.8438C440.568 41.6458 440.906 41.4948 441.281 41.3906C441.667 41.2865 442.083 41.2344 442.531 41.2344C443.344 41.2344 444.042 41.401 444.625 41.7344C445.208 42.0677 445.693 42.5156 446.078 43.0781C446.453 43.651 446.729 44.3125 446.906 45.0625C447.094 45.8021 447.188 46.5833 447.188 47.4062ZM461.875 35H458.969V39.0938H454.531V41.3281H458.969V50.5156C458.969 51.5573 459.104 52.4479 459.375 53.1875C459.656 53.9167 460.036 54.5104 460.516 54.9688C460.995 55.4375 461.557 55.7812 462.203 56C462.859 56.2083 463.562 56.3125 464.312 56.3125C464.76 56.3125 465.208 56.2917 465.656 56.25C466.115 56.2083 466.547 56.1458 466.953 56.0625C467.359 55.9896 467.734 55.901 468.078 55.7969C468.422 55.6823 468.714 55.5521 468.953 55.4062L468.547 53.3594C468.37 53.401 468.141 53.4531 467.859 53.5156C467.589 53.5677 467.297 53.6198 466.984 53.6719C466.661 53.724 466.333 53.7708 466 53.8125C465.667 53.8438 465.344 53.8594 465.031 53.8594C464.604 53.8594 464.198 53.8073 463.812 53.7031C463.438 53.599 463.104 53.4167 462.812 53.1562C462.521 52.9062 462.292 52.5677 462.125 52.1406C461.958 51.7135 461.875 51.1719 461.875 50.5156V41.3281H468.312V39.0938H461.875V35ZM474.312 52.9219L488.109 47V44.7188L474.312 38.8125V41.7969L484.422 45.5469L485.359 45.8438L484.422 46.1094L474.312 49.9219V52.9219Z" fill="#E3E3E8"/>
<rect x="399" y="356" width="76" height="24" fill="#F47066"/>
<rect x="250" y="332" width="149" height="24" fill="#5394FD"/>
<rect x="398" y="308" width="77" height="24" fill="#C1C1CC"/>
<rect x="398" y="308" width="77" height="24" fill="#C1C1CC"/>
<rect x="27" y="308" width="372" height="24" fill="#7EE787"/>
<rect x="475" y="308" width="296" height="24" fill="#7EE787"/>
<rect x="326" y="220" width="176" height="64" rx="4" fill="#161632"/>
<path d="M346.947 259.077V257.355L341.568 255.281L341.103 255.122L341.568 254.973L346.947 252.864V251.141L339.494 254.463V255.746L346.947 259.077ZM356.659 258.278C356.659 258.43 356.63 258.573 356.571 258.708C356.513 258.843 356.428 258.966 356.316 259.077C356.135 259.259 355.883 259.403 355.561 259.508C355.238 259.608 354.86 259.657 354.427 259.657C354.151 259.657 353.873 259.628 353.592 259.57C353.311 259.511 353.056 259.411 352.827 259.271C352.593 259.13 352.396 258.946 352.238 258.717C352.086 258.489 351.998 258.207 351.975 257.873H350.349C350.349 258.278 350.439 258.667 350.621 259.042C350.809 259.417 351.078 259.745 351.43 260.027C351.775 260.314 352.2 260.545 352.704 260.721C353.208 260.891 353.782 260.976 354.427 260.976C354.989 260.976 355.508 260.908 355.982 260.774C356.457 260.639 356.864 260.448 357.204 260.202C357.544 259.956 357.808 259.66 357.995 259.315C358.188 258.969 358.285 258.585 358.285 258.163C358.285 257.771 358.2 257.425 358.03 257.126C357.866 256.827 357.626 256.564 357.31 256.335C356.993 256.113 356.604 255.922 356.141 255.764C355.678 255.6 355.153 255.456 354.567 255.333C354.122 255.245 353.753 255.155 353.46 255.061C353.173 254.967 352.944 254.862 352.774 254.744C352.599 254.627 352.476 254.495 352.405 254.349C352.335 254.202 352.3 254.035 352.3 253.848C352.3 253.666 352.344 253.49 352.432 253.321C352.52 253.151 352.651 253.001 352.827 252.872C352.997 252.743 353.211 252.641 353.469 252.565C353.732 252.489 354.037 252.45 354.383 252.45C354.717 252.45 355.016 252.497 355.279 252.591C355.549 252.685 355.777 252.808 355.965 252.96C356.152 253.113 356.299 253.288 356.404 253.488C356.51 253.681 356.562 253.88 356.562 254.085H358.188C358.188 253.669 358.098 253.282 357.916 252.925C357.74 252.562 357.488 252.245 357.16 251.976C356.832 251.706 356.434 251.495 355.965 251.343C355.496 251.191 354.969 251.115 354.383 251.115C353.838 251.115 353.337 251.188 352.88 251.334C352.429 251.481 352.039 251.68 351.711 251.932C351.383 252.184 351.128 252.48 350.946 252.82C350.765 253.154 350.674 253.514 350.674 253.901C350.674 254.293 350.762 254.639 350.938 254.938C351.113 255.231 351.362 255.486 351.685 255.702C352.001 255.925 352.382 256.115 352.827 256.274C353.278 256.432 353.776 256.567 354.321 256.678C354.767 256.766 355.139 256.865 355.438 256.977C355.736 257.082 355.977 257.199 356.158 257.328C356.34 257.457 356.469 257.601 356.545 257.759C356.621 257.911 356.659 258.084 356.659 258.278ZM365.202 259.657C364.692 259.657 364.265 259.558 363.919 259.359C363.579 259.154 363.307 258.887 363.102 258.559C362.891 258.237 362.738 257.873 362.645 257.469C362.557 257.059 362.513 256.646 362.513 256.23V255.861C362.513 255.45 362.557 255.043 362.645 254.639C362.738 254.235 362.891 253.868 363.102 253.54C363.312 253.218 363.588 252.957 363.928 252.758C364.273 252.553 364.698 252.45 365.202 252.45C365.53 252.45 365.835 252.506 366.116 252.617C366.403 252.729 366.649 252.881 366.854 253.074C367.06 253.268 367.221 253.493 367.338 253.751C367.461 254.003 367.525 254.273 367.531 254.56H369.069C369.069 254.079 368.973 253.628 368.779 253.206C368.586 252.784 368.319 252.418 367.979 252.108C367.634 251.803 367.224 251.563 366.749 251.387C366.28 251.205 365.765 251.115 365.202 251.115C364.481 251.115 363.852 251.243 363.312 251.501C362.773 251.759 362.325 252.105 361.968 252.538C361.604 252.978 361.332 253.485 361.15 254.059C360.969 254.633 360.878 255.234 360.878 255.861V256.23C360.878 256.863 360.969 257.466 361.15 258.04C361.332 258.609 361.604 259.11 361.968 259.543C362.325 259.983 362.773 260.331 363.312 260.589C363.852 260.847 364.481 260.976 365.202 260.976C365.706 260.976 366.189 260.891 366.652 260.721C367.115 260.545 367.525 260.311 367.883 260.018C368.24 259.731 368.524 259.397 368.735 259.016C368.952 258.629 369.063 258.225 369.069 257.803H367.531C367.525 258.067 367.455 258.313 367.32 258.541C367.191 258.764 367.019 258.957 366.802 259.121C366.585 259.291 366.336 259.423 366.055 259.517C365.779 259.611 365.495 259.657 365.202 259.657ZM378.192 251.115C377.501 251.115 376.883 251.267 376.338 251.572C375.799 251.87 375.336 252.281 374.949 252.802L374.94 252.565L374.87 251.29H373.323V260.8H374.958V254.7C375.063 254.407 375.195 254.144 375.354 253.909C375.518 253.669 375.708 253.467 375.925 253.303C376.165 253.115 376.446 252.975 376.769 252.881C377.091 252.781 377.451 252.732 377.85 252.732C378.16 252.732 378.456 252.749 378.737 252.784C379.024 252.814 379.326 252.864 379.643 252.934L379.862 251.343C379.698 251.273 379.452 251.217 379.124 251.176C378.802 251.135 378.491 251.115 378.192 251.115ZM383.026 251.29V252.705H386.261V259.394H383.026V260.8H390.989V259.394H387.887V251.29H383.026ZM386.05 248.794C386.05 249.058 386.129 249.278 386.287 249.453C386.451 249.629 386.697 249.717 387.025 249.717C387.348 249.717 387.591 249.629 387.755 249.453C387.919 249.278 388.001 249.058 388.001 248.794C388.001 248.648 387.978 248.513 387.931 248.39C387.884 248.267 387.813 248.164 387.72 248.082C387.644 248.006 387.547 247.948 387.43 247.906C387.312 247.86 387.178 247.836 387.025 247.836C386.873 247.836 386.735 247.86 386.612 247.906C386.495 247.948 386.398 248.006 386.322 248.082C386.229 248.17 386.158 248.276 386.111 248.399C386.07 248.522 386.05 248.654 386.05 248.794ZM393.573 264.456H395.199V259.886C395.316 260.015 395.442 260.135 395.577 260.246C395.712 260.352 395.855 260.448 396.008 260.536C396.26 260.677 396.541 260.785 396.852 260.862C397.168 260.938 397.508 260.976 397.871 260.976C398.469 260.976 398.999 260.853 399.462 260.607C399.931 260.361 400.323 260.021 400.64 259.587C400.956 259.154 401.196 258.644 401.36 258.058C401.524 257.466 401.606 256.83 401.606 256.151V255.966C401.606 255.257 401.524 254.607 401.36 254.015C401.196 253.417 400.956 252.905 400.64 252.477C400.323 252.049 399.931 251.715 399.462 251.475C398.993 251.235 398.454 251.115 397.845 251.115C397.499 251.115 397.174 251.153 396.869 251.229C396.57 251.299 396.298 251.405 396.052 251.545C395.876 251.639 395.712 251.753 395.56 251.888C395.407 252.017 395.267 252.163 395.138 252.327L395.059 251.29H393.573V264.456ZM399.98 255.966V256.151C399.98 256.614 399.928 257.056 399.822 257.478C399.723 257.9 399.567 258.272 399.356 258.594C399.146 258.916 398.876 259.174 398.548 259.367C398.22 259.555 397.83 259.649 397.379 259.649C397.098 259.649 396.84 259.614 396.605 259.543C396.377 259.473 396.169 259.376 395.981 259.253C395.817 259.148 395.671 259.019 395.542 258.866C395.413 258.714 395.299 258.55 395.199 258.374V253.795C395.311 253.596 395.439 253.414 395.586 253.25C395.732 253.086 395.899 252.948 396.087 252.837C396.257 252.726 396.447 252.641 396.658 252.582C396.875 252.524 397.109 252.494 397.361 252.494C397.818 252.494 398.211 252.588 398.539 252.776C398.867 252.963 399.14 253.215 399.356 253.531C399.567 253.854 399.723 254.226 399.822 254.648C399.928 255.064 399.98 255.503 399.98 255.966ZM408.242 248.988H406.607V251.29H404.111V252.547H406.607V257.715C406.607 258.301 406.684 258.802 406.836 259.218C406.994 259.628 407.208 259.962 407.478 260.22C407.747 260.484 408.063 260.677 408.427 260.8C408.796 260.917 409.191 260.976 409.613 260.976C409.865 260.976 410.117 260.964 410.369 260.941C410.627 260.917 410.87 260.882 411.099 260.835C411.327 260.794 411.538 260.744 411.731 260.686C411.925 260.621 412.089 260.548 412.224 260.466L411.995 259.315C411.896 259.338 411.767 259.367 411.608 259.403C411.456 259.432 411.292 259.461 411.116 259.49C410.935 259.52 410.75 259.546 410.562 259.57C410.375 259.587 410.193 259.596 410.018 259.596C409.777 259.596 409.549 259.567 409.332 259.508C409.121 259.449 408.934 259.347 408.77 259.2C408.605 259.06 408.477 258.869 408.383 258.629C408.289 258.389 408.242 258.084 408.242 257.715V252.547H411.863V251.29H408.242V248.988ZM432.263 260.8H433.959V260.659C433.854 260.396 433.771 260.088 433.713 259.737C433.654 259.379 433.625 259.042 433.625 258.726V254.305C433.625 253.772 433.528 253.306 433.335 252.907C433.142 252.509 432.878 252.175 432.544 251.906C432.204 251.642 431.803 251.446 431.34 251.317C430.877 251.182 430.376 251.115 429.837 251.115C429.245 251.115 428.715 251.197 428.246 251.361C427.783 251.525 427.391 251.739 427.068 252.002C426.74 252.272 426.488 252.573 426.312 252.907C426.143 253.241 426.055 253.581 426.049 253.927H427.684C427.684 253.728 427.73 253.537 427.824 253.356C427.924 253.168 428.062 253.007 428.237 252.872C428.413 252.738 428.627 252.629 428.879 252.547C429.137 252.465 429.427 252.424 429.749 252.424C430.095 252.424 430.405 252.468 430.681 252.556C430.962 252.644 431.199 252.767 431.393 252.925C431.586 253.089 431.735 253.285 431.841 253.514C431.946 253.742 431.999 254 431.999 254.287V255.034H430.224C429.562 255.034 428.961 255.099 428.422 255.228C427.889 255.357 427.432 255.55 427.051 255.808C426.67 256.072 426.374 256.4 426.163 256.792C425.958 257.185 425.855 257.642 425.855 258.163C425.855 258.562 425.932 258.934 426.084 259.28C426.242 259.619 426.465 259.912 426.752 260.158C427.033 260.41 427.376 260.61 427.78 260.756C428.19 260.903 428.647 260.976 429.151 260.976C429.462 260.976 429.755 260.944 430.03 260.879C430.306 260.815 430.566 260.727 430.812 260.615C431.053 260.504 431.272 260.375 431.472 260.229C431.677 260.082 431.861 259.927 432.025 259.763C432.043 259.962 432.069 260.156 432.104 260.343C432.146 260.525 432.198 260.677 432.263 260.8ZM429.389 259.561C429.072 259.561 428.794 259.52 428.554 259.438C428.313 259.356 428.114 259.241 427.956 259.095C427.798 258.954 427.678 258.784 427.596 258.585C427.52 258.386 427.481 258.169 427.481 257.935C427.481 257.689 427.525 257.469 427.613 257.276C427.707 257.082 427.842 256.915 428.018 256.775C428.264 256.575 428.595 256.429 429.011 256.335C429.433 256.236 429.925 256.186 430.487 256.186H431.999V258.111C431.905 258.298 431.776 258.48 431.612 258.656C431.448 258.825 431.255 258.978 431.032 259.113C430.804 259.247 430.552 259.356 430.276 259.438C430.001 259.52 429.705 259.561 429.389 259.561ZM443.144 258.278C443.144 258.43 443.114 258.573 443.056 258.708C442.997 258.843 442.912 258.966 442.801 259.077C442.619 259.259 442.367 259.403 442.045 259.508C441.723 259.608 441.345 259.657 440.911 259.657C440.636 259.657 440.357 259.628 440.076 259.57C439.795 259.511 439.54 259.411 439.312 259.271C439.077 259.13 438.881 258.946 438.723 258.717C438.57 258.489 438.482 258.207 438.459 257.873H436.833C436.833 258.278 436.924 258.667 437.105 259.042C437.293 259.417 437.562 259.745 437.914 260.027C438.26 260.314 438.685 260.545 439.188 260.721C439.692 260.891 440.267 260.976 440.911 260.976C441.474 260.976 441.992 260.908 442.467 260.774C442.941 260.639 443.349 260.448 443.688 260.202C444.028 259.956 444.292 259.66 444.479 259.315C444.673 258.969 444.77 258.585 444.77 258.163C444.77 257.771 444.685 257.425 444.515 257.126C444.351 256.827 444.11 256.564 443.794 256.335C443.478 256.113 443.088 255.922 442.625 255.764C442.162 255.6 441.638 255.456 441.052 255.333C440.606 255.245 440.237 255.155 439.944 255.061C439.657 254.967 439.429 254.862 439.259 254.744C439.083 254.627 438.96 254.495 438.89 254.349C438.819 254.202 438.784 254.035 438.784 253.848C438.784 253.666 438.828 253.49 438.916 253.321C439.004 253.151 439.136 253.001 439.312 252.872C439.481 252.743 439.695 252.641 439.953 252.565C440.217 252.489 440.521 252.45 440.867 252.45C441.201 252.45 441.5 252.497 441.764 252.591C442.033 252.685 442.262 252.808 442.449 252.96C442.637 253.113 442.783 253.288 442.889 253.488C442.994 253.681 443.047 253.88 443.047 254.085H444.673C444.673 253.669 444.582 253.282 444.4 252.925C444.225 252.562 443.973 252.245 443.645 251.976C443.316 251.706 442.918 251.495 442.449 251.343C441.98 251.191 441.453 251.115 440.867 251.115C440.322 251.115 439.821 251.188 439.364 251.334C438.913 251.481 438.523 251.68 438.195 251.932C437.867 252.184 437.612 252.48 437.431 252.82C437.249 253.154 437.158 253.514 437.158 253.901C437.158 254.293 437.246 254.639 437.422 254.938C437.598 255.231 437.847 255.486 438.169 255.702C438.485 255.925 438.866 256.115 439.312 256.274C439.763 256.432 440.261 256.567 440.806 256.678C441.251 256.766 441.623 256.865 441.922 256.977C442.221 257.082 442.461 257.199 442.643 257.328C442.824 257.457 442.953 257.601 443.029 257.759C443.105 257.911 443.144 258.084 443.144 258.278ZM448.399 264.641C448.827 264.641 449.205 264.562 449.533 264.404C449.861 264.245 450.148 264.049 450.395 263.815C450.641 263.58 450.849 263.325 451.019 263.05C451.194 262.775 451.338 262.514 451.449 262.268L456.274 251.29H454.455L452.003 257.46L451.555 258.576L451.133 257.425L448.522 251.29H446.703L450.799 260.352L450.148 261.617C450.09 261.735 450.008 261.884 449.902 262.066C449.803 262.247 449.683 262.423 449.542 262.593C449.396 262.763 449.229 262.909 449.041 263.032C448.859 263.156 448.657 263.217 448.435 263.217C448.353 263.217 448.238 263.211 448.092 263.199C447.951 263.194 447.808 263.185 447.661 263.173L447.397 264.5C447.503 264.524 447.658 264.553 447.863 264.588C448.068 264.623 448.247 264.641 448.399 264.641ZM458.445 260.8H460.071V253.98C460.183 253.775 460.312 253.587 460.458 253.417C460.61 253.247 460.774 253.098 460.95 252.969C461.167 252.823 461.404 252.708 461.662 252.626C461.92 252.538 462.198 252.494 462.497 252.494C462.843 252.494 463.147 252.535 463.411 252.617C463.681 252.699 463.909 252.831 464.097 253.013C464.278 253.195 464.416 253.432 464.51 253.725C464.604 254.018 464.65 254.375 464.65 254.797V260.8H466.276V254.762C466.276 254.129 466.197 253.584 466.039 253.127C465.887 252.664 465.667 252.283 465.38 251.985C465.093 251.686 464.744 251.466 464.334 251.325C463.93 251.185 463.479 251.115 462.98 251.115C462.611 251.12 462.26 251.176 461.926 251.281C461.598 251.381 461.293 251.525 461.012 251.712C460.824 251.835 460.646 251.982 460.476 252.152C460.312 252.316 460.159 252.497 460.019 252.697L459.904 251.29H458.445V260.8ZM473.308 259.657C472.798 259.657 472.37 259.558 472.024 259.359C471.685 259.154 471.412 258.887 471.207 258.559C470.996 258.237 470.844 257.873 470.75 257.469C470.662 257.059 470.618 256.646 470.618 256.23V255.861C470.618 255.45 470.662 255.043 470.75 254.639C470.844 254.235 470.996 253.868 471.207 253.54C471.418 253.218 471.693 252.957 472.033 252.758C472.379 252.553 472.804 252.45 473.308 252.45C473.636 252.45 473.94 252.506 474.222 252.617C474.509 252.729 474.755 252.881 474.96 253.074C475.165 253.268 475.326 253.493 475.443 253.751C475.566 254.003 475.631 254.273 475.637 254.56H477.175C477.175 254.079 477.078 253.628 476.885 253.206C476.691 252.784 476.425 252.418 476.085 252.108C475.739 251.803 475.329 251.563 474.854 251.387C474.386 251.205 473.87 251.115 473.308 251.115C472.587 251.115 471.957 251.243 471.418 251.501C470.879 251.759 470.431 252.105 470.073 252.538C469.71 252.978 469.438 253.485 469.256 254.059C469.074 254.633 468.983 255.234 468.983 255.861V256.23C468.983 256.863 469.074 257.466 469.256 258.04C469.438 258.609 469.71 259.11 470.073 259.543C470.431 259.983 470.879 260.331 471.418 260.589C471.957 260.847 472.587 260.976 473.308 260.976C473.812 260.976 474.295 260.891 474.758 260.721C475.221 260.545 475.631 260.311 475.988 260.018C476.346 259.731 476.63 259.397 476.841 259.016C477.058 258.629 477.169 258.225 477.175 257.803H475.637C475.631 258.067 475.561 258.313 475.426 258.541C475.297 258.764 475.124 258.957 474.907 259.121C474.69 259.291 474.441 259.423 474.16 259.517C473.885 259.611 473.601 259.657 473.308 259.657ZM480.102 259.069L487.862 255.738V254.454L480.102 251.132V252.811L485.788 254.92L486.315 255.087L485.788 255.237L480.102 257.381V259.069Z" fill="#E3E3E8"/>
<rect x="697" y="564" width="76" height="24" fill="#F47066"/>
<rect x="249" y="540" width="149" height="24" fill="#5394FD"/>
<rect x="26" y="516" width="669" height="24" fill="#7EE787"/>
<rect x="325" y="428" width="176" height="64" rx="4" fill="#161632"/>
<path d="M345.947 467.077V465.355L340.568 463.281L340.103 463.122L340.568 462.973L345.947 460.864V459.141L338.494 462.463V463.746L345.947 467.077ZM355.659 466.278C355.659 466.43 355.63 466.573 355.571 466.708C355.513 466.843 355.428 466.966 355.316 467.077C355.135 467.259 354.883 467.403 354.561 467.508C354.238 467.608 353.86 467.657 353.427 467.657C353.151 467.657 352.873 467.628 352.592 467.57C352.311 467.511 352.056 467.411 351.827 467.271C351.593 467.13 351.396 466.946 351.238 466.717C351.086 466.489 350.998 466.207 350.975 465.873H349.349C349.349 466.278 349.439 466.667 349.621 467.042C349.809 467.417 350.078 467.745 350.43 468.027C350.775 468.314 351.2 468.545 351.704 468.721C352.208 468.891 352.782 468.976 353.427 468.976C353.989 468.976 354.508 468.908 354.982 468.774C355.457 468.639 355.864 468.448 356.204 468.202C356.544 467.956 356.808 467.66 356.995 467.315C357.188 466.969 357.285 466.585 357.285 466.163C357.285 465.771 357.2 465.425 357.03 465.126C356.866 464.827 356.626 464.564 356.31 464.335C355.993 464.113 355.604 463.922 355.141 463.764C354.678 463.6 354.153 463.456 353.567 463.333C353.122 463.245 352.753 463.155 352.46 463.061C352.173 462.967 351.944 462.862 351.774 462.744C351.599 462.627 351.476 462.495 351.405 462.349C351.335 462.202 351.3 462.035 351.3 461.848C351.3 461.666 351.344 461.49 351.432 461.321C351.52 461.151 351.651 461.001 351.827 460.872C351.997 460.743 352.211 460.641 352.469 460.565C352.732 460.489 353.037 460.45 353.383 460.45C353.717 460.45 354.016 460.497 354.279 460.591C354.549 460.685 354.777 460.808 354.965 460.96C355.152 461.113 355.299 461.288 355.404 461.488C355.51 461.681 355.562 461.88 355.562 462.085H357.188C357.188 461.669 357.098 461.282 356.916 460.925C356.74 460.562 356.488 460.245 356.16 459.976C355.832 459.706 355.434 459.495 354.965 459.343C354.496 459.191 353.969 459.115 353.383 459.115C352.838 459.115 352.337 459.188 351.88 459.334C351.429 459.481 351.039 459.68 350.711 459.932C350.383 460.184 350.128 460.48 349.946 460.82C349.765 461.154 349.674 461.514 349.674 461.901C349.674 462.293 349.762 462.639 349.938 462.938C350.113 463.231 350.362 463.486 350.685 463.702C351.001 463.925 351.382 464.115 351.827 464.274C352.278 464.432 352.776 464.567 353.321 464.678C353.767 464.766 354.139 464.865 354.438 464.977C354.736 465.082 354.977 465.199 355.158 465.328C355.34 465.457 355.469 465.601 355.545 465.759C355.621 465.911 355.659 466.084 355.659 466.278ZM364.202 467.657C363.692 467.657 363.265 467.558 362.919 467.359C362.579 467.154 362.307 466.887 362.102 466.559C361.891 466.237 361.738 465.873 361.645 465.469C361.557 465.059 361.513 464.646 361.513 464.23V463.861C361.513 463.45 361.557 463.043 361.645 462.639C361.738 462.235 361.891 461.868 362.102 461.54C362.312 461.218 362.588 460.957 362.928 460.758C363.273 460.553 363.698 460.45 364.202 460.45C364.53 460.45 364.835 460.506 365.116 460.617C365.403 460.729 365.649 460.881 365.854 461.074C366.06 461.268 366.221 461.493 366.338 461.751C366.461 462.003 366.525 462.273 366.531 462.56H368.069C368.069 462.079 367.973 461.628 367.779 461.206C367.586 460.784 367.319 460.418 366.979 460.108C366.634 459.803 366.224 459.563 365.749 459.387C365.28 459.205 364.765 459.115 364.202 459.115C363.481 459.115 362.852 459.243 362.312 459.501C361.773 459.759 361.325 460.105 360.968 460.538C360.604 460.978 360.332 461.485 360.15 462.059C359.969 462.633 359.878 463.234 359.878 463.861V464.23C359.878 464.863 359.969 465.466 360.15 466.04C360.332 466.609 360.604 467.11 360.968 467.543C361.325 467.983 361.773 468.331 362.312 468.589C362.852 468.847 363.481 468.976 364.202 468.976C364.706 468.976 365.189 468.891 365.652 468.721C366.115 468.545 366.525 468.311 366.883 468.018C367.24 467.731 367.524 467.397 367.735 467.016C367.952 466.629 368.063 466.225 368.069 465.803H366.531C366.525 466.067 366.455 466.313 366.32 466.541C366.191 466.764 366.019 466.957 365.802 467.121C365.585 467.291 365.336 467.423 365.055 467.517C364.779 467.611 364.495 467.657 364.202 467.657ZM377.192 459.115C376.501 459.115 375.883 459.267 375.338 459.572C374.799 459.87 374.336 460.281 373.949 460.802L373.94 460.565L373.87 459.29H372.323V468.8H373.958V462.7C374.063 462.407 374.195 462.144 374.354 461.909C374.518 461.669 374.708 461.467 374.925 461.303C375.165 461.115 375.446 460.975 375.769 460.881C376.091 460.781 376.451 460.732 376.85 460.732C377.16 460.732 377.456 460.749 377.737 460.784C378.024 460.814 378.326 460.864 378.643 460.934L378.862 459.343C378.698 459.273 378.452 459.217 378.124 459.176C377.802 459.135 377.491 459.115 377.192 459.115ZM382.026 459.29V460.705H385.261V467.394H382.026V468.8H389.989V467.394H386.887V459.29H382.026ZM385.05 456.794C385.05 457.058 385.129 457.278 385.287 457.453C385.451 457.629 385.697 457.717 386.025 457.717C386.348 457.717 386.591 457.629 386.755 457.453C386.919 457.278 387.001 457.058 387.001 456.794C387.001 456.648 386.978 456.513 386.931 456.39C386.884 456.267 386.813 456.164 386.72 456.082C386.644 456.006 386.547 455.948 386.43 455.906C386.312 455.86 386.178 455.836 386.025 455.836C385.873 455.836 385.735 455.86 385.612 455.906C385.495 455.948 385.398 456.006 385.322 456.082C385.229 456.17 385.158 456.276 385.111 456.399C385.07 456.522 385.05 456.654 385.05 456.794ZM392.573 472.456H394.199V467.886C394.316 468.015 394.442 468.135 394.577 468.246C394.712 468.352 394.855 468.448 395.008 468.536C395.26 468.677 395.541 468.785 395.852 468.862C396.168 468.938 396.508 468.976 396.871 468.976C397.469 468.976 397.999 468.853 398.462 468.607C398.931 468.361 399.323 468.021 399.64 467.587C399.956 467.154 400.196 466.644 400.36 466.058C400.524 465.466 400.606 464.83 400.606 464.151V463.966C400.606 463.257 400.524 462.607 400.36 462.015C400.196 461.417 399.956 460.905 399.64 460.477C399.323 460.049 398.931 459.715 398.462 459.475C397.993 459.235 397.454 459.115 396.845 459.115C396.499 459.115 396.174 459.153 395.869 459.229C395.57 459.299 395.298 459.405 395.052 459.545C394.876 459.639 394.712 459.753 394.56 459.888C394.407 460.017 394.267 460.163 394.138 460.327L394.059 459.29H392.573V472.456ZM398.98 463.966V464.151C398.98 464.614 398.928 465.056 398.822 465.478C398.723 465.9 398.567 466.272 398.356 466.594C398.146 466.916 397.876 467.174 397.548 467.367C397.22 467.555 396.83 467.649 396.379 467.649C396.098 467.649 395.84 467.614 395.605 467.543C395.377 467.473 395.169 467.376 394.981 467.253C394.817 467.148 394.671 467.019 394.542 466.866C394.413 466.714 394.299 466.55 394.199 466.374V461.795C394.311 461.596 394.439 461.414 394.586 461.25C394.732 461.086 394.899 460.948 395.087 460.837C395.257 460.726 395.447 460.641 395.658 460.582C395.875 460.524 396.109 460.494 396.361 460.494C396.818 460.494 397.211 460.588 397.539 460.776C397.867 460.963 398.14 461.215 398.356 461.531C398.567 461.854 398.723 462.226 398.822 462.648C398.928 463.064 398.98 463.503 398.98 463.966ZM407.242 456.988H405.607V459.29H403.111V460.547H405.607V465.715C405.607 466.301 405.684 466.802 405.836 467.218C405.994 467.628 406.208 467.962 406.478 468.22C406.747 468.484 407.063 468.677 407.427 468.8C407.796 468.917 408.191 468.976 408.613 468.976C408.865 468.976 409.117 468.964 409.369 468.941C409.627 468.917 409.87 468.882 410.099 468.835C410.327 468.794 410.538 468.744 410.731 468.686C410.925 468.621 411.089 468.548 411.224 468.466L410.995 467.315C410.896 467.338 410.767 467.367 410.608 467.403C410.456 467.432 410.292 467.461 410.116 467.49C409.935 467.52 409.75 467.546 409.562 467.57C409.375 467.587 409.193 467.596 409.018 467.596C408.777 467.596 408.549 467.567 408.332 467.508C408.121 467.449 407.934 467.347 407.77 467.2C407.605 467.06 407.477 466.869 407.383 466.629C407.289 466.389 407.242 466.084 407.242 465.715V460.547H410.863V459.29H407.242V456.988ZM424.706 463.966V464.151C424.706 464.83 424.797 465.466 424.979 466.058C425.16 466.644 425.415 467.154 425.743 467.587C426.071 468.021 426.467 468.361 426.93 468.607C427.398 468.853 427.92 468.976 428.494 468.976C429.08 468.976 429.593 468.876 430.032 468.677C430.472 468.478 430.85 468.185 431.166 467.798L431.236 468.8H432.73V455.3H431.104V460.231C430.794 459.867 430.425 459.592 429.997 459.405C429.575 459.211 429.08 459.115 428.512 459.115C427.932 459.115 427.407 459.235 426.938 459.475C426.47 459.715 426.071 460.049 425.743 460.477C425.409 460.905 425.151 461.417 424.97 462.015C424.794 462.607 424.706 463.257 424.706 463.966ZM426.332 464.151V463.966C426.332 463.503 426.382 463.064 426.481 462.648C426.581 462.226 426.736 461.854 426.947 461.531C427.152 461.215 427.416 460.963 427.738 460.776C428.066 460.588 428.459 460.494 428.916 460.494C429.449 460.494 429.895 460.62 430.252 460.872C430.609 461.118 430.894 461.435 431.104 461.822V466.234C430.894 466.65 430.609 466.981 430.252 467.227C429.895 467.473 429.443 467.596 428.898 467.596C428.447 467.596 428.061 467.505 427.738 467.323C427.416 467.136 427.152 466.884 426.947 466.568C426.736 466.251 426.581 465.885 426.481 465.469C426.382 465.053 426.332 464.614 426.332 464.151ZM440.025 468.976C440.951 468.976 441.728 468.791 442.354 468.422C442.987 468.047 443.462 467.619 443.778 467.139L442.785 466.365C442.486 466.752 442.111 467.063 441.66 467.297C441.209 467.531 440.693 467.649 440.113 467.649C439.674 467.649 439.272 467.567 438.909 467.403C438.546 467.239 438.235 467.013 437.978 466.726C437.726 466.456 437.526 466.146 437.38 465.794C437.239 465.443 437.148 465.035 437.107 464.573V464.511H443.901V463.781C443.901 463.119 443.816 462.504 443.646 461.936C443.482 461.367 443.23 460.872 442.891 460.45C442.551 460.034 442.123 459.709 441.607 459.475C441.098 459.235 440.5 459.115 439.814 459.115C439.27 459.115 438.736 459.226 438.215 459.448C437.699 459.671 437.239 459.99 436.835 460.406C436.425 460.828 436.097 461.344 435.851 461.953C435.604 462.557 435.481 463.242 435.481 464.01V464.379C435.481 465.041 435.593 465.654 435.815 466.216C436.038 466.779 436.349 467.265 436.747 467.675C437.146 468.085 437.623 468.405 438.18 468.633C438.742 468.862 439.357 468.976 440.025 468.976ZM439.814 460.45C440.23 460.45 440.588 460.527 440.887 460.679C441.191 460.831 441.443 461.031 441.643 461.277C441.842 461.523 441.997 461.816 442.108 462.156C442.22 462.49 442.275 462.803 442.275 463.096V463.175H437.16C437.225 462.736 437.336 462.349 437.494 462.015C437.658 461.675 437.857 461.388 438.092 461.154C438.326 460.925 438.59 460.752 438.883 460.635C439.176 460.512 439.486 460.45 439.814 460.45ZM449.061 468.8H450.695V460.547H454.36V459.29H450.695V458.622C450.695 458.224 450.745 457.875 450.845 457.576C450.95 457.278 451.103 457.034 451.302 456.847C451.489 456.665 451.724 456.531 452.005 456.443C452.292 456.349 452.62 456.302 452.989 456.302C453.353 456.302 453.692 456.334 454.009 456.399C454.331 456.457 454.612 456.528 454.853 456.61L455.046 455.265C454.894 455.224 454.744 455.189 454.598 455.159C454.451 455.124 454.305 455.092 454.158 455.063C453.936 455.022 453.71 454.99 453.481 454.966C453.253 454.937 453.021 454.922 452.787 454.922C452.225 454.922 451.715 455.001 451.258 455.159C450.801 455.318 450.411 455.552 450.089 455.863C449.761 456.173 449.506 456.56 449.324 457.023C449.148 457.48 449.061 458.013 449.061 458.622V459.29H446.441V460.547H449.061V468.8ZM461.646 468.976C462.572 468.976 463.349 468.791 463.976 468.422C464.608 468.047 465.083 467.619 465.399 467.139L464.406 466.365C464.107 466.752 463.732 467.063 463.281 467.297C462.83 467.531 462.314 467.649 461.734 467.649C461.295 467.649 460.894 467.567 460.53 467.403C460.167 467.239 459.856 467.013 459.599 466.726C459.347 466.456 459.147 466.146 459.001 465.794C458.86 465.443 458.77 465.035 458.729 464.573V464.511H465.522V463.781C465.522 463.119 465.438 462.504 465.268 461.936C465.104 461.367 464.852 460.872 464.512 460.45C464.172 460.034 463.744 459.709 463.229 459.475C462.719 459.235 462.121 459.115 461.436 459.115C460.891 459.115 460.357 459.226 459.836 459.448C459.32 459.671 458.86 459.99 458.456 460.406C458.046 460.828 457.718 461.344 457.472 461.953C457.226 462.557 457.103 463.242 457.103 464.01V464.379C457.103 465.041 457.214 465.654 457.437 466.216C457.659 466.779 457.97 467.265 458.368 467.675C458.767 468.085 459.244 468.405 459.801 468.633C460.363 468.862 460.979 468.976 461.646 468.976ZM461.436 460.45C461.852 460.45 462.209 460.527 462.508 460.679C462.812 460.831 463.064 461.031 463.264 461.277C463.463 461.523 463.618 461.816 463.729 462.156C463.841 462.49 463.896 462.803 463.896 463.096V463.175H458.781C458.846 462.736 458.957 462.349 459.115 462.015C459.279 461.675 459.479 461.388 459.713 461.154C459.947 460.925 460.211 460.752 460.504 460.635C460.797 460.512 461.107 460.45 461.436 460.45ZM474.487 459.115C473.796 459.115 473.178 459.267 472.633 459.572C472.094 459.87 471.631 460.281 471.244 460.802L471.235 460.565L471.165 459.29H469.618V468.8H471.253V462.7C471.358 462.407 471.49 462.144 471.648 461.909C471.812 461.669 472.003 461.467 472.22 461.303C472.46 461.115 472.741 460.975 473.063 460.881C473.386 460.781 473.746 460.732 474.145 460.732C474.455 460.732 474.751 460.749 475.032 460.784C475.319 460.814 475.621 460.864 475.938 460.934L476.157 459.343C475.993 459.273 475.747 459.217 475.419 459.176C475.097 459.135 474.786 459.115 474.487 459.115ZM479.102 467.069L486.862 463.738V462.454L479.102 459.132V460.811L484.788 462.92L485.315 463.087L484.788 463.237L479.102 465.381V467.069Z" fill="#E3E3E8"/>
<rect x="196" y="638" width="24" height="24" fill="#7EE787"/>
<rect x="196" y="670" width="24" height="24" fill="#C1C1CC"/>
<rect x="431" y="639" width="24" height="24" fill="#5394FD"/>
<rect x="431" y="671" width="24" height="24" fill="#F47066"/>
<path d="M229.585 656V642.909H231.17V648.739H238.151V642.909H239.736V656H238.151V650.145H231.17V656H229.585ZM242.194 644.315V642.909H252.012V644.315H247.895V656H246.31V644.315H242.194ZM254.458 642.909H256.35L260.799 653.776H260.953L265.401 642.909H267.294V656H265.811V646.054H265.683L261.592 656H260.16L256.069 646.054H255.941V656H254.458V642.909ZM270.472 656V642.909H272.057V654.594H278.142V656H270.472ZM285.455 659.682V646.182H286.912V647.741H287.091C287.202 647.571 287.355 647.354 287.551 647.089C287.752 646.821 288.037 646.582 288.408 646.374C288.783 646.161 289.29 646.054 289.929 646.054C290.756 646.054 291.485 646.261 292.115 646.674C292.746 647.087 293.238 647.673 293.592 648.432C293.946 649.19 294.123 650.085 294.123 651.116C294.123 652.156 293.946 653.058 293.592 653.82C293.238 654.579 292.748 655.167 292.122 655.585C291.495 655.998 290.773 656.205 289.955 656.205C289.324 656.205 288.819 656.1 288.44 655.891C288.061 655.678 287.769 655.437 287.564 655.169C287.36 654.896 287.202 654.67 287.091 654.491H286.963V659.682H285.455ZM286.938 651.091C286.938 651.832 287.047 652.487 287.264 653.053C287.481 653.616 287.799 654.057 288.216 654.376C288.634 654.692 289.145 654.849 289.75 654.849C290.381 654.849 290.907 654.683 291.329 654.351C291.755 654.014 292.075 653.562 292.288 652.996C292.505 652.425 292.614 651.79 292.614 651.091C292.614 650.401 292.507 649.778 292.294 649.224C292.086 648.666 291.768 648.225 291.342 647.901C290.92 647.573 290.39 647.409 289.75 647.409C289.137 647.409 288.621 647.565 288.203 647.876C287.786 648.183 287.471 648.613 287.257 649.167C287.044 649.717 286.938 650.358 286.938 651.091ZM300.131 656.205C299.313 656.205 298.591 655.998 297.964 655.585C297.338 655.167 296.848 654.579 296.494 653.82C296.14 653.058 295.963 652.156 295.963 651.116C295.963 650.085 296.14 649.19 296.494 648.432C296.848 647.673 297.34 647.087 297.971 646.674C298.601 646.261 299.33 646.054 300.157 646.054C300.796 646.054 301.301 646.161 301.672 646.374C302.047 646.582 302.332 646.821 302.528 647.089C302.728 647.354 302.884 647.571 302.995 647.741H303.123V646.182H304.631V656H303.174V654.491H302.995C302.884 654.67 302.726 654.896 302.522 655.169C302.317 655.437 302.025 655.678 301.646 655.891C301.267 656.1 300.762 656.205 300.131 656.205ZM300.336 654.849C300.941 654.849 301.452 654.692 301.87 654.376C302.287 654.057 302.605 653.616 302.822 653.053C303.039 652.487 303.148 651.832 303.148 651.091C303.148 650.358 303.042 649.717 302.828 649.167C302.615 648.613 302.3 648.183 301.882 647.876C301.465 647.565 300.949 647.409 300.336 647.409C299.696 647.409 299.164 647.573 298.738 647.901C298.316 648.225 297.998 648.666 297.785 649.224C297.576 649.778 297.472 650.401 297.472 651.091C297.472 651.79 297.578 652.425 297.792 652.996C298.009 653.562 298.328 654.014 298.75 654.351C299.176 654.683 299.705 654.849 300.336 654.849ZM307.603 656V646.182H309.061V647.665H309.163C309.342 647.179 309.666 646.785 310.135 646.482C310.603 646.18 311.132 646.028 311.72 646.028C311.831 646.028 311.969 646.031 312.135 646.035C312.301 646.039 312.427 646.045 312.512 646.054V647.588C312.461 647.575 312.344 647.556 312.161 647.531C311.982 647.501 311.792 647.486 311.592 647.486C311.115 647.486 310.689 647.586 310.314 647.786C309.943 647.982 309.649 648.255 309.431 648.604C309.218 648.95 309.112 649.344 309.112 649.787V656H307.603ZM321.255 648.381L319.9 648.764C319.815 648.538 319.689 648.319 319.523 648.106C319.361 647.888 319.139 647.71 318.858 647.569C318.577 647.428 318.217 647.358 317.778 647.358C317.177 647.358 316.676 647.496 316.276 647.773C315.879 648.046 315.681 648.393 315.681 648.815C315.681 649.19 315.818 649.487 316.09 649.704C316.363 649.921 316.789 650.102 317.369 650.247L318.826 650.605C319.704 650.818 320.358 651.144 320.789 651.583C321.219 652.018 321.434 652.578 321.434 653.264C321.434 653.827 321.272 654.33 320.948 654.773C320.629 655.216 320.181 655.565 319.606 655.821C319.031 656.077 318.362 656.205 317.599 656.205C316.597 656.205 315.769 655.987 315.112 655.553C314.456 655.118 314.041 654.483 313.866 653.648L315.298 653.29C315.434 653.818 315.692 654.214 316.071 654.479C316.455 654.743 316.955 654.875 317.573 654.875C318.276 654.875 318.835 654.726 319.248 654.428C319.666 654.125 319.874 653.763 319.874 653.341C319.874 653 319.755 652.714 319.517 652.484C319.278 652.25 318.911 652.075 318.417 651.96L316.781 651.577C315.882 651.364 315.221 651.033 314.799 650.586C314.382 650.134 314.173 649.57 314.173 648.892C314.173 648.338 314.328 647.848 314.639 647.422C314.955 646.996 315.383 646.661 315.924 646.418C316.47 646.175 317.088 646.054 317.778 646.054C318.749 646.054 319.512 646.267 320.066 646.693C320.624 647.119 321.021 647.682 321.255 648.381ZM323.705 656V646.182H325.213V656H323.705ZM324.472 644.545C324.178 644.545 323.924 644.445 323.711 644.245C323.502 644.045 323.398 643.804 323.398 643.523C323.398 643.241 323.502 643.001 323.711 642.8C323.924 642.6 324.178 642.5 324.472 642.5C324.766 642.5 325.017 642.6 325.226 642.8C325.439 643.001 325.546 643.241 325.546 643.523C325.546 643.804 325.439 644.045 325.226 644.245C325.017 644.445 324.766 644.545 324.472 644.545ZM329.485 650.094V656H327.976V646.182H329.434V647.716H329.562C329.792 647.217 330.141 646.817 330.61 646.514C331.079 646.207 331.684 646.054 332.425 646.054C333.09 646.054 333.672 646.19 334.17 646.463C334.669 646.732 335.057 647.141 335.334 647.69C335.611 648.236 335.749 648.926 335.749 649.761V656H334.241V649.864C334.241 649.092 334.04 648.491 333.64 648.061C333.239 647.626 332.689 647.409 331.991 647.409C331.509 647.409 331.079 647.513 330.699 647.722C330.324 647.931 330.028 648.236 329.811 648.636C329.594 649.037 329.485 649.523 329.485 650.094ZM342.469 659.886C341.74 659.886 341.114 659.793 340.589 659.605C340.065 659.422 339.629 659.179 339.279 658.876C338.934 658.578 338.659 658.259 338.455 657.918L339.656 657.074C339.793 657.253 339.965 657.457 340.174 657.688C340.383 657.922 340.668 658.124 341.031 658.295C341.397 658.469 341.876 658.557 342.469 658.557C343.261 658.557 343.915 658.365 344.431 657.982C344.947 657.598 345.205 656.997 345.205 656.179V654.185H345.077C344.966 654.364 344.808 654.585 344.604 654.849C344.403 655.109 344.114 655.342 343.734 655.546C343.359 655.746 342.852 655.847 342.213 655.847C341.42 655.847 340.709 655.659 340.078 655.284C339.452 654.909 338.955 654.364 338.589 653.648C338.227 652.932 338.045 652.062 338.045 651.04C338.045 650.034 338.222 649.158 338.576 648.413C338.93 647.663 339.422 647.083 340.053 646.674C340.683 646.261 341.412 646.054 342.239 646.054C342.878 646.054 343.385 646.161 343.76 646.374C344.139 646.582 344.429 646.821 344.629 647.089C344.834 647.354 344.991 647.571 345.102 647.741H345.256V646.182H346.713V656.281C346.713 657.125 346.521 657.811 346.138 658.339C345.759 658.872 345.247 659.262 344.604 659.509C343.964 659.761 343.253 659.886 342.469 659.886ZM342.418 654.491C343.023 654.491 343.534 654.353 343.952 654.076C344.369 653.799 344.687 653.401 344.904 652.881C345.121 652.361 345.23 651.739 345.23 651.014C345.23 650.307 345.124 649.683 344.911 649.141C344.697 648.6 344.382 648.176 343.964 647.869C343.547 647.562 343.031 647.409 342.418 647.409C341.778 647.409 341.246 647.571 340.82 647.895C340.398 648.219 340.08 648.653 339.867 649.199C339.658 649.744 339.554 650.349 339.554 651.014C339.554 651.696 339.661 652.299 339.874 652.823C340.091 653.343 340.411 653.752 340.832 654.05C341.259 654.344 341.787 654.491 342.418 654.491Z" fill="#E3E3E8"/>
<path d="M471.744 648.182C471.668 647.534 471.357 647.031 470.811 646.673C470.266 646.315 469.597 646.136 468.804 646.136C468.224 646.136 467.717 646.23 467.283 646.418C466.852 646.605 466.516 646.863 466.273 647.191C466.034 647.519 465.915 647.892 465.915 648.31C465.915 648.659 465.998 648.96 466.164 649.211C466.335 649.458 466.552 649.665 466.816 649.831C467.08 649.993 467.357 650.127 467.647 650.234C467.937 650.336 468.203 650.419 468.446 650.483L469.776 650.841C470.116 650.93 470.496 651.054 470.913 651.212C471.335 651.369 471.738 651.585 472.121 651.857C472.509 652.126 472.829 652.471 473.08 652.893C473.332 653.315 473.457 653.832 473.457 654.446C473.457 655.153 473.272 655.793 472.901 656.364C472.535 656.935 471.998 657.388 471.29 657.725C470.587 658.062 469.733 658.23 468.727 658.23C467.79 658.23 466.978 658.079 466.292 657.776C465.61 657.474 465.073 657.052 464.681 656.511C464.293 655.969 464.074 655.341 464.023 654.625H465.659C465.702 655.119 465.868 655.528 466.158 655.852C466.452 656.172 466.822 656.411 467.27 656.568C467.722 656.722 468.207 656.798 468.727 656.798C469.332 656.798 469.876 656.7 470.357 656.504C470.839 656.304 471.22 656.027 471.501 655.673C471.783 655.315 471.923 654.898 471.923 654.42C471.923 653.986 471.802 653.632 471.559 653.359C471.316 653.087 470.996 652.865 470.6 652.695C470.204 652.524 469.776 652.375 469.315 652.247L467.705 651.787C466.682 651.493 465.872 651.073 465.276 650.528C464.679 649.982 464.381 649.268 464.381 648.386C464.381 647.653 464.579 647.014 464.975 646.469C465.376 645.919 465.913 645.493 466.586 645.19C467.263 644.884 468.02 644.73 468.855 644.73C469.699 644.73 470.449 644.881 471.105 645.184C471.761 645.482 472.281 645.891 472.665 646.411C473.053 646.931 473.257 647.521 473.278 648.182H471.744ZM479.848 658.205C478.927 658.205 478.135 657.987 477.47 657.553C476.805 657.118 476.294 656.519 475.936 655.756C475.578 654.994 475.399 654.122 475.399 653.142C475.399 652.145 475.582 651.265 475.949 650.502C476.319 649.735 476.835 649.136 477.496 648.706C478.16 648.271 478.936 648.054 479.822 648.054C480.513 648.054 481.135 648.182 481.689 648.438C482.243 648.693 482.697 649.051 483.05 649.511C483.404 649.972 483.623 650.509 483.709 651.122H482.2C482.085 650.675 481.829 650.278 481.433 649.933C481.041 649.584 480.513 649.409 479.848 649.409C479.26 649.409 478.744 649.562 478.301 649.869C477.862 650.172 477.519 650.6 477.272 651.154C477.029 651.704 476.907 652.349 476.907 653.091C476.907 653.849 477.027 654.51 477.265 655.072C477.508 655.635 477.849 656.072 478.288 656.383C478.731 656.694 479.251 656.849 479.848 656.849C480.24 656.849 480.596 656.781 480.915 656.645C481.235 656.509 481.506 656.312 481.727 656.057C481.949 655.801 482.106 655.494 482.2 655.136H483.709C483.623 655.716 483.412 656.238 483.076 656.702C482.743 657.163 482.302 657.529 481.753 657.802C481.207 658.07 480.572 658.205 479.848 658.205ZM485.914 658V648.182H487.371V649.665H487.474C487.653 649.179 487.976 648.785 488.445 648.482C488.914 648.18 489.442 648.028 490.03 648.028C490.141 648.028 490.28 648.031 490.446 648.035C490.612 648.039 490.738 648.045 490.823 648.054V649.588C490.772 649.575 490.655 649.556 490.471 649.531C490.292 649.501 490.103 649.486 489.903 649.486C489.425 649.486 488.999 649.586 488.624 649.786C488.253 649.982 487.959 650.255 487.742 650.604C487.529 650.95 487.422 651.344 487.422 651.787V658H485.914ZM492.611 658V648.182H494.12V658H492.611ZM493.378 646.545C493.084 646.545 492.831 646.445 492.618 646.245C492.409 646.045 492.304 645.804 492.304 645.523C492.304 645.241 492.409 645.001 492.618 644.8C492.831 644.6 493.084 644.5 493.378 644.5C493.672 644.5 493.924 644.6 494.132 644.8C494.346 645.001 494.452 645.241 494.452 645.523C494.452 645.804 494.346 646.045 494.132 646.245C493.924 646.445 493.672 646.545 493.378 646.545ZM496.883 661.682V648.182H498.34V649.741H498.519C498.63 649.571 498.783 649.354 498.979 649.089C499.18 648.821 499.465 648.582 499.836 648.374C500.211 648.161 500.718 648.054 501.357 648.054C502.184 648.054 502.912 648.261 503.543 648.674C504.174 649.087 504.666 649.673 505.02 650.432C505.373 651.19 505.55 652.085 505.55 653.116C505.55 654.156 505.373 655.058 505.02 655.82C504.666 656.579 504.176 657.167 503.55 657.585C502.923 657.998 502.201 658.205 501.383 658.205C500.752 658.205 500.247 658.1 499.868 657.891C499.488 657.678 499.197 657.437 498.992 657.169C498.787 656.896 498.63 656.67 498.519 656.491H498.391V661.682H496.883ZM498.366 653.091C498.366 653.832 498.474 654.487 498.692 655.053C498.909 655.616 499.226 656.057 499.644 656.376C500.062 656.692 500.573 656.849 501.178 656.849C501.809 656.849 502.335 656.683 502.757 656.351C503.183 656.014 503.503 655.562 503.716 654.996C503.933 654.425 504.042 653.79 504.042 653.091C504.042 652.401 503.935 651.778 503.722 651.224C503.513 650.666 503.196 650.225 502.77 649.901C502.348 649.573 501.817 649.409 501.178 649.409C500.564 649.409 500.049 649.565 499.631 649.876C499.214 650.183 498.898 650.613 498.685 651.167C498.472 651.717 498.366 652.358 498.366 653.091ZM512.121 648.182V649.46H507.033V648.182H512.121ZM508.516 645.83H510.025V655.188C510.025 655.614 510.086 655.933 510.21 656.146C510.338 656.355 510.5 656.496 510.696 656.568C510.896 656.636 511.107 656.67 511.329 656.67C511.495 656.67 511.631 656.662 511.738 656.645C511.844 656.624 511.93 656.607 511.993 656.594L512.3 657.949C512.198 657.987 512.055 658.026 511.872 658.064C511.689 658.107 511.456 658.128 511.175 658.128C510.749 658.128 510.331 658.036 509.922 657.853C509.518 657.67 509.181 657.391 508.912 657.016C508.648 656.641 508.516 656.168 508.516 655.597V645.83ZM523.16 658.205C522.342 658.205 521.62 657.998 520.993 657.585C520.367 657.167 519.877 656.579 519.523 655.82C519.17 655.058 518.993 654.156 518.993 653.116C518.993 652.085 519.17 651.19 519.523 650.432C519.877 649.673 520.369 649.087 521 648.674C521.631 648.261 522.359 648.054 523.186 648.054C523.825 648.054 524.33 648.161 524.701 648.374C525.076 648.582 525.361 648.821 525.557 649.089C525.758 649.354 525.913 649.571 526.024 649.741H526.152V644.909H527.66V658H526.203V656.491H526.024C525.913 656.67 525.756 656.896 525.551 657.169C525.346 657.437 525.055 657.678 524.675 657.891C524.296 658.1 523.791 658.205 523.16 658.205ZM523.365 656.849C523.97 656.849 524.481 656.692 524.899 656.376C525.317 656.057 525.634 655.616 525.851 655.053C526.069 654.487 526.177 653.832 526.177 653.091C526.177 652.358 526.071 651.717 525.858 651.167C525.645 650.613 525.329 650.183 524.912 649.876C524.494 649.565 523.979 649.409 523.365 649.409C522.726 649.409 522.193 649.573 521.767 649.901C521.345 650.225 521.028 650.666 520.814 651.224C520.606 651.778 520.501 652.401 520.501 653.091C520.501 653.79 520.608 654.425 520.821 654.996C521.038 655.562 521.358 656.014 521.78 656.351C522.206 656.683 522.734 656.849 523.365 656.849ZM534.621 658.205C533.735 658.205 532.957 657.994 532.288 657.572C531.623 657.15 531.104 656.56 530.729 655.801C530.358 655.043 530.172 654.156 530.172 653.142C530.172 652.119 530.358 651.227 530.729 650.464C531.104 649.701 531.623 649.109 532.288 648.687C532.957 648.265 533.735 648.054 534.621 648.054C535.508 648.054 536.283 648.265 536.948 648.687C537.617 649.109 538.137 649.701 538.508 650.464C538.883 651.227 539.07 652.119 539.07 653.142C539.07 654.156 538.883 655.043 538.508 655.801C538.137 656.56 537.617 657.15 536.948 657.572C536.283 657.994 535.508 658.205 534.621 658.205ZM534.621 656.849C535.295 656.849 535.849 656.677 536.283 656.332C536.718 655.987 537.04 655.533 537.248 654.97C537.457 654.408 537.562 653.798 537.562 653.142C537.562 652.486 537.457 651.874 537.248 651.308C537.04 650.741 536.718 650.283 536.283 649.933C535.849 649.584 535.295 649.409 534.621 649.409C533.948 649.409 533.394 649.584 532.959 649.933C532.525 650.283 532.203 650.741 531.994 651.308C531.785 651.874 531.681 652.486 531.681 653.142C531.681 653.798 531.785 654.408 531.994 654.97C532.203 655.533 532.525 655.987 532.959 656.332C533.394 656.677 533.948 656.849 534.621 656.849ZM543.263 658L540.272 648.182H541.857L543.979 655.699H544.081L546.178 648.182H547.789L549.86 655.673H549.962L552.084 648.182H553.67L550.678 658H549.195L547.047 650.457H546.894L544.746 658H543.263ZM557.172 652.094V658H555.664V648.182H557.121V649.716H557.249C557.479 649.217 557.829 648.817 558.297 648.514C558.766 648.207 559.371 648.054 560.113 648.054C560.778 648.054 561.359 648.19 561.858 648.463C562.356 648.732 562.744 649.141 563.021 649.69C563.298 650.236 563.437 650.926 563.437 651.761V658H561.928V651.864C561.928 651.092 561.728 650.491 561.327 650.061C560.927 649.626 560.377 649.409 559.678 649.409C559.197 649.409 558.766 649.513 558.387 649.722C558.012 649.931 557.716 650.236 557.498 650.636C557.281 651.037 557.172 651.523 557.172 652.094ZM566.193 644.909H567.702V655.443C567.702 655.92 567.755 656.255 567.862 656.447C567.968 656.638 568.188 656.73 568.52 656.722C568.699 656.713 568.831 656.7 568.916 656.683C569.006 656.662 569.087 656.641 569.159 656.619L569.466 657.923C569.334 657.962 569.168 657.996 568.967 658.026C568.767 658.06 568.558 658.077 568.341 658.077C567.625 658.077 567.088 657.881 566.73 657.489C566.372 657.097 566.193 656.551 566.193 655.852V644.909ZM574.84 658.205C573.954 658.205 573.176 657.994 572.507 657.572C571.842 657.15 571.322 656.56 570.947 655.801C570.577 655.043 570.391 654.156 570.391 653.142C570.391 652.119 570.577 651.227 570.947 650.464C571.322 649.701 571.842 649.109 572.507 648.687C573.176 648.265 573.954 648.054 574.84 648.054C575.726 648.054 576.502 648.265 577.167 648.687C577.836 649.109 578.356 649.701 578.726 650.464C579.101 651.227 579.289 652.119 579.289 653.142C579.289 654.156 579.101 655.043 578.726 655.801C578.356 656.56 577.836 657.15 577.167 657.572C576.502 657.994 575.726 658.205 574.84 658.205ZM574.84 656.849C575.513 656.849 576.067 656.677 576.502 656.332C576.937 655.987 577.258 655.533 577.467 654.97C577.676 654.408 577.78 653.798 577.78 653.142C577.78 652.486 577.676 651.874 577.467 651.308C577.258 650.741 576.937 650.283 576.502 649.933C576.067 649.584 575.513 649.409 574.84 649.409C574.167 649.409 573.613 649.584 573.178 649.933C572.743 650.283 572.422 650.741 572.213 651.308C572.004 651.874 571.9 652.486 571.9 653.142C571.9 653.798 572.004 654.408 572.213 654.97C572.422 655.533 572.743 655.987 573.178 656.332C573.613 656.677 574.167 656.849 574.84 656.849ZM585.299 658.205C584.481 658.205 583.759 657.998 583.132 657.585C582.506 657.167 582.016 656.579 581.662 655.82C581.308 655.058 581.131 654.156 581.131 653.116C581.131 652.085 581.308 651.19 581.662 650.432C582.016 649.673 582.508 649.087 583.138 648.674C583.769 648.261 584.498 648.054 585.325 648.054C585.964 648.054 586.469 648.161 586.839 648.374C587.214 648.582 587.5 648.821 587.696 649.089C587.896 649.354 588.052 649.571 588.163 649.741H588.29V648.182H589.799V658H588.342V656.491H588.163C588.052 656.67 587.894 656.896 587.69 657.169C587.485 657.437 587.193 657.678 586.814 657.891C586.435 658.1 585.93 658.205 585.299 658.205ZM585.504 656.849C586.109 656.849 586.62 656.692 587.038 656.376C587.455 656.057 587.773 655.616 587.99 655.053C588.207 654.487 588.316 653.832 588.316 653.091C588.316 652.358 588.21 651.717 587.996 651.167C587.783 650.613 587.468 650.183 587.05 649.876C586.633 649.565 586.117 649.409 585.504 649.409C584.864 649.409 584.332 649.573 583.906 649.901C583.484 650.225 583.166 650.666 582.953 651.224C582.744 651.778 582.64 652.401 582.64 653.091C582.64 653.79 582.746 654.425 582.96 654.996C583.177 655.562 583.496 656.014 583.918 656.351C584.344 656.683 584.873 656.849 585.504 656.849ZM596.479 658.205C595.661 658.205 594.938 657.998 594.312 657.585C593.685 657.167 593.195 656.579 592.842 655.82C592.488 655.058 592.311 654.156 592.311 653.116C592.311 652.085 592.488 651.19 592.842 650.432C593.195 649.673 593.688 649.087 594.318 648.674C594.949 648.261 595.678 648.054 596.504 648.054C597.143 648.054 597.648 648.161 598.019 648.374C598.394 648.582 598.68 648.821 598.876 649.089C599.076 649.354 599.232 649.571 599.342 649.741H599.47V644.909H600.979V658H599.521V656.491H599.342C599.232 656.67 599.074 656.896 598.869 657.169C598.665 657.437 598.373 657.678 597.994 657.891C597.614 658.1 597.109 658.205 596.479 658.205ZM596.683 656.849C597.288 656.849 597.8 656.692 598.217 656.376C598.635 656.057 598.952 655.616 599.17 655.053C599.387 654.487 599.496 653.832 599.496 653.091C599.496 652.358 599.389 651.717 599.176 651.167C598.963 650.613 598.648 650.183 598.23 649.876C597.813 649.565 597.297 649.409 596.683 649.409C596.044 649.409 595.511 649.573 595.085 649.901C594.663 650.225 594.346 650.666 594.133 651.224C593.924 651.778 593.82 652.401 593.82 653.091C593.82 653.79 593.926 654.425 594.139 654.996C594.357 655.562 594.676 656.014 595.098 656.351C595.524 656.683 596.053 656.849 596.683 656.849Z" fill="#E3E3E8"/>
<path d="M471.744 679.182C471.668 678.534 471.357 678.031 470.811 677.673C470.266 677.315 469.597 677.136 468.804 677.136C468.224 677.136 467.717 677.23 467.283 677.418C466.852 677.605 466.516 677.863 466.273 678.191C466.034 678.519 465.915 678.892 465.915 679.31C465.915 679.659 465.998 679.96 466.164 680.211C466.335 680.458 466.552 680.665 466.816 680.831C467.08 680.993 467.357 681.127 467.647 681.234C467.937 681.336 468.203 681.419 468.446 681.483L469.776 681.841C470.116 681.93 470.496 682.054 470.913 682.212C471.335 682.369 471.738 682.585 472.121 682.857C472.509 683.126 472.829 683.471 473.08 683.893C473.332 684.315 473.457 684.832 473.457 685.446C473.457 686.153 473.272 686.793 472.901 687.364C472.535 687.935 471.998 688.388 471.29 688.725C470.587 689.062 469.733 689.23 468.727 689.23C467.79 689.23 466.978 689.079 466.292 688.776C465.61 688.474 465.073 688.052 464.681 687.511C464.293 686.969 464.074 686.341 464.023 685.625H465.659C465.702 686.119 465.868 686.528 466.158 686.852C466.452 687.172 466.822 687.411 467.27 687.568C467.722 687.722 468.207 687.798 468.727 687.798C469.332 687.798 469.876 687.7 470.357 687.504C470.839 687.304 471.22 687.027 471.501 686.673C471.783 686.315 471.923 685.898 471.923 685.42C471.923 684.986 471.802 684.632 471.559 684.359C471.316 684.087 470.996 683.865 470.6 683.695C470.204 683.524 469.776 683.375 469.315 683.247L467.705 682.787C466.682 682.493 465.872 682.073 465.276 681.528C464.679 680.982 464.381 680.268 464.381 679.386C464.381 678.653 464.579 678.014 464.975 677.469C465.376 676.919 465.913 676.493 466.586 676.19C467.263 675.884 468.02 675.73 468.855 675.73C469.699 675.73 470.449 675.881 471.105 676.184C471.761 676.482 472.281 676.891 472.665 677.411C473.053 677.931 473.257 678.521 473.278 679.182H471.744ZM479.848 689.205C478.927 689.205 478.135 688.987 477.47 688.553C476.805 688.118 476.294 687.519 475.936 686.756C475.578 685.994 475.399 685.122 475.399 684.142C475.399 683.145 475.582 682.265 475.949 681.502C476.319 680.735 476.835 680.136 477.496 679.706C478.16 679.271 478.936 679.054 479.822 679.054C480.513 679.054 481.135 679.182 481.689 679.438C482.243 679.693 482.697 680.051 483.05 680.511C483.404 680.972 483.623 681.509 483.709 682.122H482.2C482.085 681.675 481.829 681.278 481.433 680.933C481.041 680.584 480.513 680.409 479.848 680.409C479.26 680.409 478.744 680.562 478.301 680.869C477.862 681.172 477.519 681.6 477.272 682.154C477.029 682.704 476.907 683.349 476.907 684.091C476.907 684.849 477.027 685.51 477.265 686.072C477.508 686.635 477.849 687.072 478.288 687.383C478.731 687.694 479.251 687.849 479.848 687.849C480.24 687.849 480.596 687.781 480.915 687.645C481.235 687.509 481.506 687.312 481.727 687.057C481.949 686.801 482.106 686.494 482.2 686.136H483.709C483.623 686.716 483.412 687.238 483.076 687.702C482.743 688.163 482.302 688.529 481.753 688.802C481.207 689.07 480.572 689.205 479.848 689.205ZM485.914 689V679.182H487.371V680.665H487.474C487.653 680.179 487.976 679.785 488.445 679.482C488.914 679.18 489.442 679.028 490.03 679.028C490.141 679.028 490.28 679.031 490.446 679.035C490.612 679.039 490.738 679.045 490.823 679.054V680.588C490.772 680.575 490.655 680.556 490.471 680.531C490.292 680.501 490.103 680.486 489.903 680.486C489.425 680.486 488.999 680.586 488.624 680.786C488.253 680.982 487.959 681.255 487.742 681.604C487.529 681.95 487.422 682.344 487.422 682.787V689H485.914ZM492.611 689V679.182H494.12V689H492.611ZM493.378 677.545C493.084 677.545 492.831 677.445 492.618 677.245C492.409 677.045 492.304 676.804 492.304 676.523C492.304 676.241 492.409 676.001 492.618 675.8C492.831 675.6 493.084 675.5 493.378 675.5C493.672 675.5 493.924 675.6 494.132 675.8C494.346 676.001 494.452 676.241 494.452 676.523C494.452 676.804 494.346 677.045 494.132 677.245C493.924 677.445 493.672 677.545 493.378 677.545ZM496.883 692.682V679.182H498.34V680.741H498.519C498.63 680.571 498.783 680.354 498.979 680.089C499.18 679.821 499.465 679.582 499.836 679.374C500.211 679.161 500.718 679.054 501.357 679.054C502.184 679.054 502.912 679.261 503.543 679.674C504.174 680.087 504.666 680.673 505.02 681.432C505.373 682.19 505.55 683.085 505.55 684.116C505.55 685.156 505.373 686.058 505.02 686.82C504.666 687.579 504.176 688.167 503.55 688.585C502.923 688.998 502.201 689.205 501.383 689.205C500.752 689.205 500.247 689.1 499.868 688.891C499.488 688.678 499.197 688.437 498.992 688.169C498.787 687.896 498.63 687.67 498.519 687.491H498.391V692.682H496.883ZM498.366 684.091C498.366 684.832 498.474 685.487 498.692 686.053C498.909 686.616 499.226 687.057 499.644 687.376C500.062 687.692 500.573 687.849 501.178 687.849C501.809 687.849 502.335 687.683 502.757 687.351C503.183 687.014 503.503 686.562 503.716 685.996C503.933 685.425 504.042 684.79 504.042 684.091C504.042 683.401 503.935 682.778 503.722 682.224C503.513 681.666 503.196 681.225 502.77 680.901C502.348 680.573 501.817 680.409 501.178 680.409C500.564 680.409 500.049 680.565 499.631 680.876C499.214 681.183 498.898 681.613 498.685 682.167C498.472 682.717 498.366 683.358 498.366 684.091ZM512.121 679.182V680.46H507.033V679.182H512.121ZM508.516 676.83H510.025V686.188C510.025 686.614 510.086 686.933 510.21 687.146C510.338 687.355 510.5 687.496 510.696 687.568C510.896 687.636 511.107 687.67 511.329 687.67C511.495 687.67 511.631 687.662 511.738 687.645C511.844 687.624 511.93 687.607 511.993 687.594L512.3 688.949C512.198 688.987 512.055 689.026 511.872 689.064C511.689 689.107 511.456 689.128 511.175 689.128C510.749 689.128 510.331 689.036 509.922 688.853C509.518 688.67 509.181 688.391 508.912 688.016C508.648 687.641 508.516 687.168 508.516 686.597V676.83ZM523.569 689.205C522.623 689.205 521.807 688.996 521.121 688.578C520.439 688.156 519.913 687.568 519.542 686.814C519.176 686.055 518.993 685.173 518.993 684.168C518.993 683.162 519.176 682.276 519.542 681.509C519.913 680.737 520.429 680.136 521.089 679.706C521.754 679.271 522.53 679.054 523.416 679.054C523.927 679.054 524.432 679.139 524.931 679.31C525.43 679.48 525.883 679.757 526.292 680.141C526.702 680.52 527.028 681.023 527.27 681.649C527.513 682.276 527.635 683.047 527.635 683.963V684.602H520.067V683.298H526.101C526.101 682.744 525.99 682.25 525.768 681.815C525.551 681.381 525.24 681.038 524.835 680.786C524.434 680.535 523.961 680.409 523.416 680.409C522.815 680.409 522.295 680.558 521.856 680.857C521.422 681.151 521.087 681.534 520.853 682.007C520.618 682.48 520.501 682.987 520.501 683.528V684.398C520.501 685.139 520.629 685.768 520.885 686.283C521.145 686.795 521.505 687.185 521.965 687.453C522.425 687.717 522.96 687.849 523.569 687.849C523.966 687.849 524.324 687.794 524.643 687.683C524.967 687.568 525.246 687.398 525.481 687.172C525.715 686.942 525.896 686.656 526.024 686.315L527.481 686.724C527.328 687.219 527.07 687.653 526.708 688.028C526.346 688.399 525.898 688.689 525.366 688.898C524.833 689.102 524.234 689.205 523.569 689.205ZM530.791 679.182L533.143 683.196L535.495 679.182H537.234L534.064 684.091L537.234 689H535.495L533.143 685.19L530.791 689H529.052L532.172 684.091L529.052 679.182H530.791ZM543.099 689.205C542.153 689.205 541.337 688.996 540.651 688.578C539.969 688.156 539.442 687.568 539.072 686.814C538.705 686.055 538.522 685.173 538.522 684.168C538.522 683.162 538.705 682.276 539.072 681.509C539.442 680.737 539.958 680.136 540.619 679.706C541.283 679.271 542.059 679.054 542.945 679.054C543.457 679.054 543.962 679.139 544.46 679.31C544.959 679.48 545.413 679.757 545.822 680.141C546.231 680.52 546.557 681.023 546.8 681.649C547.043 682.276 547.164 683.047 547.164 683.963V684.602H539.596V683.298H545.63C545.63 682.744 545.519 682.25 545.298 681.815C545.08 681.381 544.769 681.038 544.364 680.786C543.964 680.535 543.491 680.409 542.945 680.409C542.344 680.409 541.825 680.558 541.386 680.857C540.951 681.151 540.616 681.534 540.382 682.007C540.148 682.48 540.031 682.987 540.031 683.528V684.398C540.031 685.139 540.158 685.768 540.414 686.283C540.674 686.795 541.034 687.185 541.494 687.453C541.955 687.717 542.489 687.849 543.099 687.849C543.495 687.849 543.853 687.794 544.173 687.683C544.496 687.568 544.776 687.398 545.01 687.172C545.244 686.942 545.425 686.656 545.553 686.315L547.011 686.724C546.857 687.219 546.599 687.653 546.237 688.028C545.875 688.399 545.428 688.689 544.895 688.898C544.362 689.102 543.763 689.205 543.099 689.205ZM553.447 689.205C552.527 689.205 551.734 688.987 551.07 688.553C550.405 688.118 549.893 687.519 549.536 686.756C549.178 685.994 548.999 685.122 548.999 684.142C548.999 683.145 549.182 682.265 549.548 681.502C549.919 680.735 550.435 680.136 551.095 679.706C551.76 679.271 552.536 679.054 553.422 679.054C554.112 679.054 554.734 679.182 555.288 679.438C555.842 679.693 556.296 680.051 556.65 680.511C557.004 680.972 557.223 681.509 557.308 682.122H555.8C555.685 681.675 555.429 681.278 555.033 680.933C554.641 680.584 554.112 680.409 553.447 680.409C552.859 680.409 552.344 680.562 551.901 680.869C551.462 681.172 551.119 681.6 550.871 682.154C550.629 682.704 550.507 683.349 550.507 684.091C550.507 684.849 550.626 685.51 550.865 686.072C551.108 686.635 551.449 687.072 551.888 687.383C552.331 687.694 552.851 687.849 553.447 687.849C553.839 687.849 554.195 687.781 554.515 687.645C554.835 687.509 555.105 687.312 555.327 687.057C555.548 686.801 555.706 686.494 555.8 686.136H557.308C557.223 686.716 557.012 687.238 556.675 687.702C556.343 688.163 555.902 688.529 555.352 688.802C554.807 689.07 554.172 689.205 553.447 689.205ZM565.701 684.986V679.182H567.21V689H565.701V687.338H565.599C565.369 687.837 565.011 688.261 564.525 688.61C564.039 688.955 563.425 689.128 562.684 689.128C562.07 689.128 561.525 688.994 561.048 688.725C560.57 688.452 560.195 688.043 559.923 687.498C559.65 686.948 559.513 686.256 559.513 685.42V679.182H561.022V685.318C561.022 686.034 561.222 686.605 561.623 687.031C562.028 687.457 562.543 687.67 563.17 687.67C563.545 687.67 563.926 687.575 564.314 687.383C564.706 687.191 565.034 686.897 565.298 686.501C565.567 686.104 565.701 685.599 565.701 684.986ZM574.242 679.182V680.46H569.154V679.182H574.242ZM570.637 676.83H572.146V686.188C572.146 686.614 572.208 686.933 572.331 687.146C572.459 687.355 572.621 687.496 572.817 687.568C573.017 687.636 573.228 687.67 573.45 687.67C573.616 687.67 573.752 687.662 573.859 687.645C573.965 687.624 574.051 687.607 574.115 687.594L574.421 688.949C574.319 688.987 574.176 689.026 573.993 689.064C573.81 689.107 573.578 689.128 573.296 689.128C572.87 689.128 572.453 689.036 572.044 688.853C571.639 688.67 571.302 688.391 571.034 688.016C570.769 687.641 570.637 687.168 570.637 686.597V676.83ZM576.512 689V679.182H578.02V689H576.512ZM577.279 677.545C576.985 677.545 576.731 677.445 576.518 677.245C576.309 677.045 576.205 676.804 576.205 676.523C576.205 676.241 576.309 676.001 576.518 675.8C576.731 675.6 576.985 675.5 577.279 675.5C577.573 675.5 577.824 675.6 578.033 675.8C578.246 676.001 578.352 676.241 578.352 676.523C578.352 676.804 578.246 677.045 578.033 677.245C577.824 677.445 577.573 677.545 577.279 677.545ZM584.772 689.205C583.885 689.205 583.108 688.994 582.439 688.572C581.774 688.15 581.254 687.56 580.879 686.801C580.508 686.043 580.323 685.156 580.323 684.142C580.323 683.119 580.508 682.227 580.879 681.464C581.254 680.701 581.774 680.109 582.439 679.687C583.108 679.265 583.885 679.054 584.772 679.054C585.658 679.054 586.434 679.265 587.098 679.687C587.767 680.109 588.287 680.701 588.658 681.464C589.033 682.227 589.221 683.119 589.221 684.142C589.221 685.156 589.033 686.043 588.658 686.801C588.287 687.56 587.767 688.15 587.098 688.572C586.434 688.994 585.658 689.205 584.772 689.205ZM584.772 687.849C585.445 687.849 585.999 687.677 586.434 687.332C586.868 686.987 587.19 686.533 587.399 685.97C587.608 685.408 587.712 684.798 587.712 684.142C587.712 683.486 587.608 682.874 587.399 682.308C587.19 681.741 586.868 681.283 586.434 680.933C585.999 680.584 585.445 680.409 584.772 680.409C584.098 680.409 583.544 680.584 583.11 680.933C582.675 681.283 582.353 681.741 582.145 682.308C581.936 682.874 581.831 683.486 581.831 684.142C581.831 684.798 581.936 685.408 582.145 685.97C582.353 686.533 582.675 686.987 583.11 687.332C583.544 687.677 584.098 687.849 584.772 687.849ZM593.032 683.094V689H591.523V679.182H592.981V680.716H593.108C593.339 680.217 593.688 679.817 594.157 679.514C594.626 679.207 595.231 679.054 595.972 679.054C596.637 679.054 597.219 679.19 597.717 679.463C598.216 679.732 598.604 680.141 598.881 680.69C599.157 681.236 599.296 681.926 599.296 682.761V689H597.787V682.864C597.787 682.092 597.587 681.491 597.187 681.061C596.786 680.626 596.236 680.409 595.537 680.409C595.056 680.409 594.626 680.513 594.246 680.722C593.871 680.931 593.575 681.236 593.358 681.636C593.14 682.037 593.032 682.523 593.032 683.094Z" fill="#E3E3E8"/>
<path d="M229.409 688V676.364H230.818V681.545H237.023V676.364H238.432V688H237.023V682.795H230.818V688H229.409ZM240.616 677.614V676.364H249.344V677.614H245.685V688H244.276V677.614H240.616ZM251.518 676.364H253.2L257.155 686.023H257.291L261.246 676.364H262.928V688H261.609V679.159H261.496L257.859 688H256.587L252.95 679.159H252.837V688H251.518V676.364ZM265.753 688V676.364H267.162V686.75H272.571V688H265.753ZM279.071 691.273V679.273H280.366V680.659H280.526C280.624 680.508 280.76 680.314 280.935 680.08C281.113 679.841 281.366 679.629 281.696 679.443C282.029 679.254 282.48 679.159 283.048 679.159C283.783 679.159 284.431 679.343 284.991 679.71C285.552 680.078 285.99 680.598 286.304 681.273C286.618 681.947 286.776 682.742 286.776 683.659C286.776 684.583 286.618 685.384 286.304 686.062C285.99 686.737 285.554 687.259 284.997 687.631C284.44 687.998 283.798 688.182 283.071 688.182C282.51 688.182 282.062 688.089 281.724 687.903C281.387 687.714 281.128 687.5 280.946 687.261C280.764 687.019 280.624 686.818 280.526 686.659H280.412V691.273H279.071ZM280.389 683.636C280.389 684.295 280.486 684.877 280.679 685.381C280.872 685.881 281.154 686.273 281.526 686.557C281.897 686.837 282.351 686.977 282.889 686.977C283.45 686.977 283.918 686.83 284.293 686.534C284.671 686.235 284.955 685.833 285.145 685.33C285.338 684.822 285.435 684.258 285.435 683.636C285.435 683.023 285.34 682.47 285.151 681.977C284.965 681.481 284.683 681.089 284.304 680.801C283.929 680.509 283.457 680.364 282.889 680.364C282.344 680.364 281.885 680.502 281.514 680.778C281.143 681.051 280.863 681.434 280.673 681.926C280.484 682.415 280.389 682.985 280.389 683.636ZM292.116 688.182C291.389 688.182 290.747 687.998 290.19 687.631C289.634 687.259 289.198 686.737 288.884 686.062C288.569 685.384 288.412 684.583 288.412 683.659C288.412 682.742 288.569 681.947 288.884 681.273C289.198 680.598 289.635 680.078 290.196 679.71C290.757 679.343 291.404 679.159 292.139 679.159C292.707 679.159 293.156 679.254 293.486 679.443C293.819 679.629 294.073 679.841 294.247 680.08C294.425 680.314 294.563 680.508 294.662 680.659H294.776V679.273H296.116V688H294.821V686.659H294.662C294.563 686.818 294.423 687.019 294.241 687.261C294.06 687.5 293.8 687.714 293.463 687.903C293.126 688.089 292.677 688.182 292.116 688.182ZM292.298 686.977C292.836 686.977 293.291 686.837 293.662 686.557C294.033 686.273 294.315 685.881 294.509 685.381C294.702 684.877 294.798 684.295 294.798 683.636C294.798 682.985 294.704 682.415 294.514 681.926C294.325 681.434 294.045 681.051 293.673 680.778C293.302 680.502 292.844 680.364 292.298 680.364C291.73 680.364 291.257 680.509 290.878 680.801C290.503 681.089 290.221 681.481 290.031 681.977C289.846 682.47 289.753 683.023 289.753 683.636C289.753 684.258 289.848 684.822 290.037 685.33C290.23 685.833 290.514 686.235 290.889 686.534C291.268 686.83 291.738 686.977 292.298 686.977ZM298.759 688V679.273H300.054V680.591H300.145C300.304 680.159 300.592 679.809 301.009 679.54C301.425 679.271 301.895 679.136 302.418 679.136C302.516 679.136 302.639 679.138 302.787 679.142C302.935 679.146 303.046 679.152 303.122 679.159V680.523C303.077 680.511 302.973 680.494 302.81 680.472C302.651 680.445 302.482 680.432 302.304 680.432C301.88 680.432 301.501 680.521 301.168 680.699C300.838 680.873 300.577 681.116 300.384 681.426C300.194 681.733 300.099 682.083 300.099 682.477V688H298.759ZM310.893 681.227L309.689 681.568C309.613 681.367 309.501 681.172 309.354 680.983C309.21 680.79 309.013 680.631 308.763 680.506C308.513 680.381 308.193 680.318 307.803 680.318C307.268 680.318 306.823 680.441 306.467 680.688C306.115 680.93 305.939 681.239 305.939 681.614C305.939 681.947 306.06 682.21 306.303 682.403C306.545 682.597 306.924 682.758 307.439 682.886L308.734 683.205C309.515 683.394 310.096 683.684 310.479 684.074C310.861 684.46 311.053 684.958 311.053 685.568C311.053 686.068 310.909 686.515 310.621 686.909C310.337 687.303 309.939 687.614 309.428 687.841C308.916 688.068 308.321 688.182 307.643 688.182C306.753 688.182 306.017 687.989 305.433 687.602C304.85 687.216 304.481 686.652 304.325 685.909L305.598 685.591C305.719 686.061 305.948 686.413 306.286 686.648C306.626 686.883 307.071 687 307.621 687C308.246 687 308.742 686.867 309.109 686.602C309.481 686.333 309.666 686.011 309.666 685.636C309.666 685.333 309.56 685.08 309.348 684.875C309.136 684.667 308.81 684.511 308.371 684.409L306.916 684.068C306.117 683.879 305.53 683.585 305.155 683.188C304.784 682.786 304.598 682.284 304.598 681.682C304.598 681.189 304.736 680.754 305.013 680.375C305.293 679.996 305.674 679.699 306.155 679.483C306.64 679.267 307.189 679.159 307.803 679.159C308.666 679.159 309.344 679.348 309.837 679.727C310.333 680.106 310.685 680.606 310.893 681.227ZM313.071 688V679.273H314.412V688H313.071ZM313.753 677.818C313.491 677.818 313.266 677.729 313.077 677.551C312.891 677.373 312.798 677.159 312.798 676.909C312.798 676.659 312.891 676.445 313.077 676.267C313.266 676.089 313.491 676 313.753 676C314.014 676 314.238 676.089 314.423 676.267C314.613 676.445 314.707 676.659 314.707 676.909C314.707 677.159 314.613 677.373 314.423 677.551C314.238 677.729 314.014 677.818 313.753 677.818ZM318.209 682.75V688H316.868V679.273H318.163V680.636H318.277C318.482 680.193 318.792 679.837 319.209 679.568C319.625 679.295 320.163 679.159 320.822 679.159C321.413 679.159 321.93 679.28 322.374 679.523C322.817 679.761 323.161 680.125 323.408 680.614C323.654 681.098 323.777 681.712 323.777 682.455V688H322.436V682.545C322.436 681.86 322.258 681.326 321.902 680.943C321.546 680.557 321.057 680.364 320.436 680.364C320.008 680.364 319.625 680.456 319.288 680.642C318.955 680.828 318.692 681.098 318.499 681.455C318.305 681.811 318.209 682.242 318.209 682.75ZM329.75 691.455C329.102 691.455 328.545 691.371 328.08 691.205C327.614 691.042 327.225 690.826 326.915 690.557C326.608 690.292 326.364 690.008 326.182 689.705L327.25 688.955C327.371 689.114 327.525 689.295 327.71 689.5C327.896 689.708 328.15 689.888 328.472 690.04C328.797 690.195 329.223 690.273 329.75 690.273C330.455 690.273 331.036 690.102 331.494 689.761C331.953 689.42 332.182 688.886 332.182 688.159V686.386H332.068C331.97 686.545 331.83 686.742 331.648 686.977C331.47 687.208 331.212 687.415 330.875 687.597C330.542 687.775 330.091 687.864 329.523 687.864C328.818 687.864 328.186 687.697 327.625 687.364C327.068 687.03 326.627 686.545 326.301 685.909C325.979 685.273 325.818 684.5 325.818 683.591C325.818 682.697 325.975 681.919 326.29 681.256C326.604 680.589 327.042 680.074 327.602 679.71C328.163 679.343 328.811 679.159 329.545 679.159C330.114 679.159 330.564 679.254 330.898 679.443C331.235 679.629 331.492 679.841 331.67 680.08C331.852 680.314 331.992 680.508 332.091 680.659H332.227V679.273H333.523V688.25C333.523 689 333.352 689.61 333.011 690.08C332.674 690.553 332.22 690.9 331.648 691.119C331.08 691.343 330.447 691.455 329.75 691.455ZM329.705 686.659C330.242 686.659 330.697 686.536 331.068 686.29C331.439 686.044 331.722 685.689 331.915 685.227C332.108 684.765 332.205 684.212 332.205 683.568C332.205 682.939 332.11 682.384 331.92 681.903C331.731 681.422 331.451 681.045 331.08 680.773C330.708 680.5 330.25 680.364 329.705 680.364C329.136 680.364 328.663 680.508 328.284 680.795C327.909 681.083 327.627 681.47 327.438 681.955C327.252 682.439 327.159 682.977 327.159 683.568C327.159 684.174 327.254 684.71 327.443 685.176C327.636 685.638 327.92 686.002 328.295 686.267C328.674 686.528 329.144 686.659 329.705 686.659ZM340.477 691.273V679.273H341.773V680.659H341.932C342.03 680.508 342.167 680.314 342.341 680.08C342.519 679.841 342.773 679.629 343.102 679.443C343.436 679.254 343.886 679.159 344.455 679.159C345.189 679.159 345.837 679.343 346.398 679.71C346.958 680.078 347.396 680.598 347.71 681.273C348.025 681.947 348.182 682.742 348.182 683.659C348.182 684.583 348.025 685.384 347.71 686.062C347.396 686.737 346.96 687.259 346.403 687.631C345.847 687.998 345.205 688.182 344.477 688.182C343.917 688.182 343.468 688.089 343.131 687.903C342.794 687.714 342.534 687.5 342.352 687.261C342.17 687.019 342.03 686.818 341.932 686.659H341.818V691.273H340.477ZM341.795 683.636C341.795 684.295 341.892 684.877 342.085 685.381C342.278 685.881 342.561 686.273 342.932 686.557C343.303 686.837 343.758 686.977 344.295 686.977C344.856 686.977 345.324 686.83 345.699 686.534C346.078 686.235 346.362 685.833 346.551 685.33C346.744 684.822 346.841 684.258 346.841 683.636C346.841 683.023 346.746 682.47 346.557 681.977C346.371 681.481 346.089 681.089 345.71 680.801C345.335 680.509 344.864 680.364 344.295 680.364C343.75 680.364 343.292 680.502 342.92 680.778C342.549 681.051 342.269 681.434 342.08 681.926C341.89 682.415 341.795 682.985 341.795 683.636ZM353.523 688.182C352.795 688.182 352.153 687.998 351.597 687.631C351.04 687.259 350.604 686.737 350.29 686.062C349.975 685.384 349.818 684.583 349.818 683.659C349.818 682.742 349.975 681.947 350.29 681.273C350.604 680.598 351.042 680.078 351.602 679.71C352.163 679.343 352.811 679.159 353.545 679.159C354.114 679.159 354.563 679.254 354.892 679.443C355.225 679.629 355.479 679.841 355.653 680.08C355.831 680.314 355.97 680.508 356.068 680.659H356.182V679.273H357.523V688H356.227V686.659H356.068C355.97 686.818 355.83 687.019 355.648 687.261C355.466 687.5 355.206 687.714 354.869 687.903C354.532 688.089 354.083 688.182 353.523 688.182ZM353.705 686.977C354.242 686.977 354.697 686.837 355.068 686.557C355.439 686.273 355.722 685.881 355.915 685.381C356.108 684.877 356.205 684.295 356.205 683.636C356.205 682.985 356.11 682.415 355.92 681.926C355.731 681.434 355.451 681.051 355.08 680.778C354.708 680.502 354.25 680.364 353.705 680.364C353.136 680.364 352.663 680.509 352.284 680.801C351.909 681.089 351.627 681.481 351.438 681.977C351.252 682.47 351.159 683.023 351.159 683.636C351.159 684.258 351.254 684.822 351.443 685.33C351.636 685.833 351.92 686.235 352.295 686.534C352.674 686.83 353.144 686.977 353.705 686.977ZM365.665 684.432V679.273H367.006V688H365.665V686.523H365.574C365.369 686.966 365.051 687.343 364.619 687.653C364.188 687.96 363.642 688.114 362.983 688.114C362.438 688.114 361.953 687.994 361.528 687.756C361.104 687.513 360.771 687.15 360.528 686.665C360.286 686.176 360.165 685.561 360.165 684.818V679.273H361.506V684.727C361.506 685.364 361.684 685.871 362.04 686.25C362.4 686.629 362.858 686.818 363.415 686.818C363.748 686.818 364.087 686.733 364.432 686.562C364.78 686.392 365.072 686.131 365.307 685.778C365.545 685.426 365.665 684.977 365.665 684.432ZM375.643 681.227L374.439 681.568C374.363 681.367 374.251 681.172 374.104 680.983C373.96 680.79 373.763 680.631 373.513 680.506C373.263 680.381 372.943 680.318 372.553 680.318C372.018 680.318 371.573 680.441 371.217 680.688C370.865 680.93 370.689 681.239 370.689 681.614C370.689 681.947 370.81 682.21 371.053 682.403C371.295 682.597 371.674 682.758 372.189 682.886L373.484 683.205C374.265 683.394 374.846 683.684 375.229 684.074C375.611 684.46 375.803 684.958 375.803 685.568C375.803 686.068 375.659 686.515 375.371 686.909C375.087 687.303 374.689 687.614 374.178 687.841C373.666 688.068 373.071 688.182 372.393 688.182C371.503 688.182 370.767 687.989 370.183 687.602C369.6 687.216 369.231 686.652 369.075 685.909L370.348 685.591C370.469 686.061 370.698 686.413 371.036 686.648C371.376 686.883 371.821 687 372.371 687C372.996 687 373.492 686.867 373.859 686.602C374.231 686.333 374.416 686.011 374.416 685.636C374.416 685.333 374.31 685.08 374.098 684.875C373.886 684.667 373.56 684.511 373.121 684.409L371.666 684.068C370.867 683.879 370.28 683.585 369.905 683.188C369.534 682.786 369.348 682.284 369.348 681.682C369.348 681.189 369.486 680.754 369.763 680.375C370.043 679.996 370.424 679.699 370.905 679.483C371.39 679.267 371.939 679.159 372.553 679.159C373.416 679.159 374.094 679.348 374.587 679.727C375.083 680.106 375.435 680.606 375.643 681.227ZM381.48 688.182C380.639 688.182 379.914 687.996 379.304 687.625C378.698 687.25 378.23 686.727 377.901 686.057C377.575 685.383 377.412 684.598 377.412 683.705C377.412 682.811 377.575 682.023 377.901 681.341C378.23 680.655 378.688 680.121 379.276 679.739C379.866 679.352 380.556 679.159 381.344 679.159C381.798 679.159 382.247 679.235 382.69 679.386C383.134 679.538 383.537 679.784 383.901 680.125C384.264 680.462 384.554 680.909 384.77 681.466C384.986 682.023 385.094 682.708 385.094 683.523V684.091H378.366V682.932H383.73C383.73 682.439 383.632 682 383.435 681.614C383.241 681.227 382.965 680.922 382.605 680.699C382.249 680.475 381.829 680.364 381.344 680.364C380.81 680.364 380.348 680.496 379.957 680.761C379.571 681.023 379.274 681.364 379.065 681.784C378.857 682.205 378.753 682.655 378.753 683.136V683.909C378.753 684.568 378.866 685.127 379.094 685.585C379.325 686.04 379.645 686.386 380.054 686.625C380.463 686.86 380.938 686.977 381.48 686.977C381.832 686.977 382.151 686.928 382.435 686.83C382.723 686.727 382.971 686.576 383.179 686.375C383.387 686.17 383.548 685.917 383.662 685.614L384.957 685.977C384.821 686.417 384.592 686.803 384.27 687.136C383.948 687.466 383.55 687.723 383.077 687.909C382.603 688.091 382.071 688.182 381.48 688.182ZM390.429 688.182C389.702 688.182 389.06 687.998 388.503 687.631C387.946 687.259 387.51 686.737 387.196 686.062C386.882 685.384 386.724 684.583 386.724 683.659C386.724 682.742 386.882 681.947 387.196 681.273C387.51 680.598 387.948 680.078 388.509 679.71C389.069 679.343 389.717 679.159 390.452 679.159C391.02 679.159 391.469 679.254 391.798 679.443C392.132 679.629 392.385 679.841 392.56 680.08C392.738 680.314 392.876 680.508 392.974 680.659H393.088V676.364H394.429V688H393.134V686.659H392.974C392.876 686.818 392.736 687.019 392.554 687.261C392.372 687.5 392.113 687.714 391.776 687.903C391.438 688.089 390.99 688.182 390.429 688.182ZM390.611 686.977C391.149 686.977 391.603 686.837 391.974 686.557C392.346 686.273 392.628 685.881 392.821 685.381C393.014 684.877 393.111 684.295 393.111 683.636C393.111 682.985 393.016 682.415 392.827 681.926C392.637 681.434 392.357 681.051 391.986 680.778C391.615 680.502 391.156 680.364 390.611 680.364C390.043 680.364 389.569 680.509 389.19 680.801C388.815 681.089 388.533 681.481 388.344 681.977C388.158 682.47 388.065 683.023 388.065 683.636C388.065 684.258 388.16 684.822 388.349 685.33C388.543 685.833 388.827 686.235 389.202 686.534C389.58 686.83 390.05 686.977 390.611 686.977Z" fill="#E3E3E8"/>
</svg>
