<svg width="800" height="680" viewBox="0 0 800 680" fill="none" xmlns="http://www.w3.org/2000/svg">
<g clip-path="url(#clip0_811_162)">
<rect width="700" height="422" transform="translate(82 182)" fill="black"/>
<path d="M82 604.5L786.5 598V181L82 181V604.5Z" fill="#733F3F"/>
<path d="M786.5 181V492V617.5L82 604.5L786.5 181Z" fill="#745A37"/>
<path d="M786.5 492V646.5L82 604.5L786.5 492Z" fill="#777B3C"/>
<path d="M786.5 567.5V655L82 604.5L786.5 567.5Z" fill="#516935"/>
<path d="M786.5 594V602L82 604.5L786.5 594Z" fill="#345229"/>
<path d="M111 177.5C111 177.5 113 552.5 93.5 594L83 601.5" stroke="#E3E3E8" stroke-width="2.5" stroke-linecap="round" stroke-linejoin="round"/>
<path d="M149.216 177C149.216 177 146 529 99.5 586.5L83 602" stroke="#E3E3E8" stroke-width="2.5" stroke-linecap="round" stroke-linejoin="round"/>
<path d="M270.961 178C270.961 178 221.5 491 113 580.5L83 602" stroke="#E3E3E8" stroke-width="2.5" stroke-linecap="round" stroke-linejoin="round"/>
<line x1="83.25" y1="178.25" x2="83.25" y2="601.75" stroke="#E3E3E8" stroke-width="2.5" stroke-linecap="round" stroke-linejoin="round"/>
<line x1="84.1661" y1="600.671" x2="787.853" y2="554.834" stroke="#E3E3E8" stroke-width="2.5" stroke-linecap="round" stroke-linejoin="round"/>
<path d="M789 319C789 319 553 432.697 444.5 475.5C336 518.303 363.491 507.547 312.5 527C226 560 83.3705 601.928 83.3705 601.928" stroke="#E3E3E8" stroke-width="2.5" stroke-linecap="round" stroke-linejoin="round"/>
<line x1="84.2499" y1="602" x2="786.751" y2="602" stroke="#E3E3E8" stroke-width="2.5" stroke-linecap="round" stroke-linejoin="round"/>
<path d="M123.824 191.909C123.824 192.983 123.63 193.911 123.242 194.693C122.854 195.475 122.322 196.079 121.646 196.503C120.97 196.927 120.198 197.139 119.33 197.139C118.461 197.139 117.689 196.927 117.013 196.503C116.337 196.079 115.805 195.475 115.417 194.693C115.029 193.911 114.835 192.983 114.835 191.909C114.835 190.835 115.029 189.907 115.417 189.125C115.805 188.343 116.337 187.74 117.013 187.315C117.689 186.891 118.461 186.679 119.33 186.679C120.198 186.679 120.97 186.891 121.646 187.315C122.322 187.74 122.854 188.343 123.242 189.125C123.63 189.907 123.824 190.835 123.824 191.909ZM122.631 191.909C122.631 191.027 122.483 190.283 122.188 189.677C121.897 189.07 121.5 188.611 121 188.3C120.503 187.988 119.946 187.832 119.33 187.832C118.713 187.832 118.155 187.988 117.654 188.3C117.157 188.611 116.761 189.07 116.466 189.677C116.174 190.283 116.028 191.027 116.028 191.909C116.028 192.791 116.174 193.535 116.466 194.141C116.761 194.748 117.157 195.207 117.654 195.518C118.155 195.83 118.713 195.986 119.33 195.986C119.946 195.986 120.503 195.83 121 195.518C121.5 195.207 121.897 194.748 122.188 194.141C122.483 193.535 122.631 192.791 122.631 191.909ZM125.456 192.705C125.456 191.452 125.618 190.3 125.943 189.249C126.271 188.195 126.738 187.226 127.345 186.341H128.379C128.14 186.669 127.916 187.073 127.708 187.554C127.502 188.031 127.322 188.557 127.166 189.13C127.01 189.7 126.887 190.29 126.798 190.9C126.712 191.51 126.669 192.111 126.669 192.705C126.669 193.493 126.745 194.294 126.897 195.106C127.05 195.918 127.255 196.672 127.514 197.368C127.772 198.064 128.061 198.631 128.379 199.068H127.345C126.738 198.183 126.271 197.215 125.943 196.165C125.618 195.111 125.456 193.957 125.456 192.705ZM130.583 192.406V197H129.41V189.364H130.544V190.557H130.643C130.822 190.169 131.094 189.857 131.458 189.622C131.823 189.384 132.294 189.264 132.87 189.264C133.387 189.264 133.84 189.37 134.228 189.582C134.615 189.791 134.917 190.109 135.132 190.537C135.348 190.961 135.456 191.498 135.456 192.148V197H134.282V192.227C134.282 191.627 134.127 191.16 133.815 190.825C133.503 190.487 133.076 190.318 132.532 190.318C132.158 190.318 131.823 190.399 131.528 190.562C131.236 190.724 131.006 190.961 130.837 191.273C130.668 191.584 130.583 191.962 130.583 192.406ZM138.451 186.818L138.351 194.136H137.198L137.099 186.818H138.451ZM137.775 197.08C137.529 197.08 137.319 196.992 137.143 196.816C136.968 196.64 136.88 196.43 136.88 196.185C136.88 195.939 136.968 195.729 137.143 195.553C137.319 195.378 137.529 195.29 137.775 195.29C138.02 195.29 138.23 195.378 138.406 195.553C138.582 195.729 138.67 195.939 138.67 196.185C138.67 196.347 138.628 196.496 138.545 196.632C138.466 196.768 138.358 196.877 138.222 196.96C138.09 197.04 137.94 197.08 137.775 197.08ZM142.602 192.705C142.602 193.957 142.438 195.111 142.11 196.165C141.785 197.215 141.319 198.183 140.713 199.068H139.679C139.917 198.74 140.139 198.336 140.345 197.855C140.554 197.378 140.736 196.854 140.892 196.284C141.047 195.711 141.168 195.119 141.255 194.509C141.344 193.896 141.389 193.295 141.389 192.705C141.389 191.916 141.313 191.115 141.16 190.303C141.008 189.491 140.802 188.737 140.544 188.041C140.285 187.345 139.997 186.778 139.679 186.341H140.713C141.319 187.226 141.785 188.195 142.11 189.249C142.438 190.3 142.602 191.452 142.602 192.705Z" fill="#E3E3E8"/>
<path d="M165.824 212.909C165.824 213.983 165.63 214.911 165.242 215.693C164.854 216.475 164.322 217.079 163.646 217.503C162.97 217.927 162.198 218.139 161.33 218.139C160.461 218.139 159.689 217.927 159.013 217.503C158.337 217.079 157.805 216.475 157.417 215.693C157.029 214.911 156.835 213.983 156.835 212.909C156.835 211.835 157.029 210.907 157.417 210.125C157.805 209.343 158.337 208.74 159.013 208.315C159.689 207.891 160.461 207.679 161.33 207.679C162.198 207.679 162.97 207.891 163.646 208.315C164.322 208.74 164.854 209.343 165.242 210.125C165.63 210.907 165.824 211.835 165.824 212.909ZM164.631 212.909C164.631 212.027 164.483 211.283 164.188 210.677C163.897 210.07 163.5 209.611 163 209.3C162.503 208.988 161.946 208.832 161.33 208.832C160.713 208.832 160.155 208.988 159.654 209.3C159.157 209.611 158.761 210.07 158.466 210.677C158.174 211.283 158.028 212.027 158.028 212.909C158.028 213.791 158.174 214.535 158.466 215.141C158.761 215.748 159.157 216.207 159.654 216.518C160.155 216.83 160.713 216.986 161.33 216.986C161.946 216.986 162.503 216.83 163 216.518C163.5 216.207 163.897 215.748 164.188 215.141C164.483 214.535 164.631 213.791 164.631 212.909ZM167.456 213.705C167.456 212.452 167.618 211.3 167.943 210.249C168.271 209.195 168.738 208.226 169.345 207.341H170.379C170.14 207.669 169.916 208.073 169.708 208.554C169.502 209.031 169.322 209.557 169.166 210.13C169.01 210.7 168.887 211.29 168.798 211.9C168.712 212.51 168.669 213.111 168.669 213.705C168.669 214.493 168.745 215.294 168.897 216.106C169.05 216.918 169.255 217.672 169.514 218.368C169.772 219.064 170.061 219.631 170.379 220.068H169.345C168.738 219.183 168.271 218.215 167.943 217.165C167.618 216.111 167.456 214.957 167.456 213.705ZM171.39 218V217.105L174.751 213.426C175.146 212.995 175.47 212.621 175.726 212.303C175.981 211.981 176.17 211.679 176.292 211.398C176.418 211.113 176.481 210.814 176.481 210.503C176.481 210.145 176.395 209.835 176.223 209.573C176.054 209.311 175.822 209.109 175.527 208.967C175.232 208.824 174.9 208.753 174.532 208.753C174.141 208.753 173.8 208.834 173.508 208.996C173.22 209.156 172.996 209.379 172.837 209.668C172.681 209.956 172.603 210.294 172.603 210.682H171.43C171.43 210.085 171.568 209.562 171.843 209.111C172.118 208.66 172.492 208.309 172.966 208.057C173.444 207.805 173.979 207.679 174.572 207.679C175.169 207.679 175.697 207.805 176.158 208.057C176.619 208.309 176.98 208.648 177.242 209.076C177.504 209.504 177.635 209.979 177.635 210.503C177.635 210.877 177.567 211.244 177.431 211.602C177.298 211.956 177.066 212.352 176.735 212.79C176.407 213.224 175.951 213.754 175.368 214.381L173.081 216.827V216.906H177.814V218H171.39ZM181.215 208.693H181.573V209.19H181.215V208.693ZM178.67 212.432L180.718 208.136H182.07L184.119 212.432H182.945L181.334 208.991H181.454L179.863 212.432H178.67ZM186.223 213.406V218H185.049V210.364H186.183V211.557H186.282C186.461 211.169 186.733 210.857 187.098 210.622C187.462 210.384 187.933 210.264 188.509 210.264C189.027 210.264 189.479 210.37 189.867 210.582C190.255 210.791 190.556 211.109 190.772 211.537C190.987 211.961 191.095 212.498 191.095 213.148V218H189.921V213.227C189.921 212.627 189.766 212.16 189.454 211.825C189.143 211.487 188.715 211.318 188.171 211.318C187.797 211.318 187.462 211.399 187.167 211.562C186.875 211.724 186.645 211.961 186.476 212.273C186.307 212.584 186.223 212.962 186.223 213.406ZM195.044 213.705C195.044 214.957 194.88 216.111 194.552 217.165C194.227 218.215 193.762 219.183 193.155 220.068H192.121C192.36 219.74 192.582 219.336 192.787 218.855C192.996 218.378 193.178 217.854 193.334 217.284C193.49 216.711 193.611 216.119 193.697 215.509C193.787 214.896 193.831 214.295 193.831 213.705C193.831 212.916 193.755 212.115 193.603 211.303C193.45 210.491 193.245 209.737 192.986 209.041C192.728 208.345 192.439 207.778 192.121 207.341H193.155C193.762 208.226 194.227 209.195 194.552 210.249C194.88 211.3 195.044 212.452 195.044 213.705Z" fill="#E3E3E8"/>
<path d="M276.824 238.909C276.824 239.983 276.63 240.911 276.242 241.693C275.854 242.475 275.322 243.079 274.646 243.503C273.97 243.927 273.198 244.139 272.33 244.139C271.461 244.139 270.689 243.927 270.013 243.503C269.337 243.079 268.805 242.475 268.417 241.693C268.029 240.911 267.835 239.983 267.835 238.909C267.835 237.835 268.029 236.907 268.417 236.125C268.805 235.343 269.337 234.74 270.013 234.315C270.689 233.891 271.461 233.679 272.33 233.679C273.198 233.679 273.97 233.891 274.646 234.315C275.322 234.74 275.854 235.343 276.242 236.125C276.63 236.907 276.824 237.835 276.824 238.909ZM275.631 238.909C275.631 238.027 275.483 237.283 275.188 236.677C274.897 236.07 274.5 235.611 274 235.3C273.503 234.988 272.946 234.832 272.33 234.832C271.713 234.832 271.155 234.988 270.654 235.3C270.157 235.611 269.761 236.07 269.466 236.677C269.174 237.283 269.028 238.027 269.028 238.909C269.028 239.791 269.174 240.535 269.466 241.141C269.761 241.748 270.157 242.207 270.654 242.518C271.155 242.83 271.713 242.986 272.33 242.986C272.946 242.986 273.503 242.83 274 242.518C274.5 242.207 274.897 241.748 275.188 241.141C275.483 240.535 275.631 239.791 275.631 238.909ZM278.456 239.705C278.456 238.452 278.618 237.3 278.943 236.249C279.271 235.195 279.738 234.226 280.345 233.341H281.379C281.14 233.669 280.916 234.073 280.708 234.554C280.502 235.031 280.322 235.557 280.166 236.13C280.01 236.7 279.887 237.29 279.798 237.9C279.712 238.51 279.669 239.111 279.669 239.705C279.669 240.493 279.745 241.294 279.897 242.106C280.05 242.918 280.255 243.672 280.514 244.368C280.772 245.064 281.061 245.631 281.379 246.068H280.345C279.738 245.183 279.271 244.215 278.943 243.165C278.618 242.111 278.456 240.957 278.456 239.705ZM283.583 239.406V244H282.41V236.364H283.544V237.557H283.643C283.822 237.169 284.094 236.857 284.458 236.622C284.823 236.384 285.294 236.264 285.87 236.264C286.387 236.264 286.84 236.37 287.228 236.582C287.615 236.791 287.917 237.109 288.132 237.537C288.348 237.961 288.456 238.498 288.456 239.148V244H287.282V239.227C287.282 238.627 287.127 238.16 286.815 237.825C286.503 237.487 286.076 237.318 285.532 237.318C285.158 237.318 284.823 237.399 284.528 237.562C284.236 237.724 284.006 237.961 283.837 238.273C283.668 238.584 283.583 238.962 283.583 239.406ZM291.928 234.693H292.286V235.19H291.928V234.693ZM289.383 238.432L291.431 234.136H292.783L294.831 238.432H293.658L292.047 234.991H292.167L290.576 238.432H289.383ZM295.742 244V243.105L299.103 239.426C299.497 238.995 299.822 238.621 300.077 238.303C300.333 237.981 300.522 237.679 300.644 237.398C300.77 237.113 300.833 236.814 300.833 236.503C300.833 236.145 300.747 235.835 300.575 235.573C300.406 235.311 300.174 235.109 299.879 234.967C299.584 234.824 299.252 234.753 298.884 234.753C298.493 234.753 298.152 234.834 297.86 234.996C297.572 235.156 297.348 235.379 297.189 235.668C297.033 235.956 296.955 236.294 296.955 236.682H295.782C295.782 236.085 295.92 235.562 296.195 235.111C296.47 234.66 296.844 234.309 297.318 234.057C297.796 233.805 298.331 233.679 298.924 233.679C299.521 233.679 300.049 233.805 300.51 234.057C300.971 234.309 301.332 234.648 301.594 235.076C301.856 235.504 301.987 235.979 301.987 236.503C301.987 236.877 301.919 237.244 301.783 237.602C301.65 237.956 301.418 238.352 301.087 238.79C300.759 239.224 300.303 239.754 299.72 240.381L297.433 242.827V242.906H302.166V244H295.742ZM306.044 239.705C306.044 240.957 305.88 242.111 305.552 243.165C305.227 244.215 304.762 245.183 304.155 246.068H303.121C303.36 245.74 303.582 245.336 303.787 244.855C303.996 244.378 304.178 243.854 304.334 243.284C304.49 242.711 304.611 242.119 304.697 241.509C304.787 240.896 304.831 240.295 304.831 239.705C304.831 238.916 304.755 238.115 304.603 237.303C304.45 236.491 304.245 235.737 303.986 235.041C303.728 234.345 303.439 233.778 303.121 233.341H304.155C304.762 234.226 305.227 235.195 305.552 236.249C305.88 237.3 306.044 238.452 306.044 239.705Z" fill="#E3E3E8"/>
<path d="M579.824 379.909C579.824 380.983 579.63 381.911 579.242 382.693C578.854 383.475 578.322 384.079 577.646 384.503C576.97 384.927 576.198 385.139 575.33 385.139C574.461 385.139 573.689 384.927 573.013 384.503C572.337 384.079 571.805 383.475 571.417 382.693C571.029 381.911 570.835 380.983 570.835 379.909C570.835 378.835 571.029 377.907 571.417 377.125C571.805 376.343 572.337 375.74 573.013 375.315C573.689 374.891 574.461 374.679 575.33 374.679C576.198 374.679 576.97 374.891 577.646 375.315C578.322 375.74 578.854 376.343 579.242 377.125C579.63 377.907 579.824 378.835 579.824 379.909ZM578.631 379.909C578.631 379.027 578.483 378.283 578.188 377.677C577.897 377.07 577.5 376.611 577 376.3C576.503 375.988 575.946 375.832 575.33 375.832C574.713 375.832 574.155 375.988 573.654 376.3C573.157 376.611 572.761 377.07 572.466 377.677C572.174 378.283 572.028 379.027 572.028 379.909C572.028 380.791 572.174 381.535 572.466 382.141C572.761 382.748 573.157 383.207 573.654 383.518C574.155 383.83 574.713 383.986 575.33 383.986C575.946 383.986 576.503 383.83 577 383.518C577.5 383.207 577.897 382.748 578.188 382.141C578.483 381.535 578.631 380.791 578.631 379.909ZM581.456 380.705C581.456 379.452 581.618 378.3 581.943 377.249C582.271 376.195 582.738 375.226 583.345 374.341H584.379C584.14 374.669 583.916 375.073 583.708 375.554C583.502 376.031 583.322 376.557 583.166 377.13C583.01 377.7 582.887 378.29 582.798 378.9C582.712 379.51 582.669 380.111 582.669 380.705C582.669 381.493 582.745 382.294 582.897 383.106C583.05 383.918 583.255 384.672 583.514 385.368C583.772 386.064 584.061 386.631 584.379 387.068H583.345C582.738 386.183 582.271 385.215 581.943 384.165C581.618 383.111 581.456 381.957 581.456 380.705ZM586.583 380.406V385H585.41V377.364H586.544V378.557H586.643C586.822 378.169 587.094 377.857 587.458 377.622C587.823 377.384 588.294 377.264 588.87 377.264C589.387 377.264 589.84 377.37 590.228 377.582C590.615 377.791 590.917 378.109 591.132 378.537C591.348 378.961 591.456 379.498 591.456 380.148V385H590.282V380.227C590.282 379.627 590.127 379.16 589.815 378.825C589.503 378.487 589.076 378.318 588.532 378.318C588.158 378.318 587.823 378.399 587.528 378.562C587.236 378.724 587.006 378.961 586.837 379.273C586.668 379.584 586.583 379.962 586.583 380.406ZM596.137 374.818H597.31V383.011C597.31 383.383 597.352 383.643 597.435 383.792C597.518 383.941 597.688 384.012 597.947 384.006C598.086 383.999 598.189 383.989 598.255 383.976C598.325 383.959 598.388 383.943 598.444 383.926L598.683 384.94C598.58 384.97 598.451 384.997 598.295 385.02C598.139 385.046 597.977 385.06 597.808 385.06C597.251 385.06 596.833 384.907 596.555 384.602C596.276 384.297 596.137 383.873 596.137 383.33V374.818ZM602.162 385.159C601.473 385.159 600.868 384.995 600.348 384.667C599.831 384.339 599.426 383.88 599.135 383.29C598.846 382.7 598.702 382.01 598.702 381.222C598.702 380.426 598.846 379.732 599.135 379.138C599.426 378.545 599.831 378.085 600.348 377.756C600.868 377.428 601.473 377.264 602.162 377.264C602.852 377.264 603.455 377.428 603.972 377.756C604.492 378.085 604.897 378.545 605.185 379.138C605.477 379.732 605.623 380.426 605.623 381.222C605.623 382.01 605.477 382.7 605.185 383.29C604.897 383.88 604.492 384.339 603.972 384.667C603.455 384.995 602.852 385.159 602.162 385.159ZM602.162 384.105C602.686 384.105 603.117 383.971 603.455 383.702C603.793 383.434 604.043 383.081 604.206 382.643C604.368 382.206 604.449 381.732 604.449 381.222C604.449 380.711 604.368 380.236 604.206 379.795C604.043 379.354 603.793 378.998 603.455 378.726C603.117 378.454 602.686 378.318 602.162 378.318C601.639 378.318 601.208 378.454 600.87 378.726C600.532 378.998 600.282 379.354 600.119 379.795C599.957 380.236 599.876 380.711 599.876 381.222C599.876 381.732 599.957 382.206 600.119 382.643C600.282 383.081 600.532 383.434 600.87 383.702C601.208 383.971 601.639 384.105 602.162 384.105ZM609.796 388.023C609.229 388.023 608.742 387.95 608.334 387.804C607.927 387.661 607.587 387.473 607.315 387.237C607.047 387.005 606.833 386.757 606.674 386.491L607.609 385.835C607.715 385.974 607.849 386.134 608.011 386.312C608.174 386.495 608.396 386.652 608.677 386.785C608.963 386.921 609.335 386.989 609.796 386.989C610.413 386.989 610.921 386.839 611.322 386.541C611.723 386.243 611.924 385.776 611.924 385.139V383.588H611.825C611.738 383.727 611.616 383.9 611.457 384.105C611.301 384.307 611.075 384.488 610.78 384.647C610.489 384.803 610.094 384.881 609.597 384.881C608.981 384.881 608.427 384.735 607.937 384.443C607.45 384.152 607.063 383.727 606.778 383.17C606.497 382.614 606.356 381.937 606.356 381.142C606.356 380.36 606.493 379.679 606.768 379.099C607.043 378.515 607.426 378.065 607.917 377.746C608.407 377.425 608.974 377.264 609.617 377.264C610.114 377.264 610.509 377.347 610.8 377.513C611.095 377.675 611.321 377.861 611.476 378.07C611.636 378.275 611.758 378.444 611.844 378.577H611.964V377.364H613.097V385.219C613.097 385.875 612.948 386.409 612.65 386.82C612.355 387.234 611.957 387.537 611.457 387.729C610.959 387.925 610.406 388.023 609.796 388.023ZM609.756 383.827C610.227 383.827 610.625 383.719 610.95 383.504C611.274 383.288 611.521 382.978 611.69 382.574C611.859 382.17 611.944 381.686 611.944 381.122C611.944 380.572 611.861 380.086 611.695 379.665C611.53 379.245 611.284 378.915 610.959 378.676C610.635 378.437 610.234 378.318 609.756 378.318C609.259 378.318 608.845 378.444 608.513 378.696C608.185 378.948 607.938 379.286 607.773 379.71C607.61 380.134 607.529 380.605 607.529 381.122C607.529 381.652 607.612 382.121 607.778 382.529C607.947 382.933 608.195 383.252 608.523 383.484C608.855 383.712 609.266 383.827 609.756 383.827ZM618.956 380.406V385H617.782V377.364H618.916V378.557H619.015C619.194 378.169 619.466 377.857 619.831 377.622C620.195 377.384 620.666 377.264 621.243 377.264C621.76 377.264 622.212 377.37 622.6 377.582C622.988 377.791 623.289 378.109 623.505 378.537C623.72 378.961 623.828 379.498 623.828 380.148V385H622.655V380.227C622.655 379.627 622.499 379.16 622.187 378.825C621.876 378.487 621.448 378.318 620.905 378.318C620.53 378.318 620.195 378.399 619.9 378.562C619.609 378.724 619.378 378.961 619.209 379.273C619.04 379.584 618.956 379.962 618.956 380.406ZM627.778 380.705C627.778 381.957 627.614 383.111 627.285 384.165C626.961 385.215 626.495 386.183 625.888 387.068H624.854C625.093 386.74 625.315 386.336 625.52 385.855C625.729 385.378 625.912 384.854 626.067 384.284C626.223 383.711 626.344 383.119 626.43 382.509C626.52 381.896 626.565 381.295 626.565 380.705C626.565 379.916 626.488 379.115 626.336 378.303C626.183 377.491 625.978 376.737 625.719 376.041C625.461 375.345 625.172 374.778 624.854 374.341H625.888C626.495 375.226 626.961 376.195 627.285 377.249C627.614 378.3 627.778 379.452 627.778 380.705Z" fill="#E3E3E8"/>
<path d="M674.824 545.909C674.824 546.983 674.63 547.911 674.242 548.693C673.854 549.475 673.322 550.079 672.646 550.503C671.97 550.927 671.198 551.139 670.33 551.139C669.461 551.139 668.689 550.927 668.013 550.503C667.337 550.079 666.805 549.475 666.417 548.693C666.029 547.911 665.835 546.983 665.835 545.909C665.835 544.835 666.029 543.907 666.417 543.125C666.805 542.343 667.337 541.74 668.013 541.315C668.689 540.891 669.461 540.679 670.33 540.679C671.198 540.679 671.97 540.891 672.646 541.315C673.322 541.74 673.854 542.343 674.242 543.125C674.63 543.907 674.824 544.835 674.824 545.909ZM673.631 545.909C673.631 545.027 673.483 544.283 673.188 543.677C672.897 543.07 672.5 542.611 672 542.3C671.503 541.988 670.946 541.832 670.33 541.832C669.713 541.832 669.155 541.988 668.654 542.3C668.157 542.611 667.761 543.07 667.466 543.677C667.174 544.283 667.028 545.027 667.028 545.909C667.028 546.791 667.174 547.535 667.466 548.141C667.761 548.748 668.157 549.207 668.654 549.518C669.155 549.83 669.713 549.986 670.33 549.986C670.946 549.986 671.503 549.83 672 549.518C672.5 549.207 672.897 548.748 673.188 548.141C673.483 547.535 673.631 546.791 673.631 545.909ZM676.456 546.705C676.456 545.452 676.618 544.3 676.943 543.249C677.271 542.195 677.738 541.226 678.345 540.341H679.379C679.14 540.669 678.916 541.073 678.708 541.554C678.502 542.031 678.322 542.557 678.166 543.13C678.01 543.7 677.887 544.29 677.798 544.9C677.712 545.51 677.669 546.111 677.669 546.705C677.669 547.493 677.745 548.294 677.897 549.106C678.05 549.918 678.255 550.672 678.514 551.368C678.772 552.064 679.061 552.631 679.379 553.068H678.345C677.738 552.183 677.271 551.215 676.943 550.165C676.618 549.111 676.456 547.957 676.456 546.705ZM681.583 546.406V551H680.41V543.364H681.544V544.557H681.643C681.822 544.169 682.094 543.857 682.458 543.622C682.823 543.384 683.294 543.264 683.87 543.264C684.387 543.264 684.84 543.37 685.228 543.582C685.615 543.791 685.917 544.109 686.132 544.537C686.348 544.961 686.456 545.498 686.456 546.148V551H685.282V546.227C685.282 545.627 685.127 545.16 684.815 544.825C684.503 544.487 684.076 544.318 683.532 544.318C683.158 544.318 682.823 544.399 682.528 544.562C682.236 544.724 682.006 544.961 681.837 545.273C681.668 545.584 681.583 545.962 681.583 546.406ZM690.405 546.705C690.405 547.957 690.241 549.111 689.913 550.165C689.588 551.215 689.123 552.183 688.516 553.068H687.482C687.721 552.74 687.943 552.336 688.148 551.855C688.357 551.378 688.539 550.854 688.695 550.284C688.851 549.711 688.972 549.119 689.058 548.509C689.148 547.896 689.192 547.295 689.192 546.705C689.192 545.916 689.116 545.115 688.964 544.303C688.811 543.491 688.606 542.737 688.347 542.041C688.089 541.345 687.8 540.778 687.482 540.341H688.516C689.123 541.226 689.588 542.195 689.913 543.249C690.241 544.3 690.405 545.452 690.405 546.705Z" fill="#E3E3E8"/>
<path d="M708.824 589.909C708.824 590.983 708.63 591.911 708.242 592.693C707.854 593.475 707.322 594.079 706.646 594.503C705.97 594.927 705.198 595.139 704.33 595.139C703.461 595.139 702.689 594.927 702.013 594.503C701.337 594.079 700.805 593.475 700.417 592.693C700.029 591.911 699.835 590.983 699.835 589.909C699.835 588.835 700.029 587.907 700.417 587.125C700.805 586.343 701.337 585.74 702.013 585.315C702.689 584.891 703.461 584.679 704.33 584.679C705.198 584.679 705.97 584.891 706.646 585.315C707.322 585.74 707.854 586.343 708.242 587.125C708.63 587.907 708.824 588.835 708.824 589.909ZM707.631 589.909C707.631 589.027 707.483 588.283 707.188 587.677C706.897 587.07 706.5 586.611 706 586.3C705.503 585.988 704.946 585.832 704.33 585.832C703.713 585.832 703.155 585.988 702.654 586.3C702.157 586.611 701.761 587.07 701.466 587.677C701.174 588.283 701.028 589.027 701.028 589.909C701.028 590.791 701.174 591.535 701.466 592.141C701.761 592.748 702.157 593.207 702.654 593.518C703.155 593.83 703.713 593.986 704.33 593.986C704.946 593.986 705.503 593.83 706 593.518C706.5 593.207 706.897 592.748 707.188 592.141C707.483 591.535 707.631 590.791 707.631 589.909ZM710.456 590.705C710.456 589.452 710.618 588.3 710.943 587.249C711.271 586.195 711.738 585.226 712.345 584.341H713.379C713.14 584.669 712.916 585.073 712.708 585.554C712.502 586.031 712.322 586.557 712.166 587.13C712.01 587.7 711.887 588.29 711.798 588.9C711.712 589.51 711.669 590.111 711.669 590.705C711.669 591.493 711.745 592.294 711.897 593.106C712.05 593.918 712.255 594.672 712.514 595.368C712.772 596.064 713.061 596.631 713.379 597.068H712.345C711.738 596.183 711.271 595.215 710.943 594.165C710.618 593.111 710.456 591.957 710.456 590.705ZM714.41 584.818H715.583V593.011C715.583 593.383 715.625 593.643 715.708 593.792C715.791 593.941 715.961 594.012 716.22 594.006C716.359 593.999 716.462 593.989 716.528 593.976C716.598 593.959 716.661 593.943 716.717 593.926L716.956 594.94C716.853 594.97 716.724 594.997 716.568 595.02C716.412 595.046 716.25 595.06 716.081 595.06C715.524 595.06 715.106 594.907 714.828 594.602C714.549 594.297 714.41 593.873 714.41 593.33V584.818ZM720.436 595.159C719.746 595.159 719.141 594.995 718.621 594.667C718.104 594.339 717.699 593.88 717.408 593.29C717.119 592.7 716.975 592.01 716.975 591.222C716.975 590.426 717.119 589.732 717.408 589.138C717.699 588.545 718.104 588.085 718.621 587.756C719.141 587.428 719.746 587.264 720.436 587.264C721.125 587.264 721.728 587.428 722.245 587.756C722.766 588.085 723.17 588.545 723.458 589.138C723.75 589.732 723.896 590.426 723.896 591.222C723.896 592.01 723.75 592.7 723.458 593.29C723.17 593.88 722.766 594.339 722.245 594.667C721.728 594.995 721.125 595.159 720.436 595.159ZM720.436 594.105C720.959 594.105 721.39 593.971 721.728 593.702C722.066 593.434 722.316 593.081 722.479 592.643C722.641 592.206 722.722 591.732 722.722 591.222C722.722 590.711 722.641 590.236 722.479 589.795C722.316 589.354 722.066 588.998 721.728 588.726C721.39 588.454 720.959 588.318 720.436 588.318C719.912 588.318 719.481 588.454 719.143 588.726C718.805 588.998 718.555 589.354 718.392 589.795C718.23 590.236 718.149 590.711 718.149 591.222C718.149 591.732 718.23 592.206 718.392 592.643C718.555 593.081 718.805 593.434 719.143 593.702C719.481 593.971 719.912 594.105 720.436 594.105ZM728.069 598.023C727.502 598.023 727.015 597.95 726.607 597.804C726.2 597.661 725.86 597.473 725.588 597.237C725.32 597.005 725.106 596.757 724.947 596.491L725.882 595.835C725.988 595.974 726.122 596.134 726.284 596.312C726.447 596.495 726.669 596.652 726.951 596.785C727.236 596.921 727.608 596.989 728.069 596.989C728.686 596.989 729.194 596.839 729.595 596.541C729.996 596.243 730.197 595.776 730.197 595.139V593.588H730.098C730.011 593.727 729.889 593.9 729.73 594.105C729.574 594.307 729.348 594.488 729.054 594.647C728.762 594.803 728.367 594.881 727.87 594.881C727.254 594.881 726.7 594.735 726.21 594.443C725.723 594.152 725.336 593.727 725.051 593.17C724.77 592.614 724.629 591.937 724.629 591.142C724.629 590.36 724.766 589.679 725.041 589.099C725.317 588.515 725.699 588.065 726.19 587.746C726.68 587.425 727.247 587.264 727.89 587.264C728.387 587.264 728.782 587.347 729.073 587.513C729.368 587.675 729.594 587.861 729.75 588.07C729.909 588.275 730.031 588.444 730.117 588.577H730.237V587.364H731.37V595.219C731.37 595.875 731.221 596.409 730.923 596.82C730.628 597.234 730.23 597.537 729.73 597.729C729.232 597.925 728.679 598.023 728.069 598.023ZM728.029 593.827C728.5 593.827 728.898 593.719 729.223 593.504C729.547 593.288 729.794 592.978 729.963 592.574C730.132 592.17 730.217 591.686 730.217 591.122C730.217 590.572 730.134 590.086 729.968 589.665C729.803 589.245 729.557 588.915 729.232 588.676C728.908 588.437 728.507 588.318 728.029 588.318C727.532 588.318 727.118 588.444 726.786 588.696C726.458 588.948 726.211 589.286 726.046 589.71C725.883 590.134 725.802 590.605 725.802 591.122C725.802 591.652 725.885 592.121 726.051 592.529C726.22 592.933 726.468 593.252 726.796 593.484C727.128 593.712 727.539 593.827 728.029 593.827ZM737.229 590.406V595H736.056V587.364H737.189V588.557H737.288C737.467 588.169 737.739 587.857 738.104 587.622C738.468 587.384 738.939 587.264 739.516 587.264C740.033 587.264 740.485 587.37 740.873 587.582C741.261 587.791 741.562 588.109 741.778 588.537C741.993 588.961 742.101 589.498 742.101 590.148V595H740.928V590.227C740.928 589.627 740.772 589.16 740.46 588.825C740.149 588.487 739.721 588.318 739.178 588.318C738.803 588.318 738.468 588.399 738.173 588.562C737.882 588.724 737.651 588.961 737.482 589.273C737.313 589.584 737.229 589.962 737.229 590.406ZM746.051 590.705C746.051 591.957 745.887 593.111 745.558 594.165C745.234 595.215 744.768 596.183 744.161 597.068H743.127C743.366 596.74 743.588 596.336 743.794 595.855C744.002 595.378 744.185 594.854 744.34 594.284C744.496 593.711 744.617 593.119 744.703 592.509C744.793 591.896 744.838 591.295 744.838 590.705C744.838 589.916 744.761 589.115 744.609 588.303C744.456 587.491 744.251 586.737 743.992 586.041C743.734 585.345 743.446 584.778 743.127 584.341H744.161C744.768 585.226 745.234 586.195 745.558 587.249C745.887 588.3 746.051 589.452 746.051 590.705ZM749.667 593.608L749.588 594.145C749.531 594.523 749.445 594.927 749.329 595.358C749.216 595.789 749.099 596.195 748.976 596.576C748.854 596.957 748.752 597.26 748.673 597.486H747.778C747.821 597.274 747.877 596.994 747.947 596.646C748.017 596.298 748.086 595.908 748.156 595.477C748.229 595.05 748.288 594.612 748.335 594.165L748.394 593.608H749.667ZM763.129 589.909C763.129 590.983 762.935 591.911 762.547 592.693C762.159 593.475 761.627 594.079 760.951 594.503C760.275 594.927 759.503 595.139 758.634 595.139C757.766 595.139 756.994 594.927 756.317 594.503C755.641 594.079 755.109 593.475 754.722 592.693C754.334 591.911 754.14 590.983 754.14 589.909C754.14 588.835 754.334 587.907 754.722 587.125C755.109 586.343 755.641 585.74 756.317 585.315C756.994 584.891 757.766 584.679 758.634 584.679C759.503 584.679 760.275 584.891 760.951 585.315C761.627 585.74 762.159 586.343 762.547 587.125C762.935 587.907 763.129 588.835 763.129 589.909ZM761.935 589.909C761.935 589.027 761.788 588.283 761.493 587.677C761.201 587.07 760.805 586.611 760.305 586.3C759.808 585.988 759.251 585.832 758.634 585.832C758.018 585.832 757.459 585.988 756.959 586.3C756.462 586.611 756.066 587.07 755.771 587.677C755.479 588.283 755.333 589.027 755.333 589.909C755.333 590.791 755.479 591.535 755.771 592.141C756.066 592.748 756.462 593.207 756.959 593.518C757.459 593.83 758.018 593.986 758.634 593.986C759.251 593.986 759.808 593.83 760.305 593.518C760.805 593.207 761.201 592.748 761.493 592.141C761.788 591.535 761.935 590.791 761.935 589.909ZM764.76 590.705C764.76 589.452 764.923 588.3 765.247 587.249C765.576 586.195 766.043 585.226 766.649 584.341H767.684C767.445 584.669 767.221 585.073 767.012 585.554C766.807 586.031 766.626 586.557 766.47 587.13C766.315 587.7 766.192 588.29 766.103 588.9C766.016 589.51 765.973 590.111 765.973 590.705C765.973 591.493 766.05 592.294 766.202 593.106C766.354 593.918 766.56 594.672 766.818 595.368C767.077 596.064 767.365 596.631 767.684 597.068H766.649C766.043 596.183 765.576 595.215 765.247 594.165C764.923 593.111 764.76 591.957 764.76 590.705ZM772.275 584.818V595H771.042V586.111H770.982L768.496 587.761V586.509L771.042 584.818H772.275ZM777.028 589.909C777.028 591.162 776.864 592.315 776.536 593.369C776.211 594.42 775.746 595.388 775.139 596.273H774.105C774.344 595.945 774.566 595.54 774.771 595.06C774.98 594.582 775.162 594.059 775.318 593.489C775.474 592.915 775.595 592.324 775.681 591.714C775.771 591.101 775.815 590.499 775.815 589.909C775.815 589.12 775.739 588.32 775.587 587.508C775.434 586.696 775.229 585.942 774.97 585.246C774.712 584.55 774.423 583.983 774.105 583.545H775.139C775.746 584.43 776.211 585.4 776.536 586.454C776.864 587.504 777.028 588.656 777.028 589.909Z" fill="#E3E3E8"/>
</g>
<rect x="18" y="440" width="121" height="48" rx="4" transform="rotate(-90 18 440)" fill="#161632"/>
<path d="M41.7273 417.966C43.2614 417.966 44.5871 418.243 45.7045 418.797C46.822 419.351 47.6837 420.111 48.2898 421.077C48.8958 422.043 49.1989 423.146 49.1989 424.386C49.1989 425.627 48.8958 426.73 48.2898 427.696C47.6837 428.662 46.822 429.422 45.7045 429.976C44.5871 430.53 43.2614 430.807 41.7273 430.807C40.1932 430.807 38.8674 430.53 37.75 429.976C36.6326 429.422 35.7708 428.662 35.1648 427.696C34.5587 426.73 34.2557 425.627 34.2557 424.386C34.2557 423.146 34.5587 422.043 35.1648 421.077C35.7708 420.111 36.6326 419.351 37.75 418.797C38.8674 418.243 40.1932 417.966 41.7273 417.966ZM41.7273 419.67C40.4678 419.67 39.4048 419.881 38.5384 420.303C37.6719 420.719 37.0161 421.285 36.571 422C36.1259 422.71 35.9034 423.506 35.9034 424.386C35.9034 425.267 36.1259 426.065 36.571 426.78C37.0161 427.49 37.6719 428.056 38.5384 428.477C39.4048 428.894 40.4678 429.102 41.7273 429.102C42.9867 429.102 44.0497 428.894 44.9162 428.477C45.7827 428.056 46.4384 427.49 46.8835 426.78C47.3286 426.065 47.5511 425.267 47.5511 424.386C47.5511 423.506 47.3286 422.71 46.8835 422C46.4384 421.285 45.7827 420.719 44.9162 420.303C44.0497 419.881 42.9867 419.67 41.7273 419.67ZM53.0909 415.232H38.0909V413.612H39.8239V413.413C39.6345 413.29 39.393 413.12 39.0994 412.902C38.8011 412.679 38.536 412.362 38.304 411.95C38.0672 411.534 37.9489 410.97 37.9489 410.26C37.9489 409.341 38.1785 408.532 38.6378 407.831C39.0971 407.13 39.7481 406.583 40.5909 406.19C41.4337 405.797 42.428 405.601 43.5739 405.601C44.7292 405.601 45.7306 405.797 46.5781 406.19C47.4209 406.583 48.0743 407.128 48.5384 407.824C48.9976 408.52 49.2273 409.322 49.2273 410.232C49.2273 410.932 49.1113 411.493 48.8793 411.915C48.6425 412.336 48.375 412.661 48.0767 412.888C47.7737 413.115 47.5227 413.29 47.3239 413.413V413.555H53.0909V415.232ZM43.5455 413.584C44.3693 413.584 45.0961 413.463 45.7259 413.222C46.3509 412.98 46.8409 412.627 47.196 412.163C47.5464 411.699 47.7216 411.131 47.7216 410.459C47.7216 409.758 47.5369 409.173 47.1676 408.705C46.7936 408.231 46.2917 407.876 45.6619 407.639C45.0275 407.398 44.322 407.277 43.5455 407.277C42.7784 407.277 42.0871 407.395 41.4716 407.632C40.8513 407.864 40.3613 408.217 40.0014 408.69C39.6368 409.159 39.4545 409.749 39.4545 410.459C39.4545 411.141 39.6274 411.714 39.973 412.178C40.3139 412.642 40.7921 412.992 41.4077 413.229C42.0185 413.465 42.7311 413.584 43.5455 413.584ZM49.2273 398.47C49.2273 399.521 48.9953 400.428 48.5312 401.19C48.0625 401.948 47.4091 402.533 46.571 402.945C45.7282 403.352 44.7481 403.555 43.6307 403.555C42.5133 403.555 41.5284 403.352 40.6761 402.945C39.8191 402.533 39.1515 401.96 38.6733 401.226C38.1903 400.487 37.9489 399.625 37.9489 398.641C37.9489 398.072 38.0436 397.511 38.233 396.957C38.4223 396.403 38.7301 395.899 39.1562 395.445C39.5777 394.99 40.1364 394.628 40.8324 394.358C41.5284 394.088 42.3854 393.953 43.4034 393.953H44.1136V402.362H42.6648V395.658C42.0492 395.658 41.5 395.781 41.017 396.027C40.5341 396.268 40.1529 396.614 39.8736 397.064C39.5942 397.509 39.4545 398.035 39.4545 398.641C39.4545 399.308 39.6203 399.886 39.9517 400.374C40.2784 400.857 40.7045 401.228 41.2301 401.489C41.7557 401.749 42.3191 401.879 42.9205 401.879H43.8864C44.7102 401.879 45.4086 401.737 45.9815 401.453C46.5497 401.164 46.983 400.764 47.2812 400.253C47.5748 399.741 47.7216 399.147 47.7216 398.47C47.7216 398.03 47.66 397.632 47.5369 397.277C47.4091 396.917 47.2197 396.607 46.9688 396.347C46.7131 396.086 46.3958 395.885 46.017 395.743L46.4716 394.124C47.0208 394.294 47.5038 394.58 47.9205 394.983C48.3324 395.385 48.6544 395.883 48.8864 396.474C49.1136 397.066 49.2273 397.732 49.2273 398.47ZM49 391.403H38.0909V389.784H39.7386V389.67C39.1989 389.472 38.7609 389.112 38.4247 388.591C38.0885 388.07 37.9205 387.483 37.9205 386.83C37.9205 386.706 37.9228 386.553 37.9276 386.368C37.9323 386.183 37.9394 386.044 37.9489 385.949H39.6534C39.6392 386.006 39.6179 386.136 39.5895 386.339C39.5563 386.538 39.5398 386.749 39.5398 386.972C39.5398 387.502 39.651 387.975 39.8736 388.392C40.0914 388.804 40.3944 389.131 40.7827 389.372C41.1662 389.609 41.6042 389.727 42.0966 389.727H49V391.403ZM49.2273 380.175C49.2273 381.084 48.9976 381.886 48.5384 382.582C48.0743 383.278 47.4209 383.823 46.5781 384.216C45.7306 384.609 44.7292 384.805 43.5739 384.805C42.428 384.805 41.4337 384.609 40.5909 384.216C39.7481 383.823 39.0971 383.276 38.6378 382.575C38.1785 381.875 37.9489 381.065 37.9489 380.146C37.9489 379.436 38.0672 378.875 38.304 378.463C38.536 378.046 38.8011 377.729 39.0994 377.511C39.393 377.289 39.6345 377.116 39.8239 376.993V376.851H38.0909V375.175H49V376.794H47.3239V376.993C47.5227 377.116 47.7737 377.291 48.0767 377.518C48.375 377.746 48.6425 378.07 48.8793 378.491C49.1113 378.913 49.2273 379.474 49.2273 380.175ZM47.7216 379.947C47.7216 379.275 47.5464 378.707 47.196 378.243C46.8409 377.779 46.3509 377.426 45.7259 377.185C45.0961 376.943 44.3693 376.822 43.5455 376.822C42.7311 376.822 42.0185 376.941 41.4077 377.178C40.7921 377.414 40.3139 377.765 39.973 378.229C39.6274 378.693 39.4545 379.266 39.4545 379.947C39.4545 380.658 39.6368 381.25 40.0014 381.723C40.3613 382.192 40.8513 382.545 41.4716 382.781C42.0871 383.013 42.7784 383.129 43.5455 383.129C44.322 383.129 45.0275 383.011 45.6619 382.774C46.2917 382.533 46.7936 382.178 47.1676 381.709C47.5369 381.235 47.7216 380.648 47.7216 379.947ZM38.0909 367.128H39.5114V372.781H38.0909V367.128ZM35.4773 371.134V369.457H45.875C46.3485 369.457 46.7036 369.389 46.9403 369.251C47.1723 369.109 47.3286 368.929 47.4091 368.712C47.4848 368.489 47.5227 368.255 47.5227 368.009C47.5227 367.824 47.5133 367.672 47.4943 367.554C47.4706 367.436 47.4517 367.341 47.4375 367.27L48.9432 366.929C48.9858 367.043 49.0284 367.201 49.071 367.405C49.1184 367.608 49.142 367.866 49.142 368.179C49.142 368.652 49.0402 369.116 48.8366 369.571C48.633 370.021 48.3229 370.395 47.9062 370.693C47.4896 370.987 46.964 371.134 46.3295 371.134H35.4773ZM49 364.607H38.0909V362.93H49V364.607ZM36.2727 363.754C36.2727 364.081 36.1615 364.363 35.9389 364.599C35.7164 364.831 35.4489 364.947 35.1364 364.947C34.8239 364.947 34.5563 364.831 34.3338 364.599C34.1113 364.363 34 364.081 34 363.754C34 363.428 34.1113 363.148 34.3338 362.916C34.5563 362.679 34.8239 362.561 35.1364 362.561C35.4489 362.561 35.7164 362.679 35.9389 362.916C36.1615 363.148 36.2727 363.428 36.2727 363.754ZM49.2273 355.429C49.2273 356.413 48.9929 357.278 48.5241 358.021C48.0554 358.76 47.3996 359.337 46.5568 359.754C45.714 360.166 44.7292 360.372 43.6023 360.372C42.4659 360.372 41.474 360.166 40.6264 359.754C39.7789 359.337 39.1207 358.76 38.652 358.021C38.1832 357.278 37.9489 356.413 37.9489 355.429C37.9489 354.444 38.1832 353.582 38.652 352.843C39.1207 352.1 39.7789 351.522 40.6264 351.11C41.474 350.694 42.4659 350.485 43.6023 350.485C44.7292 350.485 45.714 350.694 46.5568 351.11C47.3996 351.522 48.0554 352.1 48.5241 352.843C48.9929 353.582 49.2273 354.444 49.2273 355.429ZM47.7216 355.429C47.7216 354.681 47.5298 354.065 47.1463 353.582C46.7628 353.099 46.2585 352.742 45.6335 352.51C45.0085 352.278 44.3314 352.162 43.6023 352.162C42.8731 352.162 42.1937 352.278 41.5639 352.51C40.9342 352.742 40.4252 353.099 40.0369 353.582C39.6487 354.065 39.4545 354.681 39.4545 355.429C39.4545 356.177 39.6487 356.792 40.0369 357.275C40.4252 357.758 40.9342 358.116 41.5639 358.348C42.1937 358.58 42.8731 358.696 43.6023 358.696C44.3314 358.696 45.0085 358.58 45.6335 358.348C46.2585 358.116 46.7628 357.758 47.1463 357.275C47.5298 356.792 47.7216 356.177 47.7216 355.429ZM42.4375 346.251H49V347.927H38.0909V346.308H39.7955V346.165C39.2415 345.91 38.7964 345.522 38.4602 345.001C38.1193 344.48 37.9489 343.808 37.9489 342.984C37.9489 342.245 38.1004 341.599 38.4034 341.045C38.7017 340.491 39.1563 340.06 39.767 339.752C40.3731 339.444 41.1402 339.29 42.0682 339.29H49V340.967H42.1818C41.3248 340.967 40.6572 341.189 40.179 341.634C39.696 342.079 39.4545 342.69 39.4545 343.467C39.4545 344.002 39.5705 344.48 39.8026 344.901C40.0346 345.318 40.3731 345.647 40.8182 345.888C41.2633 346.13 41.803 346.251 42.4375 346.251ZM40.5341 328.5L40.9602 330.006C40.7093 330.101 40.4654 330.24 40.2287 330.425C39.9872 330.605 39.7884 330.851 39.6321 331.164C39.4759 331.476 39.3977 331.876 39.3977 332.364C39.3977 333.032 39.5516 333.588 39.8594 334.033C40.1624 334.473 40.5483 334.694 41.017 334.694C41.4337 334.694 41.7628 334.542 42.0043 334.239C42.2457 333.936 42.447 333.462 42.608 332.819L43.0057 331.199C43.2424 330.224 43.6046 329.497 44.0923 329.019C44.5753 328.541 45.1979 328.301 45.9602 328.301C46.5852 328.301 47.1439 328.481 47.6364 328.841C48.1288 329.196 48.517 329.694 48.8011 330.333C49.0852 330.972 49.2273 331.715 49.2273 332.563C49.2273 333.676 48.9858 334.596 48.5028 335.326C48.0199 336.055 47.3144 336.516 46.3864 336.711L45.9886 335.12C46.5758 334.968 47.0161 334.682 47.3097 334.26C47.6032 333.834 47.75 333.278 47.75 332.591C47.75 331.81 47.5843 331.19 47.2528 330.73C46.9167 330.266 46.5142 330.034 46.0455 330.034C45.6667 330.034 45.3494 330.167 45.0938 330.432C44.8333 330.697 44.6392 331.105 44.5114 331.654L44.0852 333.472C43.8485 334.471 43.4815 335.205 42.9844 335.674C42.4825 336.138 41.8551 336.37 41.1023 336.37C40.4867 336.37 39.9422 336.197 39.4688 335.851C38.9953 335.501 38.6236 335.025 38.3537 334.424C38.0838 333.818 37.9489 333.131 37.9489 332.364C37.9489 331.284 38.1856 330.437 38.6591 329.821C39.1326 329.201 39.7576 328.761 40.5341 328.5Z" fill="#E3E3E8"/>
<rect x="380" y="620" width="104" height="48" rx="4" fill="#161632"/>
<path d="M390.761 651V636.455H399.54V638.017H392.523V642.932H399.085V644.494H392.523V649.438H399.653V651H390.761ZM402.487 636.455H404.163V648.159C404.163 648.689 404.223 649.061 404.341 649.274C404.459 649.487 404.703 649.589 405.072 649.58C405.271 649.57 405.418 649.556 405.513 649.537C405.612 649.513 405.702 649.49 405.783 649.466L406.124 650.915C405.977 650.957 405.792 650.995 405.57 651.028C405.347 651.066 405.115 651.085 404.874 651.085C404.078 651.085 403.482 650.867 403.084 650.432C402.686 649.996 402.487 649.39 402.487 648.614V636.455ZM412.237 651.227C411.186 651.227 410.279 650.995 409.517 650.531C408.759 650.062 408.174 649.409 407.762 648.571C407.355 647.728 407.152 646.748 407.152 645.631C407.152 644.513 407.355 643.528 407.762 642.676C408.174 641.819 408.747 641.152 409.481 640.673C410.22 640.19 411.082 639.949 412.066 639.949C412.635 639.949 413.196 640.044 413.75 640.233C414.304 640.422 414.808 640.73 415.262 641.156C415.717 641.578 416.079 642.136 416.349 642.832C416.619 643.528 416.754 644.385 416.754 645.403V646.114H408.345V644.665H415.049C415.049 644.049 414.926 643.5 414.68 643.017C414.439 642.534 414.093 642.153 413.643 641.874C413.198 641.594 412.672 641.455 412.066 641.455C411.399 641.455 410.821 641.62 410.333 641.952C409.85 642.278 409.479 642.705 409.218 643.23C408.958 643.756 408.828 644.319 408.828 644.92V645.886C408.828 646.71 408.97 647.409 409.254 647.982C409.543 648.55 409.943 648.983 410.454 649.281C410.966 649.575 411.56 649.722 412.237 649.722C412.677 649.722 413.075 649.66 413.43 649.537C413.79 649.409 414.1 649.22 414.36 648.969C414.621 648.713 414.822 648.396 414.964 648.017L416.583 648.472C416.413 649.021 416.127 649.504 415.724 649.92C415.322 650.332 414.824 650.654 414.233 650.886C413.641 651.114 412.975 651.227 412.237 651.227ZM419.304 651V640.091H420.923V641.795H421.065C421.292 641.213 421.659 640.761 422.166 640.439C422.672 640.112 423.281 639.949 423.991 639.949C424.711 639.949 425.31 640.112 425.788 640.439C426.271 640.761 426.647 641.213 426.917 641.795H427.031C427.31 641.232 427.729 640.785 428.288 640.453C428.847 640.117 429.517 639.949 430.298 639.949C431.273 639.949 432.071 640.254 432.691 640.865C433.312 641.471 433.622 642.416 433.622 643.699V651H431.946V643.699C431.946 642.894 431.725 642.319 431.285 641.973C430.845 641.627 430.326 641.455 429.73 641.455C428.963 641.455 428.368 641.687 427.947 642.151C427.526 642.61 427.315 643.192 427.315 643.898V651H425.61V643.528C425.61 642.908 425.409 642.409 425.007 642.03C424.604 641.646 424.086 641.455 423.451 641.455C423.016 641.455 422.609 641.571 422.23 641.803C421.856 642.035 421.553 642.357 421.321 642.768C421.093 643.176 420.98 643.647 420.98 644.182V651H419.304ZM441.26 651.227C440.209 651.227 439.302 650.995 438.54 650.531C437.783 650.062 437.198 649.409 436.786 648.571C436.379 647.728 436.175 646.748 436.175 645.631C436.175 644.513 436.379 643.528 436.786 642.676C437.198 641.819 437.771 641.152 438.505 640.673C439.243 640.19 440.105 639.949 441.09 639.949C441.658 639.949 442.219 640.044 442.773 640.233C443.327 640.422 443.831 640.73 444.286 641.156C444.74 641.578 445.103 642.136 445.373 642.832C445.642 643.528 445.777 644.385 445.777 645.403V646.114H437.368V644.665H444.073C444.073 644.049 443.95 643.5 443.703 643.017C443.462 642.534 443.116 642.153 442.667 641.874C442.221 641.594 441.696 641.455 441.09 641.455C440.422 641.455 439.845 641.62 439.357 641.952C438.874 642.278 438.502 642.705 438.242 643.23C437.981 643.756 437.851 644.319 437.851 644.92V645.886C437.851 646.71 437.993 647.409 438.277 647.982C438.566 648.55 438.966 648.983 439.478 649.281C439.989 649.575 440.583 649.722 441.26 649.722C441.701 649.722 442.098 649.66 442.453 649.537C442.813 649.409 443.123 649.22 443.384 648.969C443.644 648.713 443.846 648.396 443.988 648.017L445.607 648.472C445.436 649.021 445.15 649.504 444.748 649.92C444.345 650.332 443.848 650.654 443.256 650.886C442.664 651.114 441.999 651.227 441.26 651.227ZM450.003 644.438V651H448.327V640.091H449.946V641.795H450.088C450.344 641.241 450.732 640.796 451.253 640.46C451.774 640.119 452.446 639.949 453.27 639.949C454.009 639.949 454.655 640.1 455.209 640.403C455.763 640.702 456.194 641.156 456.502 641.767C456.81 642.373 456.963 643.14 456.963 644.068V651H455.287V644.182C455.287 643.325 455.065 642.657 454.62 642.179C454.175 641.696 453.564 641.455 452.787 641.455C452.252 641.455 451.774 641.571 451.353 641.803C450.936 642.035 450.607 642.373 450.365 642.818C450.124 643.263 450.003 643.803 450.003 644.438ZM464.771 640.091V641.511H459.117V640.091H464.771ZM460.765 637.477H462.441V647.875C462.441 648.348 462.51 648.704 462.647 648.94C462.789 649.172 462.969 649.329 463.187 649.409C463.409 649.485 463.644 649.523 463.89 649.523C464.075 649.523 464.226 649.513 464.344 649.494C464.463 649.471 464.558 649.452 464.629 649.438L464.969 650.943C464.856 650.986 464.697 651.028 464.494 651.071C464.29 651.118 464.032 651.142 463.719 651.142C463.246 651.142 462.782 651.04 462.327 650.837C461.878 650.633 461.504 650.323 461.205 649.906C460.912 649.49 460.765 648.964 460.765 648.33V637.477ZM474.824 642.534L473.318 642.96C473.223 642.709 473.084 642.465 472.899 642.229C472.719 641.987 472.473 641.788 472.161 641.632C471.848 641.476 471.448 641.398 470.96 641.398C470.293 641.398 469.736 641.552 469.291 641.859C468.851 642.162 468.631 642.548 468.631 643.017C468.631 643.434 468.782 643.763 469.085 644.004C469.388 644.246 469.862 644.447 470.506 644.608L472.125 645.006C473.1 645.242 473.827 645.605 474.305 646.092C474.784 646.575 475.023 647.198 475.023 647.96C475.023 648.585 474.843 649.144 474.483 649.636C474.128 650.129 473.631 650.517 472.991 650.801C472.352 651.085 471.609 651.227 470.761 651.227C469.649 651.227 468.728 650.986 467.999 650.503C467.269 650.02 466.808 649.314 466.614 648.386L468.205 647.989C468.356 648.576 468.643 649.016 469.064 649.31C469.49 649.603 470.046 649.75 470.733 649.75C471.514 649.75 472.134 649.584 472.594 649.253C473.058 648.917 473.29 648.514 473.29 648.045C473.29 647.667 473.157 647.349 472.892 647.094C472.627 646.833 472.22 646.639 471.67 646.511L469.852 646.085C468.853 645.848 468.119 645.482 467.651 644.984C467.187 644.482 466.955 643.855 466.955 643.102C466.955 642.487 467.127 641.942 467.473 641.469C467.823 640.995 468.299 640.624 468.901 640.354C469.507 640.084 470.193 639.949 470.96 639.949C472.04 639.949 472.887 640.186 473.503 640.659C474.123 641.133 474.563 641.758 474.824 642.534Z" fill="#E3E3E8"/>
<rect x="216" y="122" width="77" height="36" rx="2" fill="#733F3F"/>
<path d="M225.409 146V134.364H226.818V139.545H233.023V134.364H234.432V146H233.023V140.795H226.818V146H225.409ZM240.616 146.182C239.829 146.182 239.137 145.994 238.543 145.619C237.952 145.244 237.49 144.72 237.156 144.045C236.827 143.371 236.662 142.583 236.662 141.682C236.662 140.773 236.827 139.979 237.156 139.301C237.49 138.623 237.952 138.097 238.543 137.722C239.137 137.347 239.829 137.159 240.616 137.159C241.404 137.159 242.094 137.347 242.685 137.722C243.279 138.097 243.741 138.623 244.071 139.301C244.404 139.979 244.571 140.773 244.571 141.682C244.571 142.583 244.404 143.371 244.071 144.045C243.741 144.72 243.279 145.244 242.685 145.619C242.094 145.994 241.404 146.182 240.616 146.182ZM240.616 144.977C241.215 144.977 241.707 144.824 242.094 144.517C242.48 144.21 242.766 143.807 242.952 143.307C243.137 142.807 243.23 142.265 243.23 141.682C243.23 141.098 243.137 140.555 242.952 140.051C242.766 139.547 242.48 139.14 242.094 138.83C241.707 138.519 241.215 138.364 240.616 138.364C240.018 138.364 239.526 138.519 239.139 138.83C238.753 139.14 238.467 139.547 238.281 140.051C238.096 140.555 238.003 141.098 238.003 141.682C238.003 142.265 238.096 142.807 238.281 143.307C238.467 143.807 238.753 144.21 239.139 144.517C239.526 144.824 240.018 144.977 240.616 144.977ZM246.618 146V137.273H247.913V138.591H248.004C248.163 138.159 248.451 137.809 248.868 137.54C249.285 137.271 249.754 137.136 250.277 137.136C250.375 137.136 250.499 137.138 250.646 137.142C250.794 137.146 250.906 137.152 250.982 137.159V138.523C250.936 138.511 250.832 138.494 250.669 138.472C250.51 138.445 250.341 138.432 250.163 138.432C249.739 138.432 249.36 138.521 249.027 138.699C248.697 138.873 248.436 139.116 248.243 139.426C248.054 139.733 247.959 140.083 247.959 140.477V146H246.618ZM252.571 146V137.273H253.866V138.591H253.957C254.116 138.159 254.404 137.809 254.821 137.54C255.238 137.271 255.707 137.136 256.23 137.136C256.329 137.136 256.452 137.138 256.599 137.142C256.747 137.146 256.859 137.152 256.935 137.159V138.523C256.889 138.511 256.785 138.494 256.622 138.472C256.463 138.445 256.295 138.432 256.116 138.432C255.692 138.432 255.313 138.521 254.98 138.699C254.651 138.873 254.389 139.116 254.196 139.426C254.007 139.733 253.912 140.083 253.912 140.477V146H252.571ZM258.524 146V137.273H259.865V146H258.524ZM259.206 135.818C258.945 135.818 258.719 135.729 258.53 135.551C258.344 135.373 258.251 135.159 258.251 134.909C258.251 134.659 258.344 134.445 258.53 134.267C258.719 134.089 258.945 134 259.206 134C259.467 134 259.691 134.089 259.876 134.267C260.066 134.445 260.161 134.659 260.161 134.909C260.161 135.159 260.066 135.373 259.876 135.551C259.691 135.729 259.467 135.818 259.206 135.818ZM262.503 146V134.364H263.844V138.659H263.957C264.056 138.508 264.192 138.314 264.366 138.08C264.545 137.841 264.798 137.629 265.128 137.443C265.461 137.254 265.912 137.159 266.48 137.159C267.215 137.159 267.863 137.343 268.423 137.71C268.984 138.078 269.421 138.598 269.736 139.273C270.05 139.947 270.207 140.742 270.207 141.659C270.207 142.583 270.05 143.384 269.736 144.062C269.421 144.737 268.986 145.259 268.429 145.631C267.872 145.998 267.23 146.182 266.503 146.182C265.942 146.182 265.493 146.089 265.156 145.903C264.819 145.714 264.56 145.5 264.378 145.261C264.196 145.019 264.056 144.818 263.957 144.659H263.798V146H262.503ZM263.821 141.636C263.821 142.295 263.918 142.877 264.111 143.381C264.304 143.881 264.586 144.273 264.957 144.557C265.329 144.837 265.783 144.977 266.321 144.977C266.882 144.977 267.349 144.83 267.724 144.534C268.103 144.235 268.387 143.833 268.577 143.33C268.77 142.822 268.866 142.258 268.866 141.636C268.866 141.023 268.772 140.47 268.582 139.977C268.397 139.481 268.115 139.089 267.736 138.801C267.361 138.509 266.889 138.364 266.321 138.364C265.776 138.364 265.317 138.502 264.946 138.778C264.575 139.051 264.295 139.434 264.105 139.926C263.916 140.415 263.821 140.985 263.821 141.636ZM272.259 134.364H273.599V143.727C273.599 144.152 273.647 144.449 273.741 144.619C273.836 144.79 274.031 144.871 274.327 144.864C274.486 144.856 274.603 144.845 274.679 144.83C274.759 144.811 274.83 144.792 274.895 144.773L275.168 145.932C275.05 145.966 274.902 145.996 274.724 146.023C274.546 146.053 274.361 146.068 274.168 146.068C273.531 146.068 273.054 145.894 272.736 145.545C272.418 145.197 272.259 144.712 272.259 144.091V134.364ZM280.058 146.182C279.217 146.182 278.492 145.996 277.882 145.625C277.276 145.25 276.808 144.727 276.479 144.057C276.153 143.383 275.99 142.598 275.99 141.705C275.99 140.811 276.153 140.023 276.479 139.341C276.808 138.655 277.267 138.121 277.854 137.739C278.445 137.352 279.134 137.159 279.922 137.159C280.376 137.159 280.825 137.235 281.268 137.386C281.712 137.538 282.115 137.784 282.479 138.125C282.842 138.462 283.132 138.909 283.348 139.466C283.564 140.023 283.672 140.708 283.672 141.523V142.091H276.945V140.932H282.308C282.308 140.439 282.21 140 282.013 139.614C281.82 139.227 281.543 138.922 281.183 138.699C280.827 138.475 280.407 138.364 279.922 138.364C279.388 138.364 278.926 138.496 278.536 138.761C278.149 139.023 277.852 139.364 277.643 139.784C277.435 140.205 277.331 140.655 277.331 141.136V141.909C277.331 142.568 277.445 143.127 277.672 143.585C277.903 144.04 278.223 144.386 278.632 144.625C279.041 144.86 279.517 144.977 280.058 144.977C280.411 144.977 280.729 144.928 281.013 144.83C281.301 144.727 281.549 144.576 281.757 144.375C281.965 144.17 282.126 143.917 282.24 143.614L283.536 143.977C283.399 144.417 283.17 144.803 282.848 145.136C282.526 145.466 282.128 145.723 281.655 145.909C281.181 146.091 280.649 146.182 280.058 146.182Z" fill="#E3E3E8"/>
<rect x="309" y="122" width="47" height="36" rx="2" fill="#745A37"/>
<path d="M318.409 146V134.364H322.477C323.288 134.364 323.956 134.504 324.483 134.784C325.009 135.061 325.402 135.434 325.659 135.903C325.917 136.369 326.045 136.886 326.045 137.455C326.045 137.955 325.956 138.367 325.778 138.693C325.604 139.019 325.373 139.277 325.085 139.466C324.801 139.655 324.492 139.795 324.159 139.886V140C324.515 140.023 324.873 140.148 325.233 140.375C325.593 140.602 325.894 140.928 326.136 141.352C326.379 141.777 326.5 142.295 326.5 142.909C326.5 143.492 326.367 144.017 326.102 144.483C325.837 144.949 325.419 145.318 324.847 145.591C324.275 145.864 323.53 146 322.614 146H318.409ZM319.818 144.75H322.614C323.534 144.75 324.188 144.572 324.574 144.216C324.964 143.856 325.159 143.42 325.159 142.909C325.159 142.515 325.059 142.152 324.858 141.818C324.657 141.481 324.371 141.212 324 141.011C323.629 140.807 323.189 140.705 322.682 140.705H319.818V144.75ZM319.818 139.477H322.432C322.856 139.477 323.239 139.394 323.58 139.227C323.924 139.061 324.197 138.826 324.398 138.523C324.602 138.22 324.705 137.864 324.705 137.455C324.705 136.943 324.527 136.509 324.17 136.153C323.814 135.794 323.25 135.614 322.477 135.614H319.818V139.477ZM331.929 146.182C331.202 146.182 330.56 145.998 330.003 145.631C329.446 145.259 329.01 144.737 328.696 144.062C328.382 143.384 328.224 142.583 328.224 141.659C328.224 140.742 328.382 139.947 328.696 139.273C329.01 138.598 329.448 138.078 330.009 137.71C330.569 137.343 331.217 137.159 331.952 137.159C332.52 137.159 332.969 137.254 333.298 137.443C333.632 137.629 333.885 137.841 334.06 138.08C334.238 138.314 334.376 138.508 334.474 138.659H334.588V137.273H335.929V146H334.634V144.659H334.474C334.376 144.818 334.236 145.019 334.054 145.261C333.872 145.5 333.613 145.714 333.276 145.903C332.938 146.089 332.49 146.182 331.929 146.182ZM332.111 144.977C332.649 144.977 333.103 144.837 333.474 144.557C333.846 144.273 334.128 143.881 334.321 143.381C334.514 142.877 334.611 142.295 334.611 141.636C334.611 140.985 334.516 140.415 334.327 139.926C334.137 139.434 333.857 139.051 333.486 138.778C333.115 138.502 332.656 138.364 332.111 138.364C331.543 138.364 331.069 138.509 330.69 138.801C330.315 139.089 330.033 139.481 329.844 139.977C329.658 140.47 329.565 141.023 329.565 141.636C329.565 142.258 329.66 142.822 329.849 143.33C330.043 143.833 330.327 144.235 330.702 144.534C331.08 144.83 331.55 144.977 332.111 144.977ZM341.866 146.182C341.139 146.182 340.497 145.998 339.94 145.631C339.384 145.259 338.948 144.737 338.634 144.062C338.319 143.384 338.162 142.583 338.162 141.659C338.162 140.742 338.319 139.947 338.634 139.273C338.948 138.598 339.385 138.078 339.946 137.71C340.507 137.343 341.154 137.159 341.889 137.159C342.457 137.159 342.906 137.254 343.236 137.443C343.569 137.629 343.823 137.841 343.997 138.08C344.175 138.314 344.313 138.508 344.412 138.659H344.526V134.364H345.866V146H344.571V144.659H344.412C344.313 144.818 344.173 145.019 343.991 145.261C343.81 145.5 343.55 145.714 343.213 145.903C342.876 146.089 342.427 146.182 341.866 146.182ZM342.048 144.977C342.586 144.977 343.041 144.837 343.412 144.557C343.783 144.273 344.065 143.881 344.259 143.381C344.452 142.877 344.548 142.295 344.548 141.636C344.548 140.985 344.454 140.415 344.264 139.926C344.075 139.434 343.795 139.051 343.423 138.778C343.052 138.502 342.594 138.364 342.048 138.364C341.48 138.364 341.007 138.509 340.628 138.801C340.253 139.089 339.971 139.481 339.781 139.977C339.596 140.47 339.503 141.023 339.503 141.636C339.503 142.258 339.598 142.822 339.787 143.33C339.98 143.833 340.264 144.235 340.639 144.534C341.018 144.83 341.488 144.977 342.048 144.977Z" fill="#E3E3E8"/>
<rect x="372" y="122" width="45" height="36" rx="2" fill="#777B3C"/>
<path d="M381.409 146V134.364H388.386V135.614H382.818V139.545H387.864V140.795H382.818V146H381.409ZM393.273 146.182C392.545 146.182 391.903 145.998 391.347 145.631C390.79 145.259 390.354 144.737 390.04 144.062C389.725 143.384 389.568 142.583 389.568 141.659C389.568 140.742 389.725 139.947 390.04 139.273C390.354 138.598 390.792 138.078 391.352 137.71C391.913 137.343 392.561 137.159 393.295 137.159C393.864 137.159 394.313 137.254 394.642 137.443C394.975 137.629 395.229 137.841 395.403 138.08C395.581 138.314 395.72 138.508 395.818 138.659H395.932V137.273H397.273V146H395.977V144.659H395.818C395.72 144.818 395.58 145.019 395.398 145.261C395.216 145.5 394.956 145.714 394.619 145.903C394.282 146.089 393.833 146.182 393.273 146.182ZM393.455 144.977C393.992 144.977 394.447 144.837 394.818 144.557C395.189 144.273 395.472 143.881 395.665 143.381C395.858 142.877 395.955 142.295 395.955 141.636C395.955 140.985 395.86 140.415 395.67 139.926C395.481 139.434 395.201 139.051 394.83 138.778C394.458 138.502 394 138.364 393.455 138.364C392.886 138.364 392.413 138.509 392.034 138.801C391.659 139.089 391.377 139.481 391.188 139.977C391.002 140.47 390.909 141.023 390.909 141.636C390.909 142.258 391.004 142.822 391.193 143.33C391.386 143.833 391.67 144.235 392.045 144.534C392.424 144.83 392.894 144.977 393.455 144.977ZM399.915 146V137.273H401.256V146H399.915ZM400.597 135.818C400.335 135.818 400.11 135.729 399.92 135.551C399.735 135.373 399.642 135.159 399.642 134.909C399.642 134.659 399.735 134.445 399.92 134.267C400.11 134.089 400.335 134 400.597 134C400.858 134 401.081 134.089 401.267 134.267C401.456 134.445 401.551 134.659 401.551 134.909C401.551 135.159 401.456 135.373 401.267 135.551C401.081 135.729 400.858 135.818 400.597 135.818ZM403.712 146V137.273H405.007V138.591H405.098C405.257 138.159 405.545 137.809 405.962 137.54C406.378 137.271 406.848 137.136 407.371 137.136C407.469 137.136 407.592 137.138 407.74 137.142C407.888 137.146 408 137.152 408.075 137.159V138.523C408.03 138.511 407.926 138.494 407.763 138.472C407.604 138.445 407.435 138.432 407.257 138.432C406.833 138.432 406.454 138.521 406.121 138.699C405.791 138.873 405.53 139.116 405.337 139.426C405.147 139.733 405.053 140.083 405.053 140.477V146H403.712Z" fill="#E3E3E8"/>
<rect x="433" y="122" width="57" height="36" rx="2" fill="#516935"/>
<path d="M450.364 138C450.239 137.617 450.074 137.275 449.869 136.972C449.669 136.665 449.428 136.403 449.148 136.188C448.871 135.972 448.557 135.807 448.205 135.693C447.852 135.58 447.466 135.523 447.045 135.523C446.356 135.523 445.729 135.701 445.165 136.057C444.6 136.413 444.152 136.938 443.818 137.631C443.485 138.324 443.318 139.174 443.318 140.182C443.318 141.189 443.487 142.04 443.824 142.733C444.161 143.426 444.617 143.951 445.193 144.307C445.769 144.663 446.417 144.841 447.136 144.841C447.803 144.841 448.39 144.699 448.898 144.415C449.409 144.127 449.807 143.722 450.091 143.199C450.379 142.672 450.523 142.053 450.523 141.341L450.955 141.432H447.455V140.182H451.886V141.432C451.886 142.39 451.682 143.223 451.273 143.932C450.867 144.64 450.307 145.189 449.591 145.58C448.879 145.966 448.061 146.159 447.136 146.159C446.106 146.159 445.201 145.917 444.42 145.432C443.644 144.947 443.038 144.258 442.602 143.364C442.17 142.47 441.955 141.409 441.955 140.182C441.955 139.261 442.078 138.434 442.324 137.699C442.574 136.96 442.926 136.331 443.381 135.812C443.835 135.294 444.373 134.896 444.994 134.619C445.616 134.343 446.299 134.205 447.045 134.205C447.659 134.205 448.231 134.297 448.761 134.483C449.295 134.665 449.771 134.924 450.188 135.261C450.608 135.595 450.958 135.994 451.239 136.46C451.519 136.922 451.712 137.436 451.818 138H450.364ZM457.663 146.182C456.875 146.182 456.184 145.994 455.589 145.619C454.999 145.244 454.536 144.72 454.203 144.045C453.874 143.371 453.709 142.583 453.709 141.682C453.709 140.773 453.874 139.979 454.203 139.301C454.536 138.623 454.999 138.097 455.589 137.722C456.184 137.347 456.875 137.159 457.663 137.159C458.451 137.159 459.141 137.347 459.732 137.722C460.326 138.097 460.788 138.623 461.118 139.301C461.451 139.979 461.618 140.773 461.618 141.682C461.618 142.583 461.451 143.371 461.118 144.045C460.788 144.72 460.326 145.244 459.732 145.619C459.141 145.994 458.451 146.182 457.663 146.182ZM457.663 144.977C458.262 144.977 458.754 144.824 459.141 144.517C459.527 144.21 459.813 143.807 459.999 143.307C460.184 142.807 460.277 142.265 460.277 141.682C460.277 141.098 460.184 140.555 459.999 140.051C459.813 139.547 459.527 139.14 459.141 138.83C458.754 138.519 458.262 138.364 457.663 138.364C457.065 138.364 456.572 138.519 456.186 138.83C455.8 139.14 455.514 139.547 455.328 140.051C455.143 140.555 455.05 141.098 455.05 141.682C455.05 142.265 455.143 142.807 455.328 143.307C455.514 143.807 455.8 144.21 456.186 144.517C456.572 144.824 457.065 144.977 457.663 144.977ZM467.21 146.182C466.422 146.182 465.731 145.994 465.136 145.619C464.545 145.244 464.083 144.72 463.75 144.045C463.42 143.371 463.256 142.583 463.256 141.682C463.256 140.773 463.42 139.979 463.75 139.301C464.083 138.623 464.545 138.097 465.136 137.722C465.731 137.347 466.422 137.159 467.21 137.159C467.998 137.159 468.688 137.347 469.278 137.722C469.873 138.097 470.335 138.623 470.665 139.301C470.998 139.979 471.165 140.773 471.165 141.682C471.165 142.583 470.998 143.371 470.665 144.045C470.335 144.72 469.873 145.244 469.278 145.619C468.688 145.994 467.998 146.182 467.21 146.182ZM467.21 144.977C467.809 144.977 468.301 144.824 468.688 144.517C469.074 144.21 469.36 143.807 469.545 143.307C469.731 142.807 469.824 142.265 469.824 141.682C469.824 141.098 469.731 140.555 469.545 140.051C469.36 139.547 469.074 139.14 468.688 138.83C468.301 138.519 467.809 138.364 467.21 138.364C466.612 138.364 466.119 138.519 465.733 138.83C465.347 139.14 465.061 139.547 464.875 140.051C464.689 140.555 464.597 141.098 464.597 141.682C464.597 142.265 464.689 142.807 464.875 143.307C465.061 143.807 465.347 144.21 465.733 144.517C466.119 144.824 466.612 144.977 467.21 144.977ZM476.507 146.182C475.78 146.182 475.138 145.998 474.581 145.631C474.024 145.259 473.589 144.737 473.274 144.062C472.96 143.384 472.803 142.583 472.803 141.659C472.803 140.742 472.96 139.947 473.274 139.273C473.589 138.598 474.026 138.078 474.587 137.71C475.147 137.343 475.795 137.159 476.53 137.159C477.098 137.159 477.547 137.254 477.876 137.443C478.21 137.629 478.464 137.841 478.638 138.08C478.816 138.314 478.954 138.508 479.053 138.659H479.166V134.364H480.507V146H479.212V144.659H479.053C478.954 144.818 478.814 145.019 478.632 145.261C478.45 145.5 478.191 145.714 477.854 145.903C477.517 146.089 477.068 146.182 476.507 146.182ZM476.689 144.977C477.227 144.977 477.681 144.837 478.053 144.557C478.424 144.273 478.706 143.881 478.899 143.381C479.092 142.877 479.189 142.295 479.189 141.636C479.189 140.985 479.094 140.415 478.905 139.926C478.715 139.434 478.435 139.051 478.064 138.778C477.693 138.502 477.234 138.364 476.689 138.364C476.121 138.364 475.647 138.509 475.268 138.801C474.893 139.089 474.611 139.481 474.422 139.977C474.236 140.47 474.143 141.023 474.143 141.636C474.143 142.258 474.238 142.822 474.428 143.33C474.621 143.833 474.905 144.235 475.28 144.534C475.659 144.83 476.128 144.977 476.689 144.977Z" fill="#E3E3E8"/>
<rect x="506" y="122" width="86" height="36" rx="2" fill="#345229"/>
<path d="M515.409 146V134.364H522.432V135.614H516.818V139.545H522.068V140.795H516.818V144.75H522.523V146H515.409ZM525.79 137.273L527.881 140.841L529.972 137.273H531.517L528.699 141.636L531.517 146H529.972L527.881 142.614L525.79 146H524.244L527.017 141.636L524.244 137.273H525.79ZM536.616 146.182C535.798 146.182 535.094 145.989 534.503 145.602C533.912 145.216 533.457 144.684 533.139 144.006C532.821 143.328 532.662 142.553 532.662 141.682C532.662 140.795 532.825 140.013 533.151 139.335C533.48 138.653 533.938 138.121 534.526 137.739C535.116 137.352 535.806 137.159 536.594 137.159C537.207 137.159 537.76 137.273 538.253 137.5C538.745 137.727 539.149 138.045 539.463 138.455C539.777 138.864 539.973 139.341 540.048 139.886H538.707C538.605 139.489 538.378 139.136 538.026 138.83C537.677 138.519 537.207 138.364 536.616 138.364C536.094 138.364 535.635 138.5 535.241 138.773C534.851 139.042 534.546 139.422 534.327 139.915C534.111 140.403 534.003 140.977 534.003 141.636C534.003 142.311 534.109 142.898 534.321 143.398C534.537 143.898 534.84 144.286 535.23 144.562C535.624 144.839 536.086 144.977 536.616 144.977C536.965 144.977 537.281 144.917 537.565 144.795C537.849 144.674 538.09 144.5 538.287 144.273C538.484 144.045 538.624 143.773 538.707 143.455H540.048C539.973 143.97 539.785 144.434 539.486 144.847C539.19 145.256 538.798 145.581 538.31 145.824C537.825 146.062 537.26 146.182 536.616 146.182ZM545.668 146.182C544.827 146.182 544.101 145.996 543.491 145.625C542.885 145.25 542.418 144.727 542.088 144.057C541.762 143.383 541.599 142.598 541.599 141.705C541.599 140.811 541.762 140.023 542.088 139.341C542.418 138.655 542.876 138.121 543.463 137.739C544.054 137.352 544.743 137.159 545.531 137.159C545.986 137.159 546.435 137.235 546.878 137.386C547.321 137.538 547.724 137.784 548.088 138.125C548.452 138.462 548.741 138.909 548.957 139.466C549.173 140.023 549.281 140.708 549.281 141.523V142.091H542.554V140.932H547.918C547.918 140.439 547.819 140 547.622 139.614C547.429 139.227 547.152 138.922 546.793 138.699C546.437 138.475 546.016 138.364 545.531 138.364C544.997 138.364 544.535 138.496 544.145 138.761C543.759 139.023 543.461 139.364 543.253 139.784C543.045 140.205 542.94 140.655 542.94 141.136V141.909C542.94 142.568 543.054 143.127 543.281 143.585C543.512 144.04 543.832 144.386 544.241 144.625C544.651 144.86 545.126 144.977 545.668 144.977C546.02 144.977 546.338 144.928 546.622 144.83C546.91 144.727 547.158 144.576 547.366 144.375C547.575 144.17 547.736 143.917 547.849 143.614L549.145 143.977C549.009 144.417 548.779 144.803 548.457 145.136C548.135 145.466 547.738 145.723 547.264 145.909C546.791 146.091 546.259 146.182 545.668 146.182ZM551.321 134.364H552.662V143.727C552.662 144.152 552.709 144.449 552.804 144.619C552.899 144.79 553.094 144.871 553.389 144.864C553.548 144.856 553.666 144.845 553.741 144.83C553.821 144.811 553.893 144.792 553.957 144.773L554.23 145.932C554.113 145.966 553.965 145.996 553.787 146.023C553.609 146.053 553.423 146.068 553.23 146.068C552.594 146.068 552.116 145.894 551.798 145.545C551.48 145.197 551.321 144.712 551.321 144.091V134.364ZM555.696 134.364H557.037V143.727C557.037 144.152 557.084 144.449 557.179 144.619C557.274 144.79 557.469 144.871 557.764 144.864C557.923 144.856 558.041 144.845 558.116 144.83C558.196 144.811 558.268 144.792 558.332 144.773L558.605 145.932C558.488 145.966 558.34 145.996 558.162 146.023C557.984 146.053 557.798 146.068 557.605 146.068C556.969 146.068 556.491 145.894 556.173 145.545C555.855 145.197 555.696 144.712 555.696 144.091V134.364ZM563.496 146.182C562.655 146.182 561.929 145.996 561.32 145.625C560.714 145.25 560.246 144.727 559.916 144.057C559.59 143.383 559.428 142.598 559.428 141.705C559.428 140.811 559.59 140.023 559.916 139.341C560.246 138.655 560.704 138.121 561.291 137.739C561.882 137.352 562.571 137.159 563.359 137.159C563.814 137.159 564.263 137.235 564.706 137.386C565.149 137.538 565.553 137.784 565.916 138.125C566.28 138.462 566.57 138.909 566.786 139.466C567.001 140.023 567.109 140.708 567.109 141.523V142.091H560.382V140.932H565.746C565.746 140.439 565.647 140 565.45 139.614C565.257 139.227 564.981 138.922 564.621 138.699C564.265 138.475 563.844 138.364 563.359 138.364C562.825 138.364 562.363 138.496 561.973 138.761C561.587 139.023 561.289 139.364 561.081 139.784C560.873 140.205 560.768 140.655 560.768 141.136V141.909C560.768 142.568 560.882 143.127 561.109 143.585C561.34 144.04 561.661 144.386 562.07 144.625C562.479 144.86 562.954 144.977 563.496 144.977C563.848 144.977 564.166 144.928 564.45 144.83C564.738 144.727 564.986 144.576 565.195 144.375C565.403 144.17 565.564 143.917 565.678 143.614L566.973 143.977C566.837 144.417 566.607 144.803 566.286 145.136C565.964 145.466 565.566 145.723 565.092 145.909C564.619 146.091 564.087 146.182 563.496 146.182ZM570.49 140.75V146H569.149V137.273H570.445V138.636H570.558C570.763 138.193 571.073 137.837 571.49 137.568C571.907 137.295 572.445 137.159 573.104 137.159C573.695 137.159 574.212 137.28 574.655 137.523C575.098 137.761 575.443 138.125 575.689 138.614C575.935 139.098 576.058 139.712 576.058 140.455V146H574.717V140.545C574.717 139.86 574.539 139.326 574.183 138.943C573.827 138.557 573.339 138.364 572.717 138.364C572.289 138.364 571.907 138.456 571.57 138.642C571.236 138.828 570.973 139.098 570.78 139.455C570.587 139.811 570.49 140.242 570.49 140.75ZM582.304 137.273V138.409H577.781V137.273H582.304ZM579.099 135.182H580.44V143.5C580.44 143.879 580.495 144.163 580.605 144.352C580.719 144.538 580.863 144.663 581.037 144.727C581.215 144.788 581.402 144.818 581.599 144.818C581.747 144.818 581.868 144.811 581.963 144.795C582.058 144.777 582.134 144.761 582.19 144.75L582.463 145.955C582.372 145.989 582.245 146.023 582.082 146.057C581.92 146.095 581.713 146.114 581.463 146.114C581.084 146.114 580.713 146.032 580.349 145.869C579.99 145.706 579.69 145.458 579.452 145.125C579.217 144.792 579.099 144.371 579.099 143.864V135.182Z" fill="#E3E3E8"/>
<path d="M94.9318 66V25.2727H109.17C112.008 25.2727 114.348 25.7633 116.19 26.7443C118.033 27.7121 119.405 29.018 120.307 30.6619C121.208 32.2926 121.659 34.1023 121.659 36.0909C121.659 37.8409 121.348 39.286 120.724 40.4261C120.115 41.5663 119.306 42.4678 118.298 43.1307C117.304 43.7936 116.223 44.2841 115.057 44.6023V45C116.303 45.0795 117.556 45.517 118.815 46.3125C120.075 47.108 121.129 48.2481 121.977 49.733C122.826 51.2178 123.25 53.0341 123.25 55.1818C123.25 57.2235 122.786 59.0597 121.858 60.6903C120.93 62.321 119.465 63.6136 117.463 64.5682C115.461 65.5227 112.856 66 109.648 66H94.9318ZM99.8636 61.625H109.648C112.869 61.625 115.156 61.0019 116.509 59.7557C117.874 58.4962 118.557 56.9716 118.557 55.1818C118.557 53.803 118.205 52.5303 117.503 51.3636C116.8 50.1837 115.799 49.2424 114.5 48.5398C113.201 47.8239 111.663 47.4659 109.886 47.4659H99.8636V61.625ZM99.8636 43.1705H109.011C110.496 43.1705 111.835 42.8788 113.028 42.2955C114.235 41.7121 115.189 40.8902 115.892 39.8295C116.608 38.7689 116.966 37.5227 116.966 36.0909C116.966 34.3011 116.343 32.7831 115.097 31.5369C113.85 30.2775 111.875 29.6477 109.17 29.6477H99.8636V43.1705ZM130.717 66V35.4545H135.411V66H130.717ZM133.104 30.3636C132.189 30.3636 131.4 30.0521 130.737 29.429C130.088 28.8059 129.763 28.0568 129.763 27.1818C129.763 26.3068 130.088 25.5578 130.737 24.9347C131.4 24.3116 132.189 24 133.104 24C134.018 24 134.801 24.3116 135.45 24.9347C136.113 25.5578 136.445 26.3068 136.445 27.1818C136.445 28.0568 136.113 28.8059 135.45 29.429C134.801 30.0521 134.018 30.3636 133.104 30.3636ZM156.336 78.0909C154.069 78.0909 152.12 77.7992 150.489 77.2159C148.859 76.6458 147.5 75.8902 146.413 74.9489C145.339 74.0208 144.484 73.0265 143.847 71.9659L147.586 69.3409C148.01 69.8977 148.547 70.5341 149.197 71.25C149.846 71.9792 150.735 72.6089 151.862 73.1392C153.002 73.6828 154.493 73.9545 156.336 73.9545C158.802 73.9545 160.837 73.358 162.441 72.1648C164.045 70.9716 164.847 69.1023 164.847 66.5568V60.3523H164.45C164.105 60.9091 163.614 61.5985 162.978 62.4205C162.355 63.2292 161.453 63.9517 160.273 64.5881C159.107 65.2112 157.529 65.5227 155.54 65.5227C153.075 65.5227 150.861 64.9394 148.898 63.7727C146.95 62.6061 145.405 60.9091 144.265 58.6818C143.138 56.4545 142.575 53.75 142.575 50.5682C142.575 47.4394 143.125 44.715 144.225 42.3949C145.326 40.0616 146.857 38.2585 148.819 36.9858C150.781 35.6998 153.048 35.0568 155.62 35.0568C157.609 35.0568 159.186 35.3883 160.353 36.0511C161.533 36.7008 162.434 37.4432 163.058 38.2784C163.694 39.1004 164.184 39.7765 164.529 40.3068H165.006V35.4545H169.54V66.875C169.54 69.5 168.944 71.6345 167.751 73.2784C166.571 74.9356 164.98 76.1487 162.978 76.9176C160.989 77.6998 158.775 78.0909 156.336 78.0909ZM156.177 61.3068C158.059 61.3068 159.65 60.8759 160.95 60.0142C162.249 59.1525 163.237 57.9129 163.913 56.2955C164.589 54.678 164.927 52.7424 164.927 50.4886C164.927 48.2879 164.595 46.3456 163.933 44.6619C163.27 42.9782 162.289 41.6591 160.989 40.7045C159.69 39.75 158.086 39.2727 156.177 39.2727C154.188 39.2727 152.531 39.7765 151.205 40.7841C149.893 41.7917 148.905 43.1439 148.242 44.8409C147.593 46.5379 147.268 48.4205 147.268 50.4886C147.268 52.6098 147.599 54.4858 148.262 56.1165C148.938 57.7339 149.933 59.0066 151.245 59.9347C152.571 60.8494 154.215 61.3068 156.177 61.3068ZM195.631 46.3523V50.7273H177.813V46.3523H195.631ZM238.889 45.6364C238.889 49.9318 238.114 53.6439 236.562 56.7727C235.011 59.9015 232.884 62.3144 230.179 64.0114C227.474 65.7083 224.385 66.5568 220.912 66.5568C217.438 66.5568 214.349 65.7083 211.645 64.0114C208.94 62.3144 206.813 59.9015 205.261 56.7727C203.71 53.6439 202.935 49.9318 202.935 45.6364C202.935 41.3409 203.71 37.6288 205.261 34.5C206.813 31.3712 208.94 28.9583 211.645 27.2614C214.349 25.5644 217.438 24.7159 220.912 24.7159C224.385 24.7159 227.474 25.5644 230.179 27.2614C232.884 28.9583 235.011 31.3712 236.562 34.5C238.114 37.6288 238.889 41.3409 238.889 45.6364ZM234.116 45.6364C234.116 42.1098 233.527 39.1335 232.347 36.7074C231.18 34.2812 229.596 32.4451 227.594 31.1989C225.605 29.9527 223.378 29.3295 220.912 29.3295C218.446 29.3295 216.212 29.9527 214.21 31.1989C212.222 32.4451 210.637 34.2812 209.457 36.7074C208.291 39.1335 207.707 42.1098 207.707 45.6364C207.707 49.1629 208.291 52.1392 209.457 54.5653C210.637 56.9915 212.222 58.8277 214.21 60.0739C216.212 61.3201 218.446 61.9432 220.912 61.9432C223.378 61.9432 225.605 61.3201 227.594 60.0739C229.596 58.8277 231.18 56.9915 232.347 54.5653C233.527 52.1392 234.116 49.1629 234.116 45.6364ZM295.705 38H290.773C290.481 36.5814 289.971 35.3352 289.241 34.2614C288.526 33.1875 287.651 32.286 286.616 31.5568C285.596 30.8144 284.462 30.2576 283.216 29.8864C281.97 29.5152 280.67 29.3295 279.318 29.3295C276.852 29.3295 274.618 29.9527 272.616 31.1989C270.628 32.4451 269.044 34.2812 267.864 36.7074C266.697 39.1335 266.114 42.1098 266.114 45.6364C266.114 49.1629 266.697 52.1392 267.864 54.5653C269.044 56.9915 270.628 58.8277 272.616 60.0739C274.618 61.3201 276.852 61.9432 279.318 61.9432C280.67 61.9432 281.97 61.7576 283.216 61.3864C284.462 61.0152 285.596 60.465 286.616 59.7358C287.651 58.9934 288.526 58.0852 289.241 57.0114C289.971 55.9242 290.481 54.678 290.773 53.2727H295.705C295.333 55.3542 294.657 57.2169 293.676 58.8608C292.695 60.5047 291.475 61.9034 290.017 63.0568C288.559 64.197 286.921 65.0653 285.105 65.6619C283.302 66.2585 281.373 66.5568 279.318 66.5568C275.845 66.5568 272.756 65.7083 270.051 64.0114C267.347 62.3144 265.219 59.9015 263.668 56.7727C262.116 53.6439 261.341 49.9318 261.341 45.6364C261.341 41.3409 262.116 37.6288 263.668 34.5C265.219 31.3712 267.347 28.9583 270.051 27.2614C272.756 25.5644 275.845 24.7159 279.318 24.7159C281.373 24.7159 283.302 25.0142 285.105 25.6108C286.921 26.2074 288.559 27.0824 290.017 28.2358C291.475 29.3759 292.695 30.768 293.676 32.4119C294.657 34.0426 295.333 35.9053 295.705 38ZM315.447 66.6364C312.689 66.6364 310.27 65.9801 308.188 64.6676C306.12 63.3551 304.503 61.5189 303.336 59.1591C302.183 56.7992 301.606 54.0417 301.606 50.8864C301.606 47.7045 302.183 44.9271 303.336 42.554C304.503 40.1809 306.12 38.3381 308.188 37.0256C310.27 35.7131 312.689 35.0568 315.447 35.0568C318.204 35.0568 320.617 35.7131 322.685 37.0256C324.767 38.3381 326.384 40.1809 327.538 42.554C328.704 44.9271 329.288 47.7045 329.288 50.8864C329.288 54.0417 328.704 56.7992 327.538 59.1591C326.384 61.5189 324.767 63.3551 322.685 64.6676C320.617 65.9801 318.204 66.6364 315.447 66.6364ZM315.447 62.4205C317.541 62.4205 319.265 61.8835 320.617 60.8097C321.969 59.7358 322.97 58.3239 323.62 56.5739C324.27 54.8239 324.594 52.928 324.594 50.8864C324.594 48.8447 324.27 46.9422 323.62 45.179C322.97 43.4157 321.969 41.9905 320.617 40.9034C319.265 39.8163 317.541 39.2727 315.447 39.2727C313.352 39.2727 311.629 39.8163 310.276 40.9034C308.924 41.9905 307.923 43.4157 307.273 45.179C306.624 46.9422 306.299 48.8447 306.299 50.8864C306.299 52.928 306.624 54.8239 307.273 56.5739C307.923 58.3239 308.924 59.7358 310.276 60.8097C311.629 61.8835 313.352 62.4205 315.447 62.4205ZM336.452 66V35.4545H340.986V40.2273H341.384C342.02 38.5966 343.047 37.3305 344.466 36.429C345.884 35.5142 347.588 35.0568 349.577 35.0568C351.592 35.0568 353.269 35.5142 354.608 36.429C355.96 37.3305 357.014 38.5966 357.77 40.2273H358.088C358.87 38.6496 360.044 37.3968 361.608 36.4688C363.172 35.5275 365.048 35.0568 367.236 35.0568C369.967 35.0568 372.201 35.9119 373.938 37.6222C375.674 39.3191 376.543 41.964 376.543 45.5568V66H371.849V45.5568C371.849 43.303 371.233 41.6922 370 40.7244C368.767 39.7566 367.315 39.2727 365.645 39.2727C363.497 39.2727 361.833 39.9223 360.653 41.2216C359.473 42.5076 358.884 44.1383 358.884 46.1136V66H354.111V45.0795C354.111 43.3428 353.547 41.9441 352.42 40.8835C351.294 39.8097 349.842 39.2727 348.065 39.2727C346.846 39.2727 345.705 39.5975 344.645 40.2472C343.598 40.8968 342.749 41.7983 342.099 42.9517C341.463 44.0919 341.145 45.411 341.145 46.9091V66H336.452ZM385.124 77.4545V35.4545H389.658V40.3068H390.214C390.559 39.7765 391.036 39.1004 391.646 38.2784C392.269 37.4432 393.158 36.7008 394.311 36.0511C395.478 35.3883 397.055 35.0568 399.044 35.0568C401.616 35.0568 403.883 35.6998 405.845 36.9858C407.807 38.2718 409.339 40.0947 410.439 42.4545C411.539 44.8144 412.089 47.5985 412.089 50.8068C412.089 54.0417 411.539 56.8456 410.439 59.2188C409.339 61.5786 407.814 63.4081 405.865 64.7074C403.916 65.9934 401.669 66.6364 399.124 66.6364C397.161 66.6364 395.59 66.3116 394.411 65.6619C393.231 64.9991 392.322 64.25 391.686 63.4148C391.05 62.5663 390.559 61.8636 390.214 61.3068H389.817V77.4545H385.124ZM389.737 50.7273C389.737 53.0341 390.075 55.0691 390.751 56.8324C391.428 58.5824 392.415 59.9545 393.714 60.9489C395.014 61.9299 396.605 62.4205 398.487 62.4205C400.449 62.4205 402.087 61.9034 403.399 60.8693C404.725 59.822 405.719 58.4167 406.382 56.6534C407.058 54.8769 407.396 52.9015 407.396 50.7273C407.396 48.5795 407.065 46.6439 406.402 44.9205C405.752 43.1837 404.765 41.8116 403.439 40.804C402.126 39.7831 400.476 39.2727 398.487 39.2727C396.578 39.2727 394.974 39.7566 393.675 40.7244C392.375 41.679 391.394 43.018 390.732 44.7415C390.069 46.4517 389.737 48.447 389.737 50.7273ZM419.249 25.2727H423.942V58.0455C423.942 59.5303 424.107 60.571 424.439 61.1676C424.77 61.7642 425.453 62.0492 426.487 62.0227C427.044 61.9962 427.455 61.9564 427.72 61.9034C427.999 61.8371 428.25 61.7708 428.476 61.7045L429.43 65.7614C429.019 65.8807 428.502 65.9867 427.879 66.0795C427.256 66.1856 426.607 66.2386 425.93 66.2386C423.703 66.2386 422.033 65.6288 420.919 64.4091C419.805 63.1894 419.249 61.4924 419.249 59.3182V25.2727ZM446.548 66.6364C443.604 66.6364 441.066 65.9867 438.931 64.6875C436.81 63.375 435.173 61.5455 434.019 59.1989C432.879 56.839 432.309 54.0947 432.309 50.9659C432.309 47.8371 432.879 45.0795 434.019 42.6932C435.173 40.2936 436.777 38.4242 438.832 37.0852C440.9 35.733 443.313 35.0568 446.07 35.0568C447.661 35.0568 449.232 35.322 450.783 35.8523C452.335 36.3826 453.746 37.2443 455.019 38.4375C456.292 39.6174 457.306 41.1818 458.062 43.1307C458.817 45.0795 459.195 47.4792 459.195 50.3295V52.3182H435.65V48.2614H454.423C454.423 46.5379 454.078 45 453.388 43.6477C452.712 42.2955 451.745 41.2282 450.485 40.446C449.239 39.6638 447.767 39.2727 446.07 39.2727C444.201 39.2727 442.584 39.7367 441.218 40.6648C439.866 41.5795 438.825 42.7727 438.096 44.2443C437.367 45.7159 437.002 47.2936 437.002 48.9773V51.6818C437.002 53.9886 437.4 55.9441 438.195 57.5483C439.004 59.1392 440.124 60.3523 441.556 61.1875C442.988 62.0095 444.652 62.4205 446.548 62.4205C447.781 62.4205 448.894 62.2481 449.888 61.9034C450.896 61.5455 451.764 61.0152 452.494 60.3125C453.223 59.5966 453.786 58.7083 454.184 57.6477L458.718 58.9205C458.241 60.4583 457.439 61.8106 456.312 62.9773C455.185 64.1307 453.793 65.0322 452.136 65.6818C450.478 66.3182 448.616 66.6364 446.548 66.6364ZM469.014 35.4545L476.332 47.9432L483.651 35.4545H489.06L479.196 50.7273L489.06 66H483.651L476.332 54.1477L469.014 66H463.605L473.31 50.7273L463.605 35.4545H469.014ZM495.756 66V35.4545H500.45V66H495.756ZM498.143 30.3636C497.228 30.3636 496.439 30.0521 495.776 29.429C495.127 28.8059 494.802 28.0568 494.802 27.1818C494.802 26.3068 495.127 25.5578 495.776 24.9347C496.439 24.3116 497.228 24 498.143 24C499.058 24 499.84 24.3116 500.489 24.9347C501.152 25.5578 501.484 26.3068 501.484 27.1818C501.484 28.0568 501.152 28.8059 500.489 29.429C499.84 30.0521 499.058 30.3636 498.143 30.3636ZM522.33 35.4545V39.4318H506.5V35.4545H522.33ZM511.114 28.1364H515.807V57.25C515.807 58.5758 515.999 59.5701 516.384 60.233C516.781 60.8826 517.285 61.3201 517.895 61.5455C518.518 61.7576 519.174 61.8636 519.864 61.8636C520.381 61.8636 520.805 61.8371 521.136 61.7841C521.468 61.7178 521.733 61.6648 521.932 61.625L522.886 65.8409C522.568 65.9602 522.124 66.0795 521.554 66.1989C520.984 66.3314 520.261 66.3977 519.386 66.3977C518.061 66.3977 516.761 66.1127 515.489 65.5426C514.229 64.9725 513.182 64.1042 512.347 62.9375C511.525 61.7708 511.114 60.2992 511.114 58.5227V28.1364ZM532.412 77.4545C531.616 77.4545 530.907 77.3883 530.284 77.2557C529.661 77.1364 529.23 77.017 528.991 76.8977L530.185 72.7614C531.325 73.053 532.332 73.1591 533.207 73.0795C534.082 73 534.858 72.6089 535.534 71.9062C536.223 71.2169 536.853 70.0966 537.423 68.5455L538.298 66.1591L527.003 35.4545H532.094L540.526 59.7955H540.844L549.276 35.4545H554.366L541.401 70.4545C540.817 72.0322 540.095 73.3381 539.233 74.3722C538.371 75.4195 537.37 76.1951 536.23 76.6989C535.103 77.2027 533.83 77.4545 532.412 77.4545ZM609.72 38H604.788C604.497 36.5814 603.986 35.3352 603.257 34.2614C602.541 33.1875 601.666 32.286 600.632 31.5568C599.611 30.8144 598.478 30.2576 597.232 29.8864C595.985 29.5152 594.686 29.3295 593.334 29.3295C590.868 29.3295 588.634 29.9527 586.632 31.1989C584.643 32.4451 583.059 34.2812 581.879 36.7074C580.713 39.1335 580.129 42.1098 580.129 45.6364C580.129 49.1629 580.713 52.1392 581.879 54.5653C583.059 56.9915 584.643 58.8277 586.632 60.0739C588.634 61.3201 590.868 61.9432 593.334 61.9432C594.686 61.9432 595.985 61.7576 597.232 61.3864C598.478 61.0152 599.611 60.465 600.632 59.7358C601.666 58.9934 602.541 58.0852 603.257 57.0114C603.986 55.9242 604.497 54.678 604.788 53.2727H609.72C609.349 55.3542 608.673 57.2169 607.692 58.8608C606.711 60.5047 605.491 61.9034 604.033 63.0568C602.574 64.197 600.937 65.0653 599.121 65.6619C597.318 66.2585 595.389 66.5568 593.334 66.5568C589.86 66.5568 586.771 65.7083 584.067 64.0114C581.362 62.3144 579.234 59.9015 577.683 56.7727C576.132 53.6439 575.357 49.9318 575.357 45.6364C575.357 41.3409 576.132 37.6288 577.683 34.5C579.234 31.3712 581.362 28.9583 584.067 27.2614C586.771 25.5644 589.86 24.7159 593.334 24.7159C595.389 24.7159 597.318 25.0142 599.121 25.6108C600.937 26.2074 602.574 27.0824 604.033 28.2358C605.491 29.3759 606.711 30.768 607.692 32.4119C608.673 34.0426 609.349 35.9053 609.72 38ZM621.746 47.625V66H617.053V25.2727H621.746V40.2273H622.144C622.86 38.6496 623.934 37.3968 625.366 36.4688C626.811 35.5275 628.733 35.0568 631.133 35.0568C633.214 35.0568 635.037 35.4744 636.602 36.3097C638.166 37.1316 639.379 38.3977 640.241 40.108C641.116 41.8049 641.553 43.9659 641.553 46.5909V66H636.86V46.9091C636.86 44.483 636.23 42.607 634.971 41.2812C633.725 39.9422 631.995 39.2727 629.781 39.2727C628.243 39.2727 626.864 39.5975 625.644 40.2472C624.438 40.8968 623.483 41.8447 622.781 43.0909C622.091 44.3371 621.746 45.8485 621.746 47.625ZM661.673 66.6364C659.128 66.6364 656.881 65.9934 654.932 64.7074C652.983 63.4081 651.458 61.5786 650.358 59.2188C649.258 56.8456 648.707 54.0417 648.707 50.8068C648.707 47.5985 649.258 44.8144 650.358 42.4545C651.458 40.0947 652.99 38.2718 654.952 36.9858C656.914 35.6998 659.181 35.0568 661.753 35.0568C663.741 35.0568 665.313 35.3883 666.466 36.0511C667.633 36.7008 668.521 37.4432 669.131 38.2784C669.754 39.1004 670.238 39.7765 670.582 40.3068H670.98V35.4545H675.673V66H671.139V61.3068H670.582C670.238 61.8636 669.747 62.5663 669.111 63.4148C668.474 64.25 667.566 64.9991 666.386 65.6619C665.206 66.3116 663.635 66.6364 661.673 66.6364ZM662.31 62.4205C664.192 62.4205 665.783 61.9299 667.082 60.9489C668.382 59.9545 669.369 58.5824 670.045 56.8324C670.722 55.0691 671.06 53.0341 671.06 50.7273C671.06 48.447 670.728 46.4517 670.065 44.7415C669.402 43.018 668.421 41.679 667.122 40.7244C665.823 39.7566 664.219 39.2727 662.31 39.2727C660.321 39.2727 658.664 39.7831 657.338 40.804C656.026 41.8116 655.038 43.1837 654.375 44.9205C653.725 46.6439 653.401 48.5795 653.401 50.7273C653.401 52.9015 653.732 54.8769 654.395 56.6534C655.071 58.4167 656.065 59.822 657.378 60.8693C658.704 61.9034 660.348 62.4205 662.31 62.4205ZM684.92 66V35.4545H689.455V40.0682H689.773C690.33 38.5568 691.337 37.3305 692.795 36.3892C694.254 35.4479 695.898 34.9773 697.727 34.9773C698.072 34.9773 698.503 34.9839 699.02 34.9972C699.537 35.0104 699.928 35.0303 700.193 35.0568V39.8295C700.034 39.7898 699.67 39.7301 699.099 39.6506C698.543 39.5578 697.953 39.5114 697.33 39.5114C695.845 39.5114 694.519 39.8229 693.352 40.446C692.199 41.0559 691.284 41.9044 690.608 42.9915C689.945 44.0653 689.614 45.2917 689.614 46.6705V66H684.92ZM720.955 35.4545V39.4318H705.125V35.4545H720.955ZM709.739 28.1364H714.432V57.25C714.432 58.5758 714.624 59.5701 715.009 60.233C715.406 60.8826 715.91 61.3201 716.52 61.5455C717.143 61.7576 717.799 61.8636 718.489 61.8636C719.006 61.8636 719.43 61.8371 719.761 61.7841C720.093 61.7178 720.358 61.6648 720.557 61.625L721.511 65.8409C721.193 65.9602 720.749 66.0795 720.179 66.1989C719.609 66.3314 718.886 66.3977 718.011 66.3977C716.686 66.3977 715.386 66.1127 714.114 65.5426C712.854 64.9725 711.807 64.1042 710.972 62.9375C710.15 61.7708 709.739 60.2992 709.739 58.5227V28.1364Z" fill="#E3E3E8"/>
<defs>
<clipPath id="clip0_811_162">
<rect width="700" height="422" fill="white" transform="translate(82 182)"/>
</clipPath>
</defs>
</svg>
