<svg width="800" height="104" viewBox="0 0 800 104" fill="none" xmlns="http://www.w3.org/2000/svg">
<rect x="172" y="12" width="80" height="80" rx="4" fill="#161632"/>
<path d="M200.835 69V34.0909H222.722V38.625H206.102V49.2614H221.58V53.7784H206.102V64.4659H222.926V69H200.835Z" fill="#E3E3E8"/>
<rect x="260" y="12" width="80" height="80" rx="4" fill="#161632"/>
<path d="M297.136 69H285.835V34.0909H297.494C300.915 34.0909 303.852 34.7898 306.307 36.1875C308.761 37.5739 310.642 39.5682 311.949 42.1705C313.267 44.7614 313.926 47.8693 313.926 51.4943C313.926 55.1307 313.261 58.2557 311.932 60.8693C310.614 63.483 308.705 65.4943 306.205 66.9034C303.705 68.3011 300.682 69 297.136 69ZM291.102 64.3977H296.847C299.506 64.3977 301.716 63.8977 303.477 62.8977C305.239 61.8864 306.557 60.4261 307.432 58.517C308.307 56.5966 308.744 54.2557 308.744 51.4943C308.744 48.7557 308.307 46.4318 307.432 44.5227C306.568 42.6136 305.278 41.1648 303.562 40.1761C301.847 39.1875 299.716 38.6932 297.17 38.6932H291.102V64.3977Z" fill="#E3E3E8"/>
<rect x="436" y="12" width="80" height="80" rx="4" fill="#161632"/>
<path d="M463.835 69V34.0909H476.619C479.097 34.0909 481.148 34.5 482.773 35.3182C484.398 36.125 485.614 37.2216 486.42 38.608C487.227 39.983 487.631 41.5341 487.631 43.2614C487.631 44.7159 487.364 45.9432 486.83 46.9432C486.295 47.9318 485.58 48.7273 484.682 49.3295C483.795 49.9205 482.818 50.3523 481.75 50.625V50.9659C482.909 51.0227 484.04 51.3977 485.142 52.0909C486.256 52.7727 487.176 53.7443 487.903 55.0057C488.631 56.267 488.994 57.8011 488.994 59.608C488.994 61.392 488.574 62.9943 487.733 64.4148C486.903 65.8239 485.619 66.9432 483.881 67.7727C482.142 68.5909 479.92 69 477.216 69H463.835ZM469.102 64.483H476.705C479.227 64.483 481.034 63.9943 482.125 63.017C483.216 62.0398 483.761 60.8182 483.761 59.3523C483.761 58.25 483.483 57.2386 482.926 56.3182C482.369 55.3977 481.574 54.6648 480.54 54.1193C479.517 53.5739 478.301 53.3011 476.892 53.3011H469.102V64.483ZM469.102 49.1932H476.159C477.341 49.1932 478.403 48.9659 479.347 48.5114C480.301 48.0568 481.057 47.4205 481.614 46.6023C482.182 45.7727 482.466 44.7955 482.466 43.6705C482.466 42.2273 481.96 41.017 480.949 40.0398C479.938 39.0625 478.386 38.5739 476.295 38.5739H469.102V49.1932Z" fill="#E3E3E8"/>
<rect x="348" y="12" width="80" height="80" rx="4" fill="#161632"/>
<path d="M402.83 45.4432H397.511C397.307 44.3068 396.926 43.3068 396.369 42.4432C395.813 41.5795 395.131 40.8466 394.324 40.2443C393.517 39.642 392.614 39.1875 391.614 38.8807C390.625 38.5739 389.574 38.4205 388.46 38.4205C386.449 38.4205 384.648 38.9261 383.057 39.9375C381.477 40.9489 380.227 42.4318 379.307 44.3864C378.398 46.3409 377.943 48.7273 377.943 51.5455C377.943 54.3864 378.398 56.7841 379.307 58.7386C380.227 60.6932 381.483 62.1705 383.074 63.1705C384.665 64.1705 386.455 64.6705 388.443 64.6705C389.545 64.6705 390.591 64.5227 391.58 64.2273C392.58 63.9205 393.483 63.4716 394.29 62.8807C395.097 62.2898 395.778 61.5682 396.335 60.7159C396.903 59.8523 397.295 58.8636 397.511 57.75L402.83 57.767C402.545 59.483 401.994 61.0625 401.176 62.5057C400.369 63.9375 399.33 65.1761 398.057 66.2216C396.795 67.2557 395.352 68.0568 393.727 68.625C392.102 69.1932 390.33 69.4773 388.409 69.4773C385.386 69.4773 382.693 68.7614 380.33 67.3295C377.966 65.8864 376.102 63.8239 374.739 61.142C373.386 58.4602 372.71 55.2614 372.71 51.5455C372.71 47.8182 373.392 44.6193 374.756 41.9489C376.119 39.267 377.983 37.2102 380.347 35.7784C382.71 34.3352 385.398 33.6136 388.409 33.6136C390.261 33.6136 391.989 33.8807 393.591 34.4148C395.205 34.9375 396.653 35.7102 397.938 36.733C399.222 37.7443 400.284 38.983 401.125 40.4489C401.966 41.9034 402.534 43.5682 402.83 45.4432Z" fill="#E3E3E8"/>
<rect x="524" y="12" width="80" height="80" rx="4" fill="#161632"/>
<path d="M553.784 69H548.193L560.756 34.0909H566.841L579.403 69H573.812L563.943 40.4318H563.67L553.784 69ZM554.722 55.3295H572.858V59.7614H554.722V55.3295Z" fill="#E3E3E8"/>
<path d="M100 50.5C99.1716 50.5 98.5 51.1716 98.5 52C98.5 52.8284 99.1716 53.5 100 53.5V50.5ZM164 52L149 43.3397V60.6603L164 52ZM100 53.5H150.5V50.5H100V53.5Z" fill="#E3E3E8"/>
<path d="M612 50.5C611.172 50.5 610.5 51.1716 610.5 52C610.5 52.8284 611.172 53.5 612 53.5V50.5ZM676 52L661 43.3397V60.6603L676 52ZM612 53.5H662.5V50.5H612V53.5Z" fill="#E3E3E8"/>
<path d="M59.9318 41.6364V62H57.4659V41.6364H59.9318ZM81.0238 41.6364V62H78.6374L67.5408 46.0114H67.342V62H64.8761V41.6364H67.2624L78.3988 57.6648H78.5977V41.6364H81.0238Z" fill="#C7C7D1"/>
<path d="M703.648 51.8182C703.648 53.9659 703.26 55.822 702.484 57.3864C701.709 58.9508 700.645 60.1572 699.293 61.0057C697.94 61.8542 696.396 62.2784 694.659 62.2784C692.922 62.2784 691.378 61.8542 690.026 61.0057C688.673 60.1572 687.609 58.9508 686.834 57.3864C686.058 55.822 685.67 53.9659 685.67 51.8182C685.67 49.6705 686.058 47.8144 686.834 46.25C687.609 44.6856 688.673 43.4792 690.026 42.6307C691.378 41.7822 692.922 41.358 694.659 41.358C696.396 41.358 697.94 41.7822 699.293 42.6307C700.645 43.4792 701.709 44.6856 702.484 46.25C703.26 47.8144 703.648 49.6705 703.648 51.8182ZM701.261 51.8182C701.261 50.0549 700.966 48.5668 700.376 47.3537C699.793 46.1406 699.001 45.2225 698 44.5994C697.006 43.9763 695.892 43.6648 694.659 43.6648C693.426 43.6648 692.309 43.9763 691.308 44.5994C690.314 45.2225 689.522 46.1406 688.932 47.3537C688.348 48.5668 688.057 50.0549 688.057 51.8182C688.057 53.5814 688.348 55.0696 688.932 56.2827C689.522 57.4957 690.314 58.4138 691.308 59.0369C692.309 59.66 693.426 59.9716 694.659 59.9716C695.892 59.9716 697.006 59.66 698 59.0369C699.001 58.4138 699.793 57.4957 700.376 56.2827C700.966 55.0696 701.261 53.5814 701.261 51.8182ZM721.158 41.6364H723.624V55.1193C723.624 56.5114 723.295 57.7543 722.639 58.848C721.99 59.9351 721.071 60.7936 719.885 61.4233C718.698 62.0464 717.306 62.358 715.709 62.358C714.111 62.358 712.719 62.0464 711.533 61.4233C710.346 60.7936 709.425 59.9351 708.768 58.848C708.119 57.7543 707.794 56.5114 707.794 55.1193V41.6364H710.26V54.9205C710.26 55.9148 710.479 56.7997 710.916 57.5753C711.354 58.3442 711.977 58.9508 712.786 59.3949C713.601 59.8324 714.575 60.0511 715.709 60.0511C716.842 60.0511 717.817 59.8324 718.632 59.3949C719.447 58.9508 720.071 58.3442 720.501 57.5753C720.939 56.7997 721.158 55.9148 721.158 54.9205V41.6364ZM727.434 43.8239V41.6364H742.707V43.8239H736.304V62H733.838V43.8239H727.434Z" fill="#C7C7D1"/>
</svg>
