<svg width="512" height="512" viewBox="0 0 512 512" fill="none" xmlns="http://www.w3.org/2000/svg">
<rect width="512" height="512" fill="#181823"/>
<path d="M287 256C287 268.196 277.15 278.082 265 278.082H255.366C258.55 287.798 260.387 297.95 260.791 308.252C261.529 327.129 257.431 345.881 248.886 362.713C240.342 379.546 227.637 393.896 211.988 404.392C196.339 414.888 178.269 421.177 159.506 422.66C140.743 424.142 121.915 420.767 104.823 412.858C87.7311 404.949 72.9467 392.77 61.884 377.486L61.1475 376.467C53.3375 367.124 54.5515 353.196 63.8592 345.356C73.1668 337.517 87.0434 338.736 94.8534 348.078L97.4807 351.526C104.118 360.696 112.989 368.004 123.244 372.749C133.499 377.495 144.796 379.52 156.054 378.63C167.312 377.741 178.154 373.967 187.543 367.67C196.933 361.372 204.555 352.762 209.682 342.663C214.809 332.563 217.268 321.312 216.825 309.986C216.563 303.303 215.296 296.726 213.089 290.471C211.556 286.125 209.568 281.934 207.149 277.972C201.667 268.993 194.138 261.465 185.196 256C194.139 250.536 201.668 243.007 207.15 234.028C209.569 230.066 211.556 225.876 213.09 221.53C215.297 215.275 216.564 208.697 216.825 202.014C217.269 190.688 214.809 179.437 209.683 169.337C204.556 159.238 196.933 150.627 187.544 144.33C178.154 138.033 167.312 134.259 156.055 133.37C144.797 132.48 133.5 134.505 123.245 139.251C112.99 143.996 104.119 151.303 97.4813 160.474L94.8536 163.922C87.0436 173.264 73.167 174.483 63.8594 166.643C54.5518 158.804 53.3378 144.875 61.1478 135.533L61.8847 134.514C72.9474 119.23 87.7318 107.051 104.824 99.1422C121.916 91.2331 140.744 87.8582 159.507 89.3404C178.27 90.8226 196.34 97.1124 211.989 107.608C227.638 118.104 240.342 132.454 248.887 149.287C257.431 166.119 261.53 184.871 260.791 203.748C260.388 214.05 258.551 224.202 255.367 233.917H265C277.15 233.917 287 243.804 287 256Z" fill="#5395FD"/>
<path d="M285.893 342.631C282.159 359.581 275.319 375.365 266 389.354C286.029 409.517 313.769 422 344.422 422C405.492 422 455 372.453 455 311.333V200.667C455 139.547 405.492 90 344.422 90C313.769 90 286.029 102.483 266 122.646C275.319 136.635 282.159 152.419 285.893 169.369C297.069 148.478 319.087 134.267 344.422 134.267C381.064 134.267 410.769 163.995 410.769 200.667V311.333C410.769 348.005 381.064 377.733 344.422 377.733C319.087 377.733 297.069 363.522 285.893 342.631Z" fill="#5395FD"/>
</svg>
