<svg width="48" height="48" viewBox="0 0 48 48" fill="none" xmlns="http://www.w3.org/2000/svg">
<rect width="48" height="48" fill="#F05133"/>
<path d="M21.078 15.2096L16.5906 10.7222L14.8521 12.4599L19.2758 16.8844C18.8222 17.9707 19.035 19.2693 19.9195 20.1535C20.2092 20.4439 20.5425 20.6601 20.8992 20.8062V31.5204C20.5425 31.6664 20.2083 31.8847 19.9195 32.1731C18.7517 33.3405 18.7517 35.2327 19.9195 36.4023C21.0865 37.5697 22.9801 37.5697 24.1479 36.4023C25.3157 35.2332 25.3157 33.3409 24.1479 32.1731C23.9109 31.9361 23.6421 31.7484 23.3576 31.6074V20.9922L27.3919 25.026C26.9464 26.1081 27.1638 27.399 28.042 28.2781C29.2111 29.4463 31.1034 29.4463 32.2721 28.2781C33.4399 27.1094 33.4399 25.2171 32.2721 24.0493C31.4363 23.2123 30.2295 22.9787 29.1827 23.3397L24.8571 19.0145C25.2185 17.9677 24.984 16.7617 24.1479 15.9251C23.3168 15.0936 22.121 14.8571 21.078 15.2096Z" fill="white"/>
</svg>
