<svg width="48" height="48" viewBox="0 0 48 48" fill="none" xmlns="http://www.w3.org/2000/svg">
<rect width="48" height="48" fill="#3C77A9"/>
<path fill-rule="evenodd" clip-rule="evenodd" d="M22.7195 12.3621C22.3788 12.3621 22.0523 12.4984 21.8129 12.7408L20.4092 14.1614C20.1735 14.4 20.0413 14.7218 20.0413 15.0572V19.5645C20.0413 19.9869 19.6989 20.3292 19.2766 20.3292C18.8543 20.3292 18.5119 19.9869 18.5119 19.5645V15.0572C18.5119 14.3194 18.8027 13.6113 19.3213 13.0865L20.7249 11.6658C21.2517 11.1327 21.97 10.8326 22.7195 10.8326H25.5508C26.3575 10.8326 27.1252 11.1801 27.6575 11.7863L29.1324 13.4655C29.5817 13.9772 29.8296 14.6349 29.8296 15.3158V16.5142C29.8296 16.9366 29.4872 17.2789 29.0649 17.2789C28.6425 17.2789 28.3001 16.9366 28.3001 16.5142V15.3158C28.3001 15.0063 28.1875 14.7074 27.9833 14.4748L26.5084 12.7955C26.2664 12.52 25.9175 12.3621 25.5508 12.3621H22.7195Z" fill="white"/>
<path fill-rule="evenodd" clip-rule="evenodd" d="M22.6855 25.076C22.3475 25.076 22.0233 25.2103 21.7843 25.4493L20.3878 26.8458C20.1488 27.0848 20.0145 27.409 20.0145 27.747V33.0364C20.0145 33.3485 20.1291 33.6498 20.3365 33.8831L21.5161 35.2102C21.758 35.4823 22.1046 35.638 22.4687 35.638H25.6718C25.9839 35.638 26.2852 35.5234 26.5185 35.3161L27.8456 34.1364C28.1177 33.8946 28.2734 33.5479 28.2734 33.1838V29.4933C28.2734 29.071 28.6157 28.7286 29.0381 28.7286C29.4604 28.7286 29.8028 29.071 29.8028 29.4933V33.1838C29.8028 33.9847 29.4603 34.7474 28.8617 35.2795L27.5346 36.4592C27.0213 36.9154 26.3585 37.1674 25.6718 37.1674H22.4687C21.6678 37.1674 20.9051 36.8249 20.373 36.2263L19.1934 34.8992C18.7371 34.3859 18.4851 33.7231 18.4851 33.0364V27.747C18.4851 27.0034 18.7805 26.2902 19.3064 25.7643L20.7028 24.3679C21.2287 23.842 21.9419 23.5466 22.6855 23.5466H26.4471C26.8694 23.5466 27.2118 23.889 27.2118 24.3113C27.2118 24.7337 26.8694 25.076 26.4471 25.076H22.6855Z" fill="white"/>
<path fill-rule="evenodd" clip-rule="evenodd" d="M30.2595 20.7577C30.0072 20.7577 29.8028 20.9622 29.8028 21.2144C29.8028 21.7411 29.5935 22.2463 29.221 22.6188L26.9878 24.8521C26.6892 25.1507 26.205 25.1507 25.9063 24.8521C25.6077 24.5534 25.6077 24.0692 25.9063 23.7706L28.1396 21.5373C28.2252 21.4517 28.2734 21.3355 28.2734 21.2144C28.2734 20.1175 29.1626 19.2283 30.2595 19.2283H33.3754C34.119 19.2283 34.8322 19.5237 35.3581 20.0495L36.1788 20.8702C36.7046 21.396 37 22.1092 37 22.8529V25.977C37 26.7855 36.651 27.5547 36.0425 28.0872L35.0124 28.9885C34.5012 29.4357 33.8452 29.6823 33.166 29.6823H25.0076C24.5853 29.6823 24.2429 29.3399 24.2429 28.9176C24.2429 28.4952 24.5853 28.1528 25.0076 28.1528H33.166C33.4747 28.1528 33.7729 28.0408 34.0053 27.8375L35.0354 26.9362C35.3119 26.6941 35.4706 26.3445 35.4706 25.977V22.8529C35.4706 22.5149 35.3363 22.1907 35.0973 21.9517L34.2766 21.131C34.0376 20.892 33.7134 20.7577 33.3754 20.7577H30.2595Z" fill="white"/>
<path fill-rule="evenodd" clip-rule="evenodd" d="M13.2682 19.6487C13.7815 19.1924 14.4443 18.9404 15.131 18.9404H24.144C24.5663 18.9404 24.9087 19.2828 24.9087 19.7051C24.9087 20.1275 24.5663 20.4698 24.144 20.4698H15.131C14.8189 20.4698 14.5176 20.5844 14.2843 20.7918L12.9572 21.9714C12.6851 22.2133 12.5294 22.5599 12.5294 22.924V25.7698C12.5294 26.1078 12.6637 26.432 12.9027 26.671L14.2992 28.0675C14.5382 28.3065 14.8624 28.4408 15.2004 28.4408H19.049C19.4713 28.4408 19.8137 28.7832 19.8137 29.2055C19.8137 29.6278 19.4713 29.9702 19.049 29.9702H15.2004C14.4567 29.9702 13.7435 29.6748 13.2177 29.1489L11.8212 27.7525C11.2954 27.2266 11 26.5135 11 25.7698V22.924C11 22.1231 11.3425 21.3604 11.9411 20.8283L13.2682 19.6487Z" fill="white"/>
<path d="M21.7806 14.8388C21.7806 14.5572 22.0088 14.329 22.2904 14.329H22.9981C23.2797 14.329 23.5079 14.5572 23.5079 14.8388V15.5465C23.5079 15.8281 23.2797 16.0563 22.9981 16.0563H22.2904C22.0088 16.0563 21.7806 15.8281 21.7806 15.5465V14.8388Z" fill="white"/>
<path d="M24.7197 32.3062C24.7197 32.0246 24.948 31.7964 25.2295 31.7964H25.9372C26.2188 31.7964 26.4471 32.0246 26.4471 32.3062V33.0139C26.4471 33.2955 26.2188 33.5237 25.9372 33.5237H25.2295C24.948 33.5237 24.7197 33.2955 24.7197 33.0139V32.3062Z" fill="white"/>
</svg>
