<svg width="48" height="48" viewBox="0 0 48 48" fill="none" xmlns="http://www.w3.org/2000/svg">
<rect width="48" height="48" fill="#1F253D"/>
<path fill-rule="evenodd" clip-rule="evenodd" d="M19.8562 27.6563C19.8562 27.2524 20.1836 26.925 20.5875 26.925H23.7562C24.1601 26.925 24.4875 27.2524 24.4875 27.6563C24.4875 28.0602 24.1601 28.3875 23.7562 28.3875H20.5875C20.1836 28.3875 19.8562 28.0602 19.8562 27.6563Z" fill="#EDF0FC"/>
<path fill-rule="evenodd" clip-rule="evenodd" d="M26.1937 27.6563C26.1937 27.2524 26.5211 26.925 26.925 26.925H29.85C30.2538 26.925 30.5812 27.2524 30.5812 27.6563C30.5812 28.0602 30.2538 28.3875 29.85 28.3875H26.925C26.5211 28.3875 26.1937 28.0602 26.1937 27.6563Z" fill="#EDF0FC"/>
<path fill-rule="evenodd" clip-rule="evenodd" d="M24.4875 23.2688C24.4875 22.865 24.8149 22.5376 25.2187 22.5376H34.4812C34.8851 22.5376 35.2125 22.865 35.2125 23.2688C35.2125 23.6727 34.8851 24.0001 34.4812 24.0001H25.2187C24.8149 24.0001 24.4875 23.6727 24.4875 23.2688Z" fill="#EDF0FC"/>
<path fill-rule="evenodd" clip-rule="evenodd" d="M29.3921 18.608C29.6776 18.8935 29.6776 19.3565 29.3921 19.6421L12.3296 36.7046C12.044 36.9902 11.581 36.9902 11.2954 36.7046C11.0099 36.419 11.0099 35.956 11.2954 35.6705L28.3579 18.608C28.6435 18.3224 29.1065 18.3224 29.3921 18.608Z" fill="#EDF0FC"/>
<path fill-rule="evenodd" clip-rule="evenodd" d="M23.1792 13.4372C24.6886 11.9287 26.7358 11.0813 28.8702 11.0813C31.0047 11.0813 33.0518 11.9287 34.5612 13.4372C36.0707 14.9458 36.9188 16.9919 36.9188 19.1255C36.9188 21.2591 36.0707 23.3052 34.5612 24.8138C34.2756 25.0993 33.8126 25.0991 33.5271 24.8135C33.2416 24.5278 33.2418 24.0648 33.5274 23.7793C34.7625 22.545 35.4563 20.871 35.4563 19.1255C35.4563 17.3801 34.7625 15.706 33.5274 14.4717C32.2923 13.2373 30.6171 12.5438 28.8702 12.5438C27.1234 12.5438 25.4481 13.2373 24.2131 14.4717C23.9274 14.7572 23.4644 14.757 23.1789 14.4714C22.8934 14.1857 22.8936 13.7227 23.1792 13.4372Z" fill="#EDF0FC"/>
<path fill-rule="evenodd" clip-rule="evenodd" d="M24.2133 13.4376C24.4988 13.7233 24.4987 14.1863 24.213 14.4717L18.129 20.5522C16.8939 21.7866 16.2 23.4611 16.2 25.2072V31.8001H22.7951C24.5433 31.8001 26.2196 31.1045 27.4543 29.8669L33.5266 23.7802C33.8118 23.4943 34.2748 23.4937 34.5608 23.7789C34.8467 24.0642 34.8472 24.5272 34.562 24.8131L28.4896 30.8999C26.9806 32.4125 24.9317 33.2626 22.7951 33.2626H16.2C15.3923 33.2626 14.7375 32.6078 14.7375 31.8001V25.2072C14.7375 23.0731 15.5856 21.0264 17.0951 19.5178L23.1792 13.4373C23.4648 13.1518 23.9278 13.1519 24.2133 13.4376Z" fill="#EDF0FC"/>
</svg>
