<svg width="48" height="48" viewBox="0 0 48 48" fill="none" xmlns="http://www.w3.org/2000/svg">
<rect width="48" height="48" fill="#3F4DE4"/>
<path d="M24 36.3169C23.3803 36.3169 22.838 36.1103 22.3732 35.6972C21.9084 35.2324 21.6761 34.6901 21.6761 34.0704C21.6761 33.8639 22.0892 31.1268 22.9155 25.8592C18.784 29.216 16.615 30.946 16.4085 31.0493C16.0986 31.2042 15.7629 31.2817 15.4014 31.2817C14.5235 31.2817 13.8263 30.8944 13.3099 30.1197C13.1033 29.7582 13 29.3451 13 28.8803C13 28.0024 13.3615 27.3826 14.0845 27.0211L21.831 24L14.0845 20.9789C13.3615 20.5657 13 19.9202 13 19.0423C13 18.5775 13.1033 18.1643 13.3099 17.8028C13.8263 17.0282 14.4977 16.6409 15.3239 16.6409C15.6854 16.6409 16.0469 16.7441 16.4085 16.9507C16.615 17.054 18.784 18.784 22.9155 22.1408C22.0892 16.8732 21.6761 14.1362 21.6761 13.9296C21.6761 13.3099 21.9084 12.7934 22.3732 12.3803C22.838 11.9155 23.3803 11.6831 24 11.6831C24.6197 11.6831 25.162 11.9155 25.6268 12.3803C26.0915 12.7934 26.3239 13.3099 26.3239 13.9296C26.3239 14.1362 25.9108 16.8732 25.0845 22.1408C29.216 18.784 31.385 17.054 31.5915 16.9507C31.8498 16.7441 32.2113 16.6409 32.6761 16.6409C33.5023 16.6409 34.1737 17.0282 34.6901 17.8028C34.8967 18.216 35 18.6033 35 18.9648C35 19.8427 34.6385 20.5141 33.9155 20.9789L26.169 24L33.9155 27.0211C34.6385 27.4343 35 28.0798 35 28.9578C35 29.3193 34.8967 29.7066 34.6901 30.1197C34.1737 30.8944 33.4765 31.2817 32.5986 31.2817C32.2371 31.2817 31.9014 31.2042 31.5915 31.0493C31.385 30.946 29.216 29.216 25.0845 25.8592C25.9108 31.1268 26.3239 33.8639 26.3239 34.0704C26.3239 34.6901 26.0915 35.2324 25.6268 35.6972C25.162 36.1103 24.6197 36.3169 24 36.3169Z" fill="white"/>
</svg>
