<svg width="52" height="52" viewBox="0 0 52 52" fill="none" xmlns="http://www.w3.org/2000/svg">
<g clip-path="url(#clip0_820_163)">
<rect width="52" height="52" fill="#F6D854"/>
<path d="M18.7797 34.6187C17.6522 34.6187 16.6962 34.3899 15.9119 33.9323C15.1439 33.4748 14.5066 32.7966 14 31.8979L15.9609 30.4517C16.2877 31.04 16.6636 31.473 17.0884 31.7508C17.5133 32.0123 17.9708 32.143 18.4611 32.143C19.2127 32.143 19.7765 31.9142 20.1523 31.4567C20.5282 30.9992 20.7161 30.1985 20.7161 29.0546V18.2941H23.5594V29.2997C23.5594 30.035 23.4695 30.7295 23.2898 31.3832C23.11 32.0205 22.8241 32.5842 22.4319 33.0744C22.0397 33.5483 21.5413 33.9242 20.9367 34.202C20.3321 34.4798 19.6131 34.6187 18.7797 34.6187Z" fill="#392F31"/>
<path d="M32.2398 34.6187C31.1613 34.6187 30.1155 34.4144 29.1024 34.0059C28.1056 33.5974 27.2232 33.0173 26.4552 32.2656L28.1219 30.3292C28.6939 30.8684 29.3475 31.3096 30.0829 31.6528C30.8182 31.9796 31.5535 32.143 32.2889 32.143C33.204 32.143 33.8984 31.9551 34.3723 31.5793C34.8462 31.2034 35.0832 30.705 35.0832 30.0841C35.0832 29.7572 35.0178 29.4795 34.8871 29.2507C34.7727 29.0219 34.6011 28.8258 34.3723 28.6624C34.1599 28.4827 33.8984 28.3193 33.588 28.1722C33.2938 28.0251 32.967 27.8781 32.6075 27.731L30.4015 26.775C30.0093 26.6116 29.6171 26.4074 29.225 26.1623C28.8491 25.9171 28.506 25.623 28.1955 25.2799C27.885 24.9367 27.6317 24.5363 27.4356 24.0788C27.2559 23.6213 27.166 23.0983 27.166 22.5101C27.166 21.8728 27.2967 21.2845 27.5582 20.7453C27.836 20.1897 28.2118 19.7076 28.6857 19.2991C29.1596 18.8906 29.7234 18.5719 30.377 18.3432C31.047 18.1144 31.7741 18 32.5585 18C33.4899 18 34.3887 18.1879 35.2547 18.5638C36.1208 18.9233 36.8643 19.4135 37.4853 20.0344L36.0391 21.8483C35.5162 21.4234 34.9769 21.0884 34.4214 20.8433C33.8658 20.5982 33.2448 20.4756 32.5585 20.4756C31.7905 20.4756 31.1777 20.6472 30.7201 20.9904C30.2626 21.3172 30.0338 21.7747 30.0338 22.363C30.0338 22.6735 30.0992 22.9431 30.2299 23.1719C30.377 23.3843 30.5649 23.5804 30.7937 23.7602C31.0388 23.9236 31.3166 24.0788 31.6271 24.2259C31.9375 24.3566 32.2562 24.4873 32.583 24.618L34.7645 25.525C35.2384 25.7211 35.6714 25.9498 36.0636 26.2113C36.4558 26.4727 36.7908 26.775 37.0686 27.1182C37.3627 27.4614 37.5915 27.8617 37.7549 28.3193C37.9183 28.7605 38 29.2752 38 29.8635C38 30.5171 37.8693 31.1299 37.6078 31.7018C37.3464 32.2737 36.9624 32.7803 36.4558 33.2215C35.9656 33.6464 35.361 33.9895 34.642 34.251C33.9393 34.4961 33.1386 34.6187 32.2398 34.6187Z" fill="#392F31"/>
</g>
<defs>
<clipPath id="clip0_820_163">
<rect width="52" height="52" fill="white"/>
</clipPath>
</defs>
</svg>
