<svg width="48" height="48" viewBox="0 0 48 48" fill="none" xmlns="http://www.w3.org/2000/svg">
<rect width="48" height="48" fill="#333333"/>
<path d="M24 37.8937C23.6171 37.8937 23.2597 37.7916 22.9278 37.6129L19.5326 35.5962C19.022 35.3154 19.2773 35.2133 19.4305 35.1622C20.1197 34.9324 20.2474 34.8814 20.9622 34.4729C21.0387 34.4219 21.1408 34.4474 21.2174 34.4985L23.8213 36.0557C23.9234 36.1067 24.0511 36.1067 24.1276 36.0557L34.3134 30.1587C34.4155 30.1076 34.4665 30.0055 34.4665 29.8779V18.1094C34.4665 17.9818 34.4155 17.8796 34.3134 17.8286L24.1276 11.9571C24.0255 11.9061 23.8979 11.9061 23.8213 11.9571L13.6356 17.8286C13.5335 17.8796 13.4824 18.0073 13.4824 18.1094V29.8779C13.4824 29.98 13.5335 30.1076 13.6356 30.1587L16.4181 31.767C17.9243 32.5328 18.8688 31.6393 18.8688 30.7458V19.1305C18.8688 18.9774 18.9965 18.8242 19.1752 18.8242H20.4771C20.6303 18.8242 20.7835 18.9518 20.7835 19.1305V30.7458C20.7835 32.7626 19.6857 33.9368 17.7711 33.9368C17.184 33.9368 16.7245 33.9368 15.4225 33.2986L12.7421 31.767C12.0784 31.384 11.6699 30.6692 11.6699 29.9034V18.1349C11.6699 17.3691 12.0784 16.6543 12.7421 16.2714L22.9278 10.3744C23.566 10.017 24.434 10.017 25.0722 10.3744L35.2579 16.2714C35.9216 16.6543 36.3301 17.3691 36.3301 18.1349V29.9034C36.3301 30.6692 35.9216 31.384 35.2579 31.767L25.0722 37.664C24.7403 37.8171 24.3574 37.8937 24 37.8937ZM27.14 29.8013C22.6725 29.8013 21.7535 27.759 21.7535 26.0231C21.7535 25.87 21.8812 25.7168 22.0599 25.7168H23.3873C23.5405 25.7168 23.6681 25.8189 23.6681 25.9721C23.8724 27.3251 24.4595 27.9888 27.1655 27.9888C29.3099 27.9888 30.2289 27.5038 30.2289 26.355C30.2289 25.6913 29.9736 25.2062 26.6294 24.8744C23.8468 24.5935 22.1109 23.9809 22.1109 21.7599C22.1109 19.6921 23.8468 18.4668 26.757 18.4668C30.0246 18.4668 31.6329 19.59 31.8371 22.0407C31.8371 22.1173 31.8116 22.1939 31.7606 22.2705C31.7095 22.3215 31.6329 22.3726 31.5563 22.3726H30.2289C30.1012 22.3726 29.9736 22.2705 29.9481 22.1428C29.6417 20.7388 28.8503 20.2793 26.757 20.2793C24.4085 20.2793 24.1276 21.0962 24.1276 21.7089C24.1276 22.4492 24.4595 22.6789 27.625 23.0874C30.765 23.4958 32.2456 24.083 32.2456 26.2784C32.2201 28.5249 30.382 29.8013 27.14 29.8013Z" fill="#539E43"/>
</svg>
