<svg width="48" height="48" viewBox="0 0 48 48" fill="none" xmlns="http://www.w3.org/2000/svg">
<rect width="48" height="48" fill="#282C34"/>
<path d="M38.1375 24.0028C38.1375 22.1297 35.7918 20.3546 32.1955 19.2538C33.0254 15.5883 32.6566 12.6721 31.0313 11.7384C30.6567 11.5194 30.2187 11.4157 29.7403 11.4157V12.7009C30.0054 12.7009 30.2187 12.7528 30.3973 12.8507C31.1811 13.3003 31.5212 15.012 31.2561 17.2136C31.1927 17.7554 31.0889 18.3259 30.9621 18.908C29.8325 18.6314 28.5992 18.4181 27.3024 18.2798C26.5243 17.2136 25.7175 16.2454 24.9048 15.3982C26.7837 13.6519 28.5473 12.6951 29.7461 12.6951V11.4099C28.1611 11.4099 26.0863 12.5395 23.9885 14.4991C21.8906 12.5511 19.8158 11.433 18.2309 11.433V12.7182C19.4239 12.7182 21.1933 13.6691 23.0721 15.4039C22.2652 16.2511 21.4584 17.2136 20.6918 18.2798C19.3893 18.4181 18.156 18.6314 17.0263 18.9138C16.8938 18.3375 16.7958 17.7784 16.7267 17.2424C16.4558 15.0408 16.7901 13.3291 17.5681 12.8738C17.741 12.7701 17.9658 12.724 18.2309 12.724V11.4387C17.7468 11.4387 17.3088 11.5425 16.9284 11.7615C15.3089 12.6951 14.9458 15.6056 15.7815 19.2596C12.1967 20.3662 9.8625 22.1355 9.8625 24.0028C9.8625 25.8759 12.2082 27.651 15.8045 28.7518C14.9746 32.4173 15.3435 35.3336 16.9687 36.2672C17.3433 36.4863 17.7813 36.59 18.2655 36.59C19.8504 36.59 21.9252 35.4604 24.0231 33.5008C26.1209 35.4488 28.1957 36.5669 29.7806 36.5669C30.2648 36.5669 30.7028 36.4632 31.0832 36.2442C32.7027 35.3105 33.0658 32.4 32.2301 28.7461C35.8033 27.6453 38.1375 25.8702 38.1375 24.0028ZM30.6336 20.1587C30.4204 20.9022 30.1553 21.6687 29.8556 22.4352C29.6193 21.9741 29.3714 21.5131 29.1006 21.052C28.8355 20.5909 28.5531 20.1414 28.2706 19.7034C29.089 19.8244 29.8786 19.9743 30.6336 20.1587ZM27.994 26.2966C27.5445 27.0747 27.0834 27.8124 26.605 28.4982C25.7463 28.5732 24.876 28.6135 24 28.6135C23.1297 28.6135 22.2595 28.5732 21.4065 28.504C20.9281 27.8182 20.4613 27.0862 20.0118 26.3139C19.5737 25.5589 19.1761 24.7924 18.813 24.0201C19.1703 23.2478 19.5738 22.4755 20.006 21.7205C20.4555 20.9425 20.9166 20.2048 21.395 19.5189C22.2537 19.444 23.124 19.4037 24 19.4037C24.8703 19.4037 25.7405 19.444 26.5935 19.5132C27.0719 20.199 27.5387 20.931 27.9882 21.7033C28.4263 22.4583 28.8239 23.2248 29.187 23.9971C28.8239 24.7694 28.4263 25.5416 27.994 26.2966ZM29.8556 25.5474C30.1668 26.3197 30.4319 27.092 30.6509 27.8412C29.8959 28.0257 29.1006 28.1813 28.2764 28.3023C28.5588 27.8585 28.8412 27.4032 29.1063 26.9364C29.3714 26.4753 29.6193 26.0085 29.8556 25.5474ZM24.0115 31.6969C23.4755 31.1436 22.9395 30.5269 22.4093 29.8526C22.928 29.8757 23.4582 29.893 23.9942 29.893C24.536 29.893 25.072 29.8815 25.5965 29.8526C25.0777 30.5269 24.5418 31.1436 24.0115 31.6969ZM19.7236 28.3023C18.9052 28.1813 18.1156 28.0314 17.3606 27.847C17.5739 27.1035 17.839 26.337 18.1387 25.5705C18.375 26.0315 18.6228 26.4926 18.8937 26.9537C19.1646 27.4147 19.4412 27.8643 19.7236 28.3023ZM23.9827 16.3088C24.5187 16.862 25.0547 17.4787 25.5849 18.153C25.0662 18.13 24.536 18.1127 24 18.1127C23.4582 18.1127 22.9223 18.1242 22.3978 18.153C22.9165 17.4787 23.4525 16.862 23.9827 16.3088ZM19.7178 19.7034C19.4354 20.1472 19.153 20.6025 18.8879 21.0693C18.6228 21.5304 18.375 21.9914 18.1387 22.4525C17.8275 21.6802 17.5623 20.9079 17.3433 20.1587C18.0983 19.98 18.8937 19.8244 19.7178 19.7034ZM14.502 26.9191C12.4618 26.0488 11.142 24.9077 11.142 24.0028C11.142 23.098 12.4618 21.9511 14.502 21.0866C14.9976 20.8733 15.5394 20.6831 16.0984 20.5045C16.427 21.6341 16.8592 22.8098 17.3952 24.0144C16.865 25.2131 16.4385 26.3831 16.1157 27.507C15.5452 27.3283 15.0034 27.1323 14.502 26.9191ZM17.6027 35.1549C16.8189 34.7054 16.4788 32.9937 16.7439 30.7921C16.8073 30.2503 16.9111 29.6797 17.0379 29.0976C18.1675 29.3743 19.4008 29.5875 20.6976 29.7258C21.4757 30.7921 22.2825 31.7603 23.0952 32.6075C21.2163 34.3538 19.4527 35.3105 18.2539 35.3105C17.9946 35.3048 17.7756 35.2529 17.6027 35.1549ZM31.2734 30.7632C31.5442 32.9648 31.21 34.6766 30.4319 35.1319C30.259 35.2356 30.0342 35.2817 29.7691 35.2817C28.5761 35.2817 26.8068 34.3308 24.9279 32.596C25.7348 31.7488 26.5416 30.7863 27.3082 29.7201C28.6107 29.5818 29.844 29.3685 30.9737 29.0861C31.1062 29.6682 31.21 30.2273 31.2734 30.7632ZM33.4922 26.9191C32.9966 27.1323 32.4548 27.3225 31.8958 27.5012C31.5673 26.3716 31.135 25.1958 30.599 23.9913C31.1293 22.7925 31.5558 21.6226 31.8785 20.4987C32.4491 20.6774 32.9908 20.8733 33.498 21.0866C35.5382 21.9568 36.858 23.098 36.858 24.0028C36.8523 24.9077 35.5325 26.0546 33.4922 26.9191Z" fill="#61DAFB"/>
<path d="M23.9943 26.6367C25.4489 26.6367 26.6281 25.4575 26.6281 24.0029C26.6281 22.5482 25.4489 21.369 23.9943 21.369C22.5396 21.369 21.3604 22.5482 21.3604 24.0029C21.3604 25.4575 22.5396 26.6367 23.9943 26.6367Z" fill="#61DAFB"/>
</svg>
